<?xml version="1.0" encoding="utf-8"?>
<!-- Generator: Adobe Illustrator 27.5.0, SVG Export Plug-In . SVG Version: 6.00 Build 0)  -->
<svg version="1.1" id="Calque_1" xmlns="http://www.w3.org/2000/svg" xmlns:xlink="http://www.w3.org/1999/xlink" x="0px" y="0px"
	 viewBox="0 0 1920 1080" style="enable-background:new 0 0 1920 1080;" xml:space="preserve">
<style type="text/css">
	.st0{fill:#07A2CF;}
	.st1{opacity:0.3;}
	.st2{fill:#FFFFFF;}
	.st3{opacity:0.33;}
	.st4{opacity:0.5;}
	.st5{opacity:0.32;}
	.st6{opacity:0.58;}
	.st7{opacity:0.35;}
	.st8{opacity:0.55;}
</style>
<polygon class="st0" points="1920.2,599.4 0.2,806.4 -0.2,0 1920.2,0 "/>
<g class="st1">
	<g id="LTCZ4Q.tif" transform="translate(23.941 17.279)">
		<g id="Groupe_272" transform="translate(75.543 109.569)">
			<path id="Tracé_474" class="st2" d="M1487.7,6.7c3.1-1.2,6.2-2.2,9.5-2.6c4.7-0.8,9.2-1.1,13.9-0.9c2.6,0,5.3,0.6,7.8,1.4
				c4.1,1.6,7.3,4.7,9,8.7l0.5,0.9c1.9-1.9,3.9-3.6,6.1-5c5-3.1,10.6-5.1,16.5-5.8c4.7-0.8,9.5-0.5,14,0.8c9,2.8,14.5,8.7,16.1,18.2
				c0.6,4.7,0.3,9.4-0.9,13.9c-1.7,7.6-4.2,15.3-6.2,22.9c-0.3,0.9-0.3,1.9-0.3,2.8c0,1.1,0.9,1.9,1.9,1.9h0.2
				c1.1,0,2.2-0.3,3.1-0.8c1.2-0.6,2.5-1.1,3.9-1.7c-0.6,2.5-1.2,5-1.9,7.3c-1.7,6.9-3.4,13.7-5.1,20.6c0,0.5-0.5,0.9-0.9,1.1
				c-7.3,3-15.1,4.2-22.9,3.9c-5.6,0-10.9-2-15.3-5.5c-3.7-3.1-5.9-7.8-6.4-12.6c-0.3-4.7,0.5-9.5,2-14c1.7-5.6,3.3-11.4,4.8-17
				c0.6-1.6,0.6-3.3,0-4.8c-0.3-0.9-1.1-1.6-2.2-1.4c-1.7,0-3.3,0.8-4.4,2c-1.7,2-2.8,4.5-3.4,7c-1.7,5.1-2.8,10.4-4.2,15.7
				c-2.3,9.2-4.7,18.5-7,27.7c-0.2,0.5-0.3,0.8-0.9,0.6c-13.1,0-26.2,0-39.1,0c-0.6,0-0.8-0.2-0.6-0.8c4.4-17.3,8.9-34.4,13.2-51.7
				c1.1-4.4,2.3-8.7,3.3-13.1c1.4-5.3,0.8-11.1-1.6-16.1C1489.6,9.1,1488.7,7.8,1487.7,6.7z"/>
			<path id="Tracé_475" class="st2" d="M1620.2,96c-8.3,0-16.7-0.8-24.8-2.3c-4.1-0.8-7.9-2-11.7-3.4c-0.5-0.2-0.5-0.3-0.5-0.9
				c2.2-8.4,4.2-16.8,6.2-25.2c0.2-0.8,0.5-0.6,0.9-0.3c5.5,2.3,11.1,3.9,17,5c3.3,0.6,6.5,0.6,9.8,0.2c1.1,0,2.2-0.9,2.3-2
				c0.3-1.2-0.2-2.6-1.2-3.4c-1.2-0.8-2.5-1.4-3.9-1.9c-3.9-1.4-7.9-2.5-11.7-4.2c-3.9-1.6-7.3-3.7-10.4-6.5
				c-4.1-3.6-6.4-8.9-6.4-14.2c-0.3-5,0.6-10,2.8-14.5c2.8-5.3,7.2-9.5,12.6-12c5-2.3,10.1-3.9,15.6-4.5c5.6-0.8,11.4-1.1,17-1.1
				c10.4,0.2,20.9,2.5,30.5,6.7c1.4,0.6,2.8,1.2,4.2,1.9c0.5,0.2,0.6,0.5,0.5,1.1c-3.3,7.8-6.4,15.4-9.7,23.2
				c-0.3,0.6-0.5,0.6-1.1,0.3c-4.5-2.6-9.4-4.7-14.5-5.9c-3.6-0.9-7.3-1.2-11.1-0.8c-0.5,0-0.9,0.2-1.2,0.2c-1.1,0.2-2,1.1-2.2,2.2
				c-0.2,1.2,0.5,2.3,1.6,3c1.1,0.6,2.3,1.1,3.6,1.6c4.2,1.6,8.6,2.8,12.8,4.5c3.4,1.2,6.5,3.3,9.2,5.8c4.2,4.2,6.7,9.8,6.9,15.7
				c0.2,4.5-0.5,9-2.2,13.1c-2.8,6.5-7.9,11.7-14.5,14.5c-4.7,2-9.7,3.4-14.8,4.1C1628,95.9,1624.1,96,1620.2,96z"/>
			<path id="Tracé_476" class="st2" d="M1433.3,72.3c0.2-4.2,0.8-8.3,2-12.2c2.2-7.8,4.2-15.7,6.2-23.5c0.2-0.8,0.2-1.6,0.2-2.3
				c-0.2-1.4-1.2-2.3-2.6-2.3c-2.2,0.2-4.4,0.6-6.2,1.7c-0.8,0.3-0.9,0.3-1.2-0.5c-1.9-6.9-3.7-13.9-5.8-20.7
				c-0.2-0.5-0.2-0.8,0.3-1.1c5.9-3.3,12-5.9,18.4-7.9c4.2-1.2,8.7-1.9,13.1-2c3.9-0.3,7.9,0,11.8,0.9c8.3,1.9,14.2,9,14.3,17.5
				c0.2,4.4-0.5,8.6-1.7,12.8c-3.7,14.3-7.5,28.8-11.1,43.2c-1.2,5-2.6,10.1-3.9,15.1c0,0.5-0.5,0.9-1.1,0.9c-2.5,0.3-5,0.6-7.5,0.8
				c-2.3,0-4.5-0.2-6.9-0.5c-2.8-0.3-5.8-1.1-8.4-2.2c-5.5-2.3-9.2-7.3-10-13.2C1433.3,75.1,1433.3,73.7,1433.3,72.3z"/>
			<path id="Tracé_477" class="st2" d="M1471.2-7.8c-4.4,0.2-8.7-0.8-12.6-2.6c-6.7-3.3-10.4-10.4-9.5-17.8
				c0.8-7.6,6.5-13.9,14.2-15.1c6.1-1.4,12.3-0.9,18.2,0.9c6.1,2.2,10.3,6.5,11.4,13.1c2,9.4-3.9,18.4-13.2,20.4c0,0,0,0-0.2,0
				C1476.8-7.9,1474-7.6,1471.2-7.8z"/>
		</g>
	</g>
	<g id="LTCZ4Q.tif_1_" transform="translate(23.941 17.279)" class="st3">
		<g id="Groupe_272_1_" transform="translate(75.543 109.569)">
			<path id="Tracé_474_1_" class="st2" d="M1302.1,75.9c1.2-0.5,2.5-0.9,3.7-1.1c1.9-0.3,3.7-0.5,5.6-0.3c1.1,0,2.2,0.2,3.1,0.6
				c1.6,0.6,3,1.9,3.6,3.4l0.2,0.3c0.8-0.8,1.6-1.4,2.5-2c2-1.2,4.2-2,6.5-2.3c1.9-0.3,3.7-0.2,5.6,0.3c3.6,1.1,5.8,3.4,6.4,7.2
				c0.3,1.9,0.2,3.7-0.3,5.6c-0.8,3.1-1.7,6.1-2.5,9.2c-0.2,0.3-0.2,0.8-0.2,1.1c0,0.5,0.3,0.8,0.8,0.8l0,0c0.5,0,0.8-0.2,1.2-0.3
				s0.9-0.5,1.6-0.6c-0.3,0.9-0.5,2-0.8,3c-0.6,2.8-1.4,5.5-2,8.3c0,0.2-0.2,0.3-0.3,0.5c-3,1.1-6.1,1.7-9.2,1.6
				c-2.2,0-4.4-0.8-6.1-2.2c-1.4-1.2-2.3-3.1-2.5-5s0.2-3.7,0.8-5.6c0.6-2.2,1.2-4.5,1.9-6.7c0.2-0.6,0.2-1.2,0-1.9
				c-0.2-0.3-0.5-0.6-0.8-0.6c-0.6,0-1.4,0.3-1.7,0.8c-0.6,0.8-1.1,1.7-1.4,2.8c-0.6,2-1.1,4.2-1.7,6.2c-0.9,3.7-1.9,7.3-2.8,11.1
				c0,0.2-0.2,0.3-0.3,0.3c-5.1,0-10.4,0-15.6,0c-0.3,0-0.3,0-0.2-0.3c1.7-6.9,3.6-13.7,5.3-20.7c0.5-1.7,0.9-3.4,1.2-5.3
				c0.5-2.2,0.3-4.4-0.6-6.4C1302.9,76.9,1302.4,76.4,1302.1,75.9z"/>
			<path id="Tracé_475_1_" class="st2" d="M1354.9,111.6c-3.3,0-6.7-0.3-9.8-0.9c-1.6-0.3-3.1-0.8-4.7-1.4
				c-0.2-0.2-0.2-0.2-0.2-0.3c0.8-3.4,1.7-6.7,2.5-10.1c0-0.3,0.2-0.2,0.3-0.2c2.2,0.9,4.4,1.6,6.7,2c1.2,0.3,2.6,0.3,3.9,0
				c0.5,0,0.8-0.3,0.9-0.8c0.2-0.5,0-1.1-0.5-1.4s-0.9-0.6-1.6-0.8c-1.6-0.6-3.1-0.9-4.7-1.7c-1.6-0.6-3-1.6-4.2-2.6
				c-1.6-1.4-2.5-3.6-2.5-5.6c-0.2-2,0.3-4.1,1.1-5.8c1.1-2,3-3.7,5-4.8c2-0.9,4.1-1.6,6.2-1.9s4.5-0.5,6.9-0.5
				c4.2,0,8.3,0.9,12.2,2.6c0.6,0.3,1.1,0.5,1.7,0.8c0.2,0.2,0.3,0.2,0.2,0.5c-1.2,3.1-2.5,6.2-3.9,9.2c-0.2,0.3-0.2,0.3-0.5,0.2
				c-1.9-1.1-3.7-1.9-5.8-2.3c-1.4-0.3-3-0.5-4.4-0.3c-0.2,0-0.3,0-0.5,0.2c-0.5,0-0.8,0.5-0.9,0.9c0,0.5,0.2,0.9,0.6,1.1
				c0.5,0.3,0.9,0.5,1.4,0.6c1.7,0.6,3.4,1.1,5.1,1.9c1.4,0.5,2.6,1.2,3.7,2.3c1.7,1.7,2.6,3.9,2.6,6.2c0.2,1.7-0.2,3.6-0.9,5.3
				c-1.1,2.6-3.1,4.7-5.8,5.8c-1.9,0.8-3.9,1.4-5.9,1.6C1358.1,111.4,1356.5,111.6,1354.9,111.6z"/>
			<path id="Tracé_476_1_" class="st2" d="M1280.4,102.1c0-1.7,0.3-3.3,0.8-4.8c0.8-3.1,1.7-6.2,2.5-9.4c0-0.3,0.2-0.6,0-0.9
				c0-0.5-0.5-0.9-1.1-0.9c-0.9,0-1.7,0.3-2.5,0.6c-0.3,0.2-0.5,0.2-0.5-0.2c-0.8-2.8-1.6-5.5-2.3-8.3c0-0.2,0-0.3,0.2-0.5
				c2.3-1.2,4.8-2.3,7.3-3.1c1.7-0.5,3.4-0.8,5.1-0.8c1.6-0.2,3.1,0,4.7,0.3c3.3,0.8,5.6,3.6,5.8,7c0,1.7-0.2,3.4-0.6,5.1
				c-1.6,5.8-3,11.5-4.4,17.3c-0.5,2-1.1,4.1-1.6,6.1c0,0.2-0.2,0.3-0.5,0.3c-0.9,0.2-2,0.3-3,0.3s-1.9,0-2.6-0.2
				c-1.1-0.2-2.3-0.5-3.3-0.9c-2.2-0.9-3.7-3-3.9-5.3C1280.4,103.2,1280.4,102.7,1280.4,102.1z"/>
			<path id="Tracé_477_1_" class="st2" d="M1295.6,70.2c-1.7,0-3.4-0.3-5-1.1c-2.6-1.2-4.2-4.2-3.7-7c0.3-3.1,2.6-5.5,5.6-6.1
				c2.3-0.5,5-0.5,7.3,0.5c2.5,0.9,4.1,2.6,4.5,5.1c0.8,3.7-1.6,7.3-5.3,8.1l0,0C1297.7,70,1296.7,70.2,1295.6,70.2z"/>
		</g>
	</g>
	<g id="LTCZ4Q.tif_2_" transform="translate(23.941 17.279)" class="st4">
		<g id="Groupe_272_2_" transform="translate(75.543 109.569)">
			<path id="Tracé_474_2_" class="st2" d="M1371.8,193.9c0.8-0.3,1.6-0.6,2.5-0.6c1.2-0.2,2.3-0.3,3.6-0.2c0.6,0,1.4,0.2,2,0.3
				c1.1,0.5,1.9,1.2,2.3,2.2l0.2,0.3c0.5-0.5,1.1-0.9,1.6-1.2c1.2-0.8,2.8-1.4,4.2-1.6c1.2-0.2,2.5-0.2,3.6,0.2
				c2.3,0.8,3.7,2.2,4.2,4.7c0.2,1.2,0,2.5-0.3,3.6c-0.5,2-1.1,3.9-1.6,5.9c0,0.2-0.2,0.5-0.2,0.8s0.2,0.5,0.5,0.5l0,0
				c0.3,0,0.6-0.2,0.8-0.2c0.3-0.2,0.6-0.3,0.9-0.5c-0.2,0.6-0.3,1.2-0.5,1.9c-0.5,1.7-0.9,3.6-1.4,5.3c0,0.2-0.2,0.3-0.3,0.3
				c-1.9,0.8-3.9,1.1-5.9,0.9c-1.4,0-2.8-0.5-3.9-1.4c-0.9-0.8-1.6-2-1.7-3.3c0-1.2,0.2-2.5,0.5-3.6c0.5-1.4,0.8-3,1.2-4.4
				c0.2-0.5,0.2-0.8,0-1.2c0-0.3-0.3-0.5-0.6-0.3c-0.5,0-0.8,0.2-1.1,0.5c-0.5,0.5-0.8,1.1-0.9,1.9c-0.5,1.4-0.8,2.6-1.1,4.1
				c-0.6,2.3-1.2,4.8-1.9,7.2c0,0.2-0.2,0.2-0.3,0.2c-3.4,0-6.7,0-10.1,0c-0.2,0-0.2,0-0.2-0.2c1.1-4.5,2.3-8.9,3.4-13.4
				c0.3-1.1,0.6-2.2,0.8-3.4c0.3-1.4,0.2-2.8-0.5-4.1C1372.2,194.5,1371.9,194.2,1371.8,193.9z"/>
			<path id="Tracé_475_2_" class="st2" d="M1405.9,217c-2.2,0-4.4-0.2-6.4-0.6c-1.1-0.2-2-0.5-3-0.9c-0.2,0-0.2-0.2-0.2-0.2
				c0.6-2.2,1.1-4.4,1.6-6.5c0-0.2,0.2-0.2,0.3-0.2c1.4,0.6,2.8,1.1,4.4,1.2c0.8,0.2,1.7,0.2,2.5,0c0.3,0,0.6-0.3,0.6-0.5
				c0.2-0.3,0-0.6-0.3-0.9c-0.3-0.2-0.6-0.3-0.9-0.5c-0.9-0.3-2-0.6-3-1.1s-1.9-0.9-2.6-1.7c-1.1-0.9-1.6-2.3-1.7-3.7
				c-0.2-1.2,0.2-2.6,0.8-3.7c0.8-1.4,1.9-2.5,3.3-3.1c1.2-0.6,2.6-0.9,4.1-1.2c1.4-0.2,3-0.3,4.4-0.3c2.6,0,5.5,0.6,7.9,1.7
				c0.3,0.2,0.8,0.3,1.1,0.5c0.2,0,0.2,0.2,0.2,0.3c-0.8,2-1.7,4.1-2.5,5.9c0,0.2-0.2,0.2-0.3,0.2c-1.2-0.6-2.5-1.2-3.7-1.6
				c-0.9-0.3-1.9-0.3-2.8-0.2c-0.2,0-0.2,0-0.3,0c-0.3,0-0.5,0.3-0.6,0.6c0,0.3,0.2,0.6,0.3,0.8c0.3,0.2,0.6,0.3,0.9,0.5
				c1.1,0.5,2.2,0.8,3.3,1.1c0.9,0.3,1.7,0.8,2.3,1.6c1.1,1.1,1.7,2.5,1.7,4.1c0,1.1-0.2,2.3-0.6,3.4c-0.8,1.7-2,3-3.7,3.7
				c-1.2,0.5-2.5,0.9-3.9,1.1C1407.9,217,1406.8,217.1,1405.9,217z"/>
			<path id="Tracé_476_2_" class="st2" d="M1357.7,210.9c0-1.1,0.2-2.2,0.5-3.1c0.6-2,1.1-4.1,1.6-6.1c0-0.2,0-0.5,0-0.6
				c0-0.3-0.3-0.6-0.6-0.6c-0.6,0-1.1,0.2-1.6,0.5c-0.2,0-0.3,0-0.3-0.2c-0.5-1.7-0.9-3.6-1.4-5.3c0-0.2,0-0.2,0.2-0.3
				c1.6-0.8,3.1-1.6,4.7-2c1.1-0.3,2.2-0.5,3.4-0.5c1.1,0,2,0,3.1,0.2c2.2,0.5,3.6,2.3,3.7,4.5c0,1.1-0.2,2.2-0.5,3.3
				c-0.9,3.7-1.9,7.5-2.8,11.2c-0.3,1.2-0.6,2.6-0.9,3.9c0,0.2-0.2,0.3-0.3,0.2c-0.6,0.2-1.2,0.2-1.9,0.2c-0.6,0-1.2,0-1.7-0.2
				c-0.8-0.2-1.4-0.3-2.2-0.6c-1.4-0.6-2.3-1.9-2.5-3.4C1357.7,211.7,1357.7,211.3,1357.7,210.9z"/>
			<path id="Tracé_477_2_" class="st2" d="M1367.4,190.3c-1.1,0-2.2-0.2-3.3-0.6c-1.7-0.8-2.6-2.6-2.5-4.5c0.2-2,1.7-3.6,3.6-3.9
				c1.6-0.3,3.1-0.3,4.7,0.3s2.6,1.7,3,3.4c0.5,2.3-1.1,4.8-3.4,5.3l0,0C1369,190.1,1368.2,190.3,1367.4,190.3z"/>
		</g>
	</g>
	<g id="LTCZ4Q.tif_3_" transform="translate(23.941 17.279)" class="st5">
		<g id="Groupe_272_3_" transform="translate(75.543 109.569)">
			<path id="Tracé_474_3_" class="st2" d="M1449.7,275.4c1.6-0.6,3.3-1.1,5-1.4c2.3-0.5,4.8-0.6,7.3-0.5c1.4,0,2.8,0.3,4.1,0.8
				c2.2,0.8,3.9,2.5,4.7,4.5l0.2,0.5c0.9-0.9,2-1.9,3.3-2.6c2.6-1.7,5.6-2.6,8.6-3c2.5-0.5,5-0.3,7.3,0.3c4.7,1.4,7.6,4.5,8.4,9.5
				c0.3,2.5,0.2,4.8-0.5,7.3c-0.9,4.1-2.2,7.9-3.3,12c-0.2,0.5-0.2,0.9-0.2,1.4s0.5,0.9,0.9,0.9c0,0,0,0,0.2,0
				c0.6,0,1.1-0.2,1.6-0.5c0.6-0.3,1.2-0.6,2-0.9c-0.3,1.2-0.6,2.5-0.9,3.9c-0.9,3.6-1.9,7.2-2.6,10.8c0,0.3-0.2,0.5-0.5,0.6
				c-3.7,1.6-7.8,2.2-12,2c-3,0-5.8-1.1-7.9-2.8c-1.9-1.7-3.1-4.1-3.3-6.5s0.2-5,1.1-7.3c0.9-3,1.7-5.9,2.5-8.9
				c0.3-0.8,0.3-1.7,0-2.5c-0.2-0.5-0.6-0.8-1.1-0.8c-0.9,0-1.7,0.5-2.3,1.1c-0.8,1.1-1.4,2.3-1.9,3.6c-0.9,2.6-1.4,5.5-2.2,8.3
				c-1.2,4.8-2.5,9.7-3.6,14.5c0,0.3-0.2,0.3-0.5,0.3c-6.9,0-13.6,0-20.4,0c-0.3,0-0.3,0-0.3-0.5c2.3-9,4.5-17.9,6.9-27
				c0.6-2.3,1.2-4.5,1.7-6.9c0.8-2.8,0.5-5.8-0.8-8.3C1450.6,276.6,1450.2,276,1449.7,275.4z"/>
			<path id="Tracé_475_3_" class="st2" d="M1518.7,322c-4.4,0-8.7-0.5-12.9-1.2c-2-0.5-4.1-1.1-6.1-1.9c-0.3-0.2-0.3-0.2-0.2-0.5
				c1.1-4.4,2.2-8.7,3.3-13.2c0.2-0.5,0.3-0.3,0.5-0.2c2.8,1.2,5.8,2,8.9,2.5c1.7,0.3,3.4,0.3,5.1,0c0.6,0,1.1-0.5,1.2-1.1
				c0.2-0.6,0-1.4-0.6-1.7c-0.6-0.5-1.2-0.8-2-0.9c-2-0.8-4.1-1.2-6.1-2.2c-2-0.8-3.9-2-5.5-3.4c-2-1.9-3.3-4.5-3.3-7.5
				c-0.2-2.6,0.3-5.3,1.4-7.6c1.4-2.8,3.7-5,6.5-6.2c2.5-1.2,5.3-2,8.1-2.3c3-0.5,5.9-0.6,8.9-0.5c5.5,0.2,10.9,1.2,15.9,3.4
				c0.8,0.3,1.4,0.6,2.2,0.9c0.3,0.2,0.3,0.2,0.2,0.5c-1.7,4.1-3.3,8.1-5,12.2c-0.2,0.3-0.3,0.3-0.6,0.2c-2.3-1.4-4.8-2.3-7.5-3.1
				c-1.9-0.5-3.9-0.6-5.8-0.5c-0.2,0-0.5,0-0.6,0.2c-0.6,0.2-1.1,0.6-1.1,1.1c-0.2,0.6,0.2,1.2,0.8,1.6c0.6,0.3,1.2,0.6,1.9,0.8
				c2.2,0.8,4.5,1.4,6.7,2.3c1.7,0.6,3.4,1.7,4.8,3c2.2,2.2,3.4,5.1,3.6,8.3c0.2,2.3-0.3,4.7-1.1,6.9c-1.4,3.4-4.2,6.1-7.6,7.5
				c-2.5,1.1-5.1,1.7-7.8,2C1522.8,322,1520.8,322,1518.7,322z"/>
			<path id="Tracé_476_3_" class="st2" d="M1421.3,309.7c0-2.2,0.5-4.4,1.1-6.4c1.1-4.1,2.2-8.1,3.3-12.3c0.2-0.5,0.2-0.8,0-1.2
				c0-0.6-0.6-1.2-1.4-1.2c-1.1,0-2.2,0.3-3.3,0.9c-0.3,0.2-0.5,0.2-0.6-0.3c-0.9-3.6-2-7.2-3-10.8c0-0.3,0-0.5,0.2-0.6
				c3.1-1.7,6.2-3.1,9.5-4.2c2.2-0.6,4.5-0.9,6.9-1.1c2-0.2,4.2,0,6.1,0.5c4.2,0.9,7.3,4.7,7.5,9c0,2.2-0.2,4.5-0.8,6.7
				c-1.9,7.5-3.9,15-5.8,22.6c-0.6,2.6-1.4,5.3-2,7.9c0,0.3-0.3,0.5-0.5,0.5c-1.2,0.2-2.6,0.3-3.9,0.5c-1.2,0-2.3,0-3.6-0.3
				c-1.6-0.2-3-0.6-4.4-1.1c-2.8-1.2-4.8-3.9-5.1-6.9C1421.5,311.2,1421.3,310.5,1421.3,309.7z"/>
			<path id="Tracé_477_3_" class="st2" d="M1441.1,267.9c-2.3,0-4.5-0.5-6.5-1.4c-3.4-1.7-5.5-5.5-5-9.2c0.3-4.1,3.4-7.2,7.3-7.8
				c3.1-0.6,6.4-0.5,9.5,0.5c3.3,1.1,5.3,3.4,5.9,6.9c1.1,4.8-2,9.7-6.9,10.6l0,0C1444.1,267.8,1442.7,267.9,1441.1,267.9z"/>
		</g>
	</g>
	<g id="LTCZ4Q.tif_4_" transform="translate(23.941 17.279)" class="st6">
		<g id="Groupe_272_4_" transform="translate(75.543 109.569)">
			<path id="Tracé_474_4_" class="st2" d="M1273,348.2c1.9-0.8,4.1-1.4,6.1-1.7c3-0.5,5.9-0.6,8.9-0.6c1.7,0,3.4,0.3,5,0.9
				c2.6,0.9,4.7,3,5.8,5.6l0.3,0.6c1.2-1.2,2.5-2.2,3.9-3.1c3.1-2,6.9-3.3,10.6-3.7c3-0.5,6.1-0.3,9,0.5c5.8,1.7,9.2,5.6,10.3,11.5
				c0.3,3,0.2,6.1-0.6,8.9c-1.1,5-2.6,9.8-4.1,14.6c-0.2,0.6-0.3,1.1-0.2,1.7c0,0.6,0.6,1.2,1.2,1.2c0,0,0,0,0.2,0
				c0.6,0,1.4-0.2,2-0.5c0.8-0.3,1.6-0.6,2.5-1.1c-0.5,1.6-0.8,3.1-1.1,4.7c-1.1,4.4-2.2,8.7-3.3,13.1c0,0.3-0.3,0.6-0.6,0.6
				c-4.7,1.9-9.7,2.6-14.6,2.5c-3.6,0-7-1.2-9.7-3.4c-2.3-2-3.9-5-4.1-8.1c-0.2-3,0.3-6.1,1.2-8.9c1.1-3.6,2-7.2,3.1-10.9
				c0.3-0.9,0.3-2,0-3.1c-0.2-0.6-0.8-0.9-1.4-0.9c-1.1,0-2.2,0.5-2.8,1.4c-1.1,1.2-1.9,2.8-2.2,4.5c-1.1,3.3-1.7,6.7-2.6,10.1
				c-1.6,5.9-3,11.8-4.5,17.8c-0.2,0.3-0.2,0.5-0.6,0.5c-8.4,0-16.7,0-25.1,0c-0.5,0-0.5-0.2-0.3-0.5c2.8-11.1,5.6-22.1,8.4-33
				c0.8-2.8,1.6-5.6,2-8.4c0.9-3.4,0.5-7-0.9-10.3C1274.1,349.7,1273.6,348.8,1273,348.2z"/>
			<path id="Tracé_475_4_" class="st2" d="M1357.6,405.2c-5.3,0-10.6-0.5-15.9-1.4c-2.5-0.5-5-1.2-7.5-2.2
				c-0.3-0.2-0.3-0.3-0.3-0.6c1.4-5.5,2.6-10.8,4.1-16.2c0.2-0.5,0.3-0.3,0.6-0.2c3.4,1.4,7.2,2.5,10.8,3.1c2,0.5,4.2,0.5,6.2,0.2
				c0.8,0,1.4-0.6,1.6-1.2c0.2-0.8-0.2-1.7-0.8-2.2c-0.8-0.5-1.6-0.9-2.5-1.1c-2.5-0.9-5-1.6-7.5-2.6c-2.5-0.9-4.7-2.3-6.7-4.2
				c-2.6-2.3-4.1-5.6-4.1-9c-0.2-3.3,0.5-6.4,1.9-9.4c1.7-3.4,4.7-6.1,8.1-7.6c3.1-1.6,6.5-2.5,10-3c3.6-0.5,7.3-0.8,10.9-0.6
				c6.7,0.2,13.4,1.6,19.5,4.2c0.9,0.3,1.7,0.8,2.6,1.2c0.3,0.2,0.5,0.3,0.3,0.6c-2,5-4.1,9.8-6.1,14.8c-0.2,0.5-0.3,0.5-0.6,0.2
				c-3-1.7-5.9-3-9.2-3.9c-2.3-0.6-4.7-0.8-7-0.5c-0.3,0-0.6,0.2-0.8,0.2c-0.8,0.2-1.2,0.6-1.4,1.4c-0.2,0.8,0.3,1.6,0.9,1.9
				c0.8,0.5,1.6,0.8,2.3,0.9c2.6,0.9,5.5,1.7,8.3,2.8c2.2,0.8,4.2,2,5.9,3.7c2.6,2.6,4.2,6.2,4.4,10.1c0.2,2.8-0.3,5.8-1.4,8.4
				c-1.7,4.2-5.1,7.5-9.4,9.2c-3,1.2-6.2,2.2-9.5,2.5C1362.6,405.1,1360.1,405.2,1357.6,405.2z"/>
			<path id="Tracé_476_4_" class="st2" d="M1238.2,390.1c0-2.6,0.5-5.3,1.2-7.8c1.4-5,2.6-10,4.1-15c0.2-0.5,0.2-0.9,0-1.6
				c-0.2-0.8-0.8-1.6-1.7-1.4c-1.4,0-2.8,0.5-3.9,1.1c-0.5,0.2-0.6,0.2-0.8-0.3c-1.2-4.4-2.3-8.9-3.6-13.2c-0.2-0.3-0.2-0.5,0.2-0.6
				c3.7-2,7.6-3.7,11.7-5.1c2.6-0.8,5.5-1.2,8.4-1.2c2.5-0.2,5.1,0,7.5,0.6c5.3,1.2,9,5.8,9.2,11.1c0.2,2.8-0.3,5.5-1.1,8.1
				c-2.3,9.2-4.7,18.4-7.2,27.6c-0.8,3.3-1.7,6.4-2.5,9.7c0,0.3-0.3,0.6-0.6,0.6c-1.6,0.2-3.1,0.3-4.8,0.5c-1.4,0-3,0-4.4-0.3
				c-1.9-0.2-3.6-0.6-5.3-1.4c-3.4-1.6-5.9-4.7-6.4-8.4C1238.2,392,1238.2,391,1238.2,390.1z"/>
			<path id="Tracé_477_4_" class="st2" d="M1262.4,339c-2.8,0.2-5.6-0.5-8.1-1.7c-4.2-2-6.7-6.7-6.1-11.4c0.5-4.8,4.2-8.9,9-9.7
				c3.9-0.9,7.9-0.6,11.7,0.6c3.9,1.4,6.5,4.2,7.3,8.4c1.2,5.9-2.5,11.8-8.4,13.1l0,0C1266,338.8,1264.2,339,1262.4,339z"/>
		</g>
	</g>
	<g id="LTCZ4Q.tif_5_" transform="translate(23.941 17.279)" class="st7">
		<g id="Groupe_272_5_" transform="translate(75.543 109.569)">
			<path id="Tracé_474_5_" class="st2" d="M1141.3,179.9c2.6-1.1,5.3-1.9,8.1-2.3c3.9-0.6,7.8-0.9,11.8-0.8c2.2,0,4.5,0.5,6.5,1.2
				c3.4,1.2,6.2,4.1,7.6,7.5l0.3,0.8c1.6-1.6,3.3-3,5.1-4.2c4.2-2.6,9-4.4,14-5c3.9-0.6,7.9-0.5,11.8,0.6
				c7.6,2.3,12.3,7.5,13.6,15.4c0.5,3.9,0.2,7.9-0.8,11.8c-1.6,6.5-3.6,12.9-5.3,19.3c-0.3,0.8-0.3,1.6-0.3,2.3
				c0,0.9,0.8,1.6,1.7,1.6h0.2c0.9,0,1.9-0.3,2.6-0.6c1.1-0.5,2.2-0.9,3.3-1.4c-0.5,2.2-1.1,4.2-1.6,6.2c-1.4,5.8-3,11.7-4.4,17.5
				c0,0.5-0.3,0.8-0.8,0.9c-6.2,2.5-12.8,3.6-19.5,3.3c-4.7,0-9.2-1.7-12.9-4.7c-3.1-2.6-5.1-6.5-5.5-10.6
				c-0.2-4.1,0.3-8.1,1.7-11.8c1.4-4.8,2.8-9.5,4.1-14.3c0.5-1.4,0.5-2.8,0-4.1c-0.3-0.8-0.9-1.2-1.9-1.2c-1.4,0-2.8,0.6-3.7,1.7
				c-1.4,1.7-2.3,3.7-3,5.9c-1.4,4.4-2.3,8.9-3.4,13.4c-2,7.8-3.9,15.6-5.9,23.5c-0.2,0.5-0.3,0.6-0.8,0.6c-11.1,0-22.1,0-33.2,0
				c-0.6,0-0.6-0.2-0.5-0.6c3.7-14.6,7.5-29.3,11.2-43.9c0.9-3.7,2-7.3,2.8-11.1c1.1-4.5,0.6-9.4-1.2-13.6
				C1143,181.9,1142.2,180.8,1141.3,179.9z"/>
			<path id="Tracé_475_5_" class="st2" d="M1253.6,255.6c-7,0-14-0.6-21-2c-3.4-0.6-6.7-1.7-10-3c-0.5-0.2-0.5-0.3-0.3-0.8
				c1.9-7.2,3.6-14.3,5.3-21.5c0.2-0.6,0.5-0.5,0.8-0.3c4.7,2,9.4,3.3,14.3,4.2c2.8,0.5,5.5,0.6,8.3,0.2c0.9,0,1.9-0.8,2-1.7
				c0.3-1.1-0.2-2.2-1.1-2.8s-2-1.1-3.3-1.6c-3.3-1.2-6.7-2.2-10-3.6c-3.3-1.4-6.2-3.3-8.9-5.6c-3.4-3.1-5.3-7.5-5.5-12
				c-0.3-4.2,0.5-8.6,2.3-12.3c2.3-4.5,6.1-7.9,10.8-10.1c4.2-2,8.6-3.3,13.2-3.9c4.8-0.6,9.7-0.9,14.5-0.9c8.9,0.2,17.8,2,25.9,5.6
				c1.2,0.5,2.3,1.1,3.6,1.6c0.5,0.2,0.6,0.3,0.3,0.9c-2.8,6.5-5.5,13.1-8.1,19.6c-0.3,0.6-0.5,0.5-0.9,0.3
				c-3.9-2.2-7.9-3.9-12.2-5.1c-3.1-0.8-6.2-1.1-9.4-0.6c-0.3,0-0.8,0.2-1.1,0.2c-0.9,0.2-1.7,0.9-1.9,1.9c-0.2,0.9,0.3,2,1.2,2.5
				c0.9,0.5,2,0.9,3,1.2c3.6,1.2,7.3,2.3,10.9,3.7c3,1.1,5.6,2.8,7.8,4.8c3.6,3.6,5.6,8.3,5.8,13.4c0.2,3.7-0.5,7.6-1.9,11.2
				c-2.3,5.5-6.9,10-12.3,12.2c-4.1,1.7-8.3,3-12.6,3.4C1260.2,255.4,1256.9,255.6,1253.6,255.6z"/>
			<path id="Tracé_476_5_" class="st2" d="M1095.3,235.7c0-3.4,0.6-7,1.7-10.3c1.9-6.7,3.6-13.2,5.3-19.9c0.2-0.6,0.2-1.2,0-2
				c-0.2-1.1-1.1-2-2.2-1.9c-1.9,0-3.6,0.6-5.3,1.4c-0.6,0.3-0.8,0.2-0.9-0.5c-1.6-5.9-3.3-11.7-4.8-17.6c-0.2-0.5-0.2-0.6,0.3-0.9
				c5-2.6,10.1-5,15.6-6.7c3.6-1.1,7.3-1.6,11.1-1.7c3.4-0.3,6.7,0,10,0.8c7,1.6,12,7.6,12.2,14.8c0.2,3.6-0.3,7.3-1.4,10.8
				c-3.1,12.2-6.2,24.5-9.4,36.6c-1.1,4.2-2.2,8.6-3.3,12.8c0,0.5-0.5,0.8-0.9,0.8c-2.2,0.3-4.2,0.5-6.4,0.6c-1.9,0-3.9-0.2-5.8-0.5
				c-2.5-0.3-4.8-0.9-7-1.9c-4.5-2-7.8-6.2-8.4-11.2C1095.5,238,1095.3,236.7,1095.3,235.7z"/>
			<path id="Tracé_477_5_" class="st2" d="M1127.4,167.7c-3.7,0.2-7.3-0.6-10.8-2.2c-5.6-2.8-8.9-8.9-8.1-15
				c0.6-6.5,5.6-11.7,12-12.8c5.1-1.1,10.4-0.8,15.4,0.8c5.1,1.9,8.7,5.5,9.7,11.1c1.7,7.9-3.3,15.6-11.2,17.3l0,0
				C1132.1,167.6,1129.8,167.9,1127.4,167.7z"/>
		</g>
	</g>
	<g id="LTCZ4Q.tif_6_" transform="translate(23.941 17.279)" class="st8">
		<g id="Groupe_272_6_" transform="translate(75.543 109.569)">
			<path id="Tracé_474_6_" class="st2" d="M991.4,428.7c3.4-1.4,7-2.5,10.8-3.1c5.3-0.9,10.6-1.2,15.9-0.9c3,0,6.1,0.6,8.9,1.7
				c4.7,1.7,8.4,5.3,10.3,10l0.5,1.1c2.2-2,4.5-4.1,7-5.6c5.6-3.6,12.2-5.9,18.9-6.5c5.3-0.9,10.8-0.6,15.9,0.8
				c10.3,3.1,16.5,10,18.2,20.7c0.6,5.3,0.3,10.8-1.1,15.9c-2,8.7-4.8,17.3-7.2,26c-0.3,0.9-0.5,2-0.3,3.1c0,1.2,1.1,2.2,2.2,2h0.2
				c1.2,0,2.3-0.3,3.6-0.9c1.4-0.6,2.8-1.2,4.4-1.9c-0.8,2.8-1.4,5.6-2,8.3c-2,7.8-3.9,15.6-5.8,23.4c-0.2,0.6-0.5,1.1-1.1,1.2
				c-8.3,3.3-17.1,4.8-26,4.4c-6.2,0-12.5-2.2-17.3-6.2c-4.2-3.6-6.9-8.7-7.2-14.3c-0.3-5.5,0.5-10.8,2.3-15.9
				c1.9-6.4,3.7-12.9,5.5-19.3c0.6-1.7,0.6-3.7,0-5.5c-0.3-1.1-1.2-1.7-2.3-1.7c-1.9,0-3.7,0.9-5,2.3c-1.9,2.3-3.3,5-3.9,7.9
				c-1.9,5.9-3.1,11.8-4.7,17.9c-2.6,10.4-5.3,21-7.9,31.5c-0.2,0.6-0.5,0.8-1.1,0.8c-14.8,0-29.8,0-44.6,0c-0.8,0-0.8-0.2-0.6-0.9
				c5-19.6,10-39.3,15-58.9c1.2-5,2.6-9.8,3.7-15c1.6-6.1,0.9-12.5-1.7-18.2C993.5,431.5,992.5,430,991.4,428.7z"/>
			<path id="Tracé_475_6_" class="st2" d="M1142.1,530.3c-9.5,0-18.9-0.9-28.2-2.6c-4.5-0.9-9-2.2-13.2-3.9
				c-0.6-0.2-0.6-0.5-0.5-0.9c2.3-9.5,4.8-19.2,7.2-28.8c0.2-0.9,0.6-0.6,1.1-0.5c6.2,2.6,12.6,4.5,19.2,5.6
				c3.6,0.6,7.5,0.8,11.1,0.2c1.2-0.2,2.5-1.1,2.6-2.3c0.5-1.4-0.2-3-1.4-3.9c-1.4-0.9-2.8-1.6-4.4-2c-4.4-1.7-9-2.8-13.4-4.7
				c-4.4-1.7-8.4-4.4-11.8-7.5c-4.5-4.2-7.2-10-7.2-16.2c-0.5-5.8,0.8-11.4,3.3-16.5c3.1-5.9,8.3-10.8,14.3-13.6
				c5.6-2.6,11.5-4.4,17.8-5.1c6.4-0.9,12.9-1.2,19.3-1.2c12,0.2,23.7,2.8,34.8,7.6c1.6,0.6,3.1,1.4,4.7,2.2
				c0.6,0.3,0.8,0.5,0.5,1.1c-3.7,8.7-7.3,17.6-10.9,26.3c-0.3,0.8-0.6,0.8-1.2,0.3c-5.1-3-10.8-5.3-16.4-6.9
				c-4.1-1.1-8.3-1.4-12.5-0.9c-0.5,0-0.9,0.2-1.4,0.3c-1.2,0.2-2.3,1.2-2.5,2.5c-0.2,1.4,0.5,2.6,1.7,3.3c1.2,0.8,2.6,1.2,4.1,1.7
				c4.8,1.7,9.8,3.1,14.6,5.1c3.9,1.4,7.5,3.7,10.4,6.5c4.8,4.7,7.6,11.2,7.8,17.9c0.3,5.1-0.6,10.1-2.5,15
				c-3.1,7.5-9,13.2-16.5,16.4c-5.3,2.3-11.1,3.9-16.8,4.5C1150.9,530.2,1146.4,530.5,1142.1,530.3z"/>
			<path id="Tracé_476_6_" class="st2" d="M929.7,503.5c0.2-4.7,0.9-9.4,2.3-13.9c2.3-8.9,4.7-17.8,7.2-26.8
				c0.2-0.9,0.3-1.7,0.2-2.6c-0.2-1.6-1.4-2.6-3-2.6c-2.5,0.2-4.8,0.8-7,1.9c-0.8,0.3-1.1,0.3-1.4-0.6c-2.2-7.8-4.4-15.7-6.5-23.5
				c-0.2-0.6-0.2-0.9,0.5-1.2c6.7-3.6,13.7-6.7,20.9-9c4.8-1.4,9.8-2.2,14.8-2.3c4.5-0.3,9,0,13.4,0.9c9.4,2,16.1,10.3,16.4,19.8
				c0.2,4.8-0.5,9.8-1.9,14.5c-4.2,16.4-8.4,32.7-12.6,49.1c-1.4,5.8-3,11.4-4.4,17.1c0,0.6-0.6,1.1-1.2,0.9
				c-2.8,0.3-5.6,0.6-8.6,0.9c-2.6,0-5.1-0.2-7.8-0.6c-3.3-0.3-6.5-1.2-9.5-2.5c-6.1-2.6-10.4-8.4-11.4-15
				C929.7,506.7,929.5,505.1,929.7,503.5z"/>
			<path id="Tracé_477_6_" class="st2" d="M972.7,412.5c-5,0.2-9.8-0.8-14.3-3c-7.5-3.7-11.8-11.8-10.9-20.1
				c0.8-8.7,7.5-15.7,16.1-17.1c6.9-1.6,14-1.1,20.7,1.1c7,2.5,11.7,7.3,12.9,14.8c2.2,10.6-4.5,21-15.1,23.2c0,0,0,0-0.2,0
				C979.1,412.2,975.9,412.5,972.7,412.5z"/>
		</g>
	</g>
</g>
</svg>
