<?xml version="1.0" encoding="utf-8"?>
<!-- Generator: Adobe Illustrator 27.5.0, SVG Export Plug-In . SVG Version: 6.00 Build 0)  -->
<svg version="1.1" id="Calque_1" xmlns="http://www.w3.org/2000/svg" xmlns:xlink="http://www.w3.org/1999/xlink" x="0px" y="0px"
	 viewBox="0 0 1920 1080" style="enable-background:new 0 0 1920 1080;" xml:space="preserve">
<style type="text/css">
	.st0{fill:#DE5D80;}
	.st1{opacity:0.3;}
	.st2{fill-rule:evenodd;clip-rule:evenodd;fill:#FFFFFF;}
	.st3{opacity:0.118;fill-rule:evenodd;clip-rule:evenodd;fill:#FFFFFF;enable-background:new    ;}
	.st4{opacity:8.600000e-02;fill-rule:evenodd;clip-rule:evenodd;fill:#FFFFFF;enable-background:new    ;}
	.st5{opacity:0.206;fill-rule:evenodd;clip-rule:evenodd;fill:#FFFFFF;enable-background:new    ;}
	.st6{opacity:0.286;fill-rule:evenodd;clip-rule:evenodd;fill:#FFFFFF;enable-background:new    ;}
	.st7{opacity:0.216;fill-rule:evenodd;clip-rule:evenodd;fill:#FFFFFF;enable-background:new    ;}
	.st8{fill:#FFFFFF;}
</style>
<polygon class="st0" points="1920,599 0,806 -0.5,-0.4 1920,-0.4 "/>
<polygon class="st0" points="1920,540 0,740 -0.5,0 1920,0 "/>
<g class="st1">
	<path id="Tracé_439" class="st2" d="M1540.7,126.2l183.5-5.9c8.2-0.3,15.1,6.2,15.4,14.4c0.1,2.9-0.7,5.8-2.2,8.3l-96.9,155.9
		c-2.9,4.7-9.2,6.2-13.9,3.2c-2.2-1.4-3.8-3.6-4.5-6.1l-16.4-64.3l52.9-58.5l-77.2,16.3l-47.3-46.1c-4-3.9-4.1-10.3-0.2-14.3
		C1535.6,127.3,1538.1,126.3,1540.7,126.2z"/>
	<path id="Tracé_440" class="st3" d="M1407.3,173.3l58.7-1.9c2.6-0.1,4.8,2,4.9,4.6c0,0.9-0.2,1.9-0.7,2.7l-31,49.9
		c-0.9,1.5-2.9,2-4.5,1c-0.7-0.4-1.2-1.1-1.4-1.9l-5.3-20.6l16.9-18.7l-24.7,5.2l-15.1-14.8c-1.3-1.2-1.3-3.3-0.1-4.6
		C1405.7,173.7,1406.5,173.4,1407.3,173.3z"/>
	<path id="Tracé_441" class="st4" d="M1508.4,264.1l36-1.2c1.6,0,3,1.2,3,2.8c0,0.6-0.1,1.1-0.4,1.6l-19,30.6
		c-0.6,0.9-1.8,1.2-2.7,0.6c-0.4-0.3-0.7-0.7-0.9-1.2l-3.2-12.6l10.4-11.5l-15.1,3.2l-9.3-9c-0.8-0.8-0.8-2,0-2.8
		C1507.4,264.3,1507.9,264.1,1508.4,264.1z"/>
	<path id="Tracé_442" class="st5" d="M1495.7,372.4l86.7-2.8c3.9-0.1,7.1,2.9,7.3,6.8c0,1.4-0.3,2.8-1.1,3.9l-45.8,73.7
		c-1.4,2.2-4.3,2.9-6.6,1.5c-1-0.7-1.8-1.7-2.1-2.9l-7.8-30.4l25-27.6l-36.5,7.7l-22.3-21.8c-1.9-1.8-1.9-4.9-0.1-6.8
		C1493.3,372.9,1494.4,372.4,1495.7,372.4z"/>
	<path id="Tracé_443" class="st5" d="M1313.9,268.4l135.6-4.4c6.1-0.2,11.2,4.6,11.3,10.6c0.1,2.2-0.5,4.3-1.7,6.2L1387.6,396
		c-2.2,3.5-6.8,4.6-10.3,2.4c-1.6-1-2.8-2.6-3.3-4.5l-12.1-47.5l39.1-43.2l-57.1,12.1l-35-34.1c-3-2.9-3-7.6-0.1-10.6
		C1310.2,269.2,1312,268.4,1313.9,268.4z"/>
	<path id="Tracé_444" class="st6" d="M1042.8,474.7l234.5-7.6c10.5-0.3,19.3,7.9,19.6,18.4c0.1,3.8-0.9,7.5-2.9,10.7l-123.8,199.3
		c-3.8,6.1-11.7,7.9-17.8,4.1c-2.8-1.8-4.9-4.5-5.7-7.8l-21-82.2l67.6-74.7l-98.7,20.9l-60.5-59c-5.1-5-5.2-13.2-0.2-18.3
		C1036.3,476.2,1039.4,474.8,1042.8,474.7z"/>
	<path id="Tracé_445" class="st6" d="M1250.4,377.3l66.1-2.1c3-0.1,5.4,2.2,5.5,5.2c0,1.1-0.2,2.1-0.8,3l-34.9,56.2
		c-1.1,1.7-3.3,2.2-5,1.2c-0.8-0.5-1.4-1.3-1.6-2.2l-5.9-23.2l19.1-21.1l-27.8,5.9l-17-16.6c-1.4-1.4-1.5-3.7-0.1-5.2
		C1248.6,377.7,1249.5,377.3,1250.4,377.3z"/>
	<path id="Tracé_446" class="st7" d="M1330.5,445.5l136.3-4.4c6.1-0.2,11.2,4.6,11.4,10.7c0.1,2.2-0.5,4.3-1.7,6.2l-72,115.9
		c-2.2,3.5-6.8,4.6-10.3,2.4c-1.6-1-2.8-2.6-3.3-4.5l-12.2-47.8l39.3-43.4l-57.4,12.1l-35.2-34.3c-3-2.9-3-7.7-0.1-10.6
		C1326.7,446.4,1328.6,445.6,1330.5,445.5z"/>
</g>
<g class="st1">
	<path class="st8" d="M1342.5,133.5v85h-17.4v-48.9c0-1.1,0-2.4,0.1-3.7c0.1-1.3,0.2-2.7,0.3-4l-22.6,43.7c-0.7,1.4-1.6,2.4-2.8,3.1
		c-1.2,0.7-2.5,1-4.1,1h-2.7c-1.5,0-2.9-0.4-4.1-1c-1.2-0.7-2.1-1.7-2.8-3.1l-22.6-43.8c0.1,1.4,0.2,2.8,0.3,4.1
		c0.1,1.3,0.1,2.6,0.1,3.7v48.9H1247v-85h15c0.9,0,1.6,0,2.2,0.1c0.6,0,1.2,0.2,1.7,0.3c0.5,0.2,1,0.5,1.4,0.9
		c0.4,0.4,0.8,1,1.2,1.7l21.9,43.1c0.8,1.5,1.5,3,2.2,4.6c0.7,1.6,1.4,3.2,2.1,4.9c0.7-1.7,1.4-3.4,2.1-5c0.7-1.6,1.5-3.2,2.3-4.7
		l21.8-42.9c0.4-0.7,0.8-1.3,1.2-1.7s0.9-0.7,1.4-0.9c0.5-0.2,1.1-0.3,1.7-0.3c0.6,0,1.4-0.1,2.2-0.1H1342.5z"/>
	<path class="st8" d="M1405.9,150.8c-0.6,0.9-1.2,1.6-1.8,2.1c-0.6,0.5-1.5,0.7-2.5,0.7c-0.9,0-1.9-0.3-2.9-0.8
		c-1-0.6-2.2-1.2-3.5-1.9c-1.3-0.7-2.8-1.3-4.5-1.9c-1.7-0.6-3.6-0.8-5.7-0.8c-3.7,0-6.4,0.8-8.2,2.4c-1.8,1.6-2.7,3.7-2.7,6.4
		c0,1.7,0.5,3.1,1.6,4.3c1.1,1.1,2.5,2.1,4.3,2.9c1.8,0.8,3.8,1.6,6.1,2.2c2.3,0.7,4.6,1.4,7,2.3c2.4,0.8,4.7,1.8,7,2.9
		s4.3,2.6,6.1,4.3c1.8,1.8,3.2,3.9,4.3,6.4c1.1,2.5,1.6,5.5,1.6,9.1c0,3.9-0.7,7.6-2,11c-1.4,3.4-3.3,6.4-5.9,9
		c-2.6,2.5-5.8,4.6-9.6,6c-3.8,1.5-8.1,2.2-12.9,2.2c-2.6,0-5.3-0.3-8.1-0.8c-2.7-0.5-5.4-1.3-8-2.3c-2.6-1-5-2.2-7.2-3.5
		c-2.3-1.4-4.2-2.9-5.9-4.6l5.8-9.2c0.5-0.7,1.1-1.2,1.8-1.7s1.6-0.7,2.5-0.7c1.2,0,2.3,0.4,3.5,1.1c1.2,0.7,2.5,1.6,4,2.4
		c1.5,0.9,3.2,1.7,5.2,2.4c1.9,0.7,4.2,1.1,6.9,1.1c3.6,0,6.4-0.8,8.3-2.4s3-4.1,3-7.5c0-2-0.5-3.6-1.6-4.8
		c-1.1-1.2-2.5-2.3-4.3-3.1c-1.8-0.8-3.8-1.5-6-2.2c-2.3-0.6-4.6-1.3-6.9-2.1c-2.4-0.8-4.7-1.7-6.9-2.8c-2.3-1.1-4.3-2.6-6-4.4
		c-1.8-1.8-3.2-4.1-4.3-6.8c-1.1-2.7-1.6-6-1.6-10c0-3.2,0.6-6.3,1.9-9.3c1.3-3,3.2-5.7,5.7-8.1c2.5-2.4,5.5-4.3,9.2-5.7
		c3.6-1.4,7.8-2.1,12.4-2.1c2.6,0,5.1,0.2,7.6,0.6c2.5,0.4,4.8,1,7,1.8c2.2,0.8,4.3,1.7,6.2,2.9c1.9,1.1,3.6,2.4,5.2,3.8
		L1405.9,150.8z"/>
	<path class="st8" d="M1470.5,150.8c-0.6,0.9-1.2,1.6-1.8,2.1c-0.6,0.5-1.5,0.7-2.5,0.7c-0.9,0-1.9-0.3-2.9-0.8
		c-1-0.6-2.2-1.2-3.5-1.9c-1.3-0.7-2.8-1.3-4.5-1.9c-1.7-0.6-3.6-0.8-5.7-0.8c-3.7,0-6.4,0.8-8.2,2.4c-1.8,1.6-2.7,3.7-2.7,6.4
		c0,1.7,0.5,3.1,1.6,4.3c1.1,1.1,2.5,2.1,4.3,2.9c1.8,0.8,3.8,1.6,6.1,2.2c2.3,0.7,4.6,1.4,7,2.3c2.4,0.8,4.7,1.8,7,2.9
		s4.3,2.6,6.1,4.3c1.8,1.8,3.2,3.9,4.3,6.4c1.1,2.5,1.6,5.5,1.6,9.1c0,3.9-0.7,7.6-2,11c-1.4,3.4-3.3,6.4-5.9,9
		c-2.6,2.5-5.8,4.6-9.6,6c-3.8,1.5-8.1,2.2-12.9,2.2c-2.6,0-5.3-0.3-8.1-0.8c-2.7-0.5-5.4-1.3-8-2.3c-2.6-1-5-2.2-7.2-3.5
		c-2.3-1.4-4.2-2.9-5.9-4.6l5.8-9.2c0.5-0.7,1.1-1.2,1.8-1.7s1.6-0.7,2.5-0.7c1.2,0,2.3,0.4,3.5,1.1c1.2,0.7,2.5,1.6,4,2.4
		c1.5,0.9,3.2,1.7,5.2,2.4c1.9,0.7,4.2,1.1,6.9,1.1c3.6,0,6.4-0.8,8.3-2.4s3-4.1,3-7.5c0-2-0.5-3.6-1.6-4.8
		c-1.1-1.2-2.5-2.3-4.3-3.1c-1.8-0.8-3.8-1.5-6-2.2c-2.3-0.6-4.6-1.3-6.9-2.1c-2.4-0.8-4.7-1.7-6.9-2.8c-2.3-1.1-4.3-2.6-6-4.4
		c-1.8-1.8-3.2-4.1-4.3-6.8c-1.1-2.7-1.6-6-1.6-10c0-3.2,0.6-6.3,1.9-9.3c1.3-3,3.2-5.7,5.7-8.1c2.5-2.4,5.5-4.3,9.2-5.7
		c3.6-1.4,7.8-2.1,12.4-2.1c2.6,0,5.1,0.2,7.6,0.6c2.5,0.4,4.8,1,7,1.8c2.2,0.8,4.3,1.7,6.2,2.9c1.9,1.1,3.6,2.4,5.2,3.8
		L1470.5,150.8z"/>
</g>
</svg>
