<?xml version="1.0" encoding="utf-8"?>
<!-- Generator: Adobe Illustrator 27.5.0, SVG Export Plug-In . SVG Version: 6.00 Build 0)  -->
<svg version="1.1" id="Calque_1" xmlns="http://www.w3.org/2000/svg" xmlns:xlink="http://www.w3.org/1999/xlink" x="0px" y="0px"
	 viewBox="0 0 1920 1080" style="enable-background:new 0 0 1920 1080;" xml:space="preserve">
<style type="text/css">
	.st0{fill:#7613E0;}
	.st1{opacity:0.8;}
	.st2{opacity:0.171;fill:#FFFFFF;enable-background:new    ;}
</style>
<polygon class="st0" points="1920.2,599.4 0.2,806.4 -0.2,0 1920.2,0 "/>
<g class="st1">
	<path class="st2" d="M1760,88.3v201.8h-161.4c-9.9,0-20.1-5.1-20.1-20.1H1740V68.2h-151.4c-30.3,0-30.3,0-30.3,30.3V270
		c0,30.2,25.2,40.4,50.4,40.4h171.4v-202L1760,88.3z M1605.5,148.6h33.7v-33.4h30v33.4h33.7v0h-0.3v30.3h-33.4v33.4h-30.3v-33.4
		h-33.4V148.6z"/>
	<path class="st2" d="M1479,146.4v54.2h-43.4c-0.3,0-0.6,0-0.9,0c-2.7-0.2-4.8-2.7-4.5-5.4h43.4V141h-40.7c-8.1,0-8.1,0-8.1,8.1
		v46.1c0,8.2,6.7,10.9,13.5,10.9h46.2l-0.1-54.3L1479,146.4z M1437.4,162.6h9.1v-9h8.1v9h9.1l-0.2,8.1h-9v9h-8.1v-9h-9V162.6z"/>
	<path class="st2" d="M1606.6,364.5V445h-64.5c-3.9,0-8-2-8-8h64.5v-80.5h-60.4c-12.1,0-12.1,0-12.1,12.1V437
		c0,12,10,16.1,20.1,16.1h68.5l-0.1-80.6L1606.6,364.5z M1545,388.5h13.4v-13.3h12v13.3h13.4l-0.1,12.1h-13.3v13.3h-12.1v-13.3H1545
		V388.5z"/>
	<path class="st2" d="M1542.9,281.2l-3.1-3.1v30.8h-24.6c-0.2,0-0.3,0-0.5,0c-1.5-0.2-2.6-1.5-2.5-3.1h24.6V275h-23.1
		c-4.6,0-4.6,0-4.6,4.6v26.1c0,4.6,3.9,6.2,7.7,6.2h26.2L1542.9,281.2z M1516.4,287.3h5.1v-5.1h4.6v5.1h5.1v4.6h-5.1v5.1h-4.6v-5.1
		h-5.1V287.3z"/>
	<path class="st2" d="M1468.3,254.1v111.1h-88.9c-5.5,0-11.1-2.8-11.1-11.1h89V243H1374c-16.7,0-16.7,0-16.7,16.7v94.4
		c0,16.7,13.8,22.3,27.7,22.3h94.4V265.2L1468.3,254.1z M1383.4,287.3h18.5v-18.4h16.5v18.4h18.5V304h-18.4v18.4h-16.7V304h-18.4
		V287.3z"/>
	<rect x="1479.4" y="376.4" class="st2" width="0.2" height="0"/>
	<path class="st2" d="M1466.8,554.1h-96.9c-6,0-12.1-3.1-12.1-12.1h96.9V421h-90.8c-18.2,0-18.2,0-18.2,18.2V542
		c0,18.2,15.1,24.3,30.2,24.3h103V445.2l-12.1-12.1V554.1z M1374,469.2h20.2v-20.1h18v20.1h20.2v18.2h-20.1v20.1h-18.2v-20.1H1374
		V469.2z"/>
	<path class="st2" d="M1280.6,447.1v215.5h-172.5c-10.6,0-21.5-5.5-21.5-21.5h172.5V425.6h-161.7c-32.3,0-32.3,0-32.3,32.3v183.2
		c0,32.3,26.9,43.2,53.8,43.2h183.2V468.6L1280.6,447.1z M1115.4,511.5h36v-35.7h32.1v35.7h35.6v32.3h-35.7v35.7h-32.3v-35.7h-35.7
		V511.5z"/>
	<path class="st2" d="M1329,362.2v59.7h-47.8c-0.3,0-0.7,0-1,0c-3-0.2-5.2-2.9-4.9-5.9h47.8v-59.7h-44.8c-9,0-9,0-9,9V416
		c0,9,7.5,12,14.9,12h50.8l-0.1-59.9L1329,362.2z M1283.2,380.2h10v-9.9h8.9v9.9h10l-0.1,9h-9.9v9.9h-9v-9.9h-9.9V380.2z"/>
</g>
</svg>
