<?xml version="1.0" encoding="utf-8"?>
<!-- Generator: Adobe Illustrator 27.5.0, SVG Export Plug-In . SVG Version: 6.00 Build 0)  -->
<svg version="1.1" id="Calque_1" xmlns="http://www.w3.org/2000/svg" xmlns:xlink="http://www.w3.org/1999/xlink" x="0px" y="0px"
	 viewBox="0 0 1920 1080" style="enable-background:new 0 0 1920 1080;" xml:space="preserve">
<style type="text/css">
	.st0{fill:#FFA800;}
	.st1{opacity:0.3;}
	.st2{fill:#FFFFFF;}
	.st3{opacity:9.000000e-02;fill:#FFFFFF;enable-background:new    ;}
</style>
<polygon class="st0" points="1920,599 0,806 -0.5,-0.4 1920,-0.4 "/>
<g id="Groupe_258" transform="translate(343.84 151.021)" class="st1">
	<path id="Tracé_54" class="st2" d="M1198.8,58.3V105h-8.5c-1.9,0-3.8-1-4.8-2.7l-18.5-36c-1.1-1.6-0.5-3.7,0-5.3
		c1.3-1.6,3.2-2.6,5.3-2.7C1172.3,58.3,1198.8,58.3,1198.8,58.3z"/>
	<path id="Tracé_55" class="st2" d="M1198.8,1v46.7h-26.5c-1.7,0-3.2-0.8-4.2-2.1l-23.9-36.1c-1.1-1.6-1.1-3.7,0-5.3
		c1-1.7,2.8-2.7,4.8-2.7L1198.8,1z"/>
	<path id="Tracé_56" class="st2" d="M1459.5,66.3l-18.6,36.1c-1,1.7-2.8,2.7-4.8,2.7h-8V58.3h27.1c1.9,0.1,3.7,1.1,4.8,2.7
		C1459.6,62.7,1459.4,64.5,1459.5,66.3z"/>
	<path id="Tracé_57" class="st2" d="M1482.3,9l-23.9,36.1c-0.9,1.4-2.6,2.2-4.2,2.1h-26.5V0.5h50.4c1.9,0,3.8,1,4.8,2.7
		C1483.5,5.1,1483.3,7.2,1482.3,9z"/>
	<path id="Tracé_58" class="st2" d="M1374-66.4v39.8h39.8L1374-66.4z"/>
	<path id="Tracé_59" class="st2" d="M1368.7-16c-2.8,0.2-5.1-1.9-5.3-4.7c0-0.2,0-0.4,0-0.6v-47.8h-148.6c-2.8-0.2-5.1,1.9-5.3,4.7
		c0,0.2,0,0.4,0,0.6v233c-0.2,2.8,1.9,5.1,4.7,5.3c0.2,0,0.4,0,0.6,0h196.4c2.9,0,5.3-2.4,5.3-5.3V-16H1368.7z M1237.6-21.3
		c-0.2-2.8,1.9-5.1,4.7-5.3c0.2,0,0.4,0,0.6,0h88.7c2.8-0.2,5.1,1.9,5.3,4.7c0,0.2,0,0.4,0,0.6c0.2,2.8-1.9,5.1-4.7,5.3
		c-0.2,0-0.4,0-0.6,0H1243C1240-16.2,1237.8-18.4,1237.6-21.3z M1379.8,143.3h-133.2c-2.9,0-5.3-2.4-5.3-5.3c0-2.9,2.4-5.3,5.3-5.3
		h133.8c2.8-0.2,5.1,1.9,5.3,4.7c0,0.2,0,0.4,0,0.6C1385.7,141.2,1382.5,143.3,1379.8,143.3z M1379.8,103.5h-133.2
		c-2.9,0-5.3-2.4-5.3-5.3s2.4-5.3,5.3-5.3l0,0h133.8c2.8-0.2,5.1,1.9,5.3,4.7c0,0.2,0,0.4,0,0.6
		C1385.3,101.1,1382.8,103.3,1379.8,103.5z M1379.8,63.6h-133.2c-2.9,0-5.3-2.4-5.3-5.3c0-2.9,2.4-5.3,5.3-5.3h133.8
		c2.8-0.2,5.1,1.9,5.3,4.7c0,0.2,0,0.4,0,0.6C1385.7,61.5,1382.5,63.7,1379.8,63.6L1379.8,63.6z M1379.8,23.8h-133.2
		c-2.9,0-5.3-2.4-5.3-5.3s2.4-5.3,5.3-5.3h133.8c2.8-0.2,5.1,1.9,5.3,4.7c0,0.2,0,0.4,0,0.6C1385.7,21.7,1382.5,23.8,1379.8,23.8
		L1379.8,23.8z"/>
</g>
<g id="Groupe_259" transform="translate(267.84 208.417)" class="st1">
	<path id="Tracé_54-2" class="st2" d="M1113.4-11.7v9.6h-1.7c-0.4,0-0.8-0.2-1-0.5l-3.8-7.4c-0.2-0.3-0.2-0.7,0-1.1
		c0.3-0.3,0.7-0.5,1.1-0.5L1113.4-11.7L1113.4-11.7z"/>
	<path id="Tracé_55-2" class="st2" d="M1113.4-23.5v9.6h-5.5c-0.3,0-0.7-0.2-0.9-0.4l-4.9-7.4c-0.2-0.3-0.2-0.8,0-1.1
		c0.2-0.3,0.6-0.5,1-0.5L1113.4-23.5z"/>
	<path id="Tracé_56-2" class="st2" d="M1167-10l-3.8,7.4c-0.2,0.3-0.6,0.5-1,0.5h-1.6v-9.6h5.6c0.4,0,0.8,0.2,1,0.5
		C1167.1-10.8,1167-10.4,1167-10z"/>
	<path id="Tracé_57-2" class="st2" d="M1171.7-21.8l-4.9,7.4c-0.2,0.3-0.5,0.5-0.9,0.4h-5.5v-9.6h10.4c0.4,0,0.8,0.2,1,0.5
		C1172-22.6,1171.9-22.2,1171.7-21.8z"/>
	<path id="Tracé_58-2" class="st2" d="M1149.5-37.3v8.2h8.2L1149.5-37.3z"/>
	<path id="Tracé_59-2" class="st2" d="M1148.4-26.9c-0.6,0-1.1-0.4-1.1-1V-28v-9.8h-30.6c-0.6,0-1.1,0.4-1.1,1v0.1v47.9
		c0,0.6,0.4,1.1,1,1.1h0.1h40.4c0.6,0,1.1-0.5,1.1-1.1v-38.1C1158.2-26.9,1148.4-26.9,1148.4-26.9z M1121.4-28c0-0.6,0.4-1.1,1-1.1
		h0.1h18.2c0.6,0,1.1,0.4,1.1,1v0.1c0,0.6-0.4,1.1-1,1.1h-0.1h-18.2C1121.9-27,1121.4-27.5,1121.4-28z M1150.7,5.8h-27.4
		c-0.6,0-1.1-0.5-1.1-1.1s0.5-1.1,1.1-1.1l0,0h27.5c0.6,0,1.1,0.4,1.1,1v0.1C1151.8,5.3,1151.3,5.8,1150.7,5.8z M1150.7-2.4h-27.4
		c-0.6,0-1.1-0.5-1.1-1.1s0.5-1.1,1.1-1.1l0,0h27.5c0.6,0,1.1,0.4,1.1,1v0.1C1151.8-2.9,1151.3-2.4,1150.7-2.4L1150.7-2.4z
		 M1150.7-10.6h-27.4c-0.6,0-1.1-0.5-1.1-1.1s0.5-1.1,1.1-1.1l0,0h27.5c0.6,0,1.1,0.4,1.1,1v0.1C1151.8-11,1151.3-10.6,1150.7-10.6
		L1150.7-10.6z M1150.7-18.7h-27.4c-0.6,0-1.1-0.5-1.1-1.1s0.5-1.1,1.1-1.1h27.5c0.6,0,1.1,0.4,1.1,1v0.1
		C1151.8-19.2,1151.3-18.8,1150.7-18.7L1150.7-18.7z"/>
</g>
<g id="Groupe_261" transform="translate(343.856 331.325)" class="st1">
	<path id="Tracé_54-3" class="st2" d="M1165.3,79.4v18.5h-3.4c-0.8,0-1.5-0.4-1.9-1.1l-7.4-14.3c-0.3-0.7-0.3-1.4,0-2.1
		c0.5-0.6,1.3-1,2.1-1.1L1165.3,79.4L1165.3,79.4z"/>
	<path id="Tracé_55-3" class="st2" d="M1165.3,56.7v18.5h-10.5c-0.7,0-1.3-0.3-1.7-0.8l-9.5-14.3c-0.4-0.6-0.4-1.5,0-2.1
		c0.4-0.7,1.1-1.1,1.9-1.1C1145.6,56.9,1165.3,56.7,1165.3,56.7z"/>
	<path id="Tracé_56-3" class="st2" d="M1268.6,82.6l-7.4,14.3c-0.4,0.7-1.1,1.1-1.9,1.1h-3.2V79.4h10.7c0.8,0,1.5,0.4,1.9,1.1
		C1268.6,81.2,1268.6,81.9,1268.6,82.6z"/>
	<path id="Tracé_57-3" class="st2" d="M1277.7,59.9l-9.5,14.3c-0.4,0.6-1,0.9-1.7,0.8H1256V56.5h20c0.8,0,1.5,0.4,1.9,1.1
		C1278.1,58.3,1278,59.2,1277.7,59.9z"/>
	<path id="Tracé_58-3" class="st2" d="M1234.7,30v15.8h15.8L1234.7,30z"/>
	<path id="Tracé_59-3" class="st2" d="M1232.6,50c-1.1,0.1-2-0.8-2.1-1.9c0-0.1,0-0.2,0-0.2v-19h-58.9c-1.1-0.1-2,0.8-2.1,1.9
		c0,0.1,0,0.2,0,0.2v92.3c-0.1,1.1,0.8,2,1.9,2.1c0.1,0,0.2,0,0.2,0h77.8c1.2,0,2.1-0.9,2.1-2.1V50H1232.6z M1180.7,47.9
		c-0.1-1.1,0.8-2,1.9-2.1c0.1,0,0.2,0,0.2,0h35.1c1.1-0.1,2,0.8,2.1,1.9c0,0.1,0,0.2,0,0.2c0.1,1.1-0.8,2-1.9,2.1
		c-0.1,0-0.2,0-0.2,0h-35.1C1181.7,49.9,1180.8,49,1180.7,47.9z M1237.1,113.1h-52.8c-1.2,0-2.1-0.9-2.1-2.1s0.9-2.1,2.1-2.1h53
		c1.1-0.1,2,0.8,2.1,1.9c0,0.1,0,0.2,0,0.2C1239.3,112.2,1238.3,113.1,1237.1,113.1z M1237.1,97.3h-52.8c-1.2,0-2.1-0.9-2.1-2.1
		s0.9-2.1,2.1-2.1h53c1.1-0.1,2,0.8,2.1,1.9c0,0.1,0,0.2,0,0.2C1239.2,96.4,1238.2,97.3,1237.1,97.3z M1237.1,81.5h-52.8
		c-1.2,0-2.1-0.9-2.1-2.1s0.9-2.1,2.1-2.1l0,0h53c1.1-0.1,2,0.8,2.1,1.9c0,0.1,0,0.2,0,0.2C1239.3,80.6,1238.3,81.5,1237.1,81.5z
		 M1237.1,65.8h-52.8c-1.2,0-2.1-0.9-2.1-2.1c0-1.2,0.9-2.1,2.1-2.1l0,0h53c1.1-0.1,2,0.8,2.1,1.9c0,0.1,0,0.2,0,0.2
		C1239.3,64.8,1238.3,65.8,1237.1,65.8z"/>
</g>
<g id="Groupe_262" transform="translate(167.953 247.387)" class="st1">
	<path id="Tracé_54-4" class="st2" d="M1076.7,49.9v24.4h-4.4c-1,0-2-0.5-2.5-1.4l-9.7-18.9c-0.4-0.9-0.4-1.9,0-2.8
		c0.7-0.8,1.7-1.3,2.8-1.4L1076.7,49.9z"/>
	<path id="Tracé_55-4" class="st2" d="M1076.7,19.9v24.4h-13.9c-0.9,0-1.7-0.4-2.2-1.1l-12.5-18.9c-0.6-0.8-0.6-1.9,0-2.8
		c0.5-0.9,1.5-1.4,2.5-1.4L1076.7,19.9L1076.7,19.9z"/>
	<path id="Tracé_56-4" class="st2" d="M1212.9,54.1l-9.7,18.9c-0.5,0.9-1.5,1.4-2.5,1.4h-4.2V49.9h14.1c1,0.1,1.9,0.6,2.5,1.4
		C1213,52.2,1212.9,53.1,1212.9,54.1z"/>
	<path id="Tracé_57-4" class="st2" d="M1224.9,24.1L1212.4,43c-0.5,0.7-1.3,1.2-2.2,1.1h-13.9V19.7h26.4c1,0,2,0.5,2.5,1.4
		C1225.5,22.1,1225.4,23.2,1224.9,24.1z"/>
	<path id="Tracé_58-4" class="st2" d="M1168.3-15.3V5.5h20.8L1168.3-15.3z"/>
	<path id="Tracé_59-4" class="st2" d="M1165.5,11.1c-1.4,0.1-2.7-1-2.8-2.5c0-0.1,0-0.2,0-0.3v-25H1085c-1.4-0.1-2.7,1-2.8,2.5
		c0,0.1,0,0.2,0,0.3v121.8c-0.1,1.4,1,2.7,2.5,2.8c0.1,0,0.2,0,0.3,0h102.6c1.5,0,2.8-1.2,2.8-2.8l0,0V11.1H1165.5z M1097,8.3
		c-0.1-1.4,1-2.7,2.5-2.8c0.1,0,0.2,0,0.3,0h46.3c1.4-0.1,2.7,1,2.8,2.5c0,0.1,0,0.2,0,0.3c0.1,1.4-1,2.7-2.5,2.8
		c-0.1,0-0.2,0-0.3,0h-46.3C1098.3,11,1097.1,9.8,1097,8.3L1097,8.3z M1171.3,94.3h-69.6c-1.5,0.1-2.8-1.1-2.9-2.6s1.1-2.8,2.6-2.9
		c0.1,0,0.2,0,0.3,0h69.9c1.4-0.1,2.7,1,2.8,2.5c0,0.1,0,0.2,0,0.3C1174.2,93.1,1172.9,94.3,1171.3,94.3z M1171.3,73.5h-69.6
		c-1.5,0.1-2.8-1.1-2.9-2.6s1.1-2.8,2.6-2.9c0.1,0,0.2,0,0.3,0h69.9c1.4-0.1,2.7,1,2.8,2.5c0,0.1,0,0.2,0,0.3
		C1174.2,72.2,1172.9,73.4,1171.3,73.5z M1171.3,52.7h-69.6c-1.5,0.1-2.8-1.1-2.9-2.6s1.1-2.8,2.6-2.9c0.1,0,0.2,0,0.3,0h69.9
		c1.4-0.1,2.7,1,2.8,2.5c0,0.1,0,0.2,0,0.3C1174.2,51.5,1172.9,52.7,1171.3,52.7z M1171.3,31.9h-69.6c-1.5,0.1-2.8-1.1-2.9-2.6
		s1.1-2.8,2.6-2.9c0.1,0,0.2,0,0.3,0h69.9c1.4-0.1,2.7,1,2.8,2.5c0,0.1,0,0.2,0,0.3C1174.2,30.7,1172.9,31.9,1171.3,31.9
		L1171.3,31.9z"/>
</g>
<g id="Groupe_263" transform="translate(215.841 356.387)" class="st1">
	<path id="Tracé_54-5" class="st2" d="M1099.8,102.3v21.9h-4c-0.9,0-1.8-0.5-2.2-1.2l-8.7-16.9c-0.4-0.8-0.4-1.7,0-2.5
		c0.6-0.7,1.5-1.2,2.5-1.2h12.4V102.3z"/>
	<path id="Tracé_55-5" class="st2" d="M1099.8,75.4v21.9h-12.5c-0.8,0-1.5-0.4-2-1l-11.2-16.9c-0.5-0.8-0.5-1.7,0-2.5
		s1.3-1.3,2.2-1.2L1099.8,75.4z"/>
	<path id="Tracé_56-5" class="st2" d="M1222.1,106.1l-8.7,16.9c-0.5,0.8-1.3,1.3-2.2,1.2h-3.7v-21.9h12.7c0.9,0.1,1.7,0.5,2.2,1.2
		C1222.1,104.4,1222,105.2,1222.1,106.1z"/>
	<path id="Tracé_57-5" class="st2" d="M1232.8,79.2l-11.2,16.9c-0.4,0.7-1.2,1-2,1h-12.5V75.2h23.7c0.9,0,1.8,0.5,2.2,1.2
		C1233.3,77.3,1233.2,78.3,1232.8,79.2z"/>
	<path id="Tracé_58-5" class="st2" d="M1182,43.8v18.7h18.7L1182,43.8z"/>
	<path id="Tracé_59-5" class="st2" d="M1179.5,67.5c-1.3,0.1-2.4-0.9-2.5-2.2c0-0.1,0-0.2,0-0.3V42.6h-69.7
		c-1.3-0.1-2.4,0.9-2.5,2.2c0,0.1,0,0.2,0,0.3v109.3c-0.1,1.3,0.9,2.4,2.2,2.5c0.1,0,0.2,0,0.3,0h92.1c1.4,0,2.5-1.1,2.5-2.5V67.5
		H1179.5z M1118,65c-0.1-1.3,0.9-2.4,2.2-2.5c0.1,0,0.2,0,0.3,0h41.6c1.3-0.1,2.4,0.9,2.5,2.2c0,0.1,0,0.2,0,0.3
		c0.1,1.3-0.9,2.4-2.2,2.5c-0.1,0-0.2,0-0.3,0h-41.6C1119.1,67.4,1118.1,66.3,1118,65z M1184.7,142.2h-62.5c-1.4,0-2.5-1.1-2.5-2.5
		s1.1-2.5,2.5-2.5l0,0h62.7c1.3-0.1,2.4,0.9,2.5,2.2c0,0.1,0,0.2,0,0.3C1187.3,141.1,1186.1,142.2,1184.7,142.2z M1184.7,123.5
		h-62.5c-1.4,0-2.5-1.1-2.5-2.5s1.1-2.5,2.5-2.5l0,0h62.7c1.3-0.1,2.4,0.9,2.5,2.2c0,0.1,0,0.2,0,0.3
		C1187.2,122.4,1186.1,123.4,1184.7,123.5L1184.7,123.5z M1184.7,104.8h-62.5c-1.4,0-2.5-1.1-2.5-2.5s1.1-2.5,2.5-2.5l0,0h62.7
		c1.3-0.1,2.4,0.9,2.5,2.2c0,0.1,0,0.2,0,0.3C1187.3,103.7,1186.1,104.8,1184.7,104.8L1184.7,104.8z M1184.7,86.1h-62.5
		c-1.4,0-2.5-1.1-2.5-2.5s1.1-2.5,2.5-2.5l0,0h62.7c1.3-0.1,2.4,0.9,2.5,2.2c0,0.1,0,0.2,0,0.3C1187.3,85.1,1186.1,86.2,1184.7,86.1
		L1184.7,86.1z"/>
</g>
<g id="Groupe_264" transform="translate(0 397.147)" class="st1">
	<path id="Tracé_54-6" class="st2" d="M1011.6,191.4v46.5h-8.4c-1.9,0-3.7-1-4.8-2.6l-18.5-35.9c-1.1-1.6-0.5-3.7,0-5.3
		c1.3-1.6,3.2-2.5,5.3-2.6L1011.6,191.4L1011.6,191.4z"/>
	<path id="Tracé_55-6" class="st2" d="M1011.6,134.4v46.5h-26.4c-1.7,0-3.2-0.8-4.2-2.1l-23.8-35.9c-1.1-1.6-1.1-3.7,0-5.3
		c1-1.6,2.8-2.6,4.8-2.6L1011.6,134.4z"/>
	<path id="Tracé_56-6" class="st2" d="M1270.8,199.3l-18.5,35.9c-1,1.7-2.8,2.7-4.8,2.6h-7.9v-46.5h26.9c1.9,0.1,3.6,1.1,4.8,2.6
		C1270.9,195.8,1270.8,197.6,1270.8,199.3z"/>
	<path id="Tracé_57-6" class="st2" d="M1293.5,142.3l-23.8,35.9c-0.9,1.4-2.5,2.2-4.2,2.1h-26.4v-46.5h50.2c1.9,0,3.7,1,4.8,2.6
		C1294.7,138.4,1294.5,140.5,1293.5,142.3z"/>
	<path id="Tracé_58-6" class="st2" d="M1185.8,67.4V107h39.6L1185.8,67.4z"/>
	<path id="Tracé_59-6" class="st2" d="M1180.6,117.5c-2.7,0.2-5.1-1.9-5.3-4.7c0-0.2,0-0.4,0-0.6V64.7h-147.8
		c-2.7-0.2-5.1,1.9-5.3,4.7c0,0.2,0,0.4,0,0.6v231.8c-0.2,2.7,1.9,5.1,4.7,5.3c0.2,0,0.4,0,0.6,0h195.3c2.9,0,5.3-2.4,5.3-5.3V117.5
		H1180.6z M1050.2,112.2c-0.2-2.7,1.9-5.1,4.7-5.3c0.2,0,0.4,0,0.6,0h88.2c2.7-0.2,5.1,1.9,5.3,4.7c0,0.2,0,0.4,0,0.6
		c0.2,2.7-1.9,5.1-4.7,5.3c-0.2,0-0.4,0-0.6,0h-88.2C1052.6,117.3,1050.4,115.1,1050.2,112.2L1050.2,112.2z M1191.6,275.9h-132.5
		c-2.9,0-5.3-2.4-5.3-5.3s2.4-5.3,5.3-5.3l0,0h133c2.7-0.2,5.1,1.9,5.3,4.7c0,0.2,0,0.4,0,0.6
		C1197.5,273.8,1194.3,275.9,1191.6,275.9L1191.6,275.9z M1191.6,236.3h-132.5c-2.9,0-5.3-2.4-5.3-5.3c0-2.9,2.4-5.3,5.3-5.3l0,0
		h133c2.7-0.2,5.1,1.9,5.3,4.7c0,0.2,0,0.4,0,0.6C1197,233.9,1194.6,236.2,1191.6,236.3L1191.6,236.3z M1191.6,196.7h-132.5
		c-2.9,0-5.3-2.4-5.3-5.3s2.4-5.3,5.3-5.3l0,0h133c2.7-0.2,5.1,1.9,5.3,4.7c0,0.2,0,0.4,0,0.6
		C1197.5,194.6,1194.3,196.7,1191.6,196.7L1191.6,196.7z M1191.6,157.1h-132.5c-2.9,0-5.3-2.4-5.3-5.3c0-2.9,2.4-5.3,5.3-5.3h133
		c2.7-0.2,5.1,1.9,5.3,4.7c0,0.2,0,0.4,0,0.6C1197.5,155,1194.3,157.1,1191.6,157.1L1191.6,157.1z"/>
</g>
<path id="Tracé_405" class="st3" d="M1543,311.9h-26.2c-3.8,0-7.7-1.6-7.7-6.2v-26.1c0-4.6,0-4.6,4.6-4.6h23.1v30.8h-24.6
	c-0.1,1.6,1,2.9,2.5,3.1c0.2,0,0.3,0,0.5,0h24.6v-30.8l3.1,3.1L1543,311.9L1543,311.9z M1531.2,287.3h-5.1v-5.1h-4.6v5.1h-5.1v4.6
	h5.1v5.1h4.6v-5.1h5.1V287.3L1531.2,287.3z"/>
</svg>
