<?xml version="1.0" encoding="utf-8"?>
<!-- Generator: Adobe Illustrator 27.5.0, SVG Export Plug-In . SVG Version: 6.00 Build 0)  -->
<svg version="1.1" id="Calque_1" xmlns="http://www.w3.org/2000/svg" xmlns:xlink="http://www.w3.org/1999/xlink" x="0px" y="0px"
	 viewBox="0 0 1920 1080" style="enable-background:new 0 0 1920 1080;" xml:space="preserve">
<style type="text/css">
	.st0{fill:#D34A3C;}
	.st1{opacity:0.3;}
	.st2{clip-path:url(#SVGID_00000042708114459343108650000007253198876116681864_);}
	.st3{opacity:0.8;fill:#FFFFFF;enable-background:new    ;}
</style>
<polygon class="st0" points="1920,599 0,806 -0.5,-0.4 1920,-0.4 "/>
<g class="st1">
	<g>
		<g>
			<defs>
				<polygon id="SVGID_1_" points="1920,599 0,806 -0.5,0 1920,0 				"/>
			</defs>
			<clipPath id="SVGID_00000135683938690204650660000004992816514295498660_">
				<use xlink:href="#SVGID_1_"  style="overflow:visible;"/>
			</clipPath>
			<g style="clip-path:url(#SVGID_00000135683938690204650660000004992816514295498660_);">
				<path class="st3" d="M1339.1,521.5h-135.4c-15.8,0.7-28,13.9-27.5,29.7v84.7c-0.5,15.8,11.7,29,27.5,29.7h135.4
					c15.8-0.7,28-13.9,27.5-29.7v-84.7C1367.1,535.4,1354.9,522.2,1339.1,521.5z M1203.7,652.9c-8.7-0.5-15.4-8-14.8-16.7v-0.1
					v-12.7h44.5c0.7-0.1,1.4-0.1,2-0.3v6.5c0,8.3,2.6,16.5,7.5,23.3H1203.7L1203.7,652.9z M1188.8,610.4v-35.9h44.5
					c2.2,0,4.2,1,5.6,2.7c2,2.9,3.1,6.4,2.9,9.9v10.6c0.1,3.5-0.8,7.1-2.9,9.9c-1.2,1.8-3.4,2.9-5.6,2.7L1188.8,610.4L1188.8,610.4z
					 M1235.4,557.6v4.4c-0.7-0.1-1.4-0.1-2.2-0.1h-44.4v-10.6c-0.7-8.7,6-16.3,14.7-17c0,0.1,0,0.1,0.1,0.1h39.2
					C1238,541.1,1235.2,549.3,1235.4,557.6z M1294.6,568.6c-0.1,0.3-0.4,0.4-0.5,0.7c-3.9,5.2-6,11.4-5.7,18v10.6
					c-0.1,6.4,1.8,12.8,5.7,18c0.1,0.3,0.4,0.4,0.5,0.7v13.2c0,14-8.8,23.3-19.1,23.3h-8.4c-10.2,0-19.1-9.3-19.1-23.3v-13.2
					c0.1-0.3,0.4-0.4,0.5-0.7c3.9-5.2,6-11.4,5.7-18v-10.8c0.1-6.4-1.8-12.8-5.7-18c-0.1-0.3-0.4-0.4-0.5-0.7v-11
					c0-13.9,8.8-23.1,19.1-23.1h8.4c10.2,0,19.1,9.3,19.1,23.3V568.6z M1339.1,534.3c8.7,0.5,15.4,8,14.8,16.7v0.1v10.6h-44.5
					c-0.7,0-1.4,0-2.2,0.1v-4.4c0.1-8.4-2.5-16.6-7.5-23.3h39.4L1339.1,534.3L1339.1,534.3z M1303.8,607.7c-2-2.9-3.1-6.4-2.9-9.9
					v-10.6c-0.1-3.5,0.8-7.1,2.9-9.9c1.4-1.8,3.4-2.7,5.6-2.7h44.5v35.9h-44.5C1307.3,610.4,1305.2,609.5,1303.8,607.7z
					 M1339.4,652.8L1339.4,652.8H1300c4.9-6.8,7.5-15,7.5-23.3v-6.4c0.6,0.1,1.3,0.1,2,0.1h44.5v12.7
					C1354.8,644.6,1348.1,652.2,1339.4,652.8z"/>
				<path class="st3" d="M1198.9,507.4c-6.4-12-20.4-17.7-33.4-13.3c-8.2,2.7-14.6,9.1-17.2,17.2c-4.6,13.7,2,28.7,15.5,34.3v-10.1
					c-7.4-5.2-10.1-14.8-6.4-23c2.2-4.9,6.4-8.7,11.6-10.2c6.8-2,14.2,0,19.1,5.2h10.8V507.4z"/>
				<path class="st3" d="M1100.7,509.5c5.9-40.7,43.7-68.9,84.4-63c31.9,4.8,57.2,29.3,62.8,61h9c-7.1-45.5-49.7-76.6-95.2-69.6
					s-76.6,49.7-69.6,95.2c5.7,36.6,34.8,65.1,71.6,69.8v-9C1123.1,588,1094.9,550.2,1100.7,509.5z"/>
				<path class="st3" d="M1128.9,509.5c5.9-25.2,31-40.8,56.4-35c16.5,3.9,29.7,16.5,34.3,32.9h9.1c-5.9-25.5-28.6-43.3-54.7-42.9
					c-30.8,0.3-55.5,25.5-55.1,56.2c0.3,26.4,19.1,49.1,45.1,54.2v-9.1C1138.7,560,1123.1,534.8,1128.9,509.5z"/>
				<path class="st3" d="M1419.3,382.7H1339c-9.4,0.4-16.6,8.2-16.3,17.6v50.2c-0.3,9.4,6.9,17.2,16.3,17.6h80.3
					c9.4-0.4,16.6-8.2,16.3-17.6v-50.2C1435.9,390.9,1428.7,383.1,1419.3,382.7z M1339,460.4c-5.2-0.3-9.1-4.8-8.8-9.9
					c0,0,0,0,0-0.1v-7.5h26.4c0.4,0.1,0.8,0.1,1.2,0v3.8c0,4.9,1.5,9.8,4.5,13.7H1339z M1359.8,433.7c-0.8,1.1-2,1.6-3.3,1.6h-26.4
					v-21.2h26.4c1.4,0,2.6,0.5,3.3,1.6c1.2,1.8,1.9,3.8,1.8,5.9v6.3C1361.7,429.9,1361,432.1,1359.8,433.7z M1357.8,404.1v2.6
					c-0.4,0-0.8-0.1-1.2-0.1h-26.4v-6.3c-0.4-5,3.5-9.5,8.8-9.9h23.3C1359.3,394.3,1357.8,399.2,1357.8,404.1z M1392.9,410.6
					c-0.1,0.1-0.3,0.3-0.4,0.4c-2.3,3-3.5,6.8-3.4,10.6v6.3c-0.1,3.8,1.1,7.6,3.4,10.6c0.1,0.1,0.3,0.3,0.4,0.4v7.8
					c0,8.3-5.2,13.7-11.3,13.7h-5c-6.1,0-11.3-5.4-11.3-13.7v-7.8c0.1-0.1,0.3-0.3,0.4-0.4c2.3-3,3.5-6.8,3.4-10.6v-6.3
					c0.1-3.8-1.1-7.6-3.4-10.6c-0.1-0.1-0.3-0.3-0.4-0.4v-6.5c0-8.3,5.3-13.7,11.3-13.7h5c6.1,0,11.3,5.4,11.3,13.7V410.6z
					 M1419.3,460.6L1419.3,460.6h-23.4c2.9-3.9,4.5-8.8,4.5-13.7V443c0.4,0,0.8,0.1,1.2,0.1h26.4v7.5
					C1428.4,455.7,1424.5,460.1,1419.3,460.6z M1398.3,415.9c0.8-1.2,2-1.8,3.4-1.8h26.3v21.4h-26.4c-1.4,0-2.6-0.5-3.3-1.6
					c-1.2-1.8-1.9-3.8-1.8-5.9v-6.3C1396.4,419.7,1397.1,417.5,1398.3,415.9z M1428.1,400.2c0,0,0,0,0,0.1v6.3h-26.4
					c-0.4,0-0.8,0-1.2,0.1v-2.6c0-5-1.6-9.9-4.5-13.9h23.3C1424.5,390.6,1428.4,395.1,1428.1,400.2z"/>
				<path class="st3" d="M1318.3,371.1c4.2-1.1,8.6,0.1,11.4,3.1h6.4c-3.8-7.1-12.1-10.5-19.7-7.9c-4.8,1.6-8.6,5.3-10.2,10.2
					c-2.7,8.2,1.2,17,9.1,20.3v-6c-4.4-3-6-8.7-3.8-13.6C1312.7,374.4,1315.3,372.1,1318.3,371.1z"/>
				<path class="st3" d="M1315.3,430.8v-5.3c-24.1-3.5-40.8-25.9-37.3-50s25.9-40.8,50-37.3c18.9,2.9,33.9,17.4,37.2,36.1h5.3
					c-4.2-27-29.4-45.3-56.4-41.2c-27,4.2-45.3,29.4-41.2,56.4C1276.2,411,1293.5,427.9,1315.3,430.8z"/>
				<path class="st3" d="M1348.3,374.3h5.4c-3.5-15-17-25.6-32.4-25.5c-18.2,0.1-32.9,15.1-32.7,33.4c0.1,15.7,11.3,29.1,26.7,32.1
					v-5.4c-15-3.5-24.2-18.4-20.7-33.4s18.4-24.2,33.4-20.7C1337.9,357.3,1345.6,364.6,1348.3,374.3z"/>
				<path class="st3" d="M1549.7,537.5h-60.8c-7.1,0.3-12.7,6.3-12.4,13.3v38c-0.3,7.1,5.3,13.1,12.4,13.3h60.8
					c7.1-0.3,12.7-6.3,12.4-13.3v-38C1562.4,543.7,1556.8,537.7,1549.7,537.5z M1504.6,576.1c-0.5,0.8-1.5,1.2-2.5,1.2h-20v-16.2h20
					c1,0,1.9,0.4,2.5,1.2c1,1.2,1.4,2.9,1.4,4.5v4.8C1506.1,573.3,1505.6,574.8,1504.6,576.1z M1489,596.3c-3.9-0.3-6.9-3.7-6.7-7.5
					v-5.7h20c0.1,0,0.5,0,0.8-0.1v2.9c0,3.8,1.1,7.5,3.4,10.5L1489,596.3L1489,596.3z M1503.1,553.5v1.9c-0.3,0-0.7,0-1,0h-20v-4.8
					c-0.3-3.8,2.7-7.2,6.7-7.6h17.7C1504.4,546,1503.1,549.7,1503.1,553.5z M1529.8,558.4c-0.1,0.1-0.1,0.1-0.3,0.3
					c-1.8,2.3-2.7,5.2-2.6,8v4.8c-0.1,2.9,0.8,5.7,2.6,8c0.1,0.1,0.1,0.1,0.3,0.3v5.9c0,6.3-3.9,10.5-8.6,10.5h-3.8
					c-4.6,0-8.6-4.2-8.6-10.5v-5.9c0.1-0.1,0.1-0.1,0.3-0.3c1.8-2.3,2.7-5.2,2.6-8v-4.8c0.1-2.9-0.8-5.7-2.6-8
					c-0.1-0.1-0.1-0.1-0.3-0.3v-4.9c0-6.3,3.9-10.5,8.6-10.5h3.8c4.6,0,8.6,4.2,8.6,10.5V558.4z M1549.8,596.3L1549.8,596.3h-17.7
					c2.2-3,3.4-6.7,3.4-10.5v-2.9c0.3,0,0.6,0,0.8,0h20v5.7C1556.6,592.6,1553.6,596,1549.8,596.3z M1533.9,562.4
					c0.5-0.8,1.5-1.2,2.5-1.2h20v16.2h-20c-1,0-1.9-0.4-2.5-1.2c-1-1.2-1.4-2.9-1.4-4.5v-4.8C1532.4,565.2,1533,563.7,1533.9,562.4z
					 M1556.5,550.5C1556.5,550.5,1556.5,550.5,1556.5,550.5v4.9h-20c-0.3,0-0.7,0-1,0v-1.9c0-3.7-1.2-7.4-3.4-10.5h17.7
					C1553.8,543.3,1556.8,546.7,1556.5,550.5z"/>
				<path class="st3" d="M1486.8,531c-2.9-5.4-9.1-7.9-15-6c-3.7,1.2-6.5,4.1-7.8,7.8c-2,6.1,1,12.9,6.9,15.4v-4.5
					c-3.3-2.3-4.5-6.7-2.9-10.3c1-2.2,2.9-3.9,5.2-4.6c3.1-0.8,6.4,0,8.6,2.3L1486.8,531L1486.8,531z"/>
				<path class="st3" d="M1442.7,531.9c2.6-18.2,19.6-30.9,37.8-28.3c14.4,2.2,25.7,13.2,28.2,27.4h4.1
					c-3.1-20.4-22.3-34.4-42.7-31.2c-20.4,3.1-34.4,22.3-31.2,42.7c2.6,16.5,15.7,29.3,32.1,31.3v-4.1
					C1452.8,567.2,1440.1,550.2,1442.7,531.9z"/>
				<path class="st3" d="M1480.7,516.4c7.4,1.6,13.3,7.2,15.4,14.6h4.1c-2.7-11.4-12.9-19.3-24.6-19.2
					c-13.7,0.1-24.9,11.4-24.8,25.3c0.1,11.8,8.6,22.1,20.3,24.4v-4.1c-11.3-2.6-18.4-14-15.7-25.3
					C1457.9,520.8,1469.4,513.7,1480.7,516.4z"/>
				<path class="st3" d="M1666.8,384.7h-91.3c-10.6,0.4-18.9,9.4-18.5,20v57c-0.4,10.6,7.9,19.6,18.5,20h91.3
					c10.6-0.4,18.9-9.4,18.5-20v-57C1685.7,394.1,1677.4,385.1,1666.8,384.7z M1666.6,393.3c5.9,0.4,10.3,5.4,9.9,11.3v0.1v7.1
					h-29.9c-0.4,0-1,0-1.4,0.1v-3c0.1-5.6-1.6-11.2-5-15.7L1666.6,393.3L1666.6,393.3z M1565.4,420.4h29.9c1.5,0,2.9,0.7,3.8,1.9
					c1.4,1.9,2,4.4,1.9,6.7v7.1c0.1,2.5-0.5,4.8-1.9,6.7c-0.8,1.2-2.3,1.9-3.8,1.9h-29.9V420.4z M1575.4,473.2
					c-5.9-0.4-10.3-5.4-9.9-11.3c0,0,0,0,0-0.1v-8.6h29.9c0.4,0,1,0,1.4,0v4.4c0,5.6,1.8,11.2,5,15.7h-26.4V473.2z M1596.9,409v3
					c-0.4,0-1-0.1-1.4-0.1h-29.9v-7.1c-0.7-5.9,3.8-11,9.8-11.4h26.5C1598.6,397.8,1596.8,403.4,1596.9,409z M1636.7,416.4
					c-0.1,0.1-0.3,0.3-0.4,0.4c-2.6,3.4-3.9,7.8-3.9,12.1v7.1c-0.1,4.4,1.2,8.6,3.9,12.1c0.1,0.1,0.3,0.3,0.4,0.4v8.8
					c0,9.5-6,15.7-12.8,15.7h-5.7c-6.9,0-12.8-6.3-12.8-15.7v-8.8c0.1-0.1,0.3-0.3,0.4-0.4c2.6-3.4,4.1-7.8,3.9-12.1v-7.1
					c0.1-4.4-1.2-8.6-3.9-12.1c-0.1-0.1-0.3-0.3-0.4-0.4v-7.5c0-9.4,6-15.7,12.8-15.7h5.7c6.9,0,12.8,6.3,12.8,15.7V416.4z
					 M1666.6,473.4L1666.6,473.4h-26.5c3.3-4.5,5-10.1,5-15.7v-4.5h0.1c0.4,0,1,0.1,1.4,0.1h29.9v8.6
					C1677,467.8,1672.6,472.9,1666.6,473.4z M1676.7,444.6h-29.9c-1.5,0-2.9-0.7-3.8-1.9c-1.4-1.9-2-4.4-1.9-6.7v-7.2
					c-0.1-2.5,0.5-4.8,1.9-6.7c1-1.1,2.3-1.8,3.8-1.8h29.9V444.6z"/>
				<path class="st3" d="M1552.1,371.6c4.5-1.2,9.5,0.1,12.8,3.5h7.4c-4.2-8-13.7-11.8-22.5-9c-5.4,1.8-9.8,6.1-11.6,11.6
					c-3.1,9.3,1.4,19.3,10.5,23.1V394c-4.9-3.4-6.8-9.9-4.4-15.5C1545.9,375.2,1548.7,372.6,1552.1,371.6z"/>
				<path class="st3" d="M1500.4,392.4c3.8,24.6,23.6,43.8,48.3,47.1v-6c-27.4-3.9-46.4-29.4-42.5-56.9s29.4-46.4,56.9-42.5
					c21.2,3.1,38.3,19.7,42.1,41h6.1c-4.8-30.6-33.5-51.6-64.1-46.8C1516.6,333.1,1495.6,361.8,1500.4,392.4z"/>
				<path class="st3" d="M1586.2,375.1h6.1c-3.9-17.2-19.3-29.1-36.9-28.9c-20.7,0.1-37.4,17.2-37.2,38
					c0.1,17.8,12.8,33.1,30.4,36.5v-6.1c-17-3.9-27.5-21-23.6-38s21-27.5,38-23.6C1574.2,355.6,1583,364.1,1586.2,375.1z"/>
				<path class="st3" d="M1496.9,319.3c6.1-0.3,10.9-5.3,10.6-11.4v-32.8c0.3-6.1-4.5-11.2-10.6-11.4h-52.4
					c-6.1,0.3-10.9,5.3-10.6,11.4v32.8c-0.3,6.1,4.5,11.2,10.6,11.4H1496.9z M1496.9,268.5c3.4,0.3,6,3.1,5.7,6.5v4.1h-17.2
					c-0.3,0-0.5,0-0.8,0v-1.6c0-3.3-1.1-6.4-3-9H1496.9z M1483.1,285.1c0.5-0.7,1.4-1.1,2.2-1.1h17.2v13.9h-17.2
					c-0.8,0-1.6-0.4-2.2-1.1c-0.8-1.1-1.2-2.5-1.1-3.8v-4.1C1481.9,287.5,1482.3,286.2,1483.1,285.1z M1484.4,305.4v-2.5h0.1
					c0.3,0,0.5,0,0.8,0h17.2v4.9c0.3,3.4-2.3,6.3-5.7,6.5h-15.2C1483.4,311.8,1484.4,308.6,1484.4,305.4z M1461.6,300.2
					c0.1-0.1,0.1-0.1,0.3-0.3c1.5-2,2.3-4.5,2.2-6.9v-4.1c0.1-2.5-0.7-4.9-2.2-6.9c-0.1-0.1-0.1-0.1-0.3-0.3v-4.2c0-5.4,3.4-9,7.4-9
					h3.3c3.9,0,7.4,3.5,7.4,9v4.2c-0.1,0.1-0.1,0.1-0.3,0.3c-1.5,2-2.3,4.5-2.2,6.9v4.1c-0.1,2.5,0.7,4.9,2.2,6.9
					c0.1,0.1,0.1,0.1,0.3,0.3v5c0,5.4-3.4,9-7.4,9h-3.3c-3.9,0-7.4-3.5-7.4-9V300.2z M1444.5,268.5h15.2c-1.9,2.6-3,5.7-2.9,9v1.6
					c-0.3,0-0.5,0-0.8,0h-17.2V275C1438.5,271.6,1440.9,268.8,1444.5,268.5z M1438.6,284h17.2c0.8,0,1.6,0.4,2.2,1.1
					c0.8,1.1,1.2,2.5,1.1,3.8v4.1c0.1,1.4-0.3,2.7-1.1,3.8c-0.5,0.7-1.4,1.1-2.2,1.1h-17.2V284z M1438.6,307.8v-4.9h17.2
					c0.4,0,0.7,0,1,0v2.5c0,3.3,1,6.4,2.9,9h-15.2C1440.9,314.1,1438.3,311.2,1438.6,307.8z"/>
				<path class="st3" d="M1431.1,256.1c2.6-0.8,5.4,0,7.4,1.9h4.2c-2.5-4.6-7.9-6.8-12.9-5.2c-3.1,1.1-5.6,3.5-6.7,6.7
					c-1.8,5.3,0.8,11.2,6,13.3v-3.9c-2.9-2-3.9-5.7-2.5-8.8C1427.4,258.2,1429.1,256.7,1431.1,256.1z"/>
				<path class="st3" d="M1429.1,294.8v-3.4c-15.8-2.3-26.7-16.9-24.4-32.7c2.3-15.8,16.9-26.7,32.7-24.4
					c12.3,2,22.1,11.4,24.1,23.7h3.5c-2.7-17.6-19.2-29.7-36.8-27c-17.6,2.7-29.7,19.2-27,36.8C1403.5,282,1414.8,293,1429.1,294.8z
					"/>
				<path class="st3" d="M1450.6,258h3.5c-2.3-9.8-11.2-16.7-21.2-16.6c-11.8,0.1-21.5,9.8-21.4,21.8c0.1,10.2,7.4,19.1,17.4,21
					v-3.5c-9.8-2.3-15.8-12-13.5-21.8c2.3-9.8,12-15.8,21.8-13.5C1443.6,246.9,1448.8,251.8,1450.6,258z"/>
				<path class="st3" d="M1763.4,173.7c0.4-13.7-10.2-25.2-24-25.7h-117.8c-13.7,0.5-24.4,12.1-24,25.7v73.6
					c-0.4,13.7,10.2,25.2,24,25.7h117.8c13.7-0.5,24.4-12.1,24-25.7V173.7z M1739.6,159c7.6,0.4,13.3,6.9,12.9,14.6v0.1v9.3h-38.7
					c-0.7,0-1.2,0-1.9,0.1v-3.8c0-7.2-2.3-14.4-6.5-20.3C1705.4,159,1739.6,159,1739.6,159z M1708.8,196.5c1.2-1.5,3-2.5,4.9-2.5
					h38.7v31.3h-38.7c-1.9,0-3.7-0.8-4.9-2.5c-1.8-2.5-2.7-5.6-2.6-8.6v-9.3C1706.1,201.9,1706.9,198.9,1708.8,196.5z M1621.7,262.2
					c-7.6-0.4-13.3-7.1-12.9-14.6v-0.1v-11h38.7c0.7-0.1,1.2-0.1,1.9-0.1v5.6c0,7.2,2.2,14.4,6.5,20.3L1621.7,262.2L1621.7,262.2z
					 M1652.3,222.9c-1.1,1.5-2.9,2.5-4.9,2.5h-38.7V194h38.7c1.9,0,3.7,0.8,4.9,2.5c1.8,2.5,2.7,5.6,2.6,8.6v9.2
					C1655.1,217.4,1654.2,220.4,1652.3,222.9z M1649.3,179.3v3.8c-0.5-0.1-1.2-0.1-1.9-0.1h-38.7v-9.3c-0.5-7.6,5.2-14.2,12.8-14.7
					h0.1h34.2C1651.5,164.9,1649.2,172,1649.3,179.3z M1700.9,189c-0.1,0.1-0.4,0.4-0.5,0.5c-3.4,4.5-5.2,9.9-5,15.7v9.3
					c-0.1,5.6,1.6,11.2,5,15.7c0.1,0.1,0.4,0.4,0.5,0.5v11.4c0,12.3-7.6,20.3-16.6,20.3h-7.4c-8.8,0-16.6-8-16.6-20.3v-11.6
					c0.1-0.1,0.4-0.4,0.5-0.5c3.4-4.5,5.2-9.9,5-15.7V205c0.1-5.6-1.6-11.2-5-15.7c-0.1-0.1-0.4-0.4-0.5-0.5v-9.7
					c0-12.1,7.6-20.1,16.6-20.1h7.4c8.8,0,16.6,8,16.6,20.3V189z M1739.7,262.2L1739.7,262.2h-34.3c4.2-5.9,6.5-12.9,6.5-20.3v-5.6
					l0,0c0.5,0.1,1.2,0.1,1.9,0.1h38.7v11C1753.1,255.1,1747.4,261.7,1739.7,262.2z"/>
				<path class="st3" d="M1591.6,131.3c6-1.8,12.4-0.1,16.6,4.4h9.4c-5.4-10.5-17.8-15.4-29-11.6c-7.1,2.3-12.7,7.9-15,15
					c-4.1,12,1.8,24.9,13.5,29.8v-8.8c-6.4-4.5-8.7-12.8-5.6-20C1583.4,135.8,1587.1,132.7,1591.6,131.3z"/>
				<path class="st3" d="M1587.1,218.7v-7.8c-35.4-5.2-59.9-38-54.7-73.4c5.2-35.4,38-59.9,73.4-54.7c27.6,3.9,49.6,25.3,54.5,52.8
					h7.8c-6.1-39.5-43.2-66.6-82.8-60.4c-39.5,6.1-66.6,43.2-60.4,82.8C1529.7,189.8,1555.1,214.6,1587.1,218.7z"/>
				<path class="st3" d="M1635.6,135.6h8c-5.2-22.1-24.9-37.6-47.6-37.3c-26.8,0.3-48.2,22.2-47.9,48.9c0.3,23,16.6,42.7,39.2,47.1
					v-7.9c-21.9-5.2-35.5-27.1-30.4-49c5.2-21.9,27.1-35.5,49-30.4C1620.1,110.6,1631.6,121.5,1635.6,135.6z"/>
			</g>
		</g>
	</g>
</g>
</svg>
