<?xml version="1.0" encoding="utf-8"?>
<!-- Generator: Adobe Illustrator 27.5.0, SVG Export Plug-In . SVG Version: 6.00 Build 0)  -->
<svg version="1.1" id="Calque_1" xmlns="http://www.w3.org/2000/svg" xmlns:xlink="http://www.w3.org/1999/xlink" x="0px" y="0px"
	 viewBox="0 0 1920 1080" style="enable-background:new 0 0 1920 1080;" xml:space="preserve">
<style type="text/css">
	.st0{fill:#C6E66D;}
	.st1{opacity:0.3;}
	.st2{clip-path:url(#SVGID_00000183245268540272500100000001789369018733697972_);}
	.st3{fill:#FFFFFF;}
	.st4{opacity:0.5;fill:#FFFFFF;enable-background:new    ;}
	.st5{opacity:0.8;fill:#FFFFFF;enable-background:new    ;}
	.st6{opacity:0.73;}
	.st7{opacity:0.39;}
	.st8{opacity:0.76;}
	.st9{opacity:0.5;}
</style>
<polygon class="st0" points="1920.2,599.4 0.2,806.4 -0.2,0 1920.2,0 "/>
<g class="st1">
	<g>
		<g>
			<defs>
				<polygon id="SVGID_1_" points="1920,599.4 0,806.4 -0.5,0 1920,0 				"/>
			</defs>
			<clipPath id="SVGID_00000029019604517896817870000015770246141281502340_">
				<use xlink:href="#SVGID_1_"  style="overflow:visible;"/>
			</clipPath>
			<g style="clip-path:url(#SVGID_00000029019604517896817870000015770246141281502340_);">
				<g>
					<g id="Groupe_279_2_" transform="translate(43.168 42.92) rotate(-13)">
						<path id="Tracé_489_2_" class="st3" d="M1133.8,657.8l-84.2-48.1c-6.1-3.5-13.3-1.2-16.8,4.9c0,0-84.2,135.8-94.9,164.6
							c-3.5,6.1-1.2,13.3,4.9,16.8l84.2,48.1c6.1,3.5,13.3,1.2,16.8-4.9l94.9-164.6C1140.9,668.6,1139.7,661.3,1133.8,657.8z
							 M1073.7,637.3l24.1,14.5c2.4,1.2,2.4,3.5,1.2,6.1c-1.2,2.4-3.5,2.4-6.1,1.2l-24.1-14.5c-2.4-1.2-2.4-3.5-1.2-6.1
							C1068.8,636.1,1071.2,636.1,1073.7,637.3z M991.9,807.9c-4.9-2.4-6.1-9.6-3.5-14.5c2.4-4.9,9.6-6.1,14.5-3.5
							c4.9,2.5,6.1,9.6,3.5,14.5C1002.8,809.1,996.8,810.3,991.9,807.9L991.9,807.9z M1047.3,800.7l-78.1-44.4l67.3-116.5l78.1,44.4
							L1047.3,800.7z"/>
					</g>
					<path class="st3" d="M1121.1,475.6c-7.2,6.1-9.6,14.5-9.6,22.9c1.2,9.6,6.1,16.8,14.5,21.6l2.4-8.4c-4.9-3.5-8.4-9.6-7.2-15.6
						c0-6.1,2.4-10.8,7.2-14.5c3.5-2.4,7.2-4.9,12-4.9l2.4-8.4C1134.4,468.4,1127.2,469.6,1121.1,475.6z"/>
					<path class="st4" d="M1094.7,424c-40.7,25.2-52.9,78.1-27.6,117.8c9.6,15.6,24.1,27.6,40.9,33.7l2.4-8.4
						c-21.6-8.4-38.4-26.4-44.4-50.5c-10.8-40.9,13.3-82.8,54-93.8c12-3.5,25.2-3.5,37.2,0l2.4-8.4
						C1139.1,408.3,1115.2,410.8,1094.7,424z"/>
					<path class="st5" d="M1116.4,444.5c-26.4,12-39.7,40.9-32.5,68.5c4.9,16.8,16.8,28.8,31.3,36l2.4-8.4
						c-13.3-6.1-24.1-19.2-26.4-34.8c-4.9-26.4,13.3-51.7,39.7-55.2c6.1-1.2,12,0,16.8,0l2.4-8.4
						C1140.4,438.4,1128.3,438.4,1116.4,444.5z"/>
				</g>
				<g class="st6">
					<g id="Groupe_279_1_" transform="translate(43.168 42.92) rotate(-13)">
						<path id="Tracé_489_1_" class="st3" d="M1319.1,710.2l-47.4-27.2c-3.4-2.1-7.5-0.7-9.4,2.7c0,0-47.4,76.6-53.6,92.9
							c-2.1,3.4-0.7,7.5,2.7,9.4l47.4,27.2c3.4,2.1,7.5,0.7,9.4-2.7l53.6-92.9C1323.2,716.4,1322.5,712.3,1319.1,710.2z
							 M1285.1,698.7l13.6,8.1c1.3,0.7,1.3,2.1,0.7,3.4c-0.7,1.3-2.1,1.3-3.4,0.7l-13.6-8.1c-1.3-0.7-1.3-2.1-0.7-3.4
							C1282.4,698.1,1283.8,698.1,1285.1,698.7z M1239,794.9c-2.7-1.3-3.4-5.5-2.1-8.1c1.3-2.7,5.5-3.4,8.1-2.1s3.4,5.5,2.1,8.1
							C1245.1,795.7,1241.8,796.4,1239,794.9L1239,794.9z M1270.2,791l-44-25.1l37.9-65.7l44,25.1L1270.2,791z"/>
					</g>
					<path class="st3" d="M1389.7,464.7c-4.1,3.4-5.5,8.1-5.5,12.8c0.7,5.5,3.4,9.4,8.1,12.3l1.3-4.7c-2.7-2.1-4.7-5.5-4.1-8.9
						c0-3.4,1.3-6.1,4.1-8.1c2.1-1.3,4.1-2.7,6.8-2.7l1.3-4.7C1397,460.6,1393.1,461.3,1389.7,464.7z"/>
					<path class="st4" d="M1374.7,435.5c-23,14.2-29.8,44-15.6,66.4c5.5,8.9,13.6,15.6,23,19l1.3-4.7c-12.3-4.7-21.7-14.9-25.1-28.5
						c-6.1-23,7.5-46.8,30.6-52.9c6.8-2.1,14.2-2.1,21,0l1.3-4.7C1399.8,426.8,1386.3,428.1,1374.7,435.5z"/>
					<path class="st5" d="M1387,447c-14.9,6.8-22.4,23-18.3,38.7c2.7,9.4,9.4,16.2,17.6,20.4l1.3-4.7c-7.5-3.4-13.6-10.8-14.9-19.6
						c-2.7-14.9,7.5-29.1,22.4-31.2c3.4-0.7,6.8,0,9.4,0l1.3-4.7C1400.4,443.6,1393.6,443.6,1387,447z"/>
				</g>
				<g class="st7">
					<g id="Groupe_279_3_" transform="translate(43.168 42.92) rotate(-13)">
						<path id="Tracé_489_3_" class="st3" d="M1304,494.2l-60.2-34.4c-4.3-2.5-9.4-0.9-12.1,3.4c0,0-60.2,97.3-68.1,118
							c-2.5,4.3-0.9,9.4,3.4,12.1l60.2,34.4c4.3,2.5,9.4,0.9,12.1-3.4l68.1-118C1309.2,501.9,1308.3,496.7,1304,494.2z M1261,479.6
							l17.3,10.3c1.8,0.9,1.8,2.5,0.9,4.3s-2.5,1.8-4.3,0.9l-17.3-10.3c-1.8-0.9-1.8-2.5-0.9-4.3
							C1257.5,478.7,1259.3,478.7,1261,479.6z M1202.4,601.7c-3.4-1.8-4.3-6.9-2.5-10.3s6.9-4.3,10.3-2.5s4.3,6.9,2.5,10.3
							C1210.3,602.6,1206,603.4,1202.4,601.7L1202.4,601.7z M1242,596.5l-56-31.9l48.1-83.4l56,31.9L1242,596.5z"/>
					</g>
					<path class="st3" d="M1299.9,264.7c-5.2,4.3-6.9,10.3-6.9,16.4c0.9,6.9,4.3,12.1,10.3,15.5l1.8-6.1c-3.4-2.5-6.1-6.9-5.2-11.2
						c0-4.3,1.8-7.7,5.2-10.3c2.5-1.8,5.2-3.4,8.6-3.4l1.8-6.1C1309.3,259.5,1304.2,260.4,1299.9,264.7z"/>
					<path class="st4" d="M1280.8,227.6c-29.2,18-37.9,56-19.8,84.3c6.9,11.2,17.3,19.8,29.2,24.1l1.8-6.1
						c-15.5-6.1-27.6-18.9-31.9-36.2c-7.7-29.2,9.4-59.4,38.7-67.2c8.6-2.5,18-2.5,26.7,0l1.8-6.1
						C1312.7,216.4,1295.5,218.2,1280.8,227.6z"/>
					<path class="st5" d="M1296.4,242.2c-18.9,8.6-28.3,29.2-23.2,49c3.4,12.1,12.1,20.7,22.4,25.8l1.8-6.1
						c-9.4-4.3-17.3-13.7-18.9-25c-3.4-18.9,9.4-37.1,28.3-39.6c4.3-0.9,8.6,0,12.1,0l1.8-6.1
						C1313.6,237.9,1304.9,237.9,1296.4,242.2z"/>
				</g>
				<g class="st8">
					<g id="Groupe_279_4_" transform="translate(43.168 42.92) rotate(-13)">
						<path id="Tracé_489_4_" class="st3" d="M1502.7,598.3l-53.9-30.9c-3.8-2.4-8.4-0.7-10.8,3.1c0,0-53.9,87.1-60.8,105.6
							c-2.4,3.8-0.7,8.4,3.1,10.8l53.9,30.9c3.8,2.4,8.4,0.7,10.8-3.1l60.8-105.6C1507.3,605.2,1506.6,600.6,1502.7,598.3z
							 M1464.2,585.3l15.4,9.3c1.5,0.7,1.5,2.4,0.7,3.8c-0.7,1.5-2.4,1.5-3.8,0.7l-15.4-9.3c-1.5-0.7-1.5-2.4-0.7-3.8
							C1461.1,584.6,1462.7,584.4,1464.2,585.3z M1411.8,694.5c-3.1-1.5-3.8-6.2-2.4-9.3c1.5-3.1,6.2-3.8,9.3-2.4
							c3.1,1.5,3.8,6.2,2.4,9.3C1418.7,695.4,1414.9,696.2,1411.8,694.5L1411.8,694.5z M1447.2,690l-50-28.5l43.1-74.7l50,28.5
							L1447.2,690z"/>
					</g>
					<path class="st3" d="M1529.9,318c-4.6,3.8-6.2,9.3-6.2,14.6c0.7,6.2,3.8,10.8,9.3,13.9l1.5-5.5c-3.1-2.4-5.5-6.2-4.6-10
						c0-3.8,1.5-6.9,4.6-9.3c2.4-1.5,4.6-3.1,7.7-3.1l1.5-5.5C1538.5,313.2,1533.9,314.1,1529.9,318z"/>
					<path class="st4" d="M1513.1,284.7c-26.1,16.2-34,50-17.7,75.4c6.2,10,15.4,17.7,26.1,21.6l1.5-5.5
						c-13.9-5.5-24.7-17-28.5-32.3c-6.9-26.1,8.4-53.2,34.7-60.1c7.7-2.4,16.2-2.4,23.9,0l1.5-5.5
						C1541.6,274.8,1526.1,276.3,1513.1,284.7z"/>
					<path class="st5" d="M1527,297.9c-17,7.7-25.4,26.1-20.8,43.8c3.1,10.8,10.8,18.5,20.1,23.2l1.5-5.5
						c-8.4-3.8-15.4-12.3-17-22.3c-3.1-17,8.4-33.1,25.4-35.4c3.8-0.7,7.7,0,10.8,0l1.5-5.5C1542.3,294,1534.6,294,1527,297.9z"/>
				</g>
				<g>
					<g id="Groupe_279_5_" transform="translate(43.168 42.92) rotate(-13)">
						<path id="Tracé_489_5_" class="st3" d="M1480.1,361.9l-60.4-34.4c-4.3-2.7-9.4-0.9-12.1,3.4c0,0-60.4,97.4-68.2,118.3
							c-2.7,4.3-0.9,9.4,3.4,12.1l60.4,34.5c4.3,2.7,9.4,0.9,12.1-3.4l68.2-118.3C1485.3,369.7,1484.4,364.6,1480.1,361.9z
							 M1437,347.3l17.3,10.3c1.8,0.9,1.8,2.7,0.9,4.3c-0.9,1.8-2.7,1.8-4.3,0.9l-17.3-10.3c-1.8-0.9-1.8-2.7-0.9-4.3
							S1435.3,346.4,1437,347.3z M1378.4,469.8c-3.4-1.8-4.3-6.9-2.7-10.3c1.8-3.4,6.9-4.3,10.3-2.7c3.4,1.8,4.3,6.9,2.7,10.3
							C1386.1,470.7,1381.8,471.6,1378.4,469.8L1378.4,469.8z M1418.1,464.7l-56.1-31.9l48.3-83.7l56.1,31.9L1418.1,464.7z"/>
					</g>
					<path class="st3" d="M1441.5,96.4c-5.2,4.3-6.9,10.3-6.9,16.4c0.9,6.9,4.3,12.1,10.3,15.5l1.8-6.1c-3.4-2.7-6.1-6.9-5.2-11.2
						c0-4.3,1.8-7.8,5.2-10.3c2.7-1.8,5.2-3.4,8.6-3.4l1.8-6.1C1450.9,91.2,1445.8,92.1,1441.5,96.4z"/>
					<path class="st4" d="M1422.4,59.3c-29.4,18.2-37.9,56.1-19.8,84.6c6.9,11.2,17.3,19.8,29.4,24.2l1.8-6.1
						c-15.5-6.1-27.6-19-31.9-36.2c-7.8-29.4,9.4-59.5,38.8-67.3c8.6-2.7,18.2-2.7,26.7,0l1.8-6.1
						C1454.3,48.1,1437.1,49.7,1422.4,59.3z"/>
					<path class="st5" d="M1437.9,73.9c-19,8.6-28.5,29.4-23.3,49.2c3.4,12.1,12.1,20.7,22.4,25.8l1.8-6.1c-9.4-4.3-17.3-13.7-19-25
						c-3.4-19,9.4-37.1,28.5-39.7c4.3-0.9,8.6,0,12.1,0l1.8-6.1C1455.2,69.6,1446.6,69.6,1437.9,73.9z"/>
				</g>
				<g class="st9">
					<g id="Groupe_279_6_" transform="translate(43.168 42.92) rotate(-13)">
						<path id="Tracé_489_6_" class="st3" d="M1625,481.8l-39.9-22.7c-2.8-1.8-6.2-0.6-8,2.2c0,0-39.9,64.4-45,78.1
							c-1.8,2.8-0.6,6.2,2.2,8l39.9,22.7c2.8,1.8,6.2,0.6,8-2.2l45-78.1C1628.4,487,1627.8,483.4,1625,481.8z M1596.5,472l11.4,6.8
							c1.2,0.6,1.2,1.8,0.6,2.8c-0.6,1.2-1.8,1.2-2.8,0.6l-11.4-6.8c-1.2-0.6-1.2-1.8-0.6-2.8C1594.1,471.5,1595.3,471.5,1596.5,472
							z M1557.6,553.1c-2.2-1.2-2.8-4.6-1.8-6.8c1.2-2.2,4.6-2.8,6.8-1.8c2.2,1.2,2.8,4.6,1.8,6.8
							C1562.8,553.7,1559.9,554.1,1557.6,553.1L1557.6,553.1z M1583.9,549.7l-37.1-21.1l31.9-55.4l37.1,21.1L1583.9,549.7z"/>
					</g>
					<path class="st3" d="M1652,169.1c-3.4,2.8-4.6,6.8-4.6,10.8c0.6,4.6,2.8,8,6.8,10.3l1.2-4c-2.2-1.8-4-4.6-3.4-7.4
						c0-2.8,1.2-5.2,3.4-6.8c1.8-1.2,3.4-2.2,5.8-2.2l1.2-4C1658.2,165.6,1654.8,166.2,1652,169.1z"/>
					<path class="st4" d="M1639.5,144.5c-19.3,12-25.1,37.1-13.1,56c4.6,7.4,11.4,13.1,19.3,15.9l1.2-4c-10.3-4-18.3-12.5-21.1-23.9
						c-5.2-19.3,6.2-39.4,25.7-44.4c5.8-1.8,12-1.8,17.7,0l1.2-4C1660.6,137.1,1649.1,138.3,1639.5,144.5z"/>
					<path class="st5" d="M1649.7,154.2c-12.5,5.8-18.8,19.3-15.4,32.5c2.2,8,8,13.7,14.8,17.1l1.2-4c-6.2-2.8-11.4-9.2-12.5-16.5
						c-2.2-12.5,6.2-24.5,18.8-26.3c2.8-0.6,5.8,0,8,0l1.2-4C1661,151.4,1655.4,151.4,1649.7,154.2z"/>
				</g>
			</g>
		</g>
	</g>
</g>
</svg>
