<?xml version="1.0" encoding="utf-8"?>
<!-- Generator: Adobe Illustrator 27.5.0, SVG Export Plug-In . SVG Version: 6.00 Build 0)  -->
<svg version="1.1" id="Calque_1" xmlns="http://www.w3.org/2000/svg" xmlns:xlink="http://www.w3.org/1999/xlink" x="0px" y="0px"
	 viewBox="0 0 1920 1080" style="enable-background:new 0 0 1920 1080;" xml:space="preserve">
<style type="text/css">
	.st0{fill:#35D9C0;}
	.st1{opacity:0.3;}
	.st2{fill:#FFFFFF;}
	.st3{opacity:0.178;fill:#FFFFFF;enable-background:new    ;}
	.st4{opacity:0.43;fill:#FFFFFF;enable-background:new    ;}
</style>
<polygon class="st0" points="1920,599 0,806 -0.5,-0.4 1920,-0.4 "/>
<g class="st1">
	<g id="Groupe_266" transform="translate(294.412 -25.7)">
		<path id="Tracé_412" class="st2" d="M1239.5,157.7c-5.6,0.7-9.1,2.8-11.9,7.7c-4.2,8.4-9.1,16.8-13.3,25.3
			c-2.8,5.6-5.6,11.2-9.1,16.8c-0.7-1.4-0.7-2.1-1.4-2.8c-7-14-14.7-28.1-21.7-42.1c-2.1-4.2-9.8-7-14-4.9c-5.6,2.8-7.7,7-7.7,12.6
			v75.8h7.7c7,0,9.8-2.8,9.8-9.8v-47.7c0.9,0.8,1.6,1.8,2.1,2.8c5.6,11.2,11.9,22.4,17.5,33.7c2.1,4.9,4.9,7,9.8,6.3
			c2.1,0,2.8-0.7,4.2-2.8c6.3-12.6,13.3-25.2,19.6-37.9c0-0.7,0.7-1.4,1.4-2.1c0.6,0.8,0.8,1.8,0.7,2.8v44.9c0,4.9,2.8,9.1,7,9.8
			c3.5,0.7,7,0,10.5,0v-81.4C1250,160.5,1245.1,157,1239.5,157.7z"/>
		<path id="Tracé_413" class="st2" d="M1104.8,157.7h-20.3c-8.4,0-13.3,4.9-13.3,14v75.8h35.1c11.9-0.7,23.2-4.9,30.9-14
			c7.7-9.1,9.8-19.6,9.8-30.9c0-9.8-2.1-18.9-7.7-27.4C1130.7,162.6,1118.8,158.4,1104.8,157.7z M1129.3,208.2
			c-2.1,9.1-5.6,16.8-15.4,21c-3.1,1.4-6.4,2.1-9.8,2.1h-15.4v-54c0-4.2,0.7-4.9,4.9-4.9h13.3c12.6,1.4,21,9.1,22.4,21.7
			C1129.3,199.1,1130,204,1129.3,208.2z"/>
		<path id="Tracé_414" class="st2" d="M1317.3,190c-0.7,7.7-4.9,11.9-12.6,11.9h-17.5v-26.7c0-2.1,1.4-2.1,2.8-2.1h18.2v-15.4
			h-22.4c-9.1,0.7-16.1,5.6-16.1,15.4v73.7h8.4c5.6,0.7,9.1-2.8,9.1-9.1v-21.1h18.9c14.7,0.7,26.7-9.8,28.8-24.6
			c0.7-2.1,0-4.2,0.7-7H1318C1318.2,186.8,1318,188.4,1317.3,190z"/>
		<path id="Tracé_415" class="st2" d="M1334.9,166.1c3.5-3.3,6.7-6.8,9.8-10.5l10.5-10.5c1.4-1.4,2.1-3.5,0.7-6.3
			c-0.7-2.1-2.8-2.8-5.6-2.8c-0.7,0.7-2.1,0.7-3.5,2.1c-6.3,7-13.3,14-19.6,20.3c-1.9,2.1-2.2,5.3-0.7,7.7
			C1328.9,168.2,1332.5,168.2,1334.9,166.1z"/>
		<path id="Tracé_416" class="st2" d="M1318,162.6c2.8,0,4.9-2.8,4.9-5.6v-28.8c0-3.5-2.1-5.6-4.9-5.6c-3.1,0-5.6,2.4-5.6,5.5
			c0,0.1,0,0.1,0,0.2V157c-0.3,2.8,1.8,5.4,4.7,5.6C1317.4,162.7,1317.7,162.7,1318,162.6z"/>
		<path id="Tracé_417" class="st2" d="M1369.2,177.4v-3.5c-0.7-2.1-2.7-3.5-4.9-3.5h-30.2c-2.7,0-4.9,2.2-4.9,4.9s2.2,4.9,4.9,4.9
			l0,0h30.2c2.1,0,3.5-0.7,4.2-2.8l0,0C1368.5,178.1,1368.5,177.4,1369.2,177.4z"/>
	</g>
	<path id="Tracé_421" class="st3" d="M1300.5,379.4c2.9-2.8,5.6-5.7,8.2-8.8l8.8-8.8c1.4-1.4,1.6-3.6,0.6-5.3
		c-0.6-1.8-2.3-2.3-4.7-2.3c-0.6,0.6-1.8,0.6-2.9,1.8c-5.3,5.8-11.1,11.7-16.4,17c-1.6,1.8-1.9,4.4-0.6,6.4
		C1295.5,381.2,1298.5,381.2,1300.5,379.4z"/>
	<path id="Tracé_424" class="st3" d="M1394.4,546.3c4.8-4.7,9.4-9.6,13.7-14.7l14.7-14.7c2-2,2.9-4.9,1-8.8c-1-2.9-3.9-3.9-7.8-3.9
		c-1,1-2.9,1-4.9,2.9c-8.8,9.8-18.6,19.6-27.4,28.4c-2.7,3-3.1,7.4-1,10.8C1386.6,549.2,1390.5,549.2,1394.4,546.3z"/>
	<path id="Tracé_427" class="st4" d="M1270.2,499.2c6.3-6,12.2-12.4,17.8-19.1l19.1-19.1c2.5-2.5,3.8-6.4,1.3-11.4
		c-1.3-3.8-5.1-5.1-10.2-5.1c-1.3,1.3-3.8,1.3-6.4,3.8c-11.4,12.7-24.1,25.4-35.6,36.8c-3.5,3.8-4,9.6-1.3,14
		C1260,503,1265.1,503,1270.2,499.2z"/>
	<path id="Tracé_430" class="st4" d="M1265.7,636.4c5.6-5.4,10.8-11,15.8-16.9l16.9-16.9c2.3-2.3,3.4-5.6,1.1-10.2
		c-1.1-3.4-4.5-4.5-9-4.5c-1.1,1.1-3.4,1.1-5.6,3.4c-10.2,11.3-21.5,22.6-31.6,32.7c-3.1,3.4-3.6,8.5-1.1,12.4
		C1256.6,639.8,1261.2,639.8,1265.7,636.4z"/>
	<path id="Tracé_433" class="st4" d="M1185.7,543c2.9-2.8,5.6-5.7,8.2-8.8l8.8-8.8c1.4-1.4,1.7-3.6,0.6-5.3
		c-0.6-1.8-2.4-2.4-4.7-2.4c-0.6,0.6-1.8,0.6-2.9,1.8c-5.3,5.9-11.2,11.8-16.5,17.1c-1.6,1.8-1.9,4.4-0.6,6.5
		C1180.6,544.8,1183.6,544.8,1185.7,543z"/>
	<path id="Tracé_436" class="st4" d="M1085.3,663.3c12.1-12.1,24.2-24.2,33.9-36.3l36.3-36.3c4.8-4.8,7.3-12.1,2.4-21.8
		c-2.4-7.3-9.7-9.7-19.4-9.7c-2.4,2.4-7.3,2.4-12.1,7.3c-21.8,24.2-46,48.4-67.8,70.2c-7.3,7.3-7.3,19.4-2.4,26.6
		C1065.9,670.5,1075.6,670.5,1085.3,663.3z"/>
	<path id="Tracé_422" class="st3" d="M1286.5,375.5c2.3,0,4.1-2.3,4.1-4.7v-24c0-2.9-1.8-4.7-4.1-4.7c-2.5,0-4.6,2-4.7,4.5v0.1v24
		c-0.2,2.4,1.5,4.5,3.9,4.7C1285.9,375.5,1286.2,375.5,1286.5,375.5z"/>
	<path id="Tracé_425" class="st3" d="M1370.9,539.8c3.9,0,6.9-3.9,6.9-7.8v-40.2c0-4.9-2.9-7.8-6.9-7.8c-4.3-0.1-7.8,3.4-7.8,7.6
		c0,0.1,0,0.1,0,0.2V532C1363,536.8,1366,539.8,1370.9,539.8z"/>
	<path id="Tracé_428" class="st4" d="M1239.7,490.7c5.1,0,8.9-5.1,8.9-10.2v-52.1c0-6.4-3.8-10.2-8.9-10.2
		c-5.5-0.1-10.1,4.3-10.2,9.9c0,0.1,0,0.2,0,0.3v52.1C1229.5,486.9,1233.3,490.7,1239.7,490.7z"/>
	<path id="Tracé_431" class="st4" d="M1238.6,628.9c4.5,0,7.9-4.5,7.9-9v-46.3c0-5.6-3.4-9-7.9-9c-4.9-0.1-9,3.9-9,8.8
		c0,0.1,0,0.2,0,0.3V620C1229.5,625.5,1232.9,628.9,1238.6,628.9z"/>
	<path id="Tracé_434" class="st4" d="M1171.6,539.1c2.4,0,4.1-2.4,4.1-4.7v-24.1c0-2.9-1.8-4.7-4.1-4.7c-2.6,0-4.7,2-4.7,4.6v0.1
		v24.1c-0.2,2.4,1.5,4.5,3.9,4.7C1171,539.1,1171.3,539.1,1171.6,539.1z"/>
	<path id="Tracé_437" class="st4" d="M1027.2,647.2c9.7,0,16.9-9.7,16.9-19.4v-99.3c0-12.1-7.3-19.4-16.9-19.4
		c-10.5-0.2-19.2,8.3-19.4,18.8c0,0.2,0,0.4,0,0.5v99.3C1007.8,639.9,1015.1,647.2,1027.2,647.2z"/>
	<g id="Groupe_267" transform="translate(-8)">
		<path id="Tracé_418" class="st2" d="M1474,423.5c12.1-12.1,24.2-24.2,33.9-36.3l36.3-36.3c4.8-4.8,7.3-12.1,2.4-21.8
			c-2.4-7.3-9.7-9.7-19.4-9.7c-2.4,2.4-7.3,2.4-12.1,7.3c-21.8,24.2-46,48.4-67.8,70.2c-7.3,7.3-7.3,19.4-2.4,26.6
			C1454.7,430.8,1464.4,430.8,1474,423.5z"/>
		<path id="Tracé_419" class="st2" d="M1415.9,407.4c9.7,0,16.9-9.7,16.9-19.4v-99.3c0-12.1-7.3-19.4-16.9-19.4
			c-10.5-0.2-19.2,8.3-19.4,18.8c0,0.2,0,0.4,0,0.5V388C1396.6,400.1,1403.8,407.4,1415.9,407.4z"/>
		<path id="Tracé_420" class="st2" d="M1592.7,458.2v-12.1c-2.6-7.2-9.3-12-16.9-12.1h-104.1c-9.1-0.2-16.7,7-16.9,16.1
			c0,0.3,0,0.5,0,0.8c-0.2,9.1,7,16.7,16.1,16.9c0.3,0,0.5,0,0.8,0h104.1c7.3,0,12.1-2.4,14.5-9.7l0,0
			C1590.3,460.7,1590.3,458.2,1592.7,458.2z"/>
	</g>
	<path id="Tracé_423" class="st3" d="M1329.1,387.8v-2.9c-0.6-1.7-2.3-2.9-4.1-2.9h-25.1c-2.3,0-4.1,1.8-4.1,4.1s1.8,4.1,4.1,4.1
		l0,0h25.1c1.6,0.2,3.1-0.8,3.5-2.3l0,0C1328.6,388.4,1328.6,387.8,1329.1,387.8z"/>
	<path id="Tracé_426" class="st3" d="M1442.4,560.4v-4.9c-1-2.9-3.8-4.9-6.9-4.9h-42.2c-3.8,0-6.9,3.1-6.9,6.9
		c0,3.8,3.1,6.9,6.9,6.9l0,0h42.2c2.9,0,4.9-1,5.9-3.9l0,0C1441.5,561.3,1441.5,560.4,1442.4,560.4z"/>
	<path id="Tracé_429" class="st4" d="M1332.4,517.4V511c-1.3-3.8-4.9-6.3-8.9-6.4h-54.6c-4.9,0.1-8.8,4.1-8.8,9
		c0.1,4.8,4,8.7,8.8,8.8h54.6c3.8,0,6.4-1.3,7.6-5.1l0,0C1331.1,518.7,1331.1,517.4,1332.4,517.4z"/>
	<path id="Tracé_432" class="st4" d="M1321,652.6V647c-1.2-3.4-4.3-5.6-7.9-5.6h-48.6c-4.4,0-7.9,3.5-7.9,7.9s3.5,7.9,7.9,7.9h48.6
		c3.4,0,5.6-1.1,6.8-4.5l0,0C1319.9,653.8,1319.9,652.6,1321,652.6z"/>
	<path id="Tracé_435" class="st4" d="M1214.5,551.5v-2.9c-0.6-1.7-2.3-2.9-4.1-2.9h-25.3c-2.3,0-4.1,1.8-4.1,4.1s1.8,4.1,4.1,4.1
		h25.3c1.6,0.2,3.1-0.8,3.5-2.4l0,0C1213.9,552.1,1213.9,551.5,1214.5,551.5z"/>
	<path id="Tracé_438" class="st4" d="M1204,698v-12.1c-2.6-7.2-9.3-12-16.9-12.1H1083c-9.1-0.2-16.7,7-16.9,16.1c0,0.3,0,0.5,0,0.8
		c-0.2,9.1,7,16.7,16.1,16.9c0.3,0,0.5,0,0.8,0h104c7.3,0,12.1-2.4,14.5-9.7l0,0C1201.5,700.4,1201.5,698,1204,698z"/>
</g>
</svg>
