<?xml version="1.0" encoding="utf-8"?>
<!-- Generator: Adobe Illustrator 27.5.0, SVG Export Plug-In . SVG Version: 6.00 Build 0)  -->
<svg version="1.1" id="Composant_15_5" xmlns="http://www.w3.org/2000/svg" xmlns:xlink="http://www.w3.org/1999/xlink" x="0px"
	 y="0px" viewBox="0 0 281.4 46" style="enable-background:new 0 0 281.4 46;" xml:space="preserve">
<style type="text/css">
	.st0{opacity:0.2;fill:none;stroke:#FFFFFF;stroke-miterlimit:10;enable-background:new    ;}
	.st1{fill:url(#SVGID_1_);}
	.st2{fill:#FFFFFF;}
	.st3{fill:url(#SVGID_00000153697563033806025710000007423989474715427243_);}
	.st4{fill:url(#SVGID_00000168839024250691381640000018272179501802086794_);}
	.st5{fill:#D34A3C;}
	.st6{enable-background:new    ;}
	.st7{opacity:0.5;}
	.st8{fill:#35D9C0;}
	.st9{fill:#07A2CF;}
	.st10{fill:#DE5D80;}
</style>
<g>
	<line class="st0" x1="130.6" y1="5" x2="130.6" y2="39.2"/>
</g>
<g id="Rectangle_69_00000080889752036887398040000013913109762718529930_" transform="translate(65.996 38.892)">
	
		<linearGradient id="SVGID_1_" gradientUnits="userSpaceOnUse" x1="-3123.7456" y1="292.3363" x2="-3123.9524" y2="292.5982" gradientTransform="matrix(66.506 0 0 -66.507 207720.6562 19438.4863)">
		<stop  offset="0" style="stop-color:#7613E0"/>
		<stop  offset="1" style="stop-color:#9F57ED"/>
	</linearGradient>
	<path class="st1" d="M-37.3-22.1h6.4c3.4,0,6.2,2.8,6.2,6.2v6.4c0,3.4-2.8,6.2-6.2,6.2h-6.4c-3.4,0-6.2-2.8-6.2-6.2v-6.4
		C-43.5-19.3-40.7-22.1-37.3-22.1z"/>
	<g>
		<path class="st2" d="M-30.5-2h-7.2c-3.9,0-7.1-3.2-7.1-7.1v-7.2c0-3.9,3.2-7.1,7.1-7.1h7.2c3.9,0,7.1,3.2,7.1,7.1v7.2
			C-23.4-5.2-26.6-2-30.5-2z M-37.7-21.4c-2.8,0-5.1,2.3-5.1,5.1v7.2c0,2.8,2.3,5.1,5.1,5.1h7.2c2.8,0,5.1-2.3,5.1-5.1v-7.2
			c0-2.8-2.3-5.1-5.1-5.1H-37.7z"/>
	</g>
</g>
<g id="Rectangle_70_00000173153342373744648210000005037989808013505693_" transform="translate(110.109) rotate(90)">
	
		<linearGradient id="SVGID_00000036933458783638907830000014961459048054788512_" gradientUnits="userSpaceOnUse" x1="-1.5179" y1="1220.1655" x2="-1.3027" y2="1220.4136" gradientTransform="matrix(0 -66.506 -66.507 0 81156.6953 -23.4025)">
		<stop  offset="0" style="stop-color:#67ED9A"/>
		<stop  offset="1" style="stop-color:#4AC87A"/>
	</linearGradient>
	<path style="fill:url(#SVGID_00000036933458783638907830000014961459048054788512_);" d="M10.5,75.2h6.9c3.7,0,6.7,3,6.7,6.7v6.9
		c0,3.7-3,6.7-6.7,6.7h-6.9c-3.7,0-6.7-3-6.7-6.7v-6.9C3.7,78.2,6.8,75.2,10.5,75.2z"/>
	<g>
		<path class="st2" d="M24.4,81.8V89c0,3.9-3.2,7.1-7.1,7.1h-7.1c-3.9,0-7.1-3.2-7.1-7.1v-7.2c0-3.9,3.2-7.1,7.1-7.1h7.2
			C21.3,74.7,24.4,77.9,24.4,81.8z M5,89c0,2.8,2.3,5.1,5.1,5.1h7.2c2.8,0,5.1-2.3,5.1-5.1v-7.2c0-2.8-2.3-5.1-5.1-5.1h-7.1
			c-2.8,0-5.1,2.3-5.1,5.1L5,89L5,89z"/>
	</g>
</g>
<g id="Rectangle_71_00000168102267540602379660000011224577753851436420_" transform="translate(88.714 52.366) rotate(90)">
	
		<linearGradient id="SVGID_00000178182352911810313630000014894464292764311727_" gradientUnits="userSpaceOnUse" x1="-115.8252" y1="1261.0836" x2="-116.0207" y2="1260.7845" gradientTransform="matrix(0 -66.506 -66.507 0 83853.3594 -7625.5713)">
		<stop  offset="0" style="stop-color:#FFA800"/>
		<stop  offset="1" style="stop-color:#FFC24D"/>
	</linearGradient>
	<path style="fill:url(#SVGID_00000178182352911810313630000014894464292764311727_);" d="M-25.2,60.9h6.7c3.6,0,6.6,3,6.6,6.6v6.7
		c0,3.6-3,6.6-6.6,6.6h-6.7c-3.6,0-6.6-3-6.6-6.6v-6.7C-31.7,63.8-28.8,60.9-25.2,60.9z"/>
	<g>
		<path class="st2" d="M-11.1,67.2v7.2c0,3.9-3.2,7.1-7.1,7.1h-7.2c-3.9,0-7.1-3.2-7.1-7.1v-7.2c0-3.9,3.2-7.1,7.1-7.1h7.2
			C-14.3,60.2-11.1,63.4-11.1,67.2z M-30.5,74.5c0,2.8,2.3,5.1,5.1,5.1h7.2c2.8,0,5.1-2.3,5.1-5.1v-7.2c0-2.8-2.3-5.1-5.1-5.1h-7.2
			c-2.8,0-5.1,2.3-5.1,5.1V74.5z"/>
	</g>
</g>
<g id="Rectangle_72_00000040548385054437995950000007137385315672586942_" transform="translate(66.506 13.481) rotate(90)">
	<g>
		<g>
			<path class="st5" d="M1.3,45.6h6.9c3.7,0,6.7,3,6.7,6.7v6.9c0,3.7-3,6.7-6.7,6.7H1.3c-3.7,0-6.7-3-6.7-6.7v-6.9
				C-5.4,48.6-2.4,45.6,1.3,45.6z"/>
		</g>
	</g>
	<g>
		<path class="st2" d="M15.3,52.2v7.2c0,3.9-3.2,7.1-7.1,7.1H1c-3.9,0-7.1-3.2-7.1-7.1v-7.2c0-3.9,3.2-7.1,7.1-7.1h7.2
			C12.1,45.1,15.3,48.3,15.3,52.2z M-4.1,59.4c0,2.8,2.3,5.1,5.1,5.1h7.2c2.8,0,5.1-2.3,5.1-5.1v-7.2c0-2.8-2.3-5.1-5.1-5.1H1
			c-2.8,0-5.1,2.3-5.1,5.1V59.4z"/>
	</g>
</g>
<g class="st6">
	<path class="st2" d="M61.7,15.3c0,1-0.2,1.9-0.5,2.7c-0.3,0.8-0.8,1.5-1.4,2.1c-0.6,0.6-1.3,1.1-2.2,1.4S55.8,22,54.8,22h-5.2V8.7
		h5.2c1,0,2,0.2,2.8,0.5c0.8,0.4,1.6,0.8,2.2,1.4c0.6,0.6,1.1,1.3,1.4,2.1C61.6,13.5,61.7,14.4,61.7,15.3z M58.6,15.3
		c0-0.7-0.1-1.3-0.3-1.8s-0.4-1-0.7-1.3c-0.3-0.4-0.7-0.6-1.2-0.9c-0.4-0.2-1-0.3-1.6-0.3h-2.1v8.6h2.1c0.6,0,1.1-0.1,1.6-0.3
		c0.4-0.2,0.9-0.5,1.2-0.9s0.6-0.8,0.7-1.3C58.5,16.6,58.6,16,58.6,15.3z"/>
	<path class="st2" d="M65.4,17.8c0.1,0.8,0.3,1.4,0.7,1.7c0.4,0.4,0.9,0.5,1.5,0.5c0.3,0,0.6,0,0.9-0.1s0.4-0.2,0.6-0.3
		c0.2-0.1,0.4-0.2,0.5-0.3s0.3-0.1,0.5-0.1s0.4,0.1,0.5,0.3l0.8,1c-0.3,0.3-0.6,0.6-1,0.8c-0.4,0.2-0.7,0.4-1,0.5
		c-0.4,0.1-0.7,0.2-1.1,0.3s-0.7,0.1-1,0.1c-0.7,0-1.3-0.1-1.9-0.3c-0.6-0.2-1.1-0.5-1.5-1c-0.4-0.4-0.8-1-1-1.6
		c-0.3-0.6-0.4-1.4-0.4-2.2c0-0.6,0.1-1.2,0.3-1.8s0.5-1.1,0.9-1.5c0.4-0.4,0.9-0.8,1.5-1c0.6-0.3,1.2-0.4,2-0.4
		c0.6,0,1.2,0.1,1.7,0.3s1,0.5,1.3,0.9c0.4,0.4,0.7,0.8,0.9,1.4c0.2,0.5,0.3,1.2,0.3,1.8c0,0.2,0,0.4,0,0.5s-0.1,0.3-0.1,0.3
		s-0.1,0.1-0.2,0.2c-0.1,0-0.2,0-0.3,0L65.4,17.8L65.4,17.8z M69,16.1c0-0.2,0-0.4-0.1-0.7c-0.1-0.2-0.2-0.4-0.3-0.6
		c-0.1-0.2-0.3-0.3-0.5-0.4c-0.2-0.1-0.5-0.2-0.8-0.2c-0.5,0-1,0.2-1.3,0.4c-0.3,0.3-0.5,0.7-0.6,1.3L69,16.1L69,16.1z"/>
	<path class="st2" d="M81.6,12.5L77.9,22h-2.6l-3.7-9.5H74c0.2,0,0.4,0,0.5,0.1s0.2,0.2,0.3,0.4l1.3,4.3c0.1,0.4,0.2,0.7,0.3,1
		c0.1,0.3,0.2,0.7,0.2,1c0.1-0.7,0.3-1.3,0.5-2l1.4-4.3c0.1-0.1,0.1-0.3,0.3-0.4c0.1-0.1,0.3-0.1,0.5-0.1L81.6,12.5L81.6,12.5z"/>
	<path class="st2" d="M87.6,8.7c0.9,0,1.7,0.1,2.3,0.3c0.6,0.2,1.2,0.4,1.6,0.7s0.7,0.7,0.9,1.1c0.2,0.4,0.3,0.9,0.3,1.5
		c0,0.3,0,0.6-0.1,0.9c-0.1,0.3-0.2,0.5-0.4,0.8c-0.2,0.3-0.4,0.4-0.7,0.7c-0.3,0.2-0.6,0.4-1,0.5c0.9,0.2,1.5,0.5,2,1
		c0.4,0.5,0.6,1.1,0.6,1.9c0,0.6-0.1,1.1-0.3,1.6c-0.2,0.5-0.5,0.9-1,1.3c-0.4,0.4-1,0.6-1.6,0.9c-0.6,0.2-1.3,0.3-2.1,0.3h-5.3V8.7
		H87.6z M85.8,11v3.3h1.6c0.4,0,0.6,0,0.9-0.1s0.5-0.1,0.7-0.3c0.2-0.1,0.4-0.3,0.4-0.5c0.1-0.2,0.2-0.5,0.2-0.8s0-0.6-0.1-0.8
		s-0.2-0.4-0.4-0.5s-0.3-0.2-0.6-0.2C88.2,11,88,11,87.6,11H85.8L85.8,11z M88,19.6c0.4,0,0.7-0.1,1-0.2s0.4-0.2,0.6-0.4
		s0.3-0.4,0.3-0.5c0.1-0.2,0.1-0.4,0.1-0.6c0-0.3,0-0.4-0.1-0.7c-0.1-0.2-0.2-0.4-0.3-0.5s-0.4-0.2-0.6-0.3c-0.3-0.1-0.6-0.1-1-0.1
		h-2.1v3.3L88,19.6L88,19.6z"/>
	<path class="st2" d="M98.9,12.4c0.7,0,1.4,0.1,2,0.4c0.6,0.2,1.1,0.5,1.5,1c0.4,0.4,0.7,0.9,1,1.5c0.2,0.6,0.4,1.3,0.4,2
		c0,0.8-0.1,1.4-0.4,2.1c-0.2,0.6-0.6,1.1-1,1.5s-0.9,0.7-1.5,1c-0.6,0.2-1.3,0.4-2,0.4s-1.4-0.1-2-0.4c-0.6-0.2-1.1-0.5-1.5-1
		c-0.4-0.4-0.8-0.9-1-1.5S94,18.1,94,17.3c0-0.7,0.1-1.4,0.4-2c0.2-0.6,0.6-1.1,1-1.5s0.9-0.7,1.5-1C97.5,12.5,98.1,12.4,98.9,12.4z
		 M98.9,20c0.6,0,1.1-0.2,1.4-0.7c0.3-0.4,0.4-1.2,0.4-2.1c0-0.9-0.2-1.6-0.4-2.1c-0.3-0.4-0.8-0.7-1.4-0.7c-0.7,0-1.2,0.2-1.5,0.7
		s-0.5,1.2-0.5,2.1s0.2,1.6,0.5,2.1S98.2,20,98.9,20z"/>
	<path class="st2" d="M113.7,22H111c-0.2,0-0.4-0.1-0.5-0.2s-0.2-0.2-0.3-0.4l-1.7-2.9c0,0.1-0.1,0.2-0.1,0.3s-0.1,0.2-0.1,0.3
		l-1.4,2.4c-0.1,0.1-0.2,0.2-0.3,0.4c-0.1,0.1-0.3,0.2-0.4,0.2h-2.5l3.2-4.9l-3-4.6h2.7c0.2,0,0.4,0,0.4,0.1
		c0.1,0.1,0.2,0.1,0.3,0.3l1.7,2.8c0-0.1,0.1-0.2,0.1-0.3c0.1-0.1,0.1-0.2,0.2-0.3l1.2-2.1c0.1-0.1,0.2-0.2,0.3-0.3
		c0.1-0.1,0.2-0.1,0.4-0.1h2.6l-3,4.5L113.7,22z"/>
</g>
<g class="st6">
	<path class="st2" d="M50,36.9v-0.7h5.1v0.7H50z"/>
	<path class="st2" d="M56.2,35.9V35c0.4,0.2,0.7,0.4,1.1,0.5c0.4,0.1,0.7,0.1,1,0.1c0.4,0,0.8-0.1,1-0.2c0.2-0.2,0.3-0.3,0.3-0.5
		c0-0.1,0-0.3-0.1-0.4c-0.1-0.1-0.3-0.2-0.7-0.4L58.5,34l-0.6-0.3c-0.6-0.3-1.1-0.5-1.2-0.7c-0.2-0.2-0.3-0.5-0.3-0.8
		c0-0.4,0.2-0.8,0.5-1.1c0.3-0.3,0.9-0.4,1.6-0.4c0.6,0,1.1,0.1,1.6,0.3v0.8c-0.6-0.2-1.1-0.3-1.6-0.3c-0.4,0-0.7,0.1-0.9,0.2
		s-0.3,0.3-0.3,0.5s0.1,0.4,0.3,0.4c0.2,0.1,0.5,0.3,0.9,0.4l0.6,0.2c0.5,0.2,0.9,0.4,1.2,0.6c0.2,0.2,0.3,0.5,0.3,0.9
		c0,0.4-0.2,0.8-0.5,1.1c-0.4,0.3-0.9,0.4-1.7,0.4C57.6,36.3,56.9,36.2,56.2,35.9z"/>
	<path class="st2" d="M65.4,35c-0.3,0.4-0.6,0.8-1,1s-0.7,0.3-1,0.3c-0.4,0-0.8-0.2-1.2-0.6c-0.4-0.4-0.5-1-0.5-1.7
		c0-0.6,0.1-1.2,0.4-1.6c0.2-0.5,0.5-0.9,0.9-1.1c0.4-0.3,0.9-0.4,1.4-0.4c0.2,0,0.4,0,0.7,0.1c0.1,0,0.1,0,0.2,0h0.9v3.7
		c0,0.6,0.1,1.2,0.2,1.5h-0.9C65.5,35.9,65.4,35.5,65.4,35z M65.4,34v-2.2c-0.3-0.1-0.6-0.1-0.9-0.1c-0.5,0-1,0.2-1.3,0.6
		c-0.4,0.4-0.5,1-0.5,1.7c0,0.5,0.1,0.9,0.3,1.2s0.4,0.4,0.7,0.4s0.6-0.1,0.9-0.4C64.8,34.8,65.1,34.4,65.4,34z"/>
	<path class="st2" d="M67.7,36.2v-5.3h0.9v1.2c0.3-0.4,0.5-0.7,0.9-1s0.7-0.4,1.1-0.4c0.3,0,0.6,0.1,0.8,0.3s0.4,0.4,0.5,0.6
		s0.2,0.8,0.2,1.6v2.9h-0.9v-3c0-0.5,0-0.8-0.1-1c0-0.2-0.1-0.3-0.3-0.4c-0.1-0.1-0.3-0.2-0.4-0.2c-0.3,0-0.6,0.2-1,0.4
		s-0.6,0.6-0.9,1.1v3L67.7,36.2L67.7,36.2z"/>
	<path class="st2" d="M77.8,35.9c-0.4,0.2-0.7,0.3-0.9,0.3c-0.2,0-0.4,0.1-0.5,0.1c-0.4,0-0.7-0.1-1-0.2c-0.3-0.2-0.5-0.4-0.7-0.6
		c-0.1-0.3-0.2-0.7-0.2-1.3v-2.1h-1.3v-0.7h1.3v-2.1h0.9v2.1h2.3v0.7h-2.3v2.1c0,0.4,0.1,0.7,0.2,0.9s0.2,0.3,0.4,0.4
		c0.2,0.1,0.4,0.1,0.6,0.1c0.4,0,0.9-0.1,1.3-0.4L77.8,35.9L77.8,35.9z"/>
	<path class="st2" d="M83.6,35.8c-0.7,0.3-1.3,0.5-2,0.5c-0.5,0-0.9-0.1-1.3-0.4c-0.4-0.2-0.7-0.6-0.9-1c-0.2-0.4-0.3-0.9-0.3-1.4
		s0.1-0.9,0.3-1.4c0.2-0.5,0.5-0.8,0.9-1c0.4-0.3,0.8-0.4,1.3-0.4c0.6,0,1.1,0.2,1.5,0.7c0.4,0.4,0.6,1.1,0.6,2.1v0.2h-3.6
		c0,0.4,0.1,0.7,0.2,1s0.4,0.5,0.6,0.7c0.3,0.2,0.5,0.2,0.8,0.2c0.6,0,1.2-0.2,1.9-0.6V35.8L83.6,35.8z M80.1,33h2.6v-0.1
		c0-0.4-0.1-0.8-0.3-1c-0.2-0.3-0.5-0.4-0.8-0.4s-0.7,0.1-0.9,0.4C80.4,32.1,80.2,32.5,80.1,33z M80.6,30.1l1.4-1.5h1l-1.6,1.5H80.6
		z"/>
</g>
<g class="st7">
	<path id="Tracé_137" class="st2" d="M183.2,30.2c2,6.5-3.6,12.1-10.1,10.1l-19.8-5.8c-6.6-2-9.2-10.2-4.7-14.8l13.9-13.9
		c4.6-4.6,12.8-2,14.8,4.7L183.2,30.2z"/>
	<g>
		<path class="st8" d="M167.1,20.5c-0.4,0.1-0.7,0.2-0.9,0.6c-0.3,0.7-0.7,1.3-1,2c-0.2,0.4-0.4,0.9-0.7,1.3
			c-0.1-0.1-0.1-0.2-0.1-0.2c-0.6-1.1-1.2-2.2-1.7-3.3c-0.2-0.3-0.8-0.6-1.1-0.4c-0.4,0.2-0.6,0.6-0.6,1c0,1.9,0,3.8,0,5.7
			c0,0.1,0,0.1,0,0.2c0.2,0,0.4,0,0.6,0c0.6,0,0.8-0.2,0.8-0.8c0-1.2,0-2.4,0-3.6c0-0.1,0-0.1,0-0.2c0.1,0.1,0.1,0.1,0.2,0.2
			c0.4,0.9,0.9,1.8,1.4,2.6c0.2,0.4,0.4,0.6,0.8,0.5c0.2,0,0.2-0.1,0.3-0.2c0.5-1,1-2,1.5-3c0-0.1,0.1-0.1,0.1-0.2
			c0.1,0.1,0.1,0.2,0.1,0.2c0,1.2,0,2.4,0,3.5c0,0.4,0.2,0.7,0.6,0.8c0.3,0.1,0.6,0,0.8,0c0-0.1,0-0.1,0-0.1c0-2,0-4,0-6.1
			c0-0.1,0-0.1,0-0.2C167.9,20.7,167.5,20.4,167.1,20.5z"/>
		<path class="st8" d="M156.5,20.5c-0.6,0-1.1,0-1.6,0c-0.7,0-1,0.4-1,1.1c0,1.9,0,3.8,0,5.7c0,0.1,0,0.1,0,0.2c0.1,0,0.1,0,0.1,0
			c0.9,0,1.8,0,2.6,0c0.9-0.1,1.8-0.4,2.4-1.1c0.6-0.7,0.8-1.5,0.8-2.4c0-0.8-0.2-1.5-0.6-2.1C158.6,20.8,157.6,20.5,156.5,20.5z
			 M158.4,24.4c-0.2,0.7-0.4,1.3-1.2,1.7c-0.3,0.1-0.5,0.2-0.8,0.2c-0.4,0-0.8,0-1.2,0c0-0.1,0-0.2,0-0.2c0-1.3,0-2.6,0-4
			c0-0.3,0.1-0.4,0.4-0.4s0.7,0,1,0c1,0.1,1.7,0.7,1.8,1.7C158.4,23.7,158.5,24.1,158.4,24.4z"/>
		<path class="st8" d="M173.2,23c-0.1,0.6-0.4,0.9-1,0.9c-0.2,0-0.5,0-0.7,0c-0.2,0-0.4,0-0.7,0c0-0.2,0-0.3,0-0.5c0-0.6,0-1,0-1.6
			c0-0.2,0.1-0.2,0.2-0.2c0.3,0,0.7,0,1,0c0.2,0,0.3,0,0.4,0c0-0.4,0-0.8,0-1.2c-0.1,0-0.1,0-0.2,0c-0.6,0-1.1,0-1.6,0
			c-0.7,0.1-1.3,0.4-1.3,1.2c0,1.9,0,3.7,0,5.6c0,0.1,0,0.1,0,0.2c0.2,0,0.4,0,0.7,0c0.4,0.1,0.7-0.2,0.7-0.7s0-0.9,0-1.4
			c0-0.1,0-0.1,0-0.2c0.5,0,1,0,1.5,0c1.2,0.1,2.1-0.8,2.3-1.9c0.1-0.2,0-0.3,0.1-0.6c-0.5,0-0.9,0-1.4,0
			C173.2,22.8,173.2,22.9,173.2,23z"/>
		<path class="st8" d="M174.6,21.1c0.3-0.3,0.6-0.6,0.8-0.8c0.3-0.3,0.6-0.6,0.8-0.8c0.1-0.1,0.2-0.3,0.1-0.5
			c-0.1-0.2-0.2-0.2-0.4-0.2c-0.1,0.1-0.2,0.1-0.3,0.2c-0.5,0.6-1,1.1-1.5,1.6c-0.2,0.2-0.2,0.4-0.1,0.6
			C174.1,21.3,174.3,21.3,174.6,21.1z"/>
		<path class="st8" d="M173.2,20.8c0.2,0,0.4-0.2,0.4-0.4c0-0.4,0-0.7,0-1.1s0-0.8,0-1.2c0-0.3-0.2-0.4-0.4-0.4
			c-0.2,0-0.4,0.2-0.4,0.4c0,0.8,0,1.5,0,2.3C172.8,20.7,173,20.8,173.2,20.8z"/>
		<path class="st8" d="M177.3,22c0-0.1,0-0.2,0-0.3c-0.1-0.2-0.2-0.3-0.4-0.3c-0.8,0-1.5,0-2.4,0c-0.2,0-0.4,0.2-0.4,0.4
			s0.2,0.4,0.4,0.4c0.8,0,1.6,0,2.4,0C177,22.2,177.1,22.2,177.3,22L177.3,22C177.2,22.1,177.2,22,177.3,22z"/>
	</g>
</g>
<g class="st7">
	<path id="Tracé_139" class="st2" d="M277.5,30.2c2,6.6-3.8,12.3-10.4,10.4l-20.2-6c-6.8-2-9.4-10.4-4.8-15.1l14.2-14.1
		c4.7-4.7,13.1-2,15.1,4.8L277.5,30.2z"/>
	<g id="LTCZ4Q.tif" transform="translate(23.941 17.279)">
		<g id="Groupe_272" transform="translate(75.543 109.569)">
			<path id="Tracé_474" class="st9" d="M155.4-106.1c0.2-0.1,0.5-0.2,0.8-0.2c0.4-0.1,0.8-0.1,1.1-0.1c0.2,0,0.4,0.1,0.6,0.1
				c0.3,0.1,0.6,0.4,0.7,0.7l0.1,0.1c0.2-0.2,0.3-0.3,0.5-0.4c0.4-0.3,0.9-0.4,1.3-0.5c0.4-0.1,0.8-0.1,1.2,0.1
				c0.7,0.2,1.2,0.7,1.3,1.5c0.1,0.4,0,0.8-0.1,1.1c-0.2,0.6-0.3,1.2-0.5,1.9c0,0.1-0.1,0.2,0,0.2c0,0.1,0.1,0.2,0.2,0.2l0,0
				c0.1,0,0.2,0,0.3-0.1s0.2-0.1,0.3-0.1c-0.1,0.2-0.1,0.4-0.2,0.6c-0.2,0.6-0.3,1.1-0.4,1.7c0,0.1-0.1,0.1-0.1,0.1
				c-0.6,0.2-1.2,0.3-1.9,0.3c-0.4,0-0.9-0.2-1.2-0.4c-0.3-0.3-0.5-0.6-0.5-1.1c0-0.4,0.1-0.8,0.2-1.2c0.1-0.4,0.3-1,0.4-1.4
				c0.1-0.1,0.1-0.3,0-0.4c0-0.1-0.1-0.1-0.2-0.1c-0.2,0-0.3,0.1-0.3,0.2c-0.1,0.2-0.2,0.4-0.3,0.6c-0.1,0.4-0.2,0.8-0.3,1.3
				c-0.2,0.8-0.4,1.5-0.6,2.3c0,0.1-0.1,0.1-0.1,0.1c-1.1,0-2.1,0-3.3,0c-0.1,0-0.1,0-0.1-0.1c0.3-1.4,0.7-2.9,1.1-4.3
				c0.1-0.3,0.2-0.7,0.3-1.1c0.1-0.4,0.1-0.9-0.1-1.3C155.6-105.8,155.5-105.9,155.4-106.1z"/>
			<path id="Tracé_475" class="st9" d="M166.4-98.7c-0.7,0-1.3-0.1-2-0.2c-0.3-0.1-0.7-0.2-1-0.3c-0.1,0-0.1-0.1-0.1-0.1
				c0.2-0.7,0.3-1.4,0.5-2.1c0-0.1,0.1-0.1,0.1-0.1c0.4,0.2,0.9,0.3,1.4,0.4c0.3,0.1,0.6,0.1,0.8,0c0.1,0,0.2-0.1,0.2-0.2
				c0.1-0.1,0-0.2-0.1-0.3c-0.1-0.1-0.2-0.1-0.3-0.2c-0.3-0.1-0.7-0.2-1-0.3c-0.3-0.1-0.6-0.3-0.8-0.6c-0.3-0.3-0.5-0.7-0.5-1.2
				c-0.1-0.4,0.1-0.8,0.2-1.2c0.2-0.4,0.6-0.8,1.1-1c0.4-0.2,0.8-0.3,1.3-0.4s1-0.1,1.4-0.1c0.8,0,1.7,0.2,2.5,0.6
				c0.1,0.1,0.2,0.1,0.3,0.2c0.1,0,0.1,0.1,0.1,0.1c-0.3,0.6-0.5,1.3-0.8,1.9c0,0.1-0.1,0.1-0.1,0c-0.4-0.2-0.8-0.4-1.2-0.5
				c-0.3-0.1-0.6-0.1-0.9-0.1c-0.1,0-0.1,0-0.1,0c-0.1,0-0.2,0.1-0.2,0.2s0.1,0.2,0.1,0.2c0.1,0.1,0.2,0.1,0.3,0.1
				c0.3,0.1,0.7,0.2,1.1,0.4c0.3,0.1,0.6,0.3,0.8,0.4c0.3,0.3,0.6,0.8,0.6,1.3c0,0.4-0.1,0.7-0.2,1.1c-0.2,0.6-0.7,1-1.2,1.2
				c-0.4,0.2-0.8,0.3-1.2,0.3C167-98.7,166.7-98.7,166.4-98.7z"/>
			<path id="Tracé_476" class="st9" d="M151-100.6c0-0.3,0.1-0.7,0.2-1c0.2-0.7,0.3-1.3,0.5-2c0-0.1,0-0.1,0-0.2s-0.1-0.2-0.2-0.2
				c-0.2,0-0.3,0.1-0.5,0.2c-0.1,0-0.1,0-0.1-0.1c-0.2-0.6-0.3-1.1-0.4-1.7c0-0.1,0-0.1,0.1-0.1c0.5-0.3,1-0.5,1.5-0.7
				c0.3-0.1,0.7-0.2,1.1-0.2s0.7,0,1,0.1c0.7,0.2,1.2,0.7,1.2,1.5c0,0.3-0.1,0.7-0.1,1.1c-0.3,1.2-0.6,2.4-0.9,3.6
				c-0.1,0.4-0.2,0.8-0.3,1.2c0,0.1-0.1,0.1-0.1,0.1c-0.2,0-0.4,0.1-0.6,0.1s-0.4,0-0.6-0.1c-0.2,0-0.4-0.1-0.7-0.2
				c-0.4-0.2-0.8-0.6-0.8-1.1C151-100.4,151-100.5,151-100.6z"/>
			<path id="Tracé_477" class="st9" d="M154.1-107.2c-0.3,0-0.7-0.1-1.1-0.2c-0.6-0.3-0.8-0.8-0.8-1.5c0.1-0.6,0.6-1.1,1.2-1.2
				c0.5-0.1,1-0.1,1.5,0.1s0.8,0.6,1,1.1c0.2,0.8-0.3,1.5-1.1,1.7l0,0C154.5-107.2,154.3-107.2,154.1-107.2z"/>
		</g>
	</g>
</g>
<path class="st10" d="M211,32.7c0.1,0.2,0.2,0.4,0.4,0.5c0.4,0.2,1,0.1,1.2-0.3l8-12.9c0.2-0.2,0.3-0.4,0.2-0.5
	c-0.1-0.7-0.6-1.2-1.3-1.2l-15.2,0.5c-0.3,0-0.4,0-0.6,0.2c-0.3,0.4-0.3,0.9,0,1.2l3.9,3.8l6.4-1.4l-4.4,4.8L211,32.7z"/>
<path class="st2" d="M230.2,30.7l-6-20c-2-6.7-10.4-9.3-15-4.7l-14.1,14.1c-4.6,4.6-2,13.1,4.7,15l20,6
	C226.5,43,232.2,37.3,230.2,30.7z M220.6,20l-8,12.9c-0.2,0.4-0.8,0.5-1.2,0.3c-0.2-0.1-0.3-0.3-0.4-0.5l-1.4-5.3l4.4-4.8l-6.4,1.4
	l-3.9-3.8c-0.3-0.3-0.3-0.8,0-1.2c0.2-0.2,0.3-0.2,0.6-0.2l15.2-0.5c0.7,0,1.2,0.5,1.3,1.2C220.9,19.6,220.8,19.8,220.6,20z"/>
</svg>
