<?xml version="1.0" encoding="utf-8"?>
<!-- Generator: Adobe Illustrator 27.5.0, SVG Export Plug-In . SVG Version: 6.00 Build 0)  -->
<svg version="1.1" id="Composant_15_5" xmlns="http://www.w3.org/2000/svg" xmlns:xlink="http://www.w3.org/1999/xlink" x="0px"
	 y="0px" viewBox="0 0 439.2 51.1" style="enable-background:new 0 0 439.2 51.1;" xml:space="preserve">
<style type="text/css">
	.st0{opacity:0.3;}
	.st1{fill:#FFFFFF;}
	.st2{fill:#5FD67A;}
	.st3{opacity:0.2;fill:none;stroke:#FFFFFF;stroke-miterlimit:10;enable-background:new    ;}
	.st4{enable-background:new    ;}
	.st5{fill:#FF7765;}
	.st6{fill:none;}
	.st7{fill:#D34A3C;}
	.st8{fill:#C6E66D;}
	.st9{fill:#7613E0;}
	.st10{fill:#FFA800;}
	.st11{fill:url(#SVGID_1_);}
	.st12{fill:url(#SVGID_00000099636688239262593980000002388149442477322658_);}
	.st13{fill:url(#SVGID_00000147901352887155965520000003661048789499901628_);}
</style>
<g>
	<g class="st0">
		<g>
			<path class="st1" d="M255.7,7h16c6.1,0,11,4.9,11,11l0,0v16c0,6.1-4.9,11-11,11h-16c-6.1,0-11-4.9-11-11V18
				C244.7,11.9,249.6,7,255.7,7z"/>
			<g>
				<g>
					<path class="st2" d="M258.6,12.2L258.6,12.2c-0.1,0.1-0.1,0.1-0.2,0.1h-0.1l-0.2-0.1c-0.1,0-0.1-0.1-0.2-0.1
						c-0.1,0-0.2-0.1-0.2-0.1c-0.2,0-0.3,0-0.4,0.1c-0.1,0.1-0.1,0.2-0.1,0.3s0,0.2,0.1,0.2c0.1,0.1,0.1,0.1,0.2,0.2l0.3,0.2
						l0.3,0.1l0.3,0.1c0.1,0.1,0.2,0.1,0.3,0.2c0.1,0.1,0.2,0.2,0.2,0.3c0.1,0.1,0.1,0.3,0.1,0.4c0,0.2,0,0.3-0.1,0.5
						s-0.2,0.3-0.3,0.4c-0.1,0.1-0.3,0.2-0.4,0.3c-0.2,0.1-0.4,0.1-0.6,0.1c-0.3,0-0.5-0.1-0.7-0.1c-0.1,0-0.2-0.1-0.3-0.2
						c-0.1-0.1-0.2-0.1-0.3-0.2l0.2-0.4c0,0,0-0.1,0.1-0.1h0.1c0.1,0,0.1,0,0.2,0.1l0.2,0.1l0.2,0.1c0.1,0,0.2,0.1,0.3,0.1
						c0.2,0,0.3,0,0.4-0.1c0.1-0.1,0.2-0.2,0.1-0.4c0-0.1,0-0.2-0.1-0.3s-0.1-0.1-0.2-0.2c-0.1,0-0.2-0.1-0.3-0.1l-0.3-0.1
						c-0.1,0-0.2-0.1-0.3-0.1c-0.1-0.1-0.2-0.1-0.3-0.2c-0.1-0.1-0.2-0.2-0.2-0.3c-0.1-0.2-0.1-0.3-0.1-0.5c0-0.1,0-0.3,0.1-0.4
						c0.1-0.1,0.2-0.3,0.3-0.4c0.1-0.1,0.3-0.2,0.4-0.3c0.2-0.1,0.4-0.1,0.6-0.1s0.5,0,0.7,0.1c0.2,0.1,0.4,0.2,0.5,0.3L258.6,12.2z
						"/>
					<path class="st2" d="M260,14.1c0,0.2,0.1,0.4,0.2,0.6c0.1,0.1,0.3,0.2,0.5,0.2c0.1,0,0.2,0,0.3,0l0.2-0.1l0.2-0.1h0.1
						c0.1,0,0.1,0,0.1,0.1l0.2,0.3c-0.1,0.1-0.2,0.2-0.3,0.2c-0.1,0.1-0.2,0.1-0.3,0.1s-0.2,0.1-0.3,0.1h-0.3c-0.2,0-0.4,0-0.6-0.1
						s-0.3-0.2-0.4-0.3c-0.1-0.1-0.2-0.3-0.3-0.5s-0.1-0.4-0.1-0.7c0-0.2,0-0.4,0.1-0.5c0.1-0.2,0.2-0.3,0.3-0.4
						c0.1-0.1,0.3-0.2,0.4-0.3c0.2-0.1,0.4-0.1,0.6-0.1c0.2,0,0.3,0,0.5,0.1c0.1,0.1,0.3,0.1,0.4,0.2c0.1,0.1,0.2,0.3,0.3,0.4
						c0.1,0.2,0.1,0.4,0.1,0.5v0.1V14c0,0,0,0-0.1,0L260,14.1L260,14.1z M261.2,13.7c0-0.1,0-0.2,0-0.2c0-0.1-0.1-0.1-0.1-0.2
						c-0.1-0.1-0.1-0.1-0.2-0.1s-0.2,0-0.2,0c-0.2,0-0.3,0-0.4,0.2c-0.1,0.1-0.2,0.3-0.2,0.4L261.2,13.7z"/>
					<path class="st2" d="M264.1,13.2C264.1,13.2,264,13.2,264.1,13.2l-0.2,0.1h-0.1l-0.1-0.1l-0.2-0.1c-0.1,0-0.1,0-0.2,0
						c-0.1,0-0.2,0-0.3,0.1c-0.1,0-0.1,0.1-0.1,0.2c0,0.1,0,0.1,0.1,0.1c0,0,0.1,0.1,0.2,0.1l0.2,0.1l0.2,0.1l0.2,0.1
						c0.1,0,0.1,0.1,0.2,0.2c0.1,0.1,0.1,0.1,0.1,0.2c0,0.1,0.1,0.2,0.1,0.3s0,0.3-0.1,0.4s-0.1,0.2-0.2,0.3s-0.2,0.2-0.4,0.2
						c-0.2,0.1-0.3,0.1-0.5,0.1c-0.1,0-0.2,0-0.3,0s-0.2,0-0.3-0.1l-0.2-0.1c-0.1,0-0.1-0.1-0.2-0.1l0.2-0.3c0,0,0-0.1,0.1-0.1h0.1
						h0.1l0.1,0.1l0.2,0.1c0.1,0,0.2,0,0.2,0h0.2c0,0,0.1,0,0.1-0.1l0.1-0.1c0.1-0.1,0.1-0.2,0-0.3c0,0-0.1-0.1-0.2-0.1
						c-0.1,0-0.1-0.1-0.2-0.1l-0.3-0.1l-0.2-0.1c-0.1,0-0.2-0.1-0.3-0.1c-0.1-0.1-0.1-0.1-0.2-0.2c0-0.1,0-0.2,0-0.3
						c0-0.1,0-0.2,0.1-0.3c0-0.1,0.1-0.2,0.2-0.3c0.1-0.1,0.2-0.2,0.3-0.2c0.2-0.1,0.3-0.1,0.5-0.1c0.2,0,0.4,0,0.6,0.1
						c0.2,0.1,0.3,0.1,0.4,0.3L264.1,13.2z"/>
					<path class="st2" d="M264.7,13c0.2-0.1,0.3-0.3,0.6-0.3c0.2-0.1,0.4-0.1,0.7-0.1c0.2,0,0.3,0,0.5,0.1c0.1,0.1,0.2,0.1,0.3,0.2
						c0.1,0.1,0.2,0.2,0.2,0.3c0,0.1,0.1,0.3,0.1,0.4v1.7h-0.3c-0.1,0-0.1,0-0.2,0l-0.1-0.1l-0.1-0.2c-0.1,0.1-0.1,0.1-0.2,0.2
						c-0.1,0-0.1,0.1-0.2,0.1s-0.2,0.1-0.2,0.1c-0.1,0-0.2,0-0.3,0s-0.2,0-0.3,0c-0.2-0.1-0.4-0.2-0.4-0.4c0-0.1-0.1-0.2-0.1-0.3
						s0-0.2,0.1-0.3s0.2-0.2,0.3-0.3c0.2-0.1,0.3-0.2,0.5-0.2c0.3-0.1,0.5-0.1,0.8-0.1v-0.2c0-0.1,0-0.3-0.1-0.4
						c-0.1-0.1-0.2-0.1-0.3-0.1s-0.2,0-0.3,0l-0.2,0.1l-0.1,0.1c-0.1,0-0.1,0-0.2,0h-0.1l-0.1-0.1L264.7,13z M266.2,14.2h-0.5
						c-0.1,0-0.2,0-0.3,0.1c-0.1,0-0.1,0.1-0.1,0.1s-0.1,0.1-0.1,0.2c0,0.1,0,0.2,0.1,0.2c0.1,0.1,0.2,0.1,0.3,0.1s0.2,0,0.3-0.1
						c0.1-0.1,0.2-0.1,0.3-0.2V14.2z"/>
					<path class="st2" d="M267.5,15.4v-2.8h0.5c0.1,0,0.2,0,0.2,0.1v0.2l0.2-0.1l0.2-0.1l0.2-0.1c0.1,0,0.2,0,0.2,0
						c0.2,0,0.3,0,0.4,0.1c0.1,0.1,0.2,0.2,0.3,0.3c0-0.1,0.1-0.2,0.2-0.2c0.1-0.1,0.1-0.1,0.2-0.2c0.2-0.1,0.3-0.1,0.5-0.1
						c0.1,0,0.3,0,0.4,0.1c0.1,0,0.2,0.1,0.3,0.2c0.1,0.1,0.1,0.2,0.2,0.3c0,0.1,0.1,0.3,0.1,0.5v1.8h-0.8v-1.8
						c0-0.3-0.1-0.5-0.4-0.5h-0.2c-0.1,0-0.1,0.1-0.1,0.1s-0.1,0.1-0.1,0.2c0,0.1,0,0.1,0,0.2v1.8h-0.8v-1.8c0-0.1,0-0.3-0.1-0.4
						c-0.1-0.1-0.2-0.1-0.3-0.1s-0.2,0-0.2,0.1c-0.1,0-0.2,0.1-0.2,0.2v2.1h-0.9V15.4z"/>
				</g>
				<g>
					<path class="st2" d="M260.6,16.1l-1.6,4h-0.7l-1.6-4h0.7c0.1,0,0.1,0,0.2,0.1l0.1,0.1l0.9,2.3l0.1,0.3l0.1,0.3
						c0-0.1,0.1-0.2,0.1-0.3l0.1-0.3l0.9-2.3c0,0,0-0.1,0.1-0.1s0.1,0,0.2-0.1H260.6z"/>
					<path class="st2" d="M261.7,16.5c0,0.1,0,0.1,0,0.2c0,0.1-0.1,0.1-0.1,0.1l-0.1,0.1c-0.1,0-0.1,0-0.2,0h-0.2
						c-0.1,0-0.1-0.1-0.1-0.1l-0.1-0.1c0-0.1,0-0.1,0-0.2c0-0.1,0-0.1,0-0.2s0.1-0.1,0.1-0.1l0.1-0.1h0.2c0.1,0,0.1,0,0.2,0
						s0.1,0.1,0.1,0.1l0.1,0.1C261.7,16.3,261.7,16.4,261.7,16.5z M261.6,17.3v2.8h-0.8v-2.8H261.6z"/>
					<path class="st2" d="M263.2,20.1c-0.1,0-0.2,0-0.3-0.1c-0.1,0-0.2-0.1-0.2-0.2c-0.1-0.1-0.1-0.2-0.1-0.2c0-0.1-0.1-0.2-0.1-0.3
						v-1.5h-0.3h-0.1l-0.1-0.1v-0.3l0.5-0.1l0.2-0.7c0-0.1,0.1-0.1,0.2-0.1h0.4v0.9h0.7v0.5h-0.7v1.5c0,0.1,0,0.1,0.1,0.2
						c0,0,0.1,0.1,0.2,0.1h0.1h0.1l0,0h0.1h0.1l0,0l0.2,0.4c-0.1,0.1-0.2,0.1-0.4,0.2C263.5,20.1,263.4,20.2,263.2,20.1z"/>
					<path class="st2" d="M264.3,17.7c0.2-0.1,0.3-0.3,0.6-0.3c0.2-0.1,0.4-0.1,0.7-0.1c0.2,0,0.3,0,0.4,0.1c0.1,0,0.2,0.1,0.3,0.2
						c0.1,0.1,0.2,0.2,0.2,0.4c0,0.1,0.1,0.3,0.1,0.4v1.8h-0.3c-0.1,0-0.1,0-0.2,0l-0.1-0.1l-0.1-0.2c-0.1,0.1-0.1,0.1-0.2,0.2
						c-0.1,0-0.1,0.1-0.2,0.1s-0.2,0.1-0.2,0.1H265c-0.1,0-0.2,0-0.3-0.1c-0.2-0.1-0.4-0.2-0.4-0.4c0-0.1-0.1-0.2-0.1-0.3
						s0-0.2,0.1-0.3s0.2-0.2,0.3-0.3c0.2-0.1,0.3-0.2,0.5-0.2c0.3-0.1,0.5-0.1,0.8-0.1v-0.1c0-0.1,0-0.3-0.1-0.4
						c-0.1-0.1-0.2-0.1-0.3-0.1s-0.2,0-0.3,0l-0.2,0.1l-0.1,0.1c-0.1,0-0.1,0-0.2,0h-0.1l-0.1-0.1L264.3,17.7z M265.8,18.9l-0.5,0.1
						l-0.3,0.1c-0.1,0-0.1,0.1-0.1,0.1l-0.1,0.1c0,0.1,0,0.2,0.1,0.2c0.1,0.1,0.2,0.1,0.3,0.1s0.2,0,0.3-0.1s0.2-0.1,0.3-0.2V18.9z"
						/>
					<path class="st2" d="M267.9,16v4.1h-0.8V16H267.9z"/>
					<path class="st2" d="M269.1,18.8c0,0.2,0.1,0.4,0.2,0.6c0.1,0.1,0.3,0.2,0.5,0.2c0.1,0,0.2,0,0.3,0s0.1,0,0.2-0.1l0.2-0.1h0.1
						c0.1,0,0.1,0,0.1,0.1l0.2,0.3c-0.1,0.1-0.2,0.2-0.3,0.2c-0.1,0.1-0.2,0.1-0.3,0.1s-0.2,0.1-0.3,0.1h-0.3c-0.2,0-0.4,0-0.6-0.1
						s-0.3-0.2-0.4-0.3c-0.1-0.1-0.2-0.3-0.3-0.5c-0.1-0.2-0.1-0.4-0.1-0.7c0-0.2,0-0.4,0.1-0.5c0.1-0.2,0.1-0.3,0.3-0.4
						c0.1-0.1,0.3-0.2,0.4-0.3c0.2-0.1,0.4-0.1,0.6-0.1c0.2,0,0.3,0,0.5,0.1c0.1,0.1,0.3,0.1,0.4,0.2s0.2,0.3,0.2,0.4
						c0.1,0.2,0.1,0.4,0.1,0.5s0,0.1,0,0.1v0.1c0,0,0,0-0.1,0L269.1,18.8L269.1,18.8z M270.3,18.4c0-0.1,0-0.2,0-0.2
						c0-0.1-0.1-0.1-0.1-0.2c0-0.1-0.1-0.1-0.2-0.1s-0.2-0.1-0.2-0.1c-0.2,0-0.3,0-0.4,0.1c-0.1,0.1-0.2,0.3-0.2,0.4L270.3,18.4z"/>
				</g>
			</g>
			<g>
				<path class="st2" d="M258.7,28.5c-1.3,0-2.3,1.1-2.2,2.4v6.8c0,1.3,0.9,2.3,2.2,2.4h10.9c1.3,0,2.3-1.1,2.2-2.4v-6.8
					c0-1.3-1-2.3-2.2-2.4C269.6,28.5,258.7,28.5,258.7,28.5z M258.7,29.5h3.2c-0.4,0.5-0.6,1.2-0.6,1.9v0.4h-0.2h-3.6v-0.9
					C257.5,30.2,258,29.6,258.7,29.5L258.7,29.5z M263.9,29.5h0.7c0.9,0.1,1.6,0.9,1.5,1.8c0,0,0,0,0,0.1v0.9l0,0
					c-0.3,0.4-0.5,0.9-0.5,1.4v0.9c0,0.5,0.1,1,0.5,1.4l0,0v1.1c0.1,0.9-0.6,1.8-1.5,1.9c0,0,0,0-0.1,0h-0.7
					c-0.9-0.1-1.6-0.9-1.5-1.8c0,0,0,0,0-0.1v-1l0,0c0.3-0.4,0.5-0.9,0.5-1.4v-0.9c0-0.5-0.2-1-0.5-1.4l0,0v-0.9
					C262.2,30.5,262.9,29.7,263.9,29.5C263.8,29.6,263.8,29.6,263.9,29.5L263.9,29.5z M266.5,29.5h3.2c0.7,0,1.2,0.6,1.2,1.3l0,0
					l0,0v0.9h-3.7v-0.4C267.1,30.7,266.9,30,266.5,29.5L266.5,29.5z M257.6,32.7h3.6c0.2,0,0.3,0.1,0.5,0.2c0.2,0.2,0.3,0.5,0.2,0.8
					v0.9c0,0.3-0.1,0.6-0.2,0.8c-0.1,0.1-0.3,0.2-0.5,0.2h-3.6V32.7z M267.3,32.7h3.6v2.9h-3.6c-0.2,0-0.3-0.1-0.4-0.2
					c-0.2-0.2-0.2-0.5-0.2-0.8v-0.9c0-0.3,0.1-0.6,0.2-0.8C266.9,32.8,267.1,32.7,267.3,32.7L267.3,32.7z M261.3,36.6v0.5
					c0,0.7,0.2,1.3,0.6,1.9h-3.1c-0.7,0-1.2-0.6-1.2-1.3l0,0l0,0v-1L261.3,36.6L261.3,36.6z M267,36.6h3.7v1
					c0.1,0.7-0.4,1.3-1.1,1.4l0,0h-3.2c0.4-0.5,0.6-1.2,0.6-1.9V36.6z"/>
				<path class="st2" d="M257.5,27.4h0.9c-0.5-1-1.6-1.4-2.7-1.1c-0.7,0.2-1.2,0.7-1.4,1.4c-0.4,1.1,0.2,2.3,1.2,2.8v-0.8
					c-0.6-0.6-0.7-1.5-0.1-2.1C256,26.9,256.9,26.8,257.5,27.4L257.5,27.4z"/>
			</g>
			<path class="st2" d="M262.3,27.4h0.7c-0.6-3.7-4-6.2-7.6-5.6c-3.6,0.6-6.2,4-5.6,7.6c0.4,3,2.8,5.2,5.8,5.6v-0.7
				c-3.3-0.5-5.6-3.5-5.1-6.8s3.5-5.6,6.8-5.1C259.8,22.8,261.9,24.8,262.3,27.4L262.3,27.4z"/>
		</g>
		<path class="st2" d="M260,27.4h0.7c-0.6-2.4-3-3.9-5.4-3.3c-2.4,0.6-3.9,3-3.3,5.4c0.4,1.7,1.8,3,3.5,3.4v-0.7
			c-2-0.5-3.3-2.5-2.8-4.5s2.5-3.3,4.5-2.8C258.6,25,259.7,26,260,27.4z"/>
	</g>
	<line class="st3" x1="130.6" y1="7.6" x2="130.6" y2="41.8"/>
	<g class="st0">
		<path id="Tracé_135" class="st1" d="M206.9,6.9h16.1c6.1,0,11.1,4.9,11.1,11.1l0,0v16.1c0,6.1-4.9,11.1-11.1,11.1h-16.1
			c-6.1,0-11.1-4.9-11.1-11.1V18C195.8,11.8,200.7,6.9,206.9,6.9z"/>
		<g class="st4">
			<path class="st5" d="M208.1,16.7c0,0.3,0.1,0.6,0.3,0.7c0.2,0.2,0.4,0.2,0.6,0.2c0.1,0,0.2,0,0.3,0c0.1,0,0.2-0.1,0.3-0.1
				c0.1,0,0.1-0.1,0.2-0.1s0.1,0,0.2,0s0.1,0,0.2,0.1l0.3,0.4c-0.1,0.1-0.2,0.2-0.3,0.3c-0.1,0.1-0.3,0.1-0.4,0.2
				c-0.1,0-0.3,0.1-0.4,0.1s-0.3,0-0.4,0c-0.3,0-0.5,0-0.7-0.1c-0.2-0.1-0.4-0.2-0.6-0.4c-0.2-0.2-0.3-0.4-0.4-0.6s-0.1-0.5-0.1-0.8
				c0-0.2,0-0.5,0.1-0.7s0.2-0.4,0.4-0.6c0-0.3,0.2-0.4,0.4-0.5c0.2-0.1,0.5-0.1,0.7-0.1c0.2,0,0.4,0,0.6,0.1
				c0.3,0.1,0.5,0.2,0.6,0.3c0.1,0.1,0.3,0.3,0.3,0.5c0.1,0.2,0.1,0.4,0.1,0.7c0,0.1,0,0.1,0,0.2v0.1c0,0,0,0-0.1,0.1h-0.1
				C210.2,16.7,208.1,16.7,208.1,16.7z M209.6,16.1c0-0.1,0-0.2,0-0.3c0-0.1-0.1-0.2-0.1-0.2c-0.1-0.1-0.1-0.1-0.2-0.2
				c-0.1,0-0.2-0.1-0.3-0.1c-0.2,0-0.4,0.1-0.5,0.2c-0.1,0.1-0.2,0.3-0.3,0.6H209.6z"/>
			<path class="st5" d="M214.7,17.1c0.1,0,0.1,0,0.1,0.1l0.4,0.4c-0.2,0.3-0.5,0.5-0.8,0.6c-0.3,0.1-0.7,0.2-1.1,0.2
				c-0.4,0-0.7-0.1-1-0.2c-0.3-0.1-0.6-0.3-0.8-0.5s-0.4-0.5-0.5-0.8c-0.1-0.4-0.1-0.7-0.1-1.1c0-0.3,0-0.5,0.1-0.7s0.1-0.4,0.2-0.6
				c0.1-0.2,0.2-0.4,0.4-0.5c0.1-0.2,0.3-0.3,0.5-0.4c0.2-0.1,0.4-0.2,0.6-0.2c0.2-0.1,0.5-0.1,0.7-0.1c0.2,0,0.4,0,0.5,0
				c0.2,0,0.3,0.1,0.5,0.1c0.1,0.1,0.3,0.1,0.4,0.2c0.1,0.1,0.2,0.2,0.3,0.3l-0.4,0.5c0,0,0,0.1-0.1,0.1h-0.1c-0.1,0-0.1,0-0.2-0.1
				c-0.1,0-0.1-0.1-0.2-0.1s-0.1-0.1-0.2-0.2c-0.1,0-0.3-0.1-0.5-0.1c-0.2,0-0.4,0-0.6,0.1c-0.2,0.1-0.3,0.2-0.5,0.3
				c-0.1,0.1-0.2,0.3-0.3,0.5c-0.1,0.2-0.1,0.5-0.1,0.7c0,0.3,0,0.5,0.1,0.7s0.2,0.4,0.3,0.5c0.1,0.1,0.3,0.3,0.5,0.3
				c0.2,0.1,0.4,0.1,0.6,0.1c0.1,0,0.2,0,0.3,0s0.2,0,0.3-0.1c0.1,0,0.2-0.1,0.2-0.1c0.1,0,0.1-0.1,0.2-0.2
				C214.5,17.2,214.5,17.1,214.7,17.1C214.6,17.1,214.6,17.1,214.7,17.1z"/>
			<path class="st5" d="M217.5,13.3c0.3,0,0.7,0,0.9,0.1c0.2,0.1,0.5,0.2,0.6,0.3c0.2,0.1,0.3,0.3,0.4,0.5c0.1,0.2,0.1,0.4,0.1,0.7
				c0,0.3,0,0.5-0.1,0.7c-0.1,0.2-0.2,0.4-0.4,0.5c-0.2,0.1-0.4,0.3-0.6,0.4c-0.3,0.1-0.6,0.1-0.9,0.1h-0.6v1.8h-1.1v-5.1H217.5z
				 M217.5,15.8c0.3,0,0.6-0.1,0.7-0.2c0.2-0.2,0.2-0.4,0.2-0.7c0-0.1,0-0.2-0.1-0.3c0-0.1-0.1-0.2-0.2-0.3s-0.2-0.1-0.3-0.2
				c-0.1,0-0.3-0.1-0.4-0.1h-0.5v1.7h0.6V15.8z"/>
			<path class="st5" d="M223,14.2c0,0.1-0.1,0.1-0.1,0.1h-0.1c-0.1,0-0.1,0-0.2-0.1c-0.1,0-0.1-0.1-0.2-0.1s-0.2-0.1-0.3-0.1
				c-0.1,0.1-0.2,0-0.3,0c-0.2,0-0.4,0.1-0.5,0.2s-0.2,0.3-0.2,0.4s0,0.2,0.1,0.3c0.1,0.1,0.2,0.1,0.3,0.2c0.1,0.1,0.2,0.1,0.4,0.1
				c0.1,0,0.3,0.1,0.4,0.1s0.3,0.1,0.4,0.2c0.1,0.1,0.3,0.2,0.4,0.3c0.1,0.1,0.2,0.2,0.3,0.4s0.1,0.3,0.1,0.5s0,0.5-0.1,0.7
				s-0.2,0.4-0.4,0.5c-0.2,0.2-0.3,0.3-0.6,0.4c-0.2,0.1-0.5,0.1-0.8,0.1c-0.2,0-0.3,0-0.5,0c-0.2,0-0.3-0.1-0.5-0.1
				c-0.1-0.1-0.3-0.1-0.4-0.2c-0.1-0.1-0.2-0.2-0.3-0.3l0.3-0.5l0.1-0.1h0.1c0.1,0,0.1,0,0.2,0.1c0.1,0,0.2,0.1,0.2,0.2
				c0.1,0.1,0.2,0.1,0.3,0.2c0.1,0,0.3,0.1,0.4,0.1c0.2,0,0.4-0.1,0.6-0.2c0.1-0.1,0.2-0.3,0.2-0.5c0-0.1,0-0.2-0.1-0.3
				s-0.2-0.1-0.3-0.2c-0.1-0.1-0.2-0.1-0.4-0.1c-0.1,0-0.3-0.1-0.4-0.1s-0.3-0.1-0.4-0.2c-0.1-0.1-0.3-0.2-0.4-0.3
				c-0.1-0.1-0.2-0.2-0.3-0.4s-0.1-0.4-0.1-0.6c0-0.2,0-0.4,0.1-0.6s0.2-0.3,0.3-0.5c0.1-0.1,0.3-0.2,0.5-0.3
				c0.2-0.1,0.5-0.1,0.7-0.1c0.3,0,0.6,0,0.9,0.1c0.3,0.1,0.5,0.2,0.7,0.4L223,14.2z"/>
		</g>
		<g id="Groupe_281" transform="translate(35.145 42.92) rotate(-13)">
			<path id="Tracé_489_1_" class="st5" d="M187.1,24.3l-7-4c-0.5-0.3-1.1-0.1-1.4,0.4c0,0-7,11.4-7.9,13.7
				c-0.3,0.5-0.1,1.1,0.4,1.4l7,4c0.5,0.3,1.1,0.1,1.4-0.4l7.9-13.7C187.7,25.2,187.6,24.6,187.1,24.3z M182.1,22.6l2,1.2
				c0.2,0.1,0.2,0.3,0.1,0.5c-0.1,0.2-0.3,0.2-0.5,0.1l-2-1.2c-0.2-0.1-0.2-0.3-0.1-0.5C181.7,22.6,181.9,22.5,182.1,22.6z
				 M175.3,36.8c-0.4-0.2-0.5-0.7-0.3-1.2c0.2-0.4,0.7-0.5,1.2-0.3c0.4,0.2,0.5,0.7,0.3,1.2C176.2,36.9,175.7,37.1,175.3,36.8
				C175.3,36.9,175.3,36.9,175.3,36.8z M179.9,36.3l-6.5-3.7l5.6-9.7l6.5,3.7L179.9,36.3z"/>
		</g>
		<g>
			<path class="st6" d="M209.3,26.2c-2.2,0.4-3.6,2.5-3.3,4.6c0.2,1.3,1.1,2.4,2.2,2.9l0.5-1.6c-0.6-0.4-1.1-1.1-1.2-1.9
				c-0.1-0.7,0.2-1.4,0.8-1.9c0.5-0.5,1.2-0.6,1.8-0.6l0.5-1.6C210.2,26.1,209.8,26.1,209.3,26.2z"/>
			<path class="st6" d="M208.4,30.1c0,0.5,0.2,1,0.6,1.3l0.9-2.9c-0.4,0-0.7,0.1-1,0.4C208.6,29.2,208.4,29.6,208.4,30.1z"/>
			<path class="st6" d="M208.3,24c-3.4,0.9-5.4,4.3-4.5,7.8c0.5,2,1.9,3.5,3.7,4.3l0.5-1.5c-1.2-0.6-2.2-1.6-2.6-3
				c-0.7-2.3,0.5-4.7,2.7-5.7c0.9-0.4,1.9-0.5,2.9-0.3l0.5-1.5C210.4,23.7,209.4,23.7,208.3,24z"/>
			<path class="st5" d="M208.4,28.4c-0.6,0.5-0.8,1.2-0.8,1.9c0.1,0.8,0.5,1.5,1.2,1.9l0.2-0.8c-0.4-0.3-0.7-0.8-0.6-1.3
				c0-0.5,0.2-0.9,0.6-1.2c0.3-0.2,0.6-0.4,1-0.4l0.2-0.7C209.5,27.7,208.9,27.9,208.4,28.4z"/>
			<path class="st5" d="M206.1,24.1c-3.3,2.1-4.4,6.5-2.3,9.8c0.8,1.3,2,2.3,3.4,2.8l0.2-0.7c-1.8-0.7-3.2-2.3-3.7-4.3
				c-0.9-3.5,1.1-6.9,4.5-7.7c1-0.3,2.1-0.3,3.1,0l0.2-0.7C209.9,22.8,207.9,23,206.1,24.1z"/>
			<path class="st5" d="M208.1,25.8c-2.2,1-3.3,3.4-2.7,5.7c0.4,1.4,1.4,2.4,2.6,3l0.2-0.7c-1.1-0.5-2-1.6-2.2-2.9
				c-0.4-2.2,1.1-4.3,3.3-4.6c0.5-0.1,1-0.1,1.4,0l0.2-0.7C210,25.3,209,25.3,208.1,25.8z"/>
		</g>
	</g>
	<g class="st0">
		<path id="Rectangle_65" class="st1" d="M158.1,7h16c6.1,0,11,4.9,11,11v16c0,6.1-4.9,11-11,11h-16c-6.1,0-11-4.9-11-11V18
			C147.1,11.9,152,7,158.1,7z"/>
		<g id="CPS">
			<path class="st7" d="M164.1,17.7c0.1,0,0.1,0,0.1,0.1l0.4,0.4c-0.2,0.3-0.5,0.5-0.8,0.6s-0.7,0.2-1.1,0.2c-0.3,0-0.7-0.1-1-0.2
				s-0.6-0.3-0.8-0.5c-0.2-0.2-0.4-0.5-0.5-0.8c-0.1-0.3-0.2-0.7-0.2-1c0-0.2,0-0.5,0.1-0.7c0.1-0.2,0.1-0.4,0.2-0.6
				c0.1-0.2,0.2-0.4,0.4-0.5c0.2-0.2,0.3-0.3,0.5-0.4c0.2-0.1,0.4-0.2,0.6-0.2c0.4-0.2,0.6-0.2,0.9-0.2c0.2,0,0.4,0,0.5,0
				c0.2,0,0.3,0.1,0.5,0.1c0.1,0.1,0.3,0.1,0.4,0.2l0.3,0.3l-0.3,0.5l-0.1,0.1h-0.1c-0.1,0-0.1,0-0.2-0.1l-0.3-0.1
				c-0.1-0.1-0.2-0.1-0.3-0.1c-0.2,0-0.3-0.1-0.5-0.1s-0.4,0-0.6,0.1c-0.2,0.1-0.3,0.2-0.4,0.3c-0.1,0.2-0.2,0.3-0.3,0.5
				s-0.1,0.5-0.1,0.7c0,0.2,0,0.5,0.1,0.7c0.1,0.2,0.2,0.4,0.3,0.5s0.3,0.3,0.5,0.3c0.2,0.1,0.4,0.1,0.6,0.1h0.3
				c0.1,0,0.2,0,0.3-0.1c0.1,0,0.2,0,0.2-0.1c0.1,0,0.2-0.1,0.2-0.2l0.1-0.1L164.1,17.7z"/>
			<path class="st7" d="M167,13.9c0.3,0,0.6,0,0.9,0.1c0.2,0.1,0.4,0.2,0.6,0.3c0.2,0.1,0.3,0.3,0.4,0.5c0.1,0.2,0.1,0.4,0.1,0.7
				c0,0.2,0,0.5-0.1,0.7c-0.1,0.2-0.2,0.4-0.4,0.5c-0.2,0.2-0.4,0.3-0.6,0.4c-0.3,0.1-0.6,0.1-0.9,0.1h-0.7V19h-1v-5.1H167z
				 M167,16.4c0.3,0,0.5-0.1,0.7-0.2c0.2-0.2,0.2-0.4,0.2-0.6c0-0.1,0-0.2-0.1-0.3c0-0.1-0.1-0.2-0.2-0.2c-0.1-0.1-0.2-0.1-0.3-0.2
				c-0.1,0-0.3-0.1-0.4-0.1h-0.7v1.7h0.8V16.4z"/>
			<path class="st7" d="M172.4,14.9l-0.1,0.1h-0.1c-0.1,0-0.1,0-0.2,0l-0.2-0.1l-0.3-0.1c-0.1,0-0.2,0-0.4,0s-0.4,0-0.5,0.2
				c-0.1,0.1-0.2,0.3-0.2,0.4c0,0.1,0,0.2,0.1,0.3s0.2,0.1,0.3,0.2c0.1,0.1,0.2,0.1,0.4,0.1l0.4,0.1c0.1,0,0.3,0.1,0.4,0.2
				c0.1,0.1,0.3,0.2,0.4,0.3c0.1,0.1,0.2,0.2,0.3,0.4c0.1,0.2,0.1,0.4,0.1,0.5c0,0.2,0,0.4-0.1,0.6c-0.1,0.2-0.2,0.4-0.3,0.5
				c-0.2,0.2-0.4,0.3-0.6,0.4c-0.2,0.1-0.5,0.1-0.8,0.1c-0.2,0-0.3,0-0.5-0.1c-0.2,0-0.3-0.1-0.5-0.1c-0.1-0.1-0.3-0.1-0.4-0.2
				c-0.1-0.1-0.2-0.2-0.3-0.3l0.3-0.5l0.1-0.1h0.1c0.1,0,0.1,0,0.2,0.1l0.2,0.2c0.1,0.1,0.2,0.1,0.3,0.1c0.1,0.1,0.3,0.1,0.4,0.1
				c0.2,0,0.4-0.1,0.6-0.2c0.1-0.1,0.2-0.3,0.2-0.5c0-0.1,0-0.2-0.1-0.3s-0.2-0.2-0.3-0.2c-0.1-0.1-0.2-0.1-0.4-0.1l-0.4-0.1
				c-0.1,0-0.3-0.1-0.4-0.2c-0.1-0.1-0.3-0.2-0.4-0.3c-0.1-0.1-0.2-0.3-0.3-0.4c-0.1-0.2-0.1-0.4-0.1-0.6c0-0.4,0.2-0.7,0.4-1
				c0.1-0.2,0.3-0.3,0.5-0.4c0.4-0.1,0.7-0.1,0.9-0.1c0.3,0,0.6,0,0.8,0.1c0.2,0.1,0.5,0.2,0.7,0.4L172.4,14.9z"/>
			<path id="Tracé_478" class="st7" d="M161.2,28c-1.4,0.1-2.4,1.2-2.4,2.6v7.3c-0.1,1.4,1,2.5,2.4,2.6l0,0h11.7
				c1.4,0,2.4-1.2,2.4-2.6l0,0v-7.3c0.1-1.4-1-2.5-2.4-2.6l0,0C172.9,28,161.2,28,161.2,28z M161.2,29.1h3.4c-0.4,0.6-0.7,1.3-0.7,2
				v0.4h-0.2h-3.8v-0.9C159.9,29.8,160.5,29.1,161.2,29.1L161.2,29.1z M166.7,29.1h0.7c1,0.1,1.7,1,1.7,2l0,0v1l-0.1,0.1
				c-0.3,0.4-0.5,1-0.5,1.5v0.9c0,0.6,0.2,1.1,0.5,1.5c0,0,0,0,0.1,0v1.1c0.1,1-0.6,1.9-1.6,2l0,0h-0.7c-1-0.1-1.7-1-1.7-2l0,0v-1.1
				h0.1c0.3-0.4,0.5-1,0.5-1.5v-0.9c0-0.6-0.2-1.1-0.5-1.5v-0.1v-1C165,30.1,165.7,29.2,166.7,29.1L166.7,29.1L166.7,29.1z
				 M169.6,29.1h3.4c0.8,0,1.3,0.7,1.3,1.5l0,0v0.9h-3.8h-0.2v-0.4C170.2,30.4,170,29.7,169.6,29.1z M160,32.6h3.8
				c0.2,0,0.4,0.1,0.5,0.2c0.2,0.2,0.3,0.6,0.2,0.9v0.9c0,0.3-0.1,0.6-0.2,0.9c-0.1,0.2-0.3,0.2-0.5,0.2H160V32.6z M170.4,32.6h3.9
				v3.1h-3.9c-0.2,0-0.4-0.1-0.5-0.2c-0.2-0.2-0.3-0.5-0.2-0.9v-0.9c0-0.3,0.1-0.6,0.2-0.9C170,32.7,170.2,32.6,170.4,32.6
				L170.4,32.6z M164,36.8v0.6c0,0.7,0.2,1.4,0.7,2h-3.4c-0.8,0-1.3-0.7-1.3-1.5l0,0v-1.1H164L164,36.8z M170.2,36.8h4v1.1
				c0.1,0.8-0.5,1.4-1.3,1.5l0,0h-3.4c0.4-0.6,0.7-1.3,0.7-2V36.8z"/>
			<path id="Tracé_481" class="st7" d="M162.6,26.8h0.8c-0.5-2.2-2.5-3.7-4.7-3.7c-2.7,0-4.8,2.1-4.8,4.8c0,2.3,1.7,4.3,3.9,4.7
				v-0.8c-2.2-0.5-3.5-2.7-3-4.9s2.7-3.5,4.9-3C161.1,24.3,162.2,25.4,162.6,26.8z"/>
			<path class="st7" d="M165.8,26.8c-0.6-3.9-4.3-6.6-8.2-6s-6.6,4.3-6,8.2c0.5,3.2,3,5.6,6.2,6v-0.8c-3.5-0.5-5.9-3.8-5.4-7.3
				s3.8-5.9,7.3-5.4c2.7,0.4,4.9,2.5,5.4,5.3L165.8,26.8L165.8,26.8z"/>
			<path id="Tracé_479" class="st7" d="M159.9,26.8h0.9c-0.5-1-1.8-1.5-2.9-1.1c-0.7,0.2-1.2,0.8-1.5,1.5c-0.4,1.2,0.2,2.5,1.3,3
				v-0.9c-0.7-0.5-0.9-1.5-0.4-2.2c0.2-0.3,0.5-0.5,0.9-0.6C158.8,26.2,159.5,26.3,159.9,26.8z"/>
		</g>
	</g>
	<g class="st0">
		<g>
			<path id="Tracé_482" class="st1" d="M306.2,7h16c6.1,0,11,4.9,11,11l0,0v16c0,6.1-4.9,11-11,11h-16c-6.1,0-11-4.9-11-11V18
				C295.2,11.9,300.1,7,306.2,7z"/>
			<g>
				<path class="st8" d="M306.5,15.2c0.2-0.2,0.4-0.3,0.7-0.4c0.3-0.1,0.5-0.1,0.8-0.1c0.2,0,0.4,0,0.6,0.1c0.2,0.1,0.3,0.2,0.4,0.3
					s0.2,0.3,0.3,0.4c0.1,0.2,0.1,0.4,0.1,0.6v2.3H309c-0.1,0-0.2,0-0.2,0s-0.1-0.1-0.1-0.2l-0.1-0.2c-0.1,0.1-0.2,0.2-0.3,0.2
					c-0.1,0.1-0.2,0.1-0.3,0.2c-0.1,0-0.2,0.1-0.3,0.1c-0.1,0-0.2,0-0.4,0c-0.2,0-0.3,0-0.4-0.1c-0.1,0-0.2-0.1-0.3-0.2
					c-0.1-0.1-0.2-0.2-0.2-0.3s-0.1-0.3-0.1-0.4s0-0.3,0.1-0.4s0.2-0.3,0.4-0.4c0.2-0.1,0.4-0.2,0.7-0.3c0.3-0.1,0.6-0.1,1-0.1v-0.2
					c0-0.2,0-0.4-0.1-0.5s-0.2-0.2-0.4-0.2c-0.1,0-0.2,0-0.3,0c-0.1,0-0.2,0.1-0.2,0.1s-0.3,0.1-0.3,0.2c-0.1,0-0.1,0-0.2,0
					s-0.1,0-0.2-0.1s-0.1-0.1-0.1-0.1L306.5,15.2z M308.5,16.8c-0.2,0-0.4,0-0.6,0.1c-0.2,0-0.3,0.1-0.4,0.1s-0.2,0.1-0.2,0.2
					s-0.1,0.1-0.1,0.2c0,0.1,0,0.2,0.1,0.3s0.2,0.1,0.3,0.1c0.2,0,0.3,0,0.4-0.1s0.2-0.1,0.4-0.3v-0.6H308.5z"/>
				<path class="st8" d="M311.1,15.2c0.1-0.1,0.1-0.2,0.2-0.2c0.1-0.1,0.2-0.1,0.3-0.2c0.1,0,0.2-0.1,0.3-0.1s0.2,0,0.4,0
					c0.2,0,0.4,0,0.5,0.1c0.2,0.1,0.3,0.2,0.4,0.3c0.1,0.2,0.2,0.4,0.3,0.6c0.1,0.2,0.1,0.5,0.1,0.8c0,0.3,0,0.5-0.1,0.8
					c-0.1,0.2-0.2,0.4-0.3,0.6c-0.1,0.2-0.3,0.3-0.5,0.4c-0.2,0.1-0.4,0.1-0.6,0.1c-0.2,0-0.4,0-0.5-0.1c-0.1-0.1-0.3-0.1-0.4-0.2
					v1.4h-1v-4.8h0.6c0.1,0,0.2,0.1,0.2,0.2L311.1,15.2z M311.2,17.4c0.1,0.1,0.2,0.2,0.3,0.2s0.2,0.1,0.3,0.1s0.2,0,0.3-0.1
					c0.1,0,0.2-0.1,0.2-0.2c0-0.1,0.1-0.2,0.2-0.4c0-0.1,0.1-0.3,0.1-0.5c0-0.2,0-0.4,0-0.5s-0.1-0.3-0.1-0.3
					c-0.1-0.1-0.1-0.1-0.2-0.2c-0.1,0-0.2-0.1-0.3-0.1c-0.2,0-0.3,0-0.4,0.1c-0.1,0.1-0.2,0.2-0.3,0.3v1.6H311.2z"/>
				<path class="st8" d="M317.8,17.1c0.1,0,0.1,0,0.1,0.1l0.4,0.4c-0.2,0.3-0.5,0.5-0.8,0.6c-0.3,0.1-0.7,0.2-1.1,0.2
					s-0.7-0.1-1-0.2c-0.3-0.1-0.6-0.3-0.8-0.5c-0.2-0.2-0.4-0.5-0.5-0.8c-0.1-0.3-0.2-0.7-0.2-1s0-0.5,0.1-0.7s0.1-0.4,0.2-0.6
					c0.1-0.2,0.2-0.4,0.4-0.5c0.1-0.2,0.3-0.3,0.5-0.4c0.2-0.1,0.4-0.2,0.6-0.3c0.2-0.1,0.5-0.1,0.7-0.1s0.4,0,0.5,0
					c0.2,0,0.3,0.1,0.5,0.1s0.3,0.1,0.4,0.2c0.1,0.1,0.2,0.2,0.3,0.3l-0.4,0.5c0,0,0,0.1-0.1,0.1h-0.1c-0.1,0-0.1,0-0.2-0.1
					c-0.1-0.1-0.1-0.1-0.2-0.1c-0.1,0-0.2-0.1-0.3-0.1s-0.3-0.1-0.5-0.1c-0.2,0-0.4,0-0.6,0.1c-0.2,0.1-0.3,0.2-0.5,0.3
					c-0.2,0.1,0.1,0.4,0,0.6c-0.1,0.2-0.1,0.5-0.1,0.7c0,0.3,0,0.5,0.1,0.7c0.1,0.2,0.2,0.4,0.3,0.5s0.3,0.3,0.5,0.3
					c0.2,0.1,0.4,0.1,0.6,0.1c0.1,0,0.2,0,0.3,0s0.2,0,0.3-0.1c0.1-0.1,0.2-0.1,0.2-0.1c0.1,0,0.1-0.1,0.2-0.2
					C317.7,17.2,317.7,17.1,317.8,17.1L317.8,17.1z"/>
				<path class="st8" d="M323.5,13.2l-2.1,5.1h-1l-2.1-5.1h0.9c0.1,0,0.2,0,0.2,0.1c0.1,0,0.1,0.1,0.1,0.2l1.1,2.9
					c0,0.1,0.1,0.2,0.1,0.4c0,0.1,0.1,0.3,0.1,0.4c0-0.1,0.1-0.3,0.1-0.4c0-0.1,0.1-0.3,0.1-0.4l1.1-2.9c0-0.1,0.1-0.1,0.1-0.2
					c0.1,0,0.1-0.1,0.2-0.1H323.5z"/>
			</g>
			<g id="Groupe_279" transform="translate(43.168 42.92) rotate(-13)">
				<path id="Tracé_489" class="st8" d="M276.1,44.8l-7-4c-0.5-0.3-1.1-0.1-1.4,0.4c0,0-7,11.3-7.9,13.7c-0.3,0.5-0.1,1.1,0.4,1.4
					l7,4c0.5,0.3,1.1,0.1,1.4-0.4l7.9-13.7C276.7,45.7,276.6,45.1,276.1,44.8z M271.1,43.1l2,1.2c0.2,0.1,0.2,0.3,0.1,0.5
					c-0.1,0.2-0.3,0.2-0.5,0.1l-2-1.2c-0.2-0.1-0.2-0.3-0.1-0.5C270.7,43,270.9,43,271.1,43.1z M264.3,57.3
					c-0.4-0.2-0.5-0.8-0.3-1.2c0.2-0.4,0.8-0.5,1.2-0.3c0.4,0.2,0.5,0.8,0.3,1.2C265.2,57.4,264.7,57.5,264.3,57.3L264.3,57.3z
					 M268.9,56.7l-6.5-3.7l5.6-9.7l6.5,3.7L268.9,56.7z"/>
			</g>
			<path class="st8" d="M307.7,28.4c-0.6,0.5-0.8,1.2-0.8,1.9c0.1,0.8,0.5,1.4,1.2,1.8l0.2-0.7c-0.4-0.3-0.7-0.8-0.6-1.3
				c0-0.5,0.2-0.9,0.6-1.2c0.3-0.2,0.6-0.4,1-0.4l0.2-0.7C308.8,27.8,308.2,27.9,307.7,28.4z"/>
			<path class="st8" d="M305.5,24.1c-3.4,2.1-4.4,6.5-2.3,9.8c0.8,1.3,2,2.3,3.4,2.8l0.2-0.7c-1.8-0.7-3.2-2.2-3.7-4.2
				c-0.9-3.4,1.1-6.9,4.5-7.8c1-0.3,2.1-0.3,3.1,0l0.2-0.7C309.2,22.8,307.2,23,305.5,24.1z"/>
			<path class="st8" d="M307.3,25.8c-2.2,1-3.3,3.4-2.7,5.7c0.4,1.4,1.4,2.4,2.6,3l0.2-0.7c-1.1-0.5-2-1.6-2.2-2.9
				c-0.4-2.2,1.1-4.3,3.3-4.6c0.5-0.1,1,0,1.4,0l0.2-0.7C309.3,25.3,308.3,25.3,307.3,25.8z"/>
		</g>
	</g>
	<g>
		<path id="Rectangle_65_00000149367291273620408750000013139029273690097562_" class="st1" d="M355,7h16c6.1,0,11,4.9,11,11v16
			c0,6.1-4.9,11-11,11h-16c-6.1,0-11-4.9-11-11V18C344,11.9,348.9,7,355,7z"/>
		<g id="Groupe_188" transform="translate(6.758 10.385)">
			<path id="Tracé_54" class="st9" d="M348,16.1v3.3h-0.6c-0.1,0-0.3-0.1-0.3-0.2l-1.3-2.6c-0.1-0.1-0.1-0.3,0-0.4
				c0.1-0.1,0.2-0.2,0.4-0.2H348z"/>
			<path id="Tracé_55" class="st9" d="M348,12v3.3h-1.9c-0.1,0-0.2-0.1-0.3-0.2l-1.7-2.6c-0.1-0.1-0.1-0.3,0-0.4
				c0.1-0.1,0.2-0.2,0.3-0.2L348,12z"/>
			<path id="Tracé_56" class="st9" d="M366.6,16.7l-1.3,2.6c-0.1,0.1-0.2,0.2-0.3,0.2h-0.6v-3.3h1.9c0.1,0,0.3,0.1,0.3,0.2
				C366.6,16.4,366.5,16.5,366.6,16.7z"/>
			<path id="Tracé_57" class="st9" d="M368.2,12.6l-1.7,2.6c-0.1,0.1-0.2,0.2-0.3,0.2h-1.9V12h3.6c0.1,0,0.3,0.1,0.3,0.2
				C368.3,12.3,368.3,12.4,368.2,12.6z"/>
			<path id="Tracé_58" class="st9" d="M360.5,7.2V10h2.8L360.5,7.2z"/>
			<path id="Tracé_59" class="st9" d="M360.1,10.8c-0.2,0-0.4-0.1-0.4-0.3c0,0,0,0,0,0V7h-10.6c-0.2,0-0.4,0.1-0.4,0.3c0,0,0,0,0,0
				V24c0,0.2,0.1,0.4,0.3,0.4c0,0,0,0,0,0h14c0.2,0,0.4-0.2,0.4-0.4V10.8H360.1z M350.7,10.4c0-0.2,0.1-0.4,0.3-0.4c0,0,0,0,0,0h6.3
				c0.2,0,0.4,0.1,0.4,0.3c0,0,0,0,0,0c0,0.2-0.1,0.4-0.3,0.4c0,0,0,0,0,0h-6.3C350.9,10.8,350.7,10.6,350.7,10.4L350.7,10.4z
				 M360.9,22.1h-9.5c-0.2,0-0.4-0.2-0.4-0.4s0.2-0.4,0.4-0.4h9.5c0.2,0,0.4,0.1,0.4,0.3c0,0,0,0,0,0
				C361.3,22,361.1,22.1,360.9,22.1L360.9,22.1z M360.9,19.3h-9.5c-0.2,0-0.4-0.2-0.4-0.4s0.2-0.4,0.4-0.4h9.5
				c0.2,0,0.4,0.1,0.4,0.3c0,0,0,0,0,0C361.3,19.1,361.1,19.3,360.9,19.3L360.9,19.3z M360.9,16.5h-9.5c-0.2,0-0.4-0.2-0.4-0.4
				s0.2-0.4,0.4-0.4h9.5c0.2,0,0.4,0.1,0.4,0.3c0,0,0,0,0,0C361.3,16.3,361.1,16.5,360.9,16.5L360.9,16.5z M360.9,13.6h-9.5
				c-0.2,0-0.4-0.2-0.4-0.4s0.2-0.4,0.4-0.4h9.5c0.2,0,0.4,0.1,0.4,0.3c0,0,0,0,0,0C361.3,13.5,361.1,13.6,360.9,13.6L360.9,13.6z"
				/>
		</g>
	</g>
	<g class="st0">
		<path id="Rectangle_66" class="st1" d="M404.8,7h14c6.6,0,12,5.4,12,12v14c0,6.6-5.4,12-12,12h-14c-6.6,0-12-5.4-12-12V19
			C392.8,12.4,398.2,7,404.8,7z"/>
		<path id="Tracé_96" class="st10" d="M419.8,35h-12.3c-1.8,0-3.6-0.7-3.6-2.9V19.7c0-2.2,0-2.2,2.2-2.2h10.9v14.5h-11.6
			c-0.1,0.7,0.5,1.4,1.2,1.4c0.1,0,0.2,0,0.2,0h11.6V19l1.4,1.4L419.8,35L419.8,35z M414.3,23.3h-2.4v-2.4h-2.2v2.4h-2.4v2.2h2.4
			v2.4h2.2v-2.4h2.4L414.3,23.3L414.3,23.3z"/>
	</g>
</g>
<g id="Rectangle_69_00000080889752036887398040000013913109762718529930_" transform="translate(65.996 38.892)">
	
		<linearGradient id="SVGID_1_" gradientUnits="userSpaceOnUse" x1="-2203.7859" y1="230.8891" x2="-2203.9929" y2="230.6272" gradientTransform="matrix(66.506 0 0 66.507 146537.8281 -15356.4424)">
		<stop  offset="0" style="stop-color:#7613E0"/>
		<stop  offset="1" style="stop-color:#9F57ED"/>
	</linearGradient>
	<path class="st11" d="M-37.3-18.9h6.4c3.4,0,6.2,2.8,6.2,6.2v6.4c0,3.4-2.8,6.2-6.2,6.2h-6.4c-3.4,0-6.2-2.8-6.2-6.2v-6.4
		C-43.5-16.1-40.7-18.9-37.3-18.9z"/>
	<g>
		<path class="st1" d="M-30.5,1.2h-7.2c-3.9,0-7.1-3.2-7.1-7.1v-7.2c0-3.9,3.2-7.1,7.1-7.1h7.2c3.9,0,7.1,3.2,7.1,7.1v7.2
			C-23.4-2-26.6,1.2-30.5,1.2z M-37.7-18.2c-2.8,0-5.1,2.3-5.1,5.1v7.2c0,2.8,2.3,5.1,5.1,5.1h7.2c2.8,0,5.1-2.3,5.1-5.1v-7.2
			c0-2.8-2.3-5.1-5.1-5.1H-37.7z"/>
	</g>
</g>
<g id="Rectangle_70_00000173153342373744648210000005037989808013505693_" transform="translate(110.109) rotate(90)">
	
		<linearGradient id="SVGID_00000080193941441533256350000001082774904297035439_" gradientUnits="userSpaceOnUse" x1="-244.1792" y1="577.7922" x2="-243.964" y2="578.0402" gradientTransform="matrix(66.507 0 0 66.506 16248.8838 -38348.1328)">
		<stop  offset="0" style="stop-color:#67ED9A"/>
		<stop  offset="1" style="stop-color:#4AC87A"/>
	</linearGradient>
	<path style="fill:url(#SVGID_00000080193941441533256350000001082774904297035439_);" d="M13.7,75.2h6.9c3.7,0,6.7,3,6.7,6.7v6.9
		c0,3.7-3,6.7-6.7,6.7h-6.9c-3.7,0-6.7-3-6.7-6.7v-6.9C6.9,78.2,10,75.2,13.7,75.2z"/>
	<g>
		<path class="st1" d="M27.6,81.8V89c0,3.9-3.2,7.1-7.1,7.1h-7.1c-3.9,0-7.1-3.2-7.1-7.1v-7.2c0-3.9,3.2-7.1,7.1-7.1h7.2
			C24.5,74.7,27.6,77.9,27.6,81.8z M8.2,89c0,2.8,2.3,5.1,5.1,5.1h7.2c2.8,0,5.1-2.3,5.1-5.1v-7.2c0-2.8-2.3-5.1-5.1-5.1h-7.1
			c-2.8,0-5.1,2.3-5.1,5.1V89H8.2z"/>
	</g>
</g>
<g id="Rectangle_71_00000168102267540602379660000011224577753851436420_" transform="translate(88.714 52.366) rotate(90)">
	
		<linearGradient id="SVGID_00000126291844392998263030000007441191786230914198_" gradientUnits="userSpaceOnUse" x1="-306.4317" y1="639.6904" x2="-306.6272" y2="639.3914" gradientTransform="matrix(66.507 0 0 66.506 20368.4609 -42467.6484)">
		<stop  offset="0" style="stop-color:#FFA800"/>
		<stop  offset="1" style="stop-color:#FFC24D"/>
	</linearGradient>
	<path style="fill:url(#SVGID_00000126291844392998263030000007441191786230914198_);" d="M-22,60.9h6.7c3.6,0,6.6,3,6.6,6.6v6.7
		c0,3.6-3,6.6-6.6,6.6H-22c-3.6,0-6.6-3-6.6-6.6v-6.7C-28.5,63.8-25.6,60.9-22,60.9z"/>
	<g>
		<path class="st1" d="M-7.9,67.2v7.2c0,3.9-3.2,7.1-7.1,7.1h-7.2c-3.9,0-7.1-3.2-7.1-7.1v-7.2c0-3.9,3.2-7.1,7.1-7.1h7.2
			C-11.1,60.2-7.9,63.4-7.9,67.2z M-27.3,74.5c0,2.8,2.3,5.1,5.1,5.1h7.2c2.8,0,5.1-2.3,5.1-5.1v-7.2c0-2.8-2.3-5.1-5.1-5.1h-7.2
			c-2.8,0-5.1,2.3-5.1,5.1V74.5z"/>
	</g>
</g>
<g id="Rectangle_72_00000040548385054437995950000007137385315672586942_" transform="translate(66.506 13.481) rotate(90)">
	<g>
		<g>
			<path class="st7" d="M4.5,45.6h6.9c3.7,0,6.7,3,6.7,6.7v6.9c0,3.7-3,6.7-6.7,6.7H4.5c-3.7,0-6.7-3-6.7-6.7v-6.9
				C-2.2,48.6,0.8,45.6,4.5,45.6z"/>
		</g>
	</g>
	<g>
		<path class="st1" d="M18.5,52.2v7.2c0,3.9-3.2,7.1-7.1,7.1H4.2c-3.9,0-7.1-3.2-7.1-7.1v-7.2c0-3.9,3.2-7.1,7.1-7.1h7.2
			C15.3,45.1,18.5,48.3,18.5,52.2z M-0.9,59.4c0,2.8,2.3,5.1,5.1,5.1h7.2c2.8,0,5.1-2.3,5.1-5.1v-7.2c0-2.8-2.3-5.1-5.1-5.1H4.2
			c-2.8,0-5.1,2.3-5.1,5.1V59.4z"/>
	</g>
</g>
<g class="st4">
	<path class="st1" d="M61.7,18.5c0,1-0.2,1.9-0.5,2.7c-0.3,0.8-0.8,1.5-1.4,2.1c-0.6,0.6-1.3,1.1-2.2,1.4s-1.8,0.5-2.8,0.5h-5.2
		V11.9h5.2c1,0,2,0.2,2.8,0.5c0.8,0.4,1.6,0.8,2.2,1.4s1.1,1.3,1.4,2.1C61.6,16.7,61.7,17.6,61.7,18.5z M58.6,18.5
		c0-0.7-0.1-1.3-0.3-1.8s-0.4-1-0.7-1.3c-0.3-0.4-0.7-0.6-1.2-0.9c-0.4-0.2-1-0.3-1.6-0.3h-2.1v8.6h2.1c0.6,0,1.1-0.1,1.6-0.3
		c0.4-0.2,0.9-0.5,1.2-0.9s0.6-0.8,0.7-1.3C58.5,19.8,58.6,19.2,58.6,18.5z"/>
	<path class="st1" d="M65.4,21c0.1,0.8,0.3,1.4,0.7,1.7c0.4,0.4,0.9,0.5,1.5,0.5c0.3,0,0.6,0,0.9-0.1s0.4-0.2,0.6-0.3
		c0.2-0.1,0.4-0.2,0.5-0.3s0.3-0.1,0.5-0.1s0.4,0.1,0.5,0.3l0.8,1c-0.3,0.3-0.6,0.6-1,0.8c-0.4,0.2-0.7,0.4-1,0.5
		c-0.4,0.1-0.7,0.2-1.1,0.3s-0.7,0.1-1,0.1c-0.7,0-1.3-0.1-1.9-0.3c-0.6-0.2-1.1-0.5-1.5-1c-0.4-0.4-0.8-1-1-1.6
		c-0.3-0.6-0.4-1.4-0.4-2.2c0-0.6,0.1-1.2,0.3-1.8s0.5-1.1,0.9-1.5c0.4-0.4,0.9-0.8,1.5-1c0.6-0.3,1.2-0.4,2-0.4
		c0.6,0,1.2,0.1,1.7,0.3c0.5,0.2,1,0.5,1.3,0.9c0.4,0.4,0.7,0.8,0.9,1.4c0.2,0.5,0.3,1.2,0.3,1.8c0,0.2,0,0.4,0,0.5
		s-0.1,0.3-0.1,0.3s-0.1,0.1-0.2,0.2c-0.1,0-0.2,0-0.3,0L65.4,21L65.4,21z M69,19.3c0-0.2,0-0.4-0.1-0.7c-0.1-0.2-0.2-0.4-0.3-0.6
		c-0.1-0.2-0.3-0.3-0.5-0.4c-0.2-0.1-0.5-0.2-0.8-0.2c-0.5,0-1,0.2-1.3,0.4c-0.3,0.3-0.5,0.7-0.6,1.3L69,19.3L69,19.3z"/>
	<path class="st1" d="M81.6,15.7l-3.7,9.5h-2.6l-3.7-9.5H74c0.2,0,0.4,0,0.5,0.1s0.2,0.2,0.3,0.4l1.3,4.3c0.1,0.4,0.2,0.7,0.3,1
		c0.1,0.3,0.2,0.7,0.2,1c0.1-0.7,0.3-1.3,0.5-2l1.4-4.3c0.1-0.1,0.1-0.3,0.3-0.4c0.1-0.1,0.3-0.1,0.5-0.1L81.6,15.7L81.6,15.7z"/>
	<path class="st1" d="M87.6,11.9c0.9,0,1.7,0.1,2.3,0.3c0.6,0.2,1.2,0.4,1.6,0.7c0.4,0.3,0.7,0.7,0.9,1.1c0.2,0.4,0.3,0.9,0.3,1.5
		c0,0.3,0,0.6-0.1,0.9s-0.2,0.5-0.4,0.8c-0.2,0.3-0.4,0.4-0.7,0.7c-0.3,0.2-0.6,0.4-1,0.5c0.9,0.2,1.5,0.5,2,1
		c0.4,0.5,0.6,1.1,0.6,1.9c0,0.6-0.1,1.1-0.3,1.6c-0.2,0.5-0.5,0.9-1,1.3c-0.4,0.4-1,0.6-1.6,0.9c-0.6,0.2-1.3,0.3-2.1,0.3h-5.3
		V11.9H87.6z M85.8,14.2v3.3h1.6c0.4,0,0.6,0,0.9-0.1s0.5-0.1,0.7-0.3c0.2-0.1,0.4-0.3,0.4-0.5c0.1-0.2,0.2-0.5,0.2-0.8
		c0-0.3,0-0.6-0.1-0.8s-0.2-0.4-0.4-0.5s-0.3-0.2-0.6-0.2c-0.3-0.1-0.5-0.1-0.9-0.1H85.8L85.8,14.2z M88,22.8c0.4,0,0.7-0.1,1-0.2
		s0.4-0.2,0.6-0.4s0.3-0.4,0.3-0.5c0.1-0.2,0.1-0.4,0.1-0.6c0-0.3,0-0.4-0.1-0.7c-0.1-0.2-0.2-0.4-0.3-0.5s-0.4-0.2-0.6-0.3
		c-0.3-0.1-0.6-0.1-1-0.1h-2.1v3.3L88,22.8L88,22.8z"/>
	<path class="st1" d="M98.9,15.6c0.7,0,1.4,0.1,2,0.4c0.6,0.2,1.1,0.5,1.5,1c0.4,0.4,0.7,0.9,1,1.5c0.2,0.6,0.4,1.3,0.4,2
		c0,0.8-0.1,1.4-0.4,2.1c-0.2,0.6-0.6,1.1-1,1.5s-0.9,0.7-1.5,1c-0.6,0.2-1.3,0.4-2,0.4s-1.4-0.1-2-0.4c-0.6-0.2-1.1-0.5-1.5-1
		c-0.4-0.4-0.8-0.9-1-1.5S94,21.3,94,20.5c0-0.7,0.1-1.4,0.4-2c0.2-0.6,0.6-1.1,1-1.5s0.9-0.7,1.5-1C97.5,15.7,98.1,15.6,98.9,15.6z
		 M98.9,23.2c0.6,0,1.1-0.2,1.4-0.7c0.3-0.4,0.4-1.2,0.4-2.1c0-0.9-0.2-1.6-0.4-2.1c-0.3-0.4-0.8-0.7-1.4-0.7
		c-0.7,0-1.2,0.2-1.5,0.7s-0.5,1.2-0.5,2.1s0.2,1.6,0.5,2.1S98.2,23.2,98.9,23.2z"/>
	<path class="st1" d="M113.7,25.2H111c-0.2,0-0.4-0.1-0.5-0.2s-0.2-0.2-0.3-0.4l-1.7-2.9c0,0.1-0.1,0.2-0.1,0.3s-0.1,0.2-0.1,0.3
		l-1.4,2.4c-0.1,0.1-0.2,0.2-0.3,0.4c-0.1,0.1-0.3,0.2-0.4,0.2h-2.5l3.2-4.9l-3-4.6h2.7c0.2,0,0.4,0,0.4,0.1
		c0.1,0.1,0.2,0.1,0.3,0.3L109,19c0-0.1,0.1-0.2,0.1-0.3c0.1-0.1,0.1-0.2,0.2-0.3l1.2-2.1c0.1-0.1,0.2-0.2,0.3-0.3
		c0.1-0.1,0.2-0.1,0.4-0.1h2.6l-3,4.5L113.7,25.2z"/>
</g>
<g class="st4">
	<path class="st1" d="M50,40.1v-0.7h5.1v0.7H50z"/>
	<path class="st1" d="M56.2,39.1v-0.9c0.4,0.2,0.7,0.4,1.1,0.5c0.4,0.1,0.7,0.1,1,0.1c0.4,0,0.8-0.1,1-0.2c0.2-0.2,0.3-0.3,0.3-0.5
		c0-0.1,0-0.3-0.1-0.4c-0.1-0.1-0.3-0.2-0.7-0.4l-0.3-0.1l-0.6-0.3c-0.6-0.3-1.1-0.5-1.2-0.7c-0.2-0.2-0.3-0.5-0.3-0.8
		c0-0.4,0.2-0.8,0.5-1.1c0.3-0.3,0.9-0.4,1.6-0.4c0.6,0,1.1,0.1,1.6,0.3V35c-0.6-0.2-1.1-0.3-1.6-0.3c-0.4,0-0.7,0.1-0.9,0.2
		c-0.2,0.1-0.3,0.3-0.3,0.5s0.1,0.4,0.3,0.4c0.2,0.1,0.5,0.3,0.9,0.4l0.6,0.2c0.5,0.2,0.9,0.4,1.2,0.6c0.2,0.2,0.3,0.5,0.3,0.9
		c0,0.4-0.2,0.8-0.5,1.1c-0.4,0.3-0.9,0.4-1.7,0.4C57.6,39.5,56.9,39.4,56.2,39.1z"/>
	<path class="st1" d="M65.4,38.2c-0.3,0.4-0.6,0.8-1,1s-0.7,0.3-1,0.3c-0.4,0-0.8-0.2-1.2-0.6c-0.4-0.4-0.5-1-0.5-1.7
		c0-0.6,0.1-1.2,0.4-1.6c0.2-0.5,0.5-0.9,0.9-1.1c0.4-0.3,0.9-0.4,1.4-0.4c0.2,0,0.4,0,0.7,0.1c0.1,0,0.1,0,0.2,0h0.9v3.7
		c0,0.6,0.1,1.2,0.2,1.5h-0.9C65.5,39.1,65.4,38.7,65.4,38.2z M65.4,37.2V35c-0.3-0.1-0.6-0.1-0.9-0.1c-0.5,0-1,0.2-1.3,0.6
		c-0.4,0.4-0.5,1-0.5,1.7c0,0.5,0.1,0.9,0.3,1.2s0.4,0.4,0.7,0.4s0.6-0.1,0.9-0.4C64.8,38,65.1,37.6,65.4,37.2z"/>
	<path class="st1" d="M67.7,39.4v-5.3h0.9v1.2c0.3-0.4,0.5-0.7,0.9-1s0.7-0.4,1.1-0.4c0.3,0,0.6,0.1,0.8,0.3
		c0.2,0.2,0.4,0.4,0.5,0.6s0.2,0.8,0.2,1.6v2.9h-0.9v-3c0-0.5,0-0.8-0.1-1c0-0.2-0.1-0.3-0.3-0.4c-0.1-0.1-0.3-0.2-0.4-0.2
		c-0.3,0-0.6,0.2-1,0.4c-0.4,0.2-0.6,0.6-0.9,1.1v3L67.7,39.4L67.7,39.4z"/>
	<path class="st1" d="M77.8,39.1c-0.4,0.2-0.7,0.3-0.9,0.3c-0.2,0-0.4,0.1-0.5,0.1c-0.4,0-0.7-0.1-1-0.2c-0.3-0.2-0.5-0.4-0.7-0.6
		c-0.1-0.3-0.2-0.7-0.2-1.3v-2.1h-1.3v-0.7h1.3v-2.1h0.9v2.1h2.3v0.7h-2.3v2.1c0,0.4,0.1,0.7,0.2,0.9c0.1,0.2,0.2,0.3,0.4,0.4
		c0.2,0.1,0.4,0.1,0.6,0.1c0.4,0,0.9-0.1,1.3-0.4L77.8,39.1L77.8,39.1z"/>
	<path class="st1" d="M83.6,39c-0.7,0.3-1.3,0.5-2,0.5c-0.5,0-0.9-0.1-1.3-0.4c-0.4-0.2-0.7-0.6-0.9-1c-0.2-0.4-0.3-0.9-0.3-1.4
		s0.1-0.9,0.3-1.4s0.5-0.8,0.9-1c0.4-0.3,0.8-0.4,1.3-0.4c0.6,0,1.1,0.2,1.5,0.7c0.4,0.4,0.6,1.1,0.6,2.1v0.2h-3.6
		c0,0.4,0.1,0.7,0.2,1s0.4,0.5,0.6,0.7c0.3,0.2,0.5,0.2,0.8,0.2c0.6,0,1.2-0.2,1.9-0.6V39L83.6,39z M80.1,36.2h2.6v-0.1
		c0-0.4-0.1-0.8-0.3-1c-0.2-0.3-0.5-0.4-0.8-0.4s-0.7,0.1-0.9,0.4C80.4,35.3,80.2,35.7,80.1,36.2z M80.6,33.3l1.4-1.5h1l-1.6,1.5
		H80.6z"/>
</g>
</svg>
