<?xml version="1.0" encoding="UTF-8"?>
<svg id="Calque_1" xmlns="http://www.w3.org/2000/svg" version="1.1" viewBox="0 0 871 871">
  <!-- Generator: Adobe Illustrator 29.6.1, SVG Export Plug-In . SVG Version: 2.1.1 Build 9)  -->
  <defs>
    <style>
      .st0 {
        fill: #224e71;
      }

      .st1 {
        fill: #4482c3;
      }

      .st2 {
        fill: #fff;
      }

      .st3 {
        opacity: .8;
      }

      .st4 {
        opacity: .5;
      }

      .st5 {
        opacity: .2;
      }

      .st6 {
        fill: #8fc0e8;
      }
    </style>
  </defs>
  <g class="st5">
    <path class="st2" d="M759.1,697.9l-261.8,154.8c-40.4,23.9-90.4,24.4-131.3,1.4l-265-149.3c-40.9-23-66.4-66.1-66.8-113l-3.2-304.2c-.5-46.9,24.1-90.5,64.5-114.5L357.2,18.3c40.4-23.9,90.4-24.4,131.3-1.4l265,149.3c40.9,23,66.4,66.1,66.8,113l3.2,304.2c.5,46.9-24.1,90.5-64.5,114.5Z"/>
  </g>
  <g class="st4">
    <path class="st2" d="M708.9,658.2l-222.2,131.5c-34.3,20.3-76.8,20.7-111.4,1.2l-225-126.8c-34.7-19.6-56.3-56.1-56.7-96l-2.7-258.2c-.4-39.9,20.4-76.8,54.7-97.1l222.2-131.5c34.3-20.3,76.8-20.7,111.4-1.2l225,126.8c34.7,19.6,56.3,56.1,56.7,96l2.7,258.2c.4,39.9-20.4,76.8-54.7,97.1h0Z"/>
  </g>
  <g class="st3">
    <path class="st2" d="M661.1,620.3l-184.4,109.1c-28.5,16.9-63.7,17.2-92.6,1l-186.7-105.2c-28.8-16.2-46.7-46.5-47.1-79.6l-2.2-214.3c-.3-33,17-63.8,45.4-80.6l184.4-109.1c28.5-16.9,63.7-17.2,92.6-1l186.7,105.2c28.8,16.2,46.7,46.5,47.1,79.6l2.2,214.3c.3,33-17,63.8-45.4,80.6Z"/>
  </g>
  <g>
    <path class="st1" d="M619.5,587.5l-151.7,89.7c-23.4,13.8-52.4,14.1-76.1.8l-153.5-86.5c-23.7-13.3-38.5-38.4-38.8-65.5l-1.8-176.2c-.3-27.1,13.9-52.5,37.3-66.3l151.7-89.7c23.4-13.8,52.4-14.1,76.1-.8l153.5,86.5c23.7,13.3,38.5,38.4,38.8,65.5l1.8,176.2c.3,27.1-13.9,52.5-37.3,66.3Z"/>
    <g>
      <path class="st2" d="M460.2,372.2h-66.1c-13.7,0-24.8,11.1-24.8,24.8v85c0,2.2,1.2,4.2,3.1,5.2.9.5,1.8.7,2.8.7s2.3-.3,3.3-1l23.6-15.7c2.1-1.4,4.6-2.2,7.2-2.2h51c13.7,0,24.8-11.1,24.8-24.8v-47.2c0-13.7-11.1-24.8-24.8-24.8h-.1ZM394.4,396.7h38.4c4.3,0,8,3.5,8,8s-3.5,8-8,8h-38.4c-4.3,0-8-3.5-8-8s3.5-8,8-8ZM467.9,434.7c0,4.3-3.5,8-8,8h-65.5c-4.3,0-8-3.5-8-8h0c0-4.3,3.5-8,8-8h65.5c4.3,0,8,3.5,8,8h0Z"/>
      <path class="st2" d="M320.6,407.5h-49.5c-10.2,0-18.6,8.4-18.6,18.6v63.5c0,1.6.9,3.1,2.3,3.9.7.3,1.4.5,2.1.5s1.7-.2,2.4-.7l17.7-11.7c1.6-1.1,3.4-1.6,5.3-1.6h38c10.2,0,18.6-8.4,18.6-18.6v-35.3c0-10.2-8.4-18.6-18.6-18.6h.1ZM307.3,454.3c0,3.2-2.6,6-6,6h-30c-3.2,0-6-2.6-6-6h0c0-3.2,2.6-6,6-6h30c3.2,0,6,2.6,6,6h0ZM320.4,437.8h-49c-3.2,0-6-2.6-6-6s2.6-6,6-6h49c3.2,0,6,2.6,6,6s-2.6,6-6,6Z"/>
      <path class="st2" d="M583.2,402.6h-49.5c-10.2,0-18.6,8.4-18.6,18.6v35.3c0,10.2,8.4,18.6,18.6,18.6h38c1.9,0,3.7.6,5.3,1.6l17.7,11.7c.7.5,1.6.7,2.4.7s1.4-.2,2.1-.5c1.4-.8,2.3-2.3,2.3-3.9v-63.5c0-10.2-8.4-18.6-18.6-18.6h.1ZM588.9,449.5c0,3.2-2.6,6-6,6h-30c-3.2,0-6-2.6-6-6h0c0-3.2,2.6-6,6-6h30c3.2,0,6,2.6,6,6h0ZM582.9,432.8h-49c-3.2,0-6-2.6-6-6s2.6-6,6-6h49c3.2,0,6,2.6,6,6s-2.6,6-6,6Z"/>
    </g>
    <path class="st6" d="M571.8,510.4h-289.2c-17.3,0-31.3,14-31.3,31.3s14,31.3,31.3,31.3h289.2c17.3,0,31.3-14,31.3-31.3s-14-31.3-31.3-31.3ZM282.1,559.3c-9.7,0-17.6-7.9-17.6-17.6s7.9-17.6,17.6-17.6,17.6,7.9,17.6,17.6-7.9,17.6-17.6,17.6ZM330.3,551.7c-5.6,0-10-4.4-10-10s4.4-10,10-10,10,4.4,10,10-4.4,10-10,10ZM378.6,559.3c-9.7,0-17.6-7.9-17.6-17.6s7.9-17.6,17.6-17.6,17.6,7.9,17.6,17.6-7.9,17.6-17.6,17.6ZM426.9,551.7c-5.6,0-10-4.4-10-10s4.4-10,10-10,10,4.4,10,10-4.4,10-10,10ZM475.1,559.3c-9.7,0-17.6-7.9-17.6-17.6s7.9-17.6,17.6-17.6,17.6,7.9,17.6,17.6-7.9,17.6-17.6,17.6ZM523.5,551.7c-5.6,0-10-4.4-10-10s4.4-10,10-10,10,4.4,10,10-4.4,10-10,10ZM571.7,559.3c-9.7,0-17.6-7.9-17.6-17.6s7.9-17.6,17.6-17.6,17.6,7.9,17.6,17.6-7.9,17.6-17.6,17.6Z"/>
    <path class="st0" d="M481.1,309.1l27.1,50.3c1,1.8,1.5,3.8,1.5,5.9.3,4.9-2.1,9.5-6.5,12l-2.7,1.6,5.3,23.1,4.6-1.9c14.4-6,23.6-20.5,22.7-36.1-.3-5.5-1.8-10.9-4.4-15.5l-27.1-50.3c-4-7.6-10.7-13.4-18.6-16.7l-21.6-8.9c-1.9-.7-3.8-1.3-6.1-1.8h-.3c-1.9-4.1-4.5-7.7-8-10.6-.5-.4-1-.7-1.5-1v-73c-10.4-3.4-24.7-3.4-33.6-1.7v73.6c-1,.6-2,1.2-2.9,2-3.2,2.7-6,6.2-7.8,10.1l-2.6.6c-2.2.5-4.2,1.1-6.1,1.8l-21.6,8.9c-7.9,3.2-14.4,9.2-18.6,16.7l-27.1,50.3c-2.6,4.7-4.1,10.1-4.4,15.5-.8,15.6,8.3,30.2,22.7,36.1l4.6,1.9,5.3-23.1-2.7-1.6c-4.3-2.6-6.9-7.1-6.5-12,0-1.9.5-3.9,1.5-5.9l27.1-50.3c1.5-2.7,3.9-4.8,6.7-6.1l20.8-8.4c0,.2.1.4.2.6,4.8,10.7,15.5,17.6,27.3,17.6s22.3-6.8,27.1-17.5l19,7.7c2.8,1.2,5.2,3.3,6.7,6.1h.3Z"/>
  </g>
</svg>