<?xml version="1.0" encoding="utf-8"?>
<!-- Generator: Adobe Illustrator 25.1.0, SVG Export Plug-In . SVG Version: 6.00 Build 0)  -->
<svg version="1.1" id="Composant_17_1" xmlns="http://www.w3.org/2000/svg" xmlns:xlink="http://www.w3.org/1999/xlink" x="0px"
	 y="0px" viewBox="0 0 494.1 559" style="enable-background:new 0 0 494.1 559;"  width="38" height="38" xml:space="preserve">
<style type="text/css">
	.st0{fill:#FFFFFF;}
	.st1{opacity:0.5;fill:#FFFFFF;enable-background:new    ;}
	.st2{opacity:0.8;fill:#FFFFFF;enable-background:new    ;}
	.st3{opacity:0.73;}
	.st4{opacity:0.39;}
	.st5{opacity:0.76;}
	.st6{opacity:0.5;}
</style>
<g>
	<g id="Groupe_279_2_" transform="translate(43.168 42.92) rotate(-13)">
		<path id="Tracé_489_2_" class="st0" d="M33.3,392.3l-57-32.6c-4.1-2.4-9-0.8-11.4,3.3c0,0-57,92-64.3,111.5
			c-2.4,4.1-0.8,9,3.3,11.4l57,32.6c4.1,2.4,9,0.8,11.4-3.3l64.3-111.5C38.1,399.6,37.3,394.7,33.3,392.3z M-7.4,378.4l16.3,9.8
			c1.6,0.8,1.6,2.4,0.8,4.1c-0.8,1.6-2.4,1.6-4.1,0.8l-16.3-9.8c-1.6-0.8-1.6-2.4-0.8-4.1C-10.7,377.6-9.1,377.6-7.4,378.4z
			 M-62.8,494c-3.3-1.6-4.1-6.5-2.4-9.8c1.6-3.3,6.5-4.1,9.8-2.4s4.1,6.5,2.4,9.8C-55.4,494.8-59.5,495.6-62.8,494L-62.8,494z
			 M-25.3,489.1L-78.2,459l45.6-78.9l52.9,30.1L-25.3,489.1z"/>
	</g>
	<path class="st0" d="M45.5,449.4c-4.9,4.1-6.5,9.8-6.5,15.5c0.8,6.5,4.1,11.4,9.8,14.6l1.6-5.7c-3.3-2.4-5.7-6.5-4.9-10.6
		c0-4.1,1.6-7.3,4.9-9.8c2.4-1.6,4.9-3.3,8.1-3.3l1.6-5.7C54.5,444.5,49.6,445.3,45.5,449.4z"/>
	<path class="st1" d="M27.6,414.4C0,431.5-8.2,467.3,8.9,494.2c6.5,10.6,16.3,18.7,27.7,22.8l1.6-5.7c-14.6-5.7-26-17.9-30.1-34.2
		c-7.3-27.7,9-56.1,36.6-63.5c8.1-2.4,17.1-2.4,25.2,0l1.6-5.7C57.7,403.8,41.5,405.5,27.6,414.4z"/>
	<path class="st2" d="M42.3,428.3c-17.9,8.1-26.9,27.7-22,46.4c3.3,11.4,11.4,19.5,21.2,24.4l1.6-5.7c-9-4.1-16.3-13-17.9-23.6
		c-3.3-17.9,9-35,26.9-37.4c4.1-0.8,8.1,0,11.4,0l1.6-5.7C58.6,424.2,50.4,424.2,42.3,428.3z"/>
</g>
<g class="st3">
	<g id="Groupe_279_1_" transform="translate(43.168 42.92) rotate(-13)">
		<path id="Tracé_489_1_" class="st0" d="M158.8,427.8l-32.1-18.4c-2.3-1.4-5.1-0.5-6.4,1.8c0,0-32.1,51.9-36.3,62.9
			c-1.4,2.3-0.5,5.1,1.8,6.4l32.1,18.4c2.3,1.4,5.1,0.5,6.4-1.8l36.3-62.9C161.6,432,161.1,429.2,158.8,427.8z M135.8,420l9.2,5.5
			c0.9,0.5,0.9,1.4,0.5,2.3c-0.5,0.9-1.4,0.9-2.3,0.5l-9.2-5.5c-0.9-0.5-0.9-1.4-0.5-2.3C134,419.6,134.9,419.6,135.8,420z
			 M104.6,485.2c-1.8-0.9-2.3-3.7-1.4-5.5c0.9-1.8,3.7-2.3,5.5-1.4c1.8,0.9,2.3,3.7,1.4,5.5C108.7,485.7,106.5,486.2,104.6,485.2
			L104.6,485.2z M125.7,482.5l-29.8-17l25.7-44.5l29.8,17L125.7,482.5z"/>
	</g>
	<path class="st0" d="M227.4,442c-2.8,2.3-3.7,5.5-3.7,8.7c0.5,3.7,2.3,6.4,5.5,8.3l0.9-3.2c-1.8-1.4-3.2-3.7-2.8-6
		c0-2.3,0.9-4.1,2.8-5.5c1.4-0.9,2.8-1.8,4.6-1.8l0.9-3.2C232.4,439.2,229.7,439.7,227.4,442z"/>
	<path class="st1" d="M217.3,422.2c-15.6,9.6-20.2,29.8-10.6,45c3.7,6,9.2,10.6,15.6,12.9l0.9-3.2c-8.3-3.2-14.7-10.1-17-19.3
		c-4.1-15.6,5.1-31.7,20.7-35.8c4.6-1.4,9.6-1.4,14.2,0l0.9-3.2C234.3,416.3,225.1,417.2,217.3,422.2z"/>
	<path class="st2" d="M225.6,430c-10.1,4.6-15.2,15.6-12.4,26.2c1.8,6.4,6.4,11,11.9,13.8l0.9-3.2c-5.1-2.3-9.2-7.3-10.1-13.3
		c-1.8-10.1,5.1-19.7,15.2-21.1c2.3-0.5,4.6,0,6.4,0l0.9-3.2C234.7,427.7,230.1,427.7,225.6,430z"/>
</g>
<g class="st4">
	<g id="Groupe_279_3_" transform="translate(43.168 42.92) rotate(-13)">
		<path id="Tracé_489_3_" class="st0" d="M148.6,281.5l-40.8-23.3c-2.9-1.7-6.4-0.6-8.2,2.3c0,0-40.8,65.9-46.1,79.9
			c-1.7,2.9-0.6,6.4,2.3,8.2l40.8,23.3c2.9,1.7,6.4,0.6,8.2-2.3l46.1-79.9C152.1,286.7,151.5,283.2,148.6,281.5z M119.5,271.6
			l11.7,7c1.2,0.6,1.2,1.7,0.6,2.9c-0.6,1.2-1.7,1.2-2.9,0.6l-11.7-7c-1.2-0.6-1.2-1.7-0.6-2.9C117.1,271,118.3,271,119.5,271.6z
			 M79.8,354.3c-2.3-1.2-2.9-4.7-1.7-7s4.7-2.9,7-1.7c2.3,1.2,2.9,4.7,1.7,7C85.1,354.9,82.2,355.5,79.8,354.3L79.8,354.3z
			 M106.6,350.8l-37.9-21.6l32.6-56.5l37.9,21.6L106.6,350.8z"/>
	</g>
	<path class="st0" d="M166.6,306.5c-3.5,2.9-4.7,7-4.7,11.1c0.6,4.7,2.9,8.2,7,10.5l1.2-4.1c-2.3-1.7-4.1-4.7-3.5-7.6
		c0-2.9,1.2-5.2,3.5-7c1.7-1.2,3.5-2.3,5.8-2.3l1.2-4.1C173,303,169.5,303.6,166.6,306.5z"/>
	<path class="st1" d="M153.7,281.4c-19.8,12.2-25.7,37.9-13.4,57.1c4.7,7.6,11.7,13.4,19.8,16.3l1.2-4.1
		c-10.5-4.1-18.7-12.8-21.6-24.5c-5.2-19.8,6.4-40.2,26.2-45.5c5.8-1.7,12.2-1.7,18.1,0l1.2-4.1C175.3,273.8,163.6,275,153.7,281.4z
		"/>
	<path class="st2" d="M164.2,291.3c-12.8,5.8-19.2,19.8-15.7,33.2c2.3,8.2,8.2,14,15.2,17.5l1.2-4.1c-6.4-2.9-11.7-9.3-12.8-16.9
		c-2.3-12.8,6.4-25.1,19.2-26.8c2.9-0.6,5.8,0,8.2,0l1.2-4.1C175.9,288.4,170,288.4,164.2,291.3z"/>
</g>
<g class="st5">
	<g id="Groupe_279_4_" transform="translate(43.168 42.92) rotate(-13)">
		<path id="Tracé_489_4_" class="st0" d="M283.2,352l-36.5-20.9c-2.6-1.6-5.7-0.5-7.3,2.1c0,0-36.5,59-41.2,71.5
			c-1.6,2.6-0.5,5.7,2.1,7.3l36.5,20.9c2.6,1.6,5.7,0.5,7.3-2.1l41.2-71.5C286.3,356.7,285.8,353.6,283.2,352z M257.1,343.2
			l10.4,6.3c1,0.5,1,1.6,0.5,2.6c-0.5,1-1.6,1-2.6,0.5l-10.4-6.3c-1-0.5-1-1.6-0.5-2.6S256.1,342.6,257.1,343.2z M221.6,417.2
			c-2.1-1-2.6-4.2-1.6-6.3s4.2-2.6,6.3-1.6c2.1,1,2.6,4.2,1.6,6.3C226.3,417.8,223.7,418.3,221.6,417.2L221.6,417.2z M245.6,414.1
			l-33.9-19.3l29.2-50.6l33.9,19.3L245.6,414.1z"/>
	</g>
	<path class="st0" d="M322.4,342.6c-3.1,2.6-4.2,6.3-4.2,9.9c0.5,4.2,2.6,7.3,6.3,9.4l1-3.7c-2.1-1.6-3.7-4.2-3.1-6.8
		c0-2.6,1-4.7,3.1-6.3c1.6-1,3.1-2.1,5.2-2.1l1-3.7C328.2,339.4,325.1,340,322.4,342.6z"/>
	<path class="st1" d="M311,320.1c-17.7,11-23,33.9-12,51.1c4.2,6.8,10.4,12,17.7,14.6l1-3.7c-9.4-3.7-16.7-11.5-19.3-21.9
		c-4.7-17.7,5.7-36,23.5-40.7c5.2-1.6,11-1.6,16.2,0l1-3.7C330.3,313.4,319.8,314.4,311,320.1z"/>
	<path class="st2" d="M320.4,329c-11.5,5.2-17.2,17.7-14.1,29.7c2.1,7.3,7.3,12.5,13.6,15.7l1-3.7c-5.7-2.6-10.4-8.3-11.5-15.1
		c-2.1-11.5,5.7-22.4,17.2-24c2.6-0.5,5.2,0,7.3,0l1-3.7C330.8,326.4,325.6,326.4,320.4,329z"/>
</g>
<g>
	<g id="Groupe_279_5_" transform="translate(43.168 42.92) rotate(-13)">
		<path id="Tracé_489_5_" class="st0" d="M267.9,191.9L227,168.6c-2.9-1.8-6.4-0.6-8.2,2.3c0,0-40.9,66-46.2,80.1
			c-1.8,2.9-0.6,6.4,2.3,8.2l40.9,23.4c2.9,1.8,6.4,0.6,8.2-2.3l46.2-80.1C271.4,197.2,270.8,193.7,267.9,191.9z M238.7,182l11.7,7
			c1.2,0.6,1.2,1.8,0.6,2.9c-0.6,1.2-1.8,1.2-2.9,0.6l-11.7-7c-1.2-0.6-1.2-1.8-0.6-2.9S237.5,181.4,238.7,182z M199,265
			c-2.3-1.2-2.9-4.7-1.8-7c1.2-2.3,4.7-2.9,7-1.8c2.3,1.2,2.9,4.7,1.8,7C204.2,265.6,201.3,266.2,199,265L199,265z M225.9,261.5
			l-38-21.6l32.7-56.7l38,21.6L225.9,261.5z"/>
	</g>
	<path class="st0" d="M262.5,192.5c-3.5,2.9-4.7,7-4.7,11.1c0.6,4.7,2.9,8.2,7,10.5l1.2-4.1c-2.3-1.8-4.1-4.7-3.5-7.6
		c0-2.9,1.2-5.3,3.5-7c1.8-1.2,3.5-2.3,5.8-2.3l1.2-4.1C268.9,189,265.4,189.6,262.5,192.5z"/>
	<path class="st1" d="M249.6,167.4c-19.9,12.3-25.7,38-13.4,57.3c4.7,7.6,11.7,13.4,19.9,16.4l1.2-4.1
		c-10.5-4.1-18.7-12.9-21.6-24.5c-5.3-19.9,6.4-40.3,26.3-45.6c5.8-1.8,12.3-1.8,18.1,0l1.2-4.1
		C271.2,159.8,259.5,160.9,249.6,167.4z"/>
	<path class="st2" d="M260.1,177.3c-12.9,5.8-19.3,19.9-15.8,33.3c2.3,8.2,8.2,14,15.2,17.5l1.2-4.1c-6.4-2.9-11.7-9.3-12.9-16.9
		c-2.3-12.9,6.4-25.1,19.3-26.9c2.9-0.6,5.8,0,8.2,0l1.2-4.1C271.8,174.4,266,174.4,260.1,177.3z"/>
</g>
<g class="st6">
	<g id="Groupe_279_6_" transform="translate(43.168 42.92) rotate(-13)">
		<path id="Tracé_489_6_" class="st0" d="M366,273.1l-27-15.4c-1.9-1.2-4.2-0.4-5.4,1.5c0,0-27,43.6-30.5,52.9
			c-1.2,1.9-0.4,4.2,1.5,5.4l27,15.4c1.9,1.2,4.2,0.4,5.4-1.5l30.5-52.9C368.3,276.6,367.9,274.2,366,273.1z M346.7,266.5l7.7,4.6
			c0.8,0.4,0.8,1.2,0.4,1.9c-0.4,0.8-1.2,0.8-1.9,0.4l-7.7-4.6c-0.8-0.4-0.8-1.2-0.4-1.9C345.1,266.1,345.9,266.1,346.7,266.5z
			 M320.4,321.4c-1.5-0.8-1.9-3.1-1.2-4.6c0.8-1.5,3.1-1.9,4.6-1.2c1.5,0.8,1.9,3.1,1.2,4.6C323.9,321.8,321.9,322.1,320.4,321.4
			L320.4,321.4z M338.2,319.1l-25.1-14.3l21.6-37.5l25.1,14.3L338.2,319.1z"/>
	</g>
	<path class="st0" d="M405.1,241.8c-2.3,1.9-3.1,4.6-3.1,7.3c0.4,3.1,1.9,5.4,4.6,7l0.8-2.7c-1.5-1.2-2.7-3.1-2.3-5
		c0-1.9,0.8-3.5,2.3-4.6c1.2-0.8,2.3-1.5,3.9-1.5l0.8-2.7C409.3,239.4,407,239.8,405.1,241.8z"/>
	<path class="st1" d="M396.6,225.1c-13.1,8.1-17,25.1-8.9,37.9c3.1,5,7.7,8.9,13.1,10.8l0.8-2.7c-7-2.7-12.4-8.5-14.3-16.2
		c-3.5-13.1,4.2-26.7,17.4-30.1c3.9-1.2,8.1-1.2,12,0l0.8-2.7C410.9,220.1,403.1,220.9,396.6,225.1z"/>
	<path class="st2" d="M403.5,231.7c-8.5,3.9-12.7,13.1-10.4,22c1.5,5.4,5.4,9.3,10,11.6l0.8-2.7c-4.2-1.9-7.7-6.2-8.5-11.2
		c-1.5-8.5,4.2-16.6,12.7-17.8c1.9-0.4,3.9,0,5.4,0l0.8-2.7C411.2,229.8,407.4,229.8,403.5,231.7z"/>
</g>
</svg>
