<?xml version="1.0" encoding="utf-8"?>
<!-- Generator: Adobe Illustrator 27.5.0, SVG Export Plug-In . SVG Version: 6.00 Build 0)  -->
<svg version="1.1" id="Calque_1" xmlns="http://www.w3.org/2000/svg" xmlns:xlink="http://www.w3.org/1999/xlink" x="0px" y="0px"
	 viewBox="0 0 588.7 588.1" style="enable-background:new 0 0 588.7 588.1;" xml:space="preserve">
<style type="text/css">
	.st0{opacity:9.000000e-02;enable-background:new    ;}
	.st1{opacity:0.15;fill:#FFFFFF;enable-background:new    ;}
	.st2{fill:#E43B32;}
	.st3{enable-background:new    ;}
	.st4{fill:#FFFFFF;}
	.st5{opacity:0.5;fill:#FFFFFF;enable-background:new    ;}
	.st6{opacity:0.8;fill:#FFFFFF;enable-background:new    ;}
	.st7{fill:#5B3F91;}
	.st8{opacity:0.102;fill:#FFFFFF;enable-background:new    ;}
	.st9{opacity:3.000000e-02;fill:#FFFFFF;enable-background:new    ;}
	.st10{fill:#E95280;}
	.st11{fill-rule:evenodd;clip-rule:evenodd;fill:#FFFFFF;}
	.st12{opacity:0.2;enable-background:new    ;}
	.st13{fill:url(#Tracé_73_00000093165207750760704350000016720411899774694032_);}
	.st14{fill:url(#Tracé_74_00000061446990253358422270000008866358218194850989_);}
	.st15{fill:#4EB066;}
	.st16{fill:url(#Tracé_76_00000055705070086842186600000010223331029313169806_);}
	.st17{opacity:0.11;fill:#FFFFFF;enable-background:new    ;}
	.st18{opacity:7.000000e-02;fill:#FFFFFF;enable-background:new    ;}
	.st19{fill:#2473B9;}
	.st20{fill:#186298;}
	.st21{fill:#24B2A9;}
	.st22{fill:#C3D670;}
	.st23{fill:#00A3D3;}
</style>
<g>
	<g>
		<g>
			<g>
				<g id="Composant_10_2_00000060724708719568119730000011392791616594837946_" transform="translate(49.921 17.879)">
					<g id="Soustraction_5_00000103961714248285639850000003002607590101650105_" class="st0">
						
							<image style="overflow:visible;" width="388" height="390" xlink:href="2C09FD7DF9E29D00.png"  transform="matrix(1 0 0 1 39.8173 5.221)">
						</image>
					</g>
					<g id="Composant_1_15_00000073720417032060106350000011438940357506864041_" transform="translate(0 79.829)">
						<g id="Groupe_60_00000155116803923258371670000004607620703692446898_">
							<path id="Tracé_155_00000115516626899888222810000008052214625879625088_" class="st1" d="M320.8-28.2v-40.3
								c0-15,12.1-27.1,27.1-27.1h40.3c15,0,27.1,12.1,27.1,27.1v40.3c0,15-12.1,27.1-27.1,27.1h-40.3
								C332.9-1.1,320.8-13.2,320.8-28.2z"/>
						</g>
						<g id="Composant_15_7_00000063626703984409013310000006171660420539865230_" transform="translate(10 10.151)">
							<path id="Tracé_135_00000000916027460382854260000013226916317509729411_" class="st2" d="M340.9-98.2h33.5
								c12.6,0,22.9,10.2,22.9,22.8c0,0,0,0,0,0V-42c0,12.6-10.3,22.8-22.9,22.8c0,0,0,0,0,0h-33.5c-12.6,0-22.9-10.2-22.9-22.8
								c0,0,0,0,0,0v-33.4C318.1-88,328.3-98.3,340.9-98.2C340.9-98.2,340.9-98.2,340.9-98.2z"/>
							<g class="st3">
								<path class="st4" d="M352.2-77.4c0.1,0,0.2,0,0.3,0.1l0.8,0.9c-0.4,0.5-0.9,0.9-1.5,1.2c-0.6,0.3-1.3,0.4-2.2,0.4
									c-0.8,0-1.4-0.1-2-0.4c-0.6-0.3-1.1-0.6-1.5-1.1c-0.4-0.5-0.7-1-1-1.6c-0.2-0.6-0.3-1.3-0.3-2.1c0-0.5,0.1-1,0.2-1.4
									c0.1-0.5,0.3-0.9,0.5-1.2c0.2-0.4,0.5-0.7,0.8-1c0.3-0.3,0.6-0.6,1-0.8c0.4-0.2,0.8-0.4,1.2-0.5c0.4-0.1,0.9-0.2,1.4-0.2
									c0.4,0,0.7,0,1.1,0.1s0.6,0.2,0.9,0.3c0.3,0.1,0.6,0.3,0.8,0.4c0.2,0.2,0.5,0.3,0.7,0.5l-0.7,1c0,0.1-0.1,0.1-0.2,0.2
									c-0.1,0-0.2,0.1-0.3,0.1c-0.1,0-0.2,0-0.3-0.1c-0.1-0.1-0.3-0.2-0.4-0.3c-0.2-0.1-0.4-0.2-0.6-0.3c-0.2-0.1-0.6-0.1-0.9-0.1
									c-0.4,0-0.8,0.1-1.2,0.2c-0.4,0.2-0.7,0.4-0.9,0.7c-0.3,0.3-0.4,0.6-0.6,1.1c-0.1,0.4-0.2,0.9-0.2,1.4c0,0.5,0.1,1,0.2,1.4
									c0.2,0.4,0.4,0.8,0.6,1.1c0.3,0.3,0.6,0.5,0.9,0.7c0.3,0.2,0.7,0.2,1.1,0.2c0.2,0,0.4,0,0.6,0c0.2,0,0.4-0.1,0.5-0.1
									s0.3-0.1,0.5-0.2c0.1-0.1,0.3-0.2,0.4-0.3c0.1,0,0.1-0.1,0.2-0.1C352.1-77.3,352.2-77.4,352.2-77.4z"/>
								<path class="st4" d="M357.9-84.9c0.7,0,1.3,0.1,1.8,0.2c0.5,0.2,0.9,0.4,1.2,0.7c0.3,0.3,0.6,0.6,0.7,1
									c0.2,0.4,0.2,0.8,0.2,1.3c0,0.5-0.1,0.9-0.2,1.4c-0.2,0.4-0.4,0.8-0.7,1.1c-0.3,0.3-0.7,0.5-1.2,0.7
									c-0.5,0.2-1.1,0.2-1.8,0.2h-1.3v3.5h-2.1v-10.1H357.9z M357.9-79.9c0.7,0,1.1-0.2,1.4-0.5c0.3-0.3,0.5-0.7,0.5-1.3
									c0-0.2,0-0.5-0.1-0.7c-0.1-0.2-0.2-0.4-0.3-0.5c-0.2-0.1-0.4-0.3-0.6-0.3c-0.2-0.1-0.5-0.1-0.8-0.1h-1.3v3.4H357.9z"/>
								<path class="st4" d="M368.7-83c-0.1,0.1-0.1,0.2-0.2,0.2s-0.2,0.1-0.3,0.1c-0.1,0-0.2,0-0.3-0.1c-0.1-0.1-0.3-0.1-0.4-0.2
									c-0.2-0.1-0.3-0.2-0.5-0.2c-0.2-0.1-0.4-0.1-0.7-0.1c-0.5,0-0.8,0.1-1.1,0.3c-0.2,0.2-0.4,0.5-0.4,0.8
									c0,0.2,0.1,0.4,0.2,0.6c0.1,0.1,0.3,0.3,0.5,0.4c0.2,0.1,0.5,0.2,0.7,0.3c0.3,0.1,0.6,0.2,0.8,0.3c0.3,0.1,0.6,0.2,0.8,0.3
									c0.3,0.1,0.5,0.3,0.7,0.5c0.2,0.2,0.4,0.5,0.5,0.7c0.1,0.3,0.2,0.7,0.2,1.1c0,0.5-0.1,0.9-0.2,1.3c-0.2,0.4-0.4,0.7-0.7,1
									c-0.3,0.3-0.7,0.5-1.1,0.7c-0.4,0.2-0.9,0.3-1.5,0.3c-0.3,0-0.6,0-1-0.1s-0.6-0.2-0.9-0.3c-0.3-0.1-0.6-0.3-0.8-0.4
									c-0.3-0.2-0.5-0.3-0.7-0.5l0.6-1c0.1-0.1,0.1-0.1,0.2-0.2c0.1,0,0.2-0.1,0.3-0.1c0.1,0,0.3,0,0.4,0.1
									c0.1,0.1,0.3,0.2,0.5,0.3c0.2,0.1,0.4,0.2,0.6,0.3c0.2,0.1,0.5,0.1,0.9,0.1c0.5,0,0.9-0.1,1.1-0.3c0.3-0.2,0.4-0.6,0.4-1
									c0-0.3-0.1-0.5-0.2-0.6c-0.1-0.2-0.3-0.3-0.5-0.4c-0.2-0.1-0.5-0.2-0.7-0.3c-0.3-0.1-0.6-0.2-0.8-0.3
									c-0.3-0.1-0.6-0.2-0.8-0.3c-0.3-0.1-0.5-0.3-0.7-0.5c-0.2-0.2-0.4-0.5-0.5-0.8c-0.1-0.3-0.2-0.7-0.2-1.2
									c0-0.4,0.1-0.7,0.2-1.1c0.1-0.4,0.4-0.7,0.7-0.9c0.3-0.3,0.6-0.5,1.1-0.7c0.4-0.2,0.9-0.2,1.4-0.2c0.6,0,1.2,0.1,1.7,0.3
									c0.5,0.2,1,0.4,1.3,0.8L368.7-83z"/>
							</g>
							<g id="Groupe_275_00000018932388372103862030000010885549485367110588_" transform="translate(15.732 41.03)">
								<g id="Groupe_273_00000171719165862134145550000006595714269187189120_" transform="translate(19.563 19.528)">
									<path id="Tracé_478_00000136383720206655663640000004597212429776011690_" class="st4" d="M313.2-114.6
										c-2.7,0.1-4.7,2.3-4.6,5v14.2c-0.1,2.7,2,4.9,4.6,5H336c2.7-0.1,4.7-2.3,4.6-5v-14.2c0.1-2.7-2-4.9-4.6-5H313.2z
										 M313.2-112.5h6.6c-0.8,1.1-1.3,2.5-1.3,3.9v0.7c-0.1,0-0.2,0-0.4,0h-7.5v-1.8C310.6-111.1,311.7-112.4,313.2-112.5
										C313.1-112.5,313.2-112.5,313.2-112.5z M323.8-112.5h1.4c1.7,0,3.2,1.6,3.2,3.9v1.9c0,0-0.1,0.1-0.1,0.1
										c-0.7,0.9-1,1.9-1,3v1.8c0,1.1,0.3,2.2,1,3c0,0,0.1,0.1,0.1,0.1v2.2c0,2.4-1.5,3.9-3.2,3.9h-1.4c-1.7,0-3.2-1.6-3.2-3.9
										v-2.2c0,0,0.1-0.1,0.1-0.1c0.7-0.9,1-1.9,1-3v-1.8c0-1.1-0.3-2.2-1-3c0,0-0.1-0.1-0.1-0.1v-1.9
										C320.6-110.9,322.1-112.5,323.8-112.5L323.8-112.5z M329.3-112.5h6.6c1.5,0.1,2.6,1.4,2.5,2.8c0,0,0,0,0,0v1.8H331
										c-0.1,0-0.2,0-0.4,0v-0.7C330.6-110,330.2-111.3,329.3-112.5L329.3-112.5z M310.7-105.7h7.5c0.4,0,0.7,0.2,0.9,0.5
										c0.3,0.5,0.5,1.1,0.5,1.7v1.8c0,0.6-0.1,1.2-0.5,1.7c-0.2,0.3-0.6,0.5-0.9,0.5h-7.5L310.7-105.7z M331-105.7h7.5v6.1H331
										c-0.4,0-0.7-0.2-0.9-0.5c-0.3-0.5-0.5-1.1-0.5-1.7v-1.8c0-0.6,0.1-1.2,0.5-1.7C330.2-105.5,330.6-105.7,331-105.7
										L331-105.7z M318.5-97.5v1.1c0,1.4,0.4,2.8,1.3,3.9h-6.6c-1.5-0.1-2.6-1.4-2.5-2.8c0,0,0,0,0,0v-2.1h7.5
										C318.3-97.5,318.4-97.5,318.5-97.5L318.5-97.5z M330.6-97.5c0.1,0,0.2,0,0.4,0h7.5v2.1c0.1,1.5-1,2.7-2.5,2.8c0,0,0,0,0,0
										h-6.6c0.8-1.1,1.3-2.5,1.3-3.9L330.6-97.5z"/>
								</g>
								<g id="Groupe_274_00000091012103365019318250000008066244350888387480_">
									<path id="Tracé_479_00000076576537817392136680000016369398932560831150_" class="st4" d="M330.1-97.5h1.8
										c-1.1-2-3.4-3-5.6-2.2c-1.4,0.5-2.4,1.5-2.9,2.9c-0.8,2.3,0.4,4.8,2.6,5.8v-1.7c-1.2-0.9-1.7-2.5-1.1-3.9
										c0.4-0.8,1.1-1.5,1.9-1.7C328.1-98.7,329.3-98.3,330.1-97.5z"/>
									<path id="Tracé_480_00000021798758856436841530000014574139544800598187_" class="st5" d="M340.2-97.5h1.5
										c-1.2-7.6-8.4-12.9-16-11.7c-7.6,1.2-12.9,8.4-11.7,16c1,6.2,5.9,10.9,12.1,11.7v-1.5c-6.8-1-11.6-7.3-10.6-14.2
										c1-6.8,7.3-11.6,14.2-10.6C335-106.9,339.2-102.8,340.2-97.5L340.2-97.5z"/>
									<path id="Tracé_481_00000148626874138220789220000006660406959257044410_" class="st6" d="M335.4-97.5h1.5
										c-1-4.3-4.8-7.3-9.2-7.2c-5.2,0-9.3,4.3-9.3,9.5c0,4.5,3.2,8.3,7.6,9.1v-1.5c-4.2-1-6.9-5.2-5.9-9.5c1-4.2,5.2-6.9,9.5-5.9
										C332.4-102.3,334.6-100.2,335.4-97.5L335.4-97.5z"/>
								</g>
							</g>
						</g>
					</g>
					<g id="Composant_2_3_00000044874717601851956240000003609732960487201695_" transform="translate(132.285)">
						<g id="Groupe_63_00000119101597802296849810000014515708439040583050_" transform="translate(53.731 80.404)">
							<path id="Tracé_160_00000158722798972702056430000011364804010425833389_" class="st1" d="M5.1,37.6V8
								c0-11.8,9.6-21.4,21.4-21.4h29.6c11.8,0,21.4,9.6,21.4,21.4v29.6c0,11.8-9.6,21.4-21.4,21.4H26.5C14.7,59,5.1,49.4,5.1,37.6z
								"/>
						</g>
						<g id="Composant_14_10_00000176019211462931486330000010255740663355684002_" transform="translate(59.715 85.98)">
							<path id="Tracé_142_00000096047441326778257730000002357805527009034142_" class="st7" d="M23.3-12.2h24.9
								c9.4,0,17,7.6,17,17c0,0,0,0,0,0v24.8c0,9.4-7.6,17-17,17c0,0,0,0,0,0H23.3c-9.4,0-17-7.6-17-17c0,0,0,0,0,0V4.7
								C6.3-4.6,13.9-12.2,23.3-12.2z"/>
							<g id="Groupe_188_00000137852112623816598510000010746957496905433224_" transform="translate(8.731 13.382)">
								<path id="Tracé_54_00000032623035567260792470000010945760038570200983_" class="st4" d="M14.2,4.5v5.1h-0.9
									c-0.2,0-0.4-0.1-0.5-0.3l-2.1-4c-0.1-0.2-0.1-0.4,0-0.6c0.1-0.2,0.4-0.3,0.6-0.3H14.2z"/>
								<path id="Tracé_55_00000167388738977866592910000005155750851955541125_" class="st4" d="M14.2-1.8v5.1h-2.9
									c-0.2,0-0.4-0.1-0.5-0.2l-2.6-4C8-1.1,8-1.3,8.1-1.5c0.1-0.2,0.3-0.3,0.5-0.3L14.2-1.8L14.2-1.8z"/>
								<path id="Tracé_56_00000097490760057042787480000011178966291154683559_" class="st4" d="M43,5.4l-2.1,4
									c-0.1,0.2-0.3,0.3-0.5,0.3h-0.9V4.5h3c0.2,0,0.4,0.1,0.5,0.3C43,5,42.9,5.2,43,5.4z"/>
								<path id="Tracé_57_00000025426529394312688310000006730271734114906286_" class="st4" d="M45.5-1l-2.6,4
									c-0.1,0.2-0.3,0.2-0.5,0.2h-2.9v-5.2H45c0.2,0,0.4,0.1,0.5,0.3C45.6-1.4,45.6-1.2,45.5-1z"/>
								<path id="Tracé_58_00000106854550654870513440000014263604343291397249_" class="st4" d="M33.5-9.3v4.4h4.4L33.5-9.3z"/>
								<path id="Tracé_59_00000036965790095692681160000006358300224303539849_" class="st4" d="M32.9-3.7c-0.3,0-0.6-0.2-0.6-0.5
									c0,0,0,0,0-0.1v-5.3H15.9c-0.3,0-0.6,0.2-0.6,0.5c0,0,0,0,0,0.1v25.7c0,0.3,0.2,0.6,0.5,0.6c0,0,0,0,0.1,0h21.7
									c0.3,0,0.6-0.3,0.6-0.6V-3.7H32.9z M18.4-4.3c0-0.3,0.2-0.6,0.5-0.6c0,0,0,0,0.1,0h9.8c0.3,0,0.6,0.2,0.6,0.5c0,0,0,0,0,0.1
									c0,0.3-0.2,0.6-0.5,0.6c0,0,0,0-0.1,0H19C18.7-3.7,18.5-4,18.4-4.3z M34.2,13.8H19.4c-0.3,0-0.6-0.2-0.6-0.6
									c0-0.3,0.2-0.6,0.6-0.6c0,0,0,0,0.1,0h14.8c0.3,0,0.6,0.2,0.6,0.5c0,0,0,0,0,0.1C34.8,13.6,34.5,13.8,34.2,13.8z M34.2,9.4
									H19.4c-0.3,0-0.6-0.2-0.6-0.6c0-0.3,0.2-0.6,0.6-0.6c0,0,0,0,0.1,0h14.8c0.3,0,0.6,0.2,0.6,0.5c0,0,0,0,0,0.1
									C34.8,9.2,34.5,9.4,34.2,9.4L34.2,9.4z M34.2,5.1H19.4c-0.3,0-0.6-0.2-0.6-0.6c0-0.3,0.2-0.6,0.6-0.6c0,0,0,0,0.1,0h14.8
									c0.3,0,0.6,0.2,0.6,0.5c0,0,0,0,0,0.1C34.8,4.8,34.5,5.1,34.2,5.1L34.2,5.1z M34.2,0.7H19.4c-0.3,0-0.6-0.2-0.6-0.6
									c0-0.3,0.2-0.6,0.6-0.6c0,0,0,0,0.1,0h14.8c0.3,0,0.6,0.2,0.6,0.5c0,0,0,0,0,0.1C34.8,0.4,34.5,0.7,34.2,0.7L34.2,0.7z"/>
							</g>
						</g>
						<path id="Tracé_145_00000155110190284877096050000006060347561814980499_" class="st8" d="M183.3,117
							c0.9,2.7-0.5,5.6-3.2,6.6c-1.1,0.4-2.3,0.4-3.3,0l-12.8-3.8c-4.3-1.3-6-6.6-3-9.5l9-8.9c3-3,8.3-1.3,9.6,3L183.3,117z"/>
						<path id="Tracé_145_00000150061934224503965370000003134619157618941847_" class="st8" d="M0.2,276.5
							c0.9,2.7-0.5,5.6-3.2,6.6c-1.1,0.4-2.3,0.4-3.3,0l-12.8-3.8c-4.3-1.3-6-6.6-3-9.5l9-8.9c3-3,8.3-1.3,9.6,3L0.2,276.5z"/>
						<path id="Tracé_146_00000005947415412027055970000005094328847468374698_" class="st8" d="M40,56.7c1.6,4.7-0.9,9.8-5.6,11.4
							c-1.9,0.6-3.9,0.6-5.8,0L6.3,61.6C-1.2,59.3-4.1,50,1,44.9l15.6-15.6c5.2-5.1,14.5-2.2,16.7,5.2L40,56.7z"/>
						<path id="Tracé_147_00000018203436785606378430000005350471028451597488_" class="st9" d="M149.3,20
							c2.9,9.8-5.6,18.3-15.4,15.4l-30-8.9c-10.1-3-14-15.5-7.1-22.4l21.1-21c6.9-6.9,19.5-3,22.5,7L149.3,20z"/>
						<path id="Tracé_147_00000068639146874072950150000005138277414641698446_" class="st9" d="M-47.3,230.1
							c2.9,9.8-5.6,18.3-15.4,15.4l-30-8.9c-10.1-3-14-15.5-7.1-22.4l21.1-21c6.9-6.9,19.5-3,22.5,7L-47.3,230.1z"/>
						<g id="Groupe_225_00000043440713303403142520000001697416911414556814_" transform="translate(59.55 159.863)">
							<path id="Tracé_146-2_00000125569520334830227530000015782615019486765969_" class="st8" d="M41.7,84
								c5.3,17.7-9.9,32.9-27.7,27.6l-53.8-16c-18.1-5.4-25.1-27.8-12.7-40.2l37.8-37.7c12.4-12.4,35-5.3,40.3,12.7L41.7,84z"/>
							<g id="Groupe_229_00000083775986987237503420000007731155439156497844_" transform="translate(5.905 6.378)">
								<path id="Tracé_153_00000183966340665316056060000016498939474498683301_" class="st10" d="M28.6,75.3
									c4.5,15-8.5,27.9-23.5,23.5l-45.8-13.6C-56,80.7-62,61.6-51.4,51L-19.3,19C-8.7,8.4,10.5,14.4,15,29.7L28.6,75.3z"/>
								<path id="Tracé_154_00000171685318883481827770000012391695587319404418_" class="st11" d="M-24,40.2l23.9-0.8
									c1.1,0,2,0.8,2,1.9c0,0.4-0.1,0.8-0.3,1.1L-11,62.6c-0.4,0.6-1.2,0.8-1.8,0.4c-0.3-0.2-0.5-0.5-0.6-0.8l-2.1-8.3l6.9-7.6
									l-10,2.1l-6.2-6c-0.5-0.5-0.5-1.3,0-1.9C-24.6,40.3-24.3,40.2-24,40.2z"/>
							</g>
						</g>
					</g>
					<g id="Groupe_178_00000130640228022463791070000002934704993941908864_" transform="translate(22.318 268.529)">
						<g id="Tracé_77_00000012462082074909113970000010167747640263508611_" class="st12">
							
								<image style="overflow:visible;" width="508" height="171" xlink:href="2C09FD7DF9E29D01.png"  transform="matrix(1 0 0 1 -108.5007 166.692)">
							</image>
						</g>
						<g id="Groupe_173_00000040549041458490169210000016286457505930667450_" transform="translate(72.544 23.274)">
							
								<linearGradient id="Tracé_73_00000002379852056250932440000017911068298643570847_" gradientUnits="userSpaceOnUse" x1="-1070.7678" y1="1387.3385" x2="-1069.7817" y2="1386.4137" gradientTransform="matrix(105.25 0 0 -199.823 112715.5 277299.9688)">
								<stop  offset="0" style="stop-color:#CBCACB"/>
								<stop  offset="1" style="stop-color:#FFFFFF"/>
							</linearGradient>
							
								<path id="Tracé_73_00000180329330810677534280000006061647542402548883_" style="fill:url(#Tracé_73_00000002379852056250932440000017911068298643570847_);" d="
								M-13.1,38.7L111.8,63l1.3,215.4l-119.4-59"/>
							
								<linearGradient id="Tracé_74_00000103982192420324443590000000174744427557536433_" gradientUnits="userSpaceOnUse" x1="-1070.4495" y1="1382.9987" x2="-1070.4291" y2="1381.0985" gradientTransform="matrix(259.0822 0 0 -31.753 277476.5938 43957.0977)">
								<stop  offset="0" style="stop-color:#C6C6C6"/>
								<stop  offset="1" style="stop-color:#000000"/>
							</linearGradient>
							
								<path id="Tracé_74_00000085973486482823632950000003215106896973601212_" style="fill:url(#Tracé_74_00000103982192420324443590000000174744427557536433_);" d="
								M158.7,28.9l139,18.9l-186,19.2L-13.1,38.7L158.7,28.9z"/>
						</g>
						<g>
							<g id="Composant_4_6_00000024693232001191299180000012472032945789936030_" transform="translate(231.357)">
								<path id="Tracé_161_00000082335897408670301310000003710274505482507696_" class="st1" d="M-11.5,74.4V22.4
									c0-14.9,12.1-26.9,26.9-26.9c0,0,0,0,0,0h52.1c14.9,0,26.9,12,26.9,26.9v51.9c0,14.8-12.1,26.9-26.9,26.9H15.4
									C0.6,101.2-11.5,89.2-11.5,74.4C-11.5,74.4-11.5,74.4-11.5,74.4z"/>
							</g>
							<g id="Composant_12_11_00000087377298463273774440000013089692586505323701_" transform="translate(236.682 5.452)">
								<path id="Tracé_136_00000174585503260087217910000007508463868152220064_" class="st15" d="M17.1-0.9H54
									c14,0.1,25.3,11.6,25.2,25.6v37.6C79.3,76.3,68,87.8,54,88H17.1C3.1,87.8-8.2,76.3-8,62.3V24.8C-8.2,10.7,3.1-0.8,17.1-0.9z
									"/>
								<g class="st3">
									<path class="st4" d="M24.7,8.7c-0.1,0.1-0.1,0.2-0.2,0.2C24.4,9,24.3,9,24.2,9c-0.1,0-0.2,0-0.3-0.1
										c-0.1-0.1-0.2-0.1-0.4-0.2c-0.1-0.1-0.3-0.2-0.5-0.2c-0.2-0.1-0.4-0.1-0.7-0.1c-0.4,0-0.8,0.1-1,0.3
										C21.1,8.9,21,9.2,21,9.5c0,0.2,0.1,0.4,0.2,0.5c0.1,0.1,0.3,0.3,0.5,0.4c0.2,0.1,0.4,0.2,0.7,0.3c0.3,0.1,0.5,0.2,0.8,0.3
										c0.3,0.1,0.5,0.2,0.8,0.3c0.3,0.1,0.5,0.3,0.7,0.5s0.4,0.4,0.5,0.7c0.1,0.3,0.2,0.6,0.2,1c0,0.4-0.1,0.8-0.2,1.2
										c-0.1,0.4-0.4,0.7-0.6,1c-0.3,0.3-0.6,0.5-1,0.7c-0.4,0.2-0.9,0.2-1.4,0.2c-0.3,0-0.6,0-0.9-0.1c-0.3-0.1-0.6-0.1-0.9-0.3
										c-0.3-0.1-0.5-0.2-0.8-0.4c-0.2-0.2-0.5-0.3-0.6-0.5l0.6-0.9c0-0.1,0.1-0.1,0.2-0.2c0.1,0,0.2-0.1,0.2-0.1
										c0.1,0,0.2,0,0.4,0.1s0.3,0.2,0.4,0.3c0.2,0.1,0.4,0.2,0.6,0.3c0.2,0.1,0.5,0.1,0.8,0.1c0.5,0,0.8-0.1,1.1-0.3
										c0.2-0.2,0.4-0.5,0.4-0.9c0-0.2-0.1-0.4-0.2-0.6c-0.1-0.1-0.3-0.3-0.5-0.4c-0.2-0.1-0.4-0.2-0.7-0.3
										c-0.3-0.1-0.5-0.2-0.8-0.2c-0.3-0.1-0.5-0.2-0.8-0.3c-0.3-0.1-0.5-0.3-0.7-0.5c-0.2-0.2-0.4-0.4-0.5-0.7
										c-0.1-0.3-0.2-0.7-0.2-1.1c0-0.3,0.1-0.7,0.2-1c0.1-0.3,0.3-0.6,0.6-0.9c0.3-0.3,0.6-0.5,1-0.6c0.4-0.2,0.8-0.2,1.3-0.2
										c0.6,0,1.1,0.1,1.6,0.3c0.5,0.2,0.9,0.4,1.2,0.7L24.7,8.7z"/>
									<path class="st4" d="M27.9,13.3c0.1,0.6,0.2,1.1,0.5,1.4c0.3,0.3,0.7,0.4,1.2,0.4c0.2,0,0.5,0,0.6-0.1
										c0.2-0.1,0.3-0.1,0.5-0.2c0.1-0.1,0.3-0.1,0.4-0.2c0.1-0.1,0.2-0.1,0.3-0.1c0.1,0,0.2,0.1,0.3,0.2l0.5,0.6
										c-0.2,0.2-0.4,0.4-0.6,0.5c-0.2,0.1-0.5,0.3-0.7,0.3c-0.2,0.1-0.5,0.1-0.7,0.2c-0.3,0-0.5,0-0.7,0c-0.5,0-0.9-0.1-1.3-0.2
										c-0.4-0.2-0.8-0.4-1.1-0.7c-0.3-0.3-0.5-0.7-0.7-1.1c-0.2-0.4-0.3-1-0.3-1.5c0-0.5,0.1-0.9,0.2-1.3c0.1-0.4,0.4-0.8,0.6-1
										c0.3-0.3,0.6-0.5,1-0.7c0.4-0.2,0.9-0.3,1.4-0.3c0.4,0,0.8,0.1,1.2,0.2c0.4,0.1,0.7,0.3,0.9,0.6c0.3,0.3,0.5,0.6,0.6,1
										c0.1,0.4,0.2,0.8,0.2,1.3c0,0.1,0,0.2,0,0.3c0,0.1,0,0.2-0.1,0.2s-0.1,0.1-0.1,0.1c-0.1,0-0.1,0-0.2,0H27.9z M30.7,12.2
										c0-0.2,0-0.4-0.1-0.5s-0.1-0.3-0.2-0.4c-0.1-0.1-0.2-0.2-0.4-0.3c-0.2-0.1-0.4-0.1-0.6-0.1c-0.4,0-0.8,0.1-1,0.4
										c-0.2,0.2-0.4,0.6-0.5,1H30.7z"/>
									<path class="st4" d="M37.6,11c0,0.1-0.1,0.1-0.1,0.2c0,0-0.1,0-0.2,0s-0.2,0-0.3-0.1c-0.1,0-0.2-0.1-0.3-0.1
										c-0.1,0-0.2-0.1-0.4-0.1c-0.1,0-0.3-0.1-0.5-0.1c-0.3,0-0.5,0.1-0.7,0.2c-0.2,0.1-0.2,0.3-0.2,0.5c0,0.1,0,0.2,0.1,0.3
										c0.1,0.1,0.2,0.2,0.4,0.2c0.1,0.1,0.3,0.1,0.5,0.2c0.2,0.1,0.4,0.1,0.6,0.2c0.2,0.1,0.4,0.1,0.6,0.2
										c0.2,0.1,0.4,0.2,0.5,0.3c0.1,0.1,0.3,0.3,0.4,0.5c0.1,0.2,0.1,0.4,0.1,0.7c0,0.3-0.1,0.6-0.2,0.9s-0.3,0.5-0.5,0.7
										c-0.2,0.2-0.5,0.4-0.9,0.5c-0.3,0.1-0.7,0.2-1.2,0.2c-0.2,0-0.5,0-0.7-0.1c-0.2,0-0.4-0.1-0.6-0.2s-0.4-0.2-0.6-0.3
										c-0.2-0.1-0.3-0.2-0.5-0.3l0.4-0.7c0-0.1,0.1-0.1,0.2-0.2c0.1,0,0.2-0.1,0.3-0.1c0.1,0,0.2,0,0.3,0.1
										c0.1,0.1,0.2,0.1,0.3,0.2c0.1,0.1,0.2,0.1,0.4,0.2c0.2,0.1,0.3,0.1,0.6,0.1c0.2,0,0.3,0,0.4-0.1c0.1,0,0.2-0.1,0.3-0.2
										c0.1-0.1,0.1-0.1,0.2-0.2c0-0.1,0.1-0.2,0.1-0.3c0-0.1,0-0.3-0.1-0.4c-0.1-0.1-0.2-0.2-0.4-0.2c-0.1-0.1-0.3-0.1-0.5-0.2
										s-0.4-0.1-0.6-0.2c-0.2-0.1-0.4-0.2-0.6-0.2c-0.2-0.1-0.4-0.2-0.5-0.4c-0.1-0.1-0.3-0.3-0.4-0.5s-0.1-0.5-0.1-0.8
										c0-0.3,0.1-0.5,0.2-0.8c0.1-0.2,0.3-0.5,0.5-0.7c0.2-0.2,0.5-0.3,0.8-0.5c0.3-0.1,0.7-0.2,1.1-0.2c0.5,0,0.9,0.1,1.3,0.2
										c0.4,0.2,0.7,0.4,1,0.6L37.6,11z"/>
									<path class="st4" d="M39,10.6c0.4-0.4,0.8-0.6,1.3-0.8c0.5-0.2,1-0.3,1.5-0.3c0.4,0,0.8,0.1,1.1,0.2
										c0.3,0.1,0.6,0.3,0.8,0.5c0.2,0.2,0.4,0.5,0.5,0.8c0.1,0.3,0.2,0.7,0.2,1v4.2h-0.8c-0.2,0-0.3,0-0.4-0.1
										c-0.1,0-0.2-0.1-0.2-0.3l-0.1-0.4c-0.2,0.1-0.3,0.3-0.5,0.4c-0.2,0.1-0.3,0.2-0.5,0.3c-0.2,0.1-0.3,0.1-0.5,0.2
										c-0.2,0-0.4,0.1-0.6,0.1c-0.3,0-0.6,0-0.8-0.1c-0.2-0.1-0.5-0.2-0.6-0.3c-0.2-0.2-0.3-0.3-0.4-0.6
										c-0.1-0.2-0.1-0.5-0.1-0.8c0-0.2,0.1-0.5,0.2-0.7c0.1-0.2,0.3-0.5,0.6-0.7s0.7-0.4,1.2-0.5c0.5-0.1,1.1-0.2,1.9-0.2v-0.3
										c0-0.4-0.1-0.7-0.3-0.9c-0.2-0.2-0.4-0.3-0.8-0.3c-0.2,0-0.5,0-0.6,0.1c-0.2,0.1-0.3,0.1-0.4,0.2s-0.2,0.1-0.3,0.2
										c-0.1,0.1-0.2,0.1-0.4,0.1c-0.1,0-0.2,0-0.3-0.1c-0.1-0.1-0.2-0.1-0.2-0.2L39,10.6z M42.6,13.5c-0.4,0-0.8,0.1-1.1,0.1
										c-0.3,0.1-0.5,0.1-0.7,0.2c-0.2,0.1-0.3,0.2-0.4,0.3c-0.1,0.1-0.1,0.2-0.1,0.4c0,0.3,0.1,0.4,0.2,0.6
										c0.1,0.1,0.3,0.2,0.6,0.2c0.3,0,0.6-0.1,0.8-0.2c0.2-0.1,0.4-0.3,0.7-0.5V13.5z"/>
									<path class="st4" d="M45.8,16.3V9.7h1.1c0.2,0,0.4,0.1,0.4,0.3l0.1,0.4c0.1-0.1,0.2-0.2,0.4-0.3c0.1-0.1,0.3-0.2,0.4-0.3
										c0.1-0.1,0.3-0.1,0.5-0.2c0.2,0,0.3-0.1,0.5-0.1c0.4,0,0.7,0.1,1,0.3c0.3,0.2,0.5,0.5,0.6,0.9c0.1-0.2,0.2-0.4,0.4-0.5
										c0.2-0.2,0.3-0.3,0.5-0.4c0.2-0.1,0.4-0.2,0.6-0.2c0.2,0,0.4-0.1,0.6-0.1c0.4,0,0.7,0.1,1,0.2c0.3,0.1,0.5,0.3,0.7,0.5
										c0.2,0.2,0.3,0.5,0.5,0.8c0.1,0.3,0.2,0.7,0.2,1.1v4.2h-1.8v-4.2c0-0.8-0.3-1.2-1-1.2c-0.2,0-0.3,0-0.4,0.1
										c-0.1,0-0.2,0.1-0.3,0.2c-0.1,0.1-0.2,0.2-0.2,0.4c-0.1,0.1-0.1,0.3-0.1,0.5v4.2h-1.8v-4.2c0-0.4-0.1-0.7-0.2-0.9
										c-0.2-0.2-0.4-0.3-0.7-0.3c-0.2,0-0.4,0-0.6,0.1c-0.2,0.1-0.4,0.2-0.5,0.4v4.9H45.8z"/>
								</g>
								<g class="st3">
									<path class="st4" d="M29.1,18.9l-3.8,9.4h-1.8l-3.8-9.4h1.6c0.2,0,0.3,0,0.4,0.1c0.1,0.1,0.2,0.2,0.2,0.3l2,5.4
										c0.1,0.2,0.2,0.4,0.2,0.7c0.1,0.2,0.1,0.5,0.2,0.8c0.1-0.3,0.1-0.5,0.2-0.8c0.1-0.2,0.1-0.5,0.2-0.7l2-5.4
										c0-0.1,0.1-0.2,0.2-0.3c0.1-0.1,0.2-0.1,0.4-0.1H29.1z"/>
									<path class="st4" d="M31.8,19.7c0,0.2,0,0.3-0.1,0.4c-0.1,0.1-0.1,0.2-0.2,0.3c-0.1,0.1-0.2,0.2-0.4,0.2
										c-0.1,0.1-0.3,0.1-0.4,0.1c-0.1,0-0.3,0-0.4-0.1c-0.1-0.1-0.2-0.1-0.3-0.2c-0.1-0.1-0.2-0.2-0.2-0.3
										c-0.1-0.1-0.1-0.3-0.1-0.4c0-0.2,0-0.3,0.1-0.4c0.1-0.1,0.1-0.2,0.2-0.3c0.1-0.1,0.2-0.2,0.3-0.2c0.1-0.1,0.3-0.1,0.4-0.1
										c0.2,0,0.3,0,0.4,0.1c0.1,0.1,0.3,0.1,0.4,0.2c0.1,0.1,0.2,0.2,0.2,0.3C31.8,19.4,31.8,19.6,31.8,19.7z M31.6,21.6v6.7
										h-1.8v-6.7H31.6z"/>
									<path class="st4" d="M35.4,28.4c-0.3,0-0.6,0-0.8-0.1c-0.2-0.1-0.4-0.2-0.6-0.4c-0.2-0.2-0.3-0.4-0.4-0.6s-0.1-0.5-0.1-0.8
										v-3.6h-0.6c-0.1,0-0.2,0-0.2-0.1c-0.1-0.1-0.1-0.2-0.1-0.3v-0.7l1.1-0.2l0.4-1.7c0-0.2,0.2-0.3,0.4-0.3h0.9v2h1.7v1.2h-1.7
										v3.5c0,0.2,0,0.3,0.1,0.4c0.1,0.1,0.2,0.2,0.4,0.2c0.1,0,0.2,0,0.2,0c0.1,0,0.1,0,0.2-0.1c0,0,0.1,0,0.1-0.1
										c0,0,0.1,0,0.1,0c0.1,0,0.1,0,0.1,0c0,0,0.1,0.1,0.1,0.1l0.5,0.9c-0.2,0.2-0.5,0.3-0.8,0.4C36.1,28.4,35.8,28.4,35.4,28.4z
										"/>
									<path class="st4" d="M37.9,22.6c0.4-0.4,0.8-0.6,1.3-0.8c0.5-0.2,1-0.3,1.5-0.3c0.4,0,0.8,0.1,1.1,0.2
										c0.3,0.1,0.6,0.3,0.8,0.5c0.2,0.2,0.4,0.5,0.5,0.8c0.1,0.3,0.2,0.7,0.2,1v4.2h-0.8c-0.2,0-0.3,0-0.4-0.1
										c-0.1,0-0.2-0.1-0.2-0.3l-0.1-0.4c-0.2,0.1-0.3,0.3-0.5,0.4c-0.2,0.1-0.3,0.2-0.5,0.3c-0.2,0.1-0.3,0.1-0.5,0.2
										c-0.2,0-0.4,0.1-0.6,0.1c-0.3,0-0.6,0-0.8-0.1c-0.2-0.1-0.5-0.2-0.6-0.3c-0.2-0.2-0.3-0.3-0.4-0.6
										c-0.1-0.2-0.1-0.5-0.1-0.8c0-0.2,0.1-0.5,0.2-0.7c0.1-0.2,0.3-0.5,0.6-0.7s0.7-0.4,1.2-0.5c0.5-0.1,1.1-0.2,1.9-0.2v-0.3
										c0-0.4-0.1-0.7-0.3-0.9c-0.2-0.2-0.4-0.3-0.8-0.3c-0.2,0-0.5,0-0.6,0.1c-0.2,0.1-0.3,0.1-0.4,0.2c-0.1,0.1-0.2,0.1-0.3,0.2
										c-0.1,0.1-0.2,0.1-0.4,0.1c-0.1,0-0.2,0-0.3-0.1c-0.1-0.1-0.2-0.1-0.2-0.2L37.9,22.6z M41.5,25.5c-0.4,0-0.8,0.1-1.1,0.1
										c-0.3,0.1-0.5,0.1-0.7,0.2c-0.2,0.1-0.3,0.2-0.4,0.3c-0.1,0.1-0.1,0.2-0.1,0.4c0,0.3,0.1,0.4,0.2,0.6
										c0.1,0.1,0.3,0.2,0.6,0.2c0.3,0,0.6-0.1,0.8-0.2c0.2-0.1,0.4-0.3,0.7-0.5V25.5z"/>
									<path class="st4" d="M46.4,18.7v9.7h-1.8v-9.7H46.4z"/>
									<path class="st4" d="M49.4,25.3c0.1,0.6,0.2,1.1,0.5,1.4c0.3,0.3,0.7,0.4,1.2,0.4c0.2,0,0.5,0,0.6-0.1
										c0.2-0.1,0.3-0.1,0.5-0.2c0.1-0.1,0.3-0.1,0.4-0.2c0.1-0.1,0.2-0.1,0.3-0.1c0.1,0,0.2,0.1,0.3,0.2l0.5,0.6
										c-0.2,0.2-0.4,0.4-0.6,0.5c-0.2,0.1-0.5,0.3-0.7,0.3c-0.2,0.1-0.5,0.1-0.7,0.2c-0.3,0-0.5,0-0.7,0c-0.5,0-0.9-0.1-1.3-0.2
										c-0.4-0.2-0.8-0.4-1.1-0.7c-0.3-0.3-0.5-0.7-0.7-1.1c-0.2-0.4-0.3-1-0.3-1.5c0-0.5,0.1-0.9,0.2-1.3c0.1-0.4,0.4-0.8,0.6-1
										c0.3-0.3,0.6-0.5,1-0.7c0.4-0.2,0.9-0.3,1.4-0.3c0.4,0,0.8,0.1,1.2,0.2c0.4,0.1,0.7,0.3,0.9,0.6c0.3,0.3,0.5,0.6,0.6,1
										c0.1,0.4,0.2,0.8,0.2,1.3c0,0.1,0,0.2,0,0.3c0,0.1,0,0.2-0.1,0.2c0,0.1-0.1,0.1-0.1,0.1c-0.1,0-0.1,0-0.2,0H49.4z
										 M52.2,24.2c0-0.2,0-0.4-0.1-0.5c0-0.2-0.1-0.3-0.2-0.4s-0.2-0.2-0.4-0.3c-0.2-0.1-0.4-0.1-0.6-0.1c-0.4,0-0.8,0.1-1,0.4
										c-0.2,0.2-0.4,0.6-0.5,1H52.2z"/>
								</g>
								<g id="Groupe_276_00000073707755207241997700000013865110406615483071_" transform="translate(7 20.876)">
									<g id="Groupe_273-2_00000112603614070301180270000005938909404678826167_" transform="translate(9.512 9.675)">
										<path id="Tracé_478-2_00000157277024540927623490000000619228565363327133_" class="st4" d="M7.7,18.8
											c-2.9,0.1-5.2,2.6-5.1,5.6v15.9c-0.1,2.9,2.1,5.4,5.1,5.6h25c2.9-0.1,5.2-2.6,5.1-5.6V24.4c0.1-2.9-2.1-5.4-5.1-5.6
											L7.7,18.8z M7.7,21.2h7.3c-0.9,1.3-1.4,2.8-1.4,4.4v0.8c-0.1,0-0.3,0-0.4,0H5v-2C4.8,22.8,6,21.3,7.7,21.2
											C7.7,21.2,7.7,21.2,7.7,21.2z M19.4,21.2H21c1.9,0,3.5,1.7,3.5,4.4v2.1c0,0-0.1,0.1-0.1,0.1c-0.7,1-1.1,2.2-1.1,3.4v2
											c0,1.2,0.3,2.4,1.1,3.4c0,0,0.1,0.1,0.1,0.1v2.5c0,2.6-1.6,4.4-3.5,4.4h-1.6c-1.9,0-3.5-1.7-3.5-4.4v-2.5
											c0,0,0.1-0.1,0.1-0.1c0.7-1,1.1-2.2,1.1-3.4v-2c0-1.2-0.3-2.4-1.1-3.4c0,0-0.1-0.1-0.1-0.1v-2.1
											C15.9,23,17.5,21.2,19.4,21.2z M25.4,21.2h7.2c1.6,0.1,2.9,1.5,2.7,3.2c0,0,0,0,0,0v2h-8.2c-0.1,0-0.3,0-0.4,0v-0.8
											C26.8,24,26.4,22.5,25.4,21.2z M5,28.8h8.2c0.4,0,0.8,0.2,1,0.5c0.4,0.5,0.6,1.2,0.5,1.9v2c0,0.7-0.2,1.3-0.5,1.9
											c-0.2,0.3-0.6,0.5-1,0.5H5V28.8z M27.2,28.8h8.2v6.8h-8.2c-0.4,0-0.8-0.2-1-0.5c-0.4-0.5-0.6-1.2-0.5-1.9v-2
											c0-0.7,0.2-1.3,0.5-1.9C26.4,29,26.8,28.8,27.2,28.8L27.2,28.8z M13.6,37.9v1.2c0,1.6,0.5,3.1,1.4,4.4H7.7
											C6.1,43.4,4.8,42,5,40.3c0,0,0,0,0,0v-2.4h8.2C13.3,37.9,13.4,37.9,13.6,37.9L13.6,37.9z M26.8,37.9c0.1,0,0.3,0,0.4,0
											h8.2v2.4c0.1,1.6-1.1,3.1-2.7,3.2c0,0,0,0,0,0h-7.2c0.9-1.3,1.4-2.8,1.4-4.4L26.8,37.9z"/>
									</g>
									<g id="Groupe_274-2_00000049906970121306044580000007275815557328101543_">
										<path id="Tracé_479-2_00000071523491429612316730000016518161514630913186_" class="st4" d="M14.3,25.8h2
											c-1.3-2.5-4.3-3.5-6.8-2.2c-1.2,0.6-2.1,1.7-2.5,3c-0.9,2.6,0.4,5.4,2.8,6.5v-1.9c-1.4-1-1.9-2.8-1.2-4.3
											c0.7-1.7,2.7-2.5,4.5-1.8C13.6,25.2,14,25.5,14.3,25.8L14.3,25.8z"/>
										<path id="Tracé_480-2_00000178181208182845404420000002452001913485295793_" class="st5" d="M25.4,25.8H27
											c-1.5-8.4-9.5-14-17.8-12.5s-14,9.5-12.5,17.8c1.2,6.6,6.5,11.7,13.2,12.6v-1.7c-7.7-1-13.1-7.9-12.1-15.6
											s7.9-13.1,15.6-12.1C19.4,15.1,24.3,19.8,25.4,25.8L25.4,25.8z"/>
										<path id="Tracé_481-2_00000057146299107349620730000010423267441451766947_" class="st6" d="M20.2,25.8h1.7
											c-1-4.7-5.3-8.1-10.1-8.1C6,17.9,1.4,22.8,1.6,28.6c0.1,4.8,3.6,8.9,8.3,9.9v-1.7c-4.7-1.2-7.6-6-6.4-10.7
											c0.9-3.5,3.9-6.2,7.5-6.6C15.2,19.1,19.1,21.7,20.2,25.8z"/>
									</g>
								</g>
							</g>
						</g>
						
							<linearGradient id="Tracé_76_00000113332469605601130770000011249113239998136226_" gradientUnits="userSpaceOnUse" x1="-998.363" y1="1410.5703" x2="-997.161" y2="1409.7583" gradientTransform="matrix(155.016 0 0 -192.245 154948.2344 271284.4375)">
							<stop  offset="0" style="stop-color:#FFFFFF"/>
							<stop  offset="1" style="stop-color:#FFFFFF"/>
						</linearGradient>
						
							<path id="Tracé_76_00000147924607338978761680000007913969904456188317_" style="fill:url(#Tracé_76_00000113332469605601130770000011249113239998136226_);" d="
							M184.3,90.1l1.4,211.5l177.7-46.2l6.8-184.4L184.3,90.1z"/>
					</g>
					<path id="Tracé_149_00000065045447704603027000000007001895879738635945_" class="st1" d="M-0.1,321.7v-32
						c0-11.4,9.2-20.6,20.6-20.6c0,0,0,0,0,0h32.1c11.4,0,20.6,9.2,20.6,20.6c0,0,0,0,0,0v32c0,11.4-9.2,20.6-20.6,20.6c0,0,0,0,0,0
						H20.5C9.1,342.3-0.1,333-0.1,321.7C-0.1,321.7-0.1,321.7-0.1,321.7z"/>
					<path id="Tracé_158_00000067234613251858445960000011959427269495285397_" class="st1" d="M284.4,180.4V171
						c0-4.9,4-8.9,8.9-8.9c0,0,0,0,0,0h9.4c4.9,0,8.9,4,8.9,8.9v0v9.4c0,4.9-4,8.9-8.9,8.9c0,0,0,0,0,0h-9.4
						C288.4,189.3,284.4,185.3,284.4,180.4L284.4,180.4z"/>
					<path id="Tracé_156_00000054240846355520824710000006780792646382461090_" class="st17" d="M139.5,160.1v-12.9
						c0-5.9,4.8-10.7,10.7-10.7h12.9c5.9,0,10.7,4.8,10.7,10.7v12.9c0,5.9-4.8,10.7-10.7,10.7h-12.9
						C144.3,170.8,139.5,166.1,139.5,160.1z"/>
					<path id="Tracé_159_00000127755966134210089590000000263945431675137450_" class="st18" d="M341.3,136v-14.7
						c0-7.9,6.4-14.2,14.3-14.2h14.7c7.9,0,14.3,6.4,14.3,14.2V136c0,7.9-6.4,14.2-14.3,14.2h-14.7
						C347.7,150.2,341.3,143.9,341.3,136z"/>
					<g class="st3">
						<path class="st4" d="M174.5,235.6v8.4h-1.5v-5.2c0-0.1,0-0.2,0-0.3c0-0.1,0-0.2,0-0.4l-2.4,4.6c-0.1,0.3-0.3,0.4-0.6,0.4h-0.2
							c-0.1,0-0.3,0-0.4-0.1c-0.1-0.1-0.2-0.2-0.2-0.3l-2.4-4.6c0,0.1,0,0.3,0,0.4c0,0.1,0,0.2,0,0.4v5.2h-1.5v-8.4h1.3
							c0.1,0,0.1,0,0.2,0c0.1,0,0.1,0,0.2,0s0.1,0,0.1,0.1c0,0,0.1,0.1,0.1,0.2l2.4,4.5c0.1,0.1,0.1,0.3,0.2,0.4
							c0.1,0.1,0.1,0.3,0.2,0.4c0.1-0.2,0.1-0.3,0.2-0.5c0.1-0.1,0.1-0.3,0.2-0.4l2.3-4.5c0-0.1,0.1-0.1,0.1-0.2
							c0,0,0.1-0.1,0.1-0.1c0,0,0.1,0,0.2,0c0.1,0,0.1,0,0.2,0H174.5z"/>
						<path class="st4" d="M180.8,237.2c-0.1,0.1-0.1,0.2-0.2,0.2c-0.1,0-0.1,0.1-0.2,0.1c-0.1,0-0.2,0-0.3-0.1
							c-0.1-0.1-0.2-0.1-0.3-0.2c-0.1-0.1-0.3-0.1-0.5-0.2c-0.2-0.1-0.4-0.1-0.6-0.1c-0.4,0-0.7,0.1-0.9,0.3
							c-0.2,0.2-0.3,0.4-0.3,0.7c0,0.2,0.1,0.3,0.2,0.5s0.3,0.2,0.4,0.3c0.2,0.1,0.4,0.2,0.6,0.2c0.2,0.1,0.5,0.1,0.7,0.2
							c0.2,0.1,0.5,0.2,0.7,0.3c0.2,0.1,0.4,0.3,0.6,0.4c0.2,0.2,0.3,0.4,0.4,0.6c0.1,0.2,0.2,0.5,0.2,0.9c0,0.4-0.1,0.7-0.2,1.1
							c-0.1,0.3-0.3,0.6-0.6,0.9c-0.3,0.2-0.6,0.4-0.9,0.6s-0.8,0.2-1.3,0.2c-0.3,0-0.5,0-0.8-0.1c-0.3-0.1-0.5-0.1-0.8-0.2
							c-0.2-0.1-0.5-0.2-0.7-0.3c-0.2-0.1-0.4-0.3-0.6-0.5l0.5-0.8c0-0.1,0.1-0.1,0.2-0.2c0.1,0,0.1-0.1,0.2-0.1
							c0.1,0,0.2,0,0.3,0.1c0.1,0.1,0.2,0.2,0.4,0.3s0.3,0.2,0.5,0.3s0.4,0.1,0.7,0.1c0.4,0,0.7-0.1,0.9-0.3
							c0.2-0.2,0.3-0.5,0.3-0.8c0-0.2-0.1-0.4-0.2-0.5s-0.3-0.2-0.4-0.3c-0.2-0.1-0.4-0.2-0.6-0.2c-0.2-0.1-0.5-0.1-0.7-0.2
							c-0.2-0.1-0.5-0.2-0.7-0.3c-0.2-0.1-0.4-0.3-0.6-0.4c-0.2-0.2-0.3-0.4-0.4-0.7c-0.1-0.3-0.2-0.6-0.2-1c0-0.3,0.1-0.6,0.2-0.9
							c0.1-0.3,0.3-0.6,0.5-0.8c0.2-0.2,0.5-0.4,0.9-0.6c0.3-0.1,0.8-0.2,1.2-0.2c0.5,0,1,0.1,1.4,0.2c0.4,0.2,0.8,0.4,1.1,0.7
							L180.8,237.2z"/>
						<path class="st4" d="M187.2,237.2c-0.1,0.1-0.1,0.2-0.2,0.2c-0.1,0-0.1,0.1-0.2,0.1c-0.1,0-0.2,0-0.3-0.1
							c-0.1-0.1-0.2-0.1-0.3-0.2c-0.1-0.1-0.3-0.1-0.5-0.2c-0.2-0.1-0.4-0.1-0.6-0.1c-0.4,0-0.7,0.1-0.9,0.3s-0.3,0.4-0.3,0.7
							c0,0.2,0.1,0.3,0.2,0.5s0.3,0.2,0.4,0.3c0.2,0.1,0.4,0.2,0.6,0.2c0.2,0.1,0.5,0.1,0.7,0.2c0.2,0.1,0.5,0.2,0.7,0.3
							c0.2,0.1,0.4,0.3,0.6,0.4c0.2,0.2,0.3,0.4,0.4,0.6c0.1,0.2,0.2,0.5,0.2,0.9c0,0.4-0.1,0.7-0.2,1.1c-0.1,0.3-0.3,0.6-0.6,0.9
							c-0.3,0.2-0.6,0.4-0.9,0.6s-0.8,0.2-1.3,0.2c-0.3,0-0.5,0-0.8-0.1c-0.3-0.1-0.5-0.1-0.8-0.2c-0.2-0.1-0.5-0.2-0.7-0.3
							c-0.2-0.1-0.4-0.3-0.6-0.5l0.5-0.8c0-0.1,0.1-0.1,0.2-0.2c0.1,0,0.1-0.1,0.2-0.1c0.1,0,0.2,0,0.3,0.1c0.1,0.1,0.2,0.2,0.4,0.3
							s0.3,0.2,0.5,0.3c0.2,0.1,0.4,0.1,0.7,0.1c0.4,0,0.7-0.1,0.9-0.3c0.2-0.2,0.3-0.5,0.3-0.8c0-0.2-0.1-0.4-0.2-0.5
							c-0.1-0.1-0.3-0.2-0.4-0.3c-0.2-0.1-0.4-0.2-0.6-0.2c-0.2-0.1-0.5-0.1-0.7-0.2c-0.2-0.1-0.5-0.2-0.7-0.3
							c-0.2-0.1-0.4-0.3-0.6-0.4c-0.2-0.2-0.3-0.4-0.4-0.7c-0.1-0.3-0.2-0.6-0.2-1c0-0.3,0.1-0.6,0.2-0.9c0.1-0.3,0.3-0.6,0.5-0.8
							c0.2-0.2,0.5-0.4,0.9-0.6c0.3-0.1,0.8-0.2,1.2-0.2c0.5,0,1,0.1,1.4,0.2c0.4,0.2,0.8,0.4,1.1,0.7L187.2,237.2z"/>
						<path class="st4" d="M188.6,238.9c0.4-0.3,0.7-0.6,1.2-0.7c0.4-0.2,0.9-0.2,1.4-0.2c0.4,0,0.7,0.1,1,0.2
							c0.3,0.1,0.5,0.3,0.7,0.5c0.2,0.2,0.3,0.5,0.4,0.7c0.1,0.3,0.2,0.6,0.2,0.9v3.8h-0.7c-0.2,0-0.3,0-0.3-0.1
							c-0.1,0-0.1-0.1-0.2-0.3l-0.1-0.4c-0.2,0.1-0.3,0.2-0.4,0.3c-0.1,0.1-0.3,0.2-0.4,0.3c-0.2,0.1-0.3,0.1-0.5,0.2
							c-0.2,0-0.4,0.1-0.6,0.1c-0.3,0-0.5,0-0.7-0.1c-0.2-0.1-0.4-0.2-0.6-0.3c-0.2-0.1-0.3-0.3-0.4-0.5s-0.1-0.4-0.1-0.7
							c0-0.2,0.1-0.4,0.2-0.7c0.1-0.2,0.3-0.4,0.6-0.6c0.3-0.2,0.6-0.3,1.1-0.4c0.5-0.1,1-0.2,1.7-0.2v-0.3c0-0.4-0.1-0.7-0.2-0.8
							c-0.2-0.2-0.4-0.3-0.7-0.3c-0.2,0-0.4,0-0.6,0.1c-0.1,0.1-0.3,0.1-0.4,0.2c-0.1,0.1-0.2,0.1-0.3,0.2c-0.1,0.1-0.2,0.1-0.3,0.1
							c-0.1,0-0.2,0-0.3-0.1c-0.1-0.1-0.1-0.1-0.2-0.2L188.6,238.9z M191.8,241.5c-0.4,0-0.7,0.1-1,0.1c-0.3,0-0.5,0.1-0.6,0.2
							c-0.2,0.1-0.3,0.2-0.3,0.3s-0.1,0.2-0.1,0.3c0,0.2,0.1,0.4,0.2,0.5c0.1,0.1,0.3,0.1,0.5,0.1c0.3,0,0.5,0,0.7-0.1
							s0.4-0.2,0.6-0.4V241.5z"/>
						<path class="st4" d="M196.1,238.7c0.1-0.1,0.2-0.2,0.4-0.3c0.1-0.1,0.3-0.2,0.4-0.2c0.1-0.1,0.3-0.1,0.5-0.2
							c0.2,0,0.4-0.1,0.5-0.1c0.3,0,0.6,0.1,0.9,0.2c0.3,0.1,0.5,0.3,0.6,0.5c0.2,0.2,0.3,0.4,0.4,0.7c0.1,0.3,0.1,0.6,0.1,0.9v3.8
							h-1.6v-3.8c0-0.3-0.1-0.6-0.2-0.8c-0.2-0.2-0.4-0.3-0.7-0.3c-0.2,0-0.4,0-0.6,0.1c-0.2,0.1-0.4,0.2-0.6,0.4v4.3h-1.6v-6h1
							c0.2,0,0.3,0.1,0.4,0.3L196.1,238.7z"/>
						<path class="st4" d="M203.2,244.1c-0.3,0-0.5,0-0.7-0.1c-0.2-0.1-0.4-0.2-0.5-0.3c-0.1-0.1-0.3-0.3-0.3-0.5
							c-0.1-0.2-0.1-0.4-0.1-0.7v-3.2H201c-0.1,0-0.2,0-0.2-0.1c-0.1-0.1-0.1-0.1-0.1-0.2v-0.6l1-0.2l0.3-1.5c0-0.2,0.2-0.3,0.4-0.3
							h0.8v1.8h1.5v1.1h-1.5v3.1c0,0.2,0,0.3,0.1,0.4c0.1,0.1,0.2,0.1,0.3,0.1c0.1,0,0.1,0,0.2,0s0.1,0,0.1-0.1c0,0,0.1,0,0.1-0.1
							c0,0,0.1,0,0.1,0c0,0,0.1,0,0.1,0c0,0,0.1,0.1,0.1,0.1l0.5,0.8c-0.2,0.2-0.5,0.3-0.7,0.4C203.8,244.1,203.5,244.1,203.2,244.1
							z"/>
						<path class="st4" d="M206.7,241.3c0.1,0.6,0.2,1,0.5,1.2c0.3,0.3,0.6,0.4,1.1,0.4c0.2,0,0.4,0,0.6-0.1
							c0.2-0.1,0.3-0.1,0.4-0.2c0.1-0.1,0.2-0.1,0.3-0.2c0.1-0.1,0.2-0.1,0.3-0.1c0.1,0,0.2,0,0.3,0.1l0.5,0.6
							c-0.2,0.2-0.4,0.4-0.6,0.5c-0.2,0.1-0.4,0.2-0.6,0.3c-0.2,0.1-0.4,0.1-0.7,0.2c-0.2,0-0.4,0-0.6,0c-0.4,0-0.8-0.1-1.2-0.2
							c-0.4-0.1-0.7-0.3-0.9-0.6c-0.3-0.3-0.5-0.6-0.6-1c-0.2-0.4-0.2-0.9-0.2-1.4c0-0.4,0.1-0.8,0.2-1.1c0.1-0.4,0.3-0.7,0.6-0.9
							c0.3-0.3,0.6-0.5,0.9-0.6c0.4-0.2,0.8-0.2,1.2-0.2c0.4,0,0.7,0.1,1.1,0.2c0.3,0.1,0.6,0.3,0.8,0.5c0.2,0.2,0.4,0.5,0.5,0.9
							c0.1,0.3,0.2,0.7,0.2,1.2c0,0.1,0,0.2,0,0.3c0,0.1,0,0.1-0.1,0.2c0,0-0.1,0.1-0.1,0.1c0,0-0.1,0-0.2,0H206.7z M209.3,240.3
							c0-0.2,0-0.3-0.1-0.5s-0.1-0.3-0.2-0.4c-0.1-0.1-0.2-0.2-0.4-0.3c-0.1-0.1-0.3-0.1-0.5-0.1c-0.4,0-0.7,0.1-0.9,0.3
							s-0.4,0.5-0.4,0.9H209.3z M210.2,235.5l-1.5,1.5c-0.1,0.1-0.2,0.1-0.2,0.2c-0.1,0-0.2,0-0.3,0h-1l0.8-1.4
							c0.1-0.1,0.1-0.2,0.2-0.2c0.1-0.1,0.2-0.1,0.4-0.1H210.2z"/>
					</g>
				</g>
			</g>
			<polygon class="st19" points="256.8,436.7 440.5,410.5 437.8,485.7 257.4,521.3 			"/>
			<polygon class="st20" points="133.5,399.5 256.8,436.7 257.4,521.3 135.3,473 			"/>
			<g>
				<g>
					
						<image style="overflow:visible;" width="512" height="253" xlink:href="2C09FD7DF9E29D07.png"  transform="matrix(0.2734 0 0 0.2734 279.5303 428.8262)">
					</image>
				</g>
			</g>
		</g>
		<g>
			<g id="Groupe_226_00000036944656646510690590000014610073065279028666_" transform="translate(139.89 -0.035)">
				<path id="Tracé_146-3_00000116225587704565854480000012102597108371699596_" class="st8" d="M34.1,146.3
					c7.8,26.6-15.2,49.5-41.8,41.7l-80.9-23.7c-27.1-7.9-37.6-41.7-18.8-60.5l57.1-57c18.8-18.8,52.7-8.3,60.6,18.8L34.1,146.3z"/>
				<g id="Groupe_228_00000110451198080260424000000006772116905215719827_" transform="translate(4.418 4.974)">
					<path id="Tracé_152_00000159438346079772568690000000301985584066859709_" class="st21" d="M18.8,137.3
						c6.6,22.3-12.6,41.4-34.9,34.8L-83.9,152c-22.7-6.7-31.6-35-15.9-50.7l47.6-47.5C-36.5,38.1-8.1,47-1.4,69.7L18.8,137.3z"/>
				</g>
			</g>
			<g id="Groupe_266_00000134953036908943642180000009991259657437818813_" transform="translate(294.412 -25.7)">
				<path id="Tracé_412_00000142134876076862718170000005251611890823266219_" class="st4" d="M-185.5,134.3
					c-1.5,0.2-2.5,0.8-3.2,2.1c-1.1,2.3-2.5,4.6-3.6,6.9c-0.8,1.5-1.5,3-2.5,4.6c-0.2-0.4-0.2-0.6-0.4-0.8c-1.9-3.8-4-7.6-5.9-11.4
					c-0.6-1.1-2.7-1.9-3.8-1.3c-1.5,0.8-2.1,1.9-2.1,3.4v20.6h2.1c1.9,0,2.7-0.8,2.7-2.7v-12.9c0.2,0.2,0.4,0.5,0.6,0.8
					c1.5,3,3.2,6.1,4.8,9.1c0.6,1.3,1.3,1.9,2.7,1.7c0.6,0,0.8-0.2,1.1-0.8c1.7-3.4,3.6-6.8,5.3-10.3c0-0.2,0.2-0.4,0.4-0.6
					c0.2,0.2,0.2,0.5,0.2,0.8v12.2c0,1.3,0.8,2.5,1.9,2.7c1,0.2,1.9,0,2.9,0v-22.1C-182.6,135-184,134.1-185.5,134.3z"/>
				<path id="Tracé_413_00000067208682530692660510000000759012459566014854_" class="st4" d="M-222,134.3h-5.5
					c-2.3,0-3.6,1.3-3.6,3.8v20.6h9.5c3.2-0.2,6.3-1.3,8.4-3.8c2.1-2.5,2.7-5.3,2.7-8.4c0-2.7-0.6-5.1-2.1-7.4
					C-215,135.6-218.2,134.5-222,134.3z M-215.4,148c-0.6,2.5-1.5,4.6-4.2,5.7c-0.8,0.4-1.7,0.6-2.7,0.6h-4.2v-14.7
					c0-1.1,0.2-1.3,1.3-1.3h3.6c3.4,0.4,5.7,2.5,6.1,5.9C-215.4,145.5-215.2,146.8-215.4,148z"/>
				<path id="Tracé_414_00000047750273761823997570000008922273175470919597_" class="st4" d="M-164.4,143
					c-0.2,2.1-1.3,3.2-3.4,3.2h-4.8V139c0-0.6,0.4-0.6,0.8-0.6h4.9v-4.2h-6.1c-2.5,0.2-4.4,1.5-4.4,4.2v20h2.3
					c1.5,0.2,2.5-0.8,2.5-2.5v-5.7h5.1c4,0.2,7.2-2.7,7.8-6.7c0.2-0.6,0-1.1,0.2-1.9h-4.8C-164.1,142.1-164.2,142.6-164.4,143z"/>
				<path id="Tracé_415_00000093167941727375776280000002454715494463773841_" class="st4" d="M-159.6,136.5
					c0.9-0.9,1.8-1.9,2.7-2.9l2.9-2.9c0.4-0.4,0.6-1,0.2-1.7c-0.2-0.6-0.8-0.8-1.5-0.8c-0.2,0.2-0.6,0.2-1,0.6
					c-1.7,1.9-3.6,3.8-5.3,5.5c-0.5,0.6-0.6,1.4-0.2,2.1C-161.2,137.1-160.3,137.1-159.6,136.5z"/>
				<path id="Tracé_416_00000055705543298292152140000005931136090778741943_" class="st4" d="M-164.2,135.6c0.8,0,1.3-0.8,1.3-1.5
					v-7.8c0-1-0.6-1.5-1.3-1.5c-0.8,0-1.5,0.7-1.5,1.5c0,0,0,0,0,0v7.8c-0.1,0.8,0.5,1.5,1.3,1.5
					C-164.4,135.6-164.3,135.6-164.2,135.6z"/>
				<path id="Tracé_417_00000083787281448444424480000003384678292346855070_" class="st4" d="M-150.3,139.6v-1
					c-0.2-0.6-0.7-0.9-1.3-1h-8.2c-0.7,0-1.3,0.6-1.3,1.3s0.6,1.3,1.3,1.3l0,0h8.2c0.6,0,1-0.2,1.1-0.8l0,0
					C-150.5,139.8-150.5,139.6-150.3,139.6z"/>
			</g>
		</g>
		<g>
			<g>
				<path id="Tracé_482_00000136370758667143059040000006952504557009022126_" class="st22" d="M73.9,293.8h25
					c9.5,0,17.2,7.7,17.2,17.2l0,0v25c0,9.5-7.7,17.2-17.2,17.2h-25c-9.5,0-17.2-7.7-17.2-17.2v-25
					C56.7,301.5,64.4,293.8,73.9,293.8z"/>
				<g>
					<path class="st4" d="M74.4,306.7c0.3-0.3,0.6-0.5,1.1-0.6c0.5-0.2,0.8-0.2,1.3-0.2c0.3,0,0.6,0,0.9,0.2
						c0.3,0.2,0.5,0.3,0.6,0.5c0.2,0.2,0.3,0.5,0.5,0.6c0.2,0.3,0.2,0.6,0.2,0.9v3.6h-0.6c-0.2,0-0.3,0-0.3,0s-0.2-0.2-0.2-0.3
						l-0.2-0.3c-0.2,0.2-0.3,0.3-0.5,0.3c-0.2,0.2-0.3,0.2-0.5,0.3c-0.2,0-0.3,0.2-0.5,0.2c-0.2,0-0.3,0-0.6,0c-0.3,0-0.5,0-0.6-0.2
						c-0.2,0-0.3-0.2-0.5-0.3c-0.2-0.2-0.3-0.3-0.3-0.5c0-0.2-0.2-0.5-0.2-0.6c0-0.2,0-0.5,0.2-0.6c0.2-0.2,0.3-0.5,0.6-0.6
						c0.3-0.2,0.6-0.3,1.1-0.5c0.5-0.2,0.9-0.2,1.6-0.2v-0.3c0-0.3,0-0.6-0.2-0.8c-0.2-0.2-0.3-0.3-0.6-0.3c-0.2,0-0.3,0-0.5,0
						c-0.2,0-0.3,0.2-0.3,0.2s-0.5,0.2-0.5,0.3c-0.2,0-0.2,0-0.3,0s-0.2,0-0.3-0.2c-0.2-0.2-0.2-0.2-0.2-0.2L74.4,306.7z
						 M77.5,309.2c-0.3,0-0.6,0-0.9,0.2c-0.3,0-0.5,0.2-0.6,0.2c-0.2,0-0.3,0.2-0.3,0.3c0,0.2-0.2,0.2-0.2,0.3c0,0.2,0,0.3,0.2,0.5
						s0.3,0.2,0.5,0.2c0.3,0,0.5,0,0.6-0.2c0.2-0.2,0.3-0.2,0.6-0.5v-0.9C77.4,309.2,77.5,309.2,77.5,309.2z"/>
					<path class="st4" d="M81.6,306.7c0.2-0.2,0.2-0.3,0.3-0.3c0.2-0.2,0.3-0.2,0.5-0.3c0.2,0,0.3-0.2,0.5-0.2s0.3,0,0.6,0
						c0.3,0,0.6,0,0.8,0.2c0.3,0.2,0.5,0.3,0.6,0.5c0.2,0.3,0.3,0.6,0.5,0.9c0.2,0.3,0.2,0.8,0.2,1.3c0,0.5,0,0.8-0.2,1.3
						c-0.2,0.3-0.3,0.6-0.5,0.9c-0.2,0.3-0.5,0.5-0.8,0.6c-0.3,0.2-0.6,0.2-0.9,0.2s-0.6,0-0.8-0.2c-0.2-0.2-0.5-0.2-0.6-0.3v2.2
						h-1.6v-7.5h0.9c0.2,0,0.3,0.2,0.3,0.3L81.6,306.7z M81.8,310.1c0.2,0.2,0.3,0.3,0.5,0.3s0.3,0.2,0.5,0.2s0.3,0,0.5-0.2
						c0.2,0,0.3-0.2,0.3-0.3c0-0.2,0.2-0.3,0.3-0.6c0-0.2,0.2-0.5,0.2-0.8s0-0.6,0-0.8c0-0.2-0.2-0.5-0.2-0.5
						c-0.2-0.2-0.2-0.2-0.3-0.3c-0.2,0-0.3-0.2-0.5-0.2c-0.3,0-0.5,0-0.6,0.2c-0.2,0.2-0.3,0.3-0.5,0.5v2.5H81.8z"/>
					<path class="st4" d="M92.1,309.6c0.2,0,0.2,0,0.2,0.2l0.6,0.6c-0.3,0.5-0.8,0.8-1.3,0.9c-0.5,0.2-1.1,0.3-1.7,0.3
						s-1.1-0.2-1.6-0.3c-0.5-0.2-0.9-0.5-1.3-0.8c-0.3-0.3-0.6-0.8-0.8-1.3c-0.2-0.5-0.3-1.1-0.3-1.6c0-0.5,0-0.8,0.2-1.1
						c0.2-0.3,0.2-0.6,0.3-0.9s0.3-0.6,0.6-0.8c0.2-0.3,0.5-0.5,0.8-0.6c0.3-0.2,0.6-0.3,0.9-0.5c0.3-0.2,0.8-0.2,1.1-0.2
						s0.6,0,0.8,0c0.3,0,0.5,0.2,0.8,0.2c0.3,0,0.5,0.2,0.6,0.3c0.2,0.2,0.3,0.3,0.5,0.5l-0.6,0.8c0,0,0,0.2-0.2,0.2h-0.2
						c-0.2,0-0.2,0-0.3-0.2c-0.2-0.2-0.2-0.2-0.3-0.2s-0.3-0.2-0.5-0.2s-0.5-0.2-0.8-0.2s-0.6,0-0.9,0.2c-0.3,0.2-0.5,0.3-0.8,0.5
						c-0.3,0.2,0.2,0.6,0,0.9s-0.2,0.8-0.2,1.1c0,0.5,0,0.8,0.2,1.1c0.2,0.3,0.3,0.6,0.5,0.8c0.2,0.2,0.5,0.5,0.8,0.5
						c0.3,0.2,0.6,0.2,0.9,0.2c0.2,0,0.3,0,0.5,0s0.3,0,0.5-0.2c0.2-0.2,0.3-0.2,0.3-0.2c0.2,0,0.2-0.2,0.3-0.3
						C91.9,309.8,91.9,309.6,92.1,309.6L92.1,309.6z"/>
					<path class="st4" d="M101,303.5l-3.3,8h-1.6l-3.3-8h1.4c0.2,0,0.3,0,0.3,0.2c0.2,0,0.2,0.2,0.2,0.3l1.7,4.5
						c0,0.2,0.2,0.3,0.2,0.6c0,0.2,0.2,0.5,0.2,0.6c0-0.2,0.2-0.5,0.2-0.6c0-0.2,0.2-0.5,0.2-0.6l1.7-4.5c0-0.2,0.2-0.2,0.2-0.3
						c0.2,0,0.2-0.2,0.3-0.2H101z"/>
				</g>
				<g id="Groupe_279_00000140009326317904642130000016172678438953655221_" transform="translate(43.168 42.92) rotate(-13)">
					<path id="Tracé_489_00000001645186961670042930000004950401499814965126_" class="st4" d="M-8.1,283.7l-11-6.3
						c-0.8-0.5-1.7-0.2-2.2,0.6c0,0-11,17.7-12.4,21.4c-0.5,0.8-0.2,1.7,0.6,2.2l11,6.3c0.8,0.5,1.7,0.2,2.2-0.6l12.4-21.4
						C-7.2,285.1-7.3,284.1-8.1,283.7z M-15.9,281l3.1,1.9c0.3,0.2,0.3,0.5,0.2,0.8s-0.5,0.3-0.8,0.2l-3.1-1.9
						c-0.3-0.2-0.3-0.5-0.2-0.8C-16.6,280.9-16.2,280.9-15.9,281z M-26.6,303.2c-0.6-0.3-0.8-1.3-0.5-1.9c0.3-0.6,1.3-0.8,1.9-0.5
						c0.6,0.3,0.8,1.3,0.5,1.9C-25.2,303.4-25.9,303.5-26.6,303.2L-26.6,303.2z M-19.4,302.3l-10.2-5.8l8.8-15.2l10.2,5.8
						L-19.4,302.3z"/>
				</g>
				<path class="st4" d="M76.3,327.3c-0.9,0.8-1.3,1.9-1.3,3c0.2,1.3,0.8,2.2,1.9,2.8l0.3-1.1c-0.6-0.5-1.1-1.3-0.9-2
					c0-0.8,0.3-1.4,0.9-1.9c0.5-0.3,0.9-0.6,1.6-0.6l0.3-1.1C78,326.4,77.1,326.5,76.3,327.3z"/>
				<path class="st4" d="M72.9,320.6c-5.3,3.3-6.9,10.2-3.6,15.3c1.3,2,3.1,3.6,5.3,4.4l0.3-1.1c-2.8-1.1-5-3.4-5.8-6.6
					c-1.4-5.3,1.7-10.8,7-12.2c1.6-0.5,3.3-0.5,4.8,0l0.3-1.1C78.6,318.6,75.5,318.9,72.9,320.6z"/>
				<path class="st4" d="M75.7,323.2c-3.4,1.6-5.2,5.3-4.2,8.9c0.6,2.2,2.2,3.8,4.1,4.7l0.3-1.1c-1.7-0.8-3.1-2.5-3.4-4.5
					c-0.6-3.4,1.7-6.7,5.2-7.2c0.8-0.2,1.6,0,2.2,0l0.3-1.1C78.8,322.5,77.2,322.5,75.7,323.2z"/>
			</g>
		</g>
	</g>
	<g>
		<g id="Groupe_226_00000140011086661700958110000007580476193214076859_" transform="translate(139.89 -0.035)">
			<path id="Tracé_146-3_00000045585377780230575060000002259882870678026649_" class="st8" d="M398.2,263.4
				c7.3,24.8-14.2,46.2-39,38.9l-75.4-22.1c-25.3-7.4-35.1-38.9-17.5-56.4l53.2-53.1c17.5-17.5,49.1-7.7,56.5,17.5L398.2,263.4z"/>
			<g id="Groupe_228_00000131338983934363361260000002511705626114032792_" transform="translate(4.418 4.974)">
				<path id="Tracé_152_00000024683157326361728790000008220280241545829804_" class="st23" d="M383.7,254.7
					c6.2,20.8-11.7,38.6-32.5,32.4L288,268.4c-21.2-6.3-29.5-32.7-14.9-47.2l44.4-44.3c14.6-14.6,41.1-6.3,47.4,14.8L383.7,254.7z"
					/>
			</g>
		</g>
		<g id="LTCZ4Q.tif_00000095311666944626248950000000643794392958704549_" transform="translate(23.941 17.279)">
			<g id="Groupe_272_00000107549629317757968870000007914946516852595332_" transform="translate(75.543 109.569)">
				<path id="Tracé_474_00000019664593301193445120000006876248765719309228_" class="st4" d="M358.3,104.4
					c0.8-0.4,1.7-0.6,2.6-0.8c1.3-0.2,2.6-0.4,3.8-0.2c0.8,0,1.5,0.2,2.1,0.4c1.1,0.4,2.1,1.3,2.4,2.4l0.2,0.2
					c0.6-0.6,1.1-0.9,1.7-1.3c1.3-0.9,3-1.5,4.5-1.7c1.3-0.2,2.6-0.2,3.9,0.2c2.4,0.8,3.9,2.4,4.5,5.1c0.2,1.3,0,2.6-0.2,3.8
					c-0.6,2.1-1.1,4.1-1.7,6.4c0,0.2-0.2,0.6,0,0.8c0,0.4,0.2,0.6,0.6,0.6l0,0c0.4,0,0.6,0,0.9-0.2c0.4-0.2,0.8-0.4,1.1-0.4
					c-0.2,0.8-0.4,1.3-0.6,2.1c-0.6,1.9-0.9,3.8-1.5,5.6c0,0.2-0.2,0.2-0.2,0.4c-2.1,0.8-4.1,1.1-6.4,1.1c-1.5,0-3-0.6-4.1-1.5
					c-0.9-0.9-1.7-2.1-1.7-3.6c0-1.3,0.2-2.6,0.6-3.9c0.4-1.5,0.9-3.2,1.3-4.7c0.2-0.4,0.2-0.9,0-1.3c0-0.2-0.4-0.4-0.6-0.4
					c-0.6,0-0.9,0.2-1.1,0.6c-0.4,0.6-0.8,1.3-0.9,1.9c-0.4,1.5-0.8,2.8-1.1,4.3c-0.6,2.6-1.3,5.1-1.9,7.7c0,0.2-0.2,0.2-0.2,0.2
					c-3.6,0-7.1,0-10.9,0c-0.2,0-0.2,0-0.2-0.2c1.1-4.7,2.4-9.6,3.6-14.3c0.4-1.1,0.6-2.4,0.9-3.6c0.4-1.5,0.2-3-0.4-4.5
					C358.7,105.2,358.5,104.8,358.3,104.4z"/>
				<path id="Tracé_475_00000169542648383456482300000015175102041074733240_" class="st4" d="M395,129.2c-2.3,0-4.5-0.2-6.8-0.6
					c-1.1-0.2-2.3-0.6-3.2-0.9c-0.2,0-0.2-0.2-0.2-0.2c0.6-2.3,1.1-4.7,1.7-7c0-0.2,0.2-0.2,0.2-0.2c1.5,0.6,3,1.1,4.7,1.3
					c0.9,0.2,1.9,0.2,2.6,0c0.4,0,0.6-0.2,0.6-0.6c0.2-0.4,0-0.8-0.4-0.9c-0.4-0.2-0.8-0.4-1.1-0.6c-1.1-0.4-2.3-0.8-3.2-1.1
					c-1.1-0.4-2.1-1.1-2.8-1.9c-1.1-0.9-1.7-2.4-1.7-3.9c-0.2-1.3,0.2-2.8,0.8-3.9c0.8-1.5,2.1-2.6,3.6-3.4c1.3-0.6,2.8-1.1,4.3-1.3
					s3.2-0.4,4.7-0.4c2.8,0,5.8,0.8,8.5,1.9c0.4,0.2,0.8,0.4,1.1,0.6c0.2,0,0.2,0.2,0.2,0.4c-0.9,2.1-1.7,4.3-2.6,6.4
					c0,0.2-0.2,0.2-0.4,0c-1.3-0.8-2.6-1.3-3.9-1.7c-0.9-0.2-2.1-0.4-3-0.2c-0.2,0-0.2,0-0.4,0c-0.4,0-0.6,0.4-0.6,0.6
					c0,0.4,0.2,0.6,0.4,0.8c0.4,0.2,0.6,0.4,0.9,0.4c1.1,0.4,2.4,0.8,3.6,1.3c0.9,0.4,1.9,0.9,2.6,1.5c1.1,1.1,1.9,2.6,1.9,4.3
					c0,1.3-0.2,2.4-0.6,3.6c-0.8,1.9-2.3,3.2-3.9,3.9c-1.3,0.6-2.6,0.9-4.1,1.1C397,129,395.9,129.2,395,129.2z"/>
				<path id="Tracé_476_00000053538434017527713660000015714794080849414554_" class="st4" d="M343.2,122.7c0-1.1,0.2-2.3,0.6-3.4
					c0.6-2.3,1.1-4.3,1.7-6.6c0-0.2,0-0.4,0-0.6c0-0.4-0.4-0.6-0.8-0.6c-0.6,0-1.1,0.2-1.7,0.6c-0.2,0-0.2,0-0.4-0.2
					c-0.6-1.9-1.1-3.8-1.5-5.6c0-0.2,0-0.2,0.2-0.4c1.7-0.9,3.4-1.7,5.1-2.3c1.1-0.4,2.4-0.6,3.6-0.6c1.1,0,2.3,0,3.2,0.2
					c2.3,0.6,3.9,2.4,3.9,4.9c0,1.1-0.2,2.4-0.4,3.6c-0.9,3.9-2.1,7.9-3,12c-0.4,1.3-0.8,2.8-1.1,4.1c0,0.2-0.2,0.2-0.4,0.2
					c-0.8,0-1.3,0.2-2.1,0.2c-0.6,0-1.3,0-1.9-0.2c-0.8,0-1.5-0.4-2.3-0.6c-1.5-0.6-2.6-2.1-2.8-3.6
					C343.2,123.4,343.2,123,343.2,122.7z"/>
				<path id="Tracé_477_00000054949527910263821030000014462713003602138288_" class="st4" d="M353.8,100.5c-1.1,0-2.4-0.2-3.6-0.8
					c-1.9-0.9-2.8-2.8-2.6-4.9c0.2-2.1,1.9-3.8,3.9-4.1c1.7-0.4,3.4-0.2,5.1,0.2c1.7,0.6,2.8,1.9,3.2,3.6c0.6,2.6-1.1,5.1-3.8,5.6
					l0,0C355.3,100.5,354.5,100.5,353.8,100.5z"/>
			</g>
		</g>
	</g>
</g>
</svg>
