<svg xmlns="http://www.w3.org/2000/svg" xmlns:xlink="http://www.w3.org/1999/xlink" contentStyleType="text/css" data-diagram-type="DESCRIPTION" height="458.3333px" preserveAspectRatio="none" style="width:1166px;height:458px;" version="1.1" viewBox="0 0 1166 458" width="1166.6667px" zoomAndPan="magnify"><defs/><g><!--cluster SIH--><g id="cluster_SIH"><polygon fill="none" points="16.6667,16.6667,27.0833,6.25,725,6.25,725,431.1667,714.5833,441.5833,16.6667,441.5833,16.6667,16.6667" style="stroke:#4E5D6C;stroke-width:1.0417;"/><line style="stroke:#4E5D6C;stroke-width:1.0417;" x1="714.5833" x2="725" y1="16.6667" y2="6.25"/><line style="stroke:#4E5D6C;stroke-width:1.0417;" x1="16.6667" x2="714.5833" y1="16.6667" y2="16.6667"/><line style="stroke:#4E5D6C;stroke-width:1.0417;" x1="714.5833" x2="714.5833" y1="16.6667" y2="441.5833"/><text fill="#ABB6C2" font-family="Verdana" font-size="12.5" font-weight="bold" lengthAdjust="spacing" textLength="24.115" x="354.6092" y="36.6028">SIH</text></g><!--cluster hemaweb--><g id="cluster_hemaweb"><rect fill="#5F9CBE" height="131.1875" rx="4.1667" ry="4.1667" style="stroke:#4E5D6C;stroke-width:1.0417;" width="262.5" x="41.6667" y="113.5521"/><rect fill="#5F9CBE" height="10.4167" style="stroke:#4E5D6C;stroke-width:1.0417;" width="15.625" x="283.3333" y="118.7604"/><rect fill="#5F9CBE" height="2.0833" style="stroke:#4E5D6C;stroke-width:1.0417;" width="4.1667" x="281.25" y="120.8438"/><rect fill="#5F9CBE" height="2.0833" style="stroke:#4E5D6C;stroke-width:1.0417;" width="4.1667" x="281.25" y="125.0104"/><text fill="#FFFFFF" font-family="Verdana" font-size="12.5" font-weight="bold" lengthAdjust="spacing" textLength="90.4175" x="127.7079" y="143.9049">Hemadialyse</text></g><!--cluster Fonction PFI--><g id="cluster_Fonction PFI"><polygon fill="none" points="392.7083,73.9583,403.125,63.5417,700,63.5417,700,406.1667,689.5833,416.5833,392.7083,416.5833,392.7083,73.9583" style="stroke:#4E5D6C;stroke-width:1.0417;"/><line style="stroke:#4E5D6C;stroke-width:1.0417;" x1="689.5833" x2="700" y1="73.9583" y2="63.5417"/><line style="stroke:#4E5D6C;stroke-width:1.0417;" x1="392.7083" x2="689.5833" y1="73.9583" y2="73.9583"/><line style="stroke:#4E5D6C;stroke-width:1.0417;" x1="689.5833" x2="689.5833" y1="73.9583" y2="416.5833"/><text fill="#ABB6C2" font-family="Verdana" font-size="12.5" font-weight="bold" lengthAdjust="spacing" textLength="87.8845" x="498.2452" y="93.8944">Fonction PFI</text></g><!--cluster devbox--><g id="cluster_devbox"><rect fill="#278EF5" height="270.75" rx="4.1667" ry="4.1667" style="stroke:#4E5D6C;stroke-width:1.0417;" width="257.2917" x="417.7083" y="120.8333"/><rect fill="#278EF5" height="10.4167" style="stroke:#4E5D6C;stroke-width:1.0417;" width="15.625" x="654.1667" y="126.0417"/><rect fill="#278EF5" height="2.0833" style="stroke:#4E5D6C;stroke-width:1.0417;" width="4.1667" x="652.0833" y="128.125"/><rect fill="#278EF5" height="2.0833" style="stroke:#4E5D6C;stroke-width:1.0417;" width="4.1667" x="652.0833" y="132.2917"/><text fill="#FFFFFF" font-family="Verdana" font-size="12.5" font-weight="bold" lengthAdjust="spacing" textLength="230.4504" x="431.1289" y="151.1861">DevBox-Sant&#233; PFI segur vague 2</text></g><!--entity dpi--><g id="elem_dpi"><rect fill="#278EF5" height="70.7682" rx="4.1667" ry="4.1667" style="stroke:#EC7211;stroke-width:1.0417;" width="229.5553" x="58.1354" y="157.3021"/><rect fill="#278EF5" height="10.4167" style="stroke:#EC7211;stroke-width:1.0417;" width="15.625" x="266.8573" y="162.5104"/><rect fill="#278EF5" height="2.0833" style="stroke:#EC7211;stroke-width:1.0417;" width="4.1667" x="264.774" y="164.5938"/><rect fill="#278EF5" height="2.0833" style="stroke:#EC7211;stroke-width:1.0417;" width="4.1667" x="264.774" y="168.7604"/><text fill="#FFFFFF" font-family="Verdana" font-size="12.5" lengthAdjust="spacing" textLength="173.4985" x="78.9688" y="194.9465">Fonction DPI S&#233;gur vague 2</text><text fill="#FFFFFF" font-family="Verdana" font-size="12.5" lengthAdjust="spacing" textLength="123.6572" x="82.9421" y="209.4973">de la DevBox-Sant&#233;</text></g><!--entity dbx_dmp--><g id="elem_dbx_dmp"><rect fill="#35D9C0" height="56.2174" rx="4.1667" ry="4.1667" style="stroke:#EC7211;stroke-width:1.0417;" width="172.9574" x="485.3958" y="164.5833"/><rect fill="#35D9C0" height="10.4167" style="stroke:#EC7211;stroke-width:1.0417;" width="15.625" x="637.5199" y="169.7917"/><rect fill="#35D9C0" height="2.0833" style="stroke:#EC7211;stroke-width:1.0417;" width="4.1667" x="635.4365" y="171.875"/><rect fill="#35D9C0" height="2.0833" style="stroke:#EC7211;stroke-width:1.0417;" width="4.1667" x="635.4365" y="176.0417"/><text fill="#FFFFFF" font-family="Verdana" font-size="12.5" lengthAdjust="spacing" textLength="120.874" x="506.2292" y="202.2278">DevBox-Sant&#233; DMP</text></g><!--entity dbx_mss--><g id="elem_dbx_mss"><rect fill="#DE5D80" height="56.2174" rx="4.1667" ry="4.1667" style="stroke:#EC7211;stroke-width:1.0417;" width="171.6634" x="485" y="318.6979"/><rect fill="#DE5D80" height="10.4167" style="stroke:#EC7211;stroke-width:1.0417;" width="15.625" x="635.8301" y="323.9063"/><rect fill="#DE5D80" height="2.0833" style="stroke:#EC7211;stroke-width:1.0417;" width="4.1667" x="633.7467" y="325.9896"/><rect fill="#DE5D80" height="2.0833" style="stroke:#EC7211;stroke-width:1.0417;" width="4.1667" x="633.7467" y="330.1563"/><text fill="#FFFFFF" font-family="Verdana" font-size="12.5" lengthAdjust="spacing" textLength="119.5801" x="505.8333" y="356.3424">DevBox-Sant&#233; MSS</text></g><!--entity DMP--><g id="elem_DMP"><path d="M751.5198,173.7014 C754.5923,166.5013 760.1275,164.0263 765.9619,170.859 C767.5557,163.3782 773.2557,160.1621 779.5015,166.1996 C785.7504,159.8589 792.7803,161.5471 794.2057,170.7598 C799.0687,164.6001 804.7897,167.0754 807.465,173.1339 C818.5931,176.0488 820.7746,186.1635 811.8949,193.4426 C820.5464,200.7165 818.91,208.9991 808.5488,213.0241 C805.974,222.3089 798.294,222.8905 792.6878,215.9958 C788.8359,222.363 784.4757,223.2918 779.0927,217.7425 C775.2649,223.593 768.4936,224.1763 765.6272,216.7661 C760.4994,223.4011 753.4044,222.5704 751.0932,214.0627 C738.0615,210.5565 737.9066,202.8714 744.9325,193.3883 C737.9529,185.1879 740.4466,175.8614 751.5198,173.7014 " fill="none" style="stroke:#4E5D6C;stroke-width:1.0417;"/><text fill="#4E5D6C" font-family="Verdana" font-size="12.5" font-weight="bold" lengthAdjust="spacing" textLength="31.9763" x="762.1354" y="197.0194">DMP</text></g><!--entity OperateurMSS--><g id="elem_OperateurMSS"><path d="M1014.9881,328.0717 C1018.1671,320.7907 1022.5893,319.3043 1028.2284,325.6881 C1031.2872,319.3214 1036.8769,319.5426 1041.0535,324.4123 C1043.1669,318.3629 1048.553,316.2399 1053.3367,321.5163 C1056.8457,314.9248 1062.9828,312.503 1067.9137,320.0501 C1070.3743,313.0985 1075.6459,312.5518 1079.7773,318.5153 C1084.8819,312.4802 1091.7967,314.389 1094.3831,321.3462 C1099.1098,316.3009 1103.1996,316.9223 1106.3636,323.0255 C1111.4591,316.6884 1115.6928,318.5091 1119.3281,324.5544 C1123.9806,319.3809 1128.4888,319.3032 1132.0203,325.7761 C1137.1594,319.8032 1142.4246,319.9399 1145.7551,327.5984 C1157.9572,331.8389 1159.4434,339.4373 1150.3791,348.4043 C1156.9494,356.4587 1158.207,363.7761 1146.2245,367.871 C1143.1979,374.0488 1137.0844,375.1188 1133.14,368.8347 C1130.5431,375.5066 1125.1835,376.5125 1120.686,370.7363 C1117.6083,376.4314 1111.9466,378.0759 1107.6388,372.1128 C1104.4881,377.9834 1098.8051,379.5185 1094.2673,373.6995 C1090.25,380.9626 1084.0898,380.8453 1080.5333,373.2729 C1076.2237,378.8567 1071.6354,378.8146 1067.3571,373.236 C1063.2458,378.6852 1056.4167,377.6479 1053.5433,371.7314 C1048.8978,377.7501 1042.8597,376.9651 1040.4242,369.5698 C1036.3143,376.0647 1030.8888,374.7603 1027.5257,368.7966 C1023.6409,374.8071 1017.7859,372.7578 1015.478,367.1599 C1005.2628,364.6863 1001.7215,356.9175 1007.3143,347.7836 C1000.9919,338.3639 1001.8864,329.9297 1014.9881,328.0717 " fill="none" style="stroke:#4E5D6C;stroke-width:1.0417;"/><text fill="#4E5D6C" font-family="Verdana" font-size="12.5" font-weight="bold" lengthAdjust="spacing" textLength="106.9641" x="1025.6875" y="351.134">Op&#233;rateur MSS</text></g><!--link dbx_dmp to dbx_mss--><g id="link_dbx_dmp_dbx_mss"><path d="M571.6875,221.2604 C571.5,248.8229 571.2083,290.9583 571.0208,318.4375 " fill="none" id="dbx_dmp-dbx_mss" style="stroke:#EC7211;stroke-width:3.125;"/></g><!--link dpi to dbx_dmp--><g id="link_dpi_dbx_dmp"><path d="M288.0417,192.6875 C350.875,192.6875 421.1563,192.6875 478.8958,192.6875 " fill="none" id="dpi-to-dbx_dmp" style="stroke:#EC7211;stroke-width:3.125;"/><polygon fill="#EC7211" points="485.1458,192.6875,475.7708,188.5208,479.9375,192.6875,475.7708,196.8542,485.1458,192.6875" style="stroke:#EC7211;stroke-width:3.125;"/><text fill="#4E5D6C" font-family="Verdana" font-size="12.5" lengthAdjust="spacing" textLength="149.7559" x="312.0625" y="181.3736">Alimentation DMP (HL7)</text></g><!--link dpi to dbx_mss--><g id="link_dpi_dbx_mss"><path d="M263.7083,228.4167 C334.9271,255.6354 426.8801,290.77 492.828,315.9575 " fill="none" id="dpi-to-dbx_mss" style="stroke:#EC7211;stroke-width:3.125;"/><polygon fill="#EC7211" points="498.6667,318.1875,491.3953,310.9501,493.8011,316.3292,488.4221,318.735,498.6667,318.1875" style="stroke:#EC7211;stroke-width:3.125;"/><text fill="#4E5D6C" font-family="Verdana" font-size="12.5" lengthAdjust="spacing" textLength="131.1829" x="413.5417" y="279.259">Envoi MSSant&#233; (HL7)</text></g><!--link dbx_dmp to DMP--><g id="link_dbx_dmp_DMP"><path d="M664.7292,192.6875 C692.3125,192.6875 707.3854,192.6875 734.9583,192.6875 " fill="none" id="dbx_dmp-DMP" style="stroke:#EC7211;stroke-width:3.125;"/><polygon fill="#EC7211" points="658.4792,192.6875,667.8542,196.8542,663.6875,192.6875,667.8542,188.5208,658.4792,192.6875" style="stroke:#EC7211;stroke-width:3.125;"/><polygon fill="#EC7211" points="741.2083,192.6875,731.8333,188.5208,736,192.6875,731.8333,196.8542,741.2083,192.6875" style="stroke:#EC7211;stroke-width:3.125;"/></g><!--link dbx_mss to OperateurMSS--><g id="link_dbx_mss_OperateurMSS"><path d="M663.3125,346.8125 C760.8958,346.8125 905.7604,346.8125 998.2813,346.8125 " fill="none" id="dbx_mss-OperateurMSS" style="stroke:#EC7211;stroke-width:3.125;"/><polygon fill="#EC7211" points="657.0625,346.8125,666.4375,350.9792,662.2708,346.8125,666.4375,342.6458,657.0625,346.8125" style="stroke:#EC7211;stroke-width:3.125;"/><polygon fill="#EC7211" points="1004.5313,346.8125,995.1563,342.6458,999.3229,346.8125,995.1563,350.9792,1004.5313,346.8125" style="stroke:#EC7211;stroke-width:3.125;"/><text fill="#4E5D6C" font-family="Verdana" font-size="12.5" lengthAdjust="spacing" textLength="300.8301" x="680.7604" y="335.4986">Envoi/R&#233;ception MSSant&#233; (SMTP/IMAP en mTLS)</text></g><!--SRC=[VLBTYjf05BxFKvnDRxf2MAirSPTIc4qK0yO4OwNGbcLCJcp0p0GJNPVY0_aSlbWdoKx6GEbS3USxty-PENVbRymGw6jXy3rbMzJkOanIXk1Cri_-znVRd_jB-32mnfYC5EW54XcEd4Uxto9U64h4cOoSiKBSHOlqBJAmforY1uep_4o6TekitHMPJoGucZgcHLem26s998bbcIeU2UorX28JJJDMq6BnZRZBLjCoFmrHXNJ8YYXHEkxtDOtn644FtPaEVpGD8E9PpXco4lGPPZHEwUwjG1re0U8nwIjkHDJaCTeW20BKvuOpvImgKyx02Lm8hvVjOGz7kZqW3E0d0-6re-3WyPcVZ92oydgffUCyxVw9K3vNSPfuhMemTVL_sNOKgoueyCQwyS3ZXf-wDbAgEJ-wCc8FVjN4pUabpdAr5_yZYHLfILbHg9Lv9vthoSvQjEE76FHUJwZsUdL0SLDbFxzUzhH4COIGUE_mSsngegHfcWnc6D9EgnxIs1jVsz1FG7Pf9Xw9Dj_Y1V1nDhVkkvrLqYUOi2DFAxjcbAPFsNofswkKaj9KRbD9bOVbzH9XNdigmT1R1G-kHm901jbg7jx_1G00]--></g></svg>