<svg xmlns="http://www.w3.org/2000/svg" xmlns:xlink="http://www.w3.org/1999/xlink" contentStyleType="text/css" data-diagram-type="DESCRIPTION" height="362.5px" preserveAspectRatio="none" style="width:922px;height:362px;" version="1.1" viewBox="0 0 922 362" width="922.9167px" zoomAndPan="magnify"><defs><linearGradient id="g5ypumnf4qkx60" x1="50%" x2="50%" y1="0%" y2="100%"><stop offset="0%" stop-color="#F18E3E"/><stop offset="100%" stop-color="#EC7211"/></linearGradient></defs><g><!--cluster SIH--><g id="cluster_SIH"><polygon fill="none" points="16.6667,16.6667,27.0833,6.25,690.625,6.25,690.625,209.3125,680.2083,219.7292,16.6667,219.7292,16.6667,16.6667" style="stroke:#4E5D6C;stroke-width:1.0417;"/><line style="stroke:#4E5D6C;stroke-width:1.0417;" x1="680.2083" x2="690.625" y1="16.6667" y2="6.25"/><line style="stroke:#4E5D6C;stroke-width:1.0417;" x1="16.6667" x2="680.2083" y1="16.6667" y2="16.6667"/><line style="stroke:#4E5D6C;stroke-width:1.0417;" x1="680.2083" x2="680.2083" y1="16.6667" y2="219.7292"/><text fill="#ABB6C2" font-family="Verdana" font-size="12.5" font-weight="bold" lengthAdjust="spacing" textLength="24.115" x="337.4217" y="36.6028">SIH</text></g><!--cluster hemaweb--><g id="cluster_hemaweb"><rect fill="#5F9CBE" height="131.1875" rx="4.1667" ry="4.1667" style="stroke:#4E5D6C;stroke-width:1.0417;" width="262.5" x="41.6667" y="63.5417"/><rect fill="#5F9CBE" height="10.4167" style="stroke:#4E5D6C;stroke-width:1.0417;" width="15.625" x="283.3333" y="68.75"/><rect fill="#5F9CBE" height="2.0833" style="stroke:#4E5D6C;stroke-width:1.0417;" width="4.1667" x="281.25" y="70.8333"/><rect fill="#5F9CBE" height="2.0833" style="stroke:#4E5D6C;stroke-width:1.0417;" width="4.1667" x="281.25" y="75"/><text fill="#FFFFFF" font-family="Verdana" font-size="12.5" font-weight="bold" lengthAdjust="spacing" textLength="90.4175" x="127.7079" y="93.8944">Hemadialyse</text></g><!--cluster Fonction PFI--><g id="cluster_Fonction PFI"><polygon fill="none" points="467.7083,76.0313,478.125,65.6146,665.625,65.6146,665.625,177.0417,655.2083,187.4583,467.7083,187.4583,467.7083,76.0313" style="stroke:#4E5D6C;stroke-width:1.0417;"/><line style="stroke:#4E5D6C;stroke-width:1.0417;" x1="655.2083" x2="665.625" y1="76.0313" y2="65.6146"/><line style="stroke:#4E5D6C;stroke-width:1.0417;" x1="467.7083" x2="655.2083" y1="76.0313" y2="76.0313"/><line style="stroke:#4E5D6C;stroke-width:1.0417;" x1="655.2083" x2="655.2083" y1="76.0313" y2="187.4583"/><text fill="#ABB6C2" font-family="Verdana" font-size="12.5" font-weight="bold" lengthAdjust="spacing" textLength="87.8845" x="518.5577" y="95.9674">Fonction PFI</text></g><!--entity dpi--><g id="elem_dpi"><rect fill="#278EF5" height="70.7682" rx="4.1667" ry="4.1667" style="stroke:#EC7211;stroke-width:1.0417;" width="229.5553" x="58.1354" y="107.2917"/><rect fill="#278EF5" height="10.4167" style="stroke:#EC7211;stroke-width:1.0417;" width="15.625" x="266.8573" y="112.5"/><rect fill="#278EF5" height="2.0833" style="stroke:#EC7211;stroke-width:1.0417;" width="4.1667" x="264.774" y="114.5833"/><rect fill="#278EF5" height="2.0833" style="stroke:#EC7211;stroke-width:1.0417;" width="4.1667" x="264.774" y="118.75"/><text fill="#FFFFFF" font-family="Verdana" font-size="12.5" lengthAdjust="spacing" textLength="173.4985" x="78.9688" y="144.9361">Fonction DPI S&#233;gur vague 2</text><text fill="#FFFFFF" font-family="Verdana" font-size="12.5" lengthAdjust="spacing" textLength="123.6572" x="82.9421" y="159.4869">de la DevBox-Sant&#233;</text></g><!--entity pfi--><g id="elem_pfi"><rect fill="url(#g5ypumnf4qkx60)" height="56.2174" rx="4.1667" ry="4.1667" style="stroke:#EC7211;stroke-width:1.0417;" width="164.1744" x="484.5833" y="114.5729"/><rect fill="url(#g5ypumnf4qkx60)" height="10.4167" style="stroke:#EC7211;stroke-width:1.0417;" width="15.625" x="627.9244" y="119.7813"/><rect fill="url(#g5ypumnf4qkx60)" height="2.0833" style="stroke:#EC7211;stroke-width:1.0417;" width="4.1667" x="625.8411" y="121.8646"/><rect fill="url(#g5ypumnf4qkx60)" height="2.0833" style="stroke:#EC7211;stroke-width:1.0417;" width="4.1667" x="625.8411" y="126.0313"/><text fill="#FFFFFF" font-family="Verdana" font-size="12.5" lengthAdjust="spacing" textLength="112.0911" x="505.4167" y="152.2174">PFI segur vague 2</text></g><!--entity DMP--><g id="elem_DMP"><path d="M847.3531,123.691 C850.4256,116.4908 855.9608,114.0159 861.7952,120.8486 C863.389,113.3678 869.089,110.1517 875.3348,116.1892 C881.5838,109.8485 888.6137,111.5367 890.039,120.7494 C894.902,114.5897 900.623,117.065 903.2983,123.1235 C914.4265,126.0384 916.6079,136.1531 907.7282,143.4322 C916.3797,150.7061 914.7433,158.9887 904.3821,163.0136 C901.8073,172.2984 894.1273,172.88 888.5211,165.9854 C884.6692,172.3526 880.309,173.2814 874.9261,167.732 C871.0982,173.5826 864.327,174.1659 861.4606,166.7557 C856.3327,173.3907 849.2378,172.56 846.9266,164.0523 C833.8948,160.5461 833.74,152.861 840.7659,143.3779 C833.7863,135.1775 836.28,125.851 847.3531,123.691 " fill="none" style="stroke:#4E5D6C;stroke-width:1.0417;"/><text fill="#4E5D6C" font-family="Verdana" font-size="12.5" font-weight="bold" lengthAdjust="spacing" textLength="31.9763" x="857.9688" y="147.009">DMP</text></g><!--entity OperateurMSS--><g id="elem_OperateurMSS"><path d="M655.6131,303.0613 C658.7921,295.7802 663.2143,294.2939 668.8534,300.6777 C671.9122,294.311 677.5019,294.5322 681.6785,299.4019 C683.7919,293.3525 689.178,291.2295 693.9617,296.5059 C697.4707,289.9144 703.6078,287.4926 708.5387,295.0397 C710.9993,288.0881 716.2709,287.5414 720.4023,293.5049 C725.5069,287.4698 732.4217,289.3786 735.0081,296.3358 C739.7348,291.2905 743.8246,291.9119 746.9886,298.0151 C752.0841,291.6779 756.3178,293.4987 759.9531,299.5439 C764.6056,294.3705 769.1138,294.2928 772.6453,300.7657 C777.7844,294.7928 783.0496,294.9295 786.3801,302.588 C798.5822,306.8285 800.0684,314.4269 791.0041,323.3939 C797.5744,331.4483 798.832,338.7657 786.8495,342.8606 C783.8229,349.0384 777.7094,350.1084 773.765,343.8243 C771.1681,350.4961 765.8085,351.5021 761.311,345.7259 C758.2333,351.421 752.5716,353.0655 748.2638,347.1024 C745.1131,352.973 739.4301,354.508 734.8923,348.6891 C730.875,355.9522 724.7148,355.8349 721.1583,348.2625 C716.8487,353.8463 712.2604,353.8042 707.9821,348.2256 C703.8708,353.6748 697.0417,352.6375 694.1683,346.721 C689.5228,352.7396 683.4847,351.9547 681.0492,344.5594 C676.9393,351.0543 671.5138,349.7499 668.1507,343.7862 C664.2659,349.7966 658.4109,347.7473 656.103,342.1495 C645.8878,339.6759 642.3465,331.9071 647.9393,322.7731 C641.6169,313.3535 642.5114,304.9192 655.6131,303.0613 " fill="none" style="stroke:#4E5D6C;stroke-width:1.0417;"/><text fill="#4E5D6C" font-family="Verdana" font-size="12.5" font-weight="bold" lengthAdjust="spacing" textLength="106.9641" x="666.3125" y="326.1236">Op&#233;rateur MSS</text></g><!--link dpi to pfi--><g id="link_dpi_pfi"><path d="M288.125,142.6771 C351,142.6771 421.1146,142.6771 477.9792,142.6771 " fill="none" id="dpi-to-pfi" style="stroke:#EC7211;stroke-width:3.125;"/><polygon fill="#EC7211" points="484.2292,142.6771,474.8542,138.5104,479.0208,142.6771,474.8542,146.8438,484.2292,142.6771" style="stroke:#EC7211;stroke-width:3.125;"/><text fill="#4E5D6C" font-family="Verdana" font-size="12.5" lengthAdjust="spacing" textLength="149.7559" x="311.6563" y="131.3632">Alimentation DMP (HL7)</text></g><!--link dpi to pfi--><g id="link_dpi_pfi"><path d="M287.9792,168.3646 C297.0104,169.7604 306.0313,170.9583 314.7813,171.8438 C377.8854,178.2708 394.6042,180.1042 457.4896,171.8438 C466.2396,170.6979 469.1826,170.3718 478.1513,168.4343 " fill="none" id="dpi-to-pfi-1" style="stroke:#EC7211;stroke-width:3.125;"/><polygon fill="#EC7211" points="484.2604,167.1146,474.217,165.0215,479.1695,168.2144,475.9766,173.1669,484.2604,167.1146" style="stroke:#EC7211;stroke-width:3.125;"/><text fill="#4E5D6C" font-family="Verdana" font-size="12.5" lengthAdjust="spacing" textLength="131.1829" x="321.0313" y="163.6549">Envoi MSSant&#233; (HL7)</text></g><!--link DMP to OperateurMSS--><!--link pfi to DMP--><g id="link_pfi_DMP"><path d="M655.2604,142.6771 C716.4167,142.6771 784.4375,142.6771 830.6979,142.6771 " fill="none" id="pfi-DMP" style="stroke:#EC7211;stroke-width:3.125;"/><polygon fill="#EC7211" points="649.0104,142.6771,658.3854,146.8438,654.2188,142.6771,658.3854,138.5104,649.0104,142.6771" style="stroke:#EC7211;stroke-width:3.125;"/><polygon fill="#EC7211" points="836.9479,142.6771,827.5729,138.5104,831.7396,142.6771,827.5729,146.8438,836.9479,142.6771" style="stroke:#EC7211;stroke-width:3.125;"/><text fill="#4E5D6C" font-family="Verdana" font-size="12.5" lengthAdjust="spacing" textLength="111.7126" x="687.2188" y="131.3632">Alimentation DMP</text></g><!--link pfi to OperateurMSS--><g id="link_pfi_OperateurMSS"><path d="M549.9286,176.5427 C538.5223,202.4385 529.8021,235.6563 548.9583,262.4375 C570.9271,293.1563 603.9313,306.6622 639.2126,313.6413 " fill="none" id="pfi-OperateurMSS" style="stroke:#EC7211;stroke-width:3.125;"/><polygon fill="#EC7211" points="552.4479,170.8229,544.8557,177.723,550.3485,175.5894,552.482,181.0821,552.4479,170.8229" style="stroke:#EC7211;stroke-width:3.125;"/><polygon fill="#EC7211" points="645.3438,314.8542,636.9555,308.9474,640.2344,313.8435,635.3384,317.1224,645.3438,314.8542" style="stroke:#EC7211;stroke-width:3.125;"/><text fill="#4E5D6C" font-family="Verdana" font-size="12.5" lengthAdjust="spacing" textLength="300.8301" x="555.2083" y="254.2486">Envoi/R&#233;ception MSSant&#233; (SMTP/IMAP en mTLS)</text></g><!--SRC=[RP7XRjem58N_-obkipyhKbG68w7JDCbDG4GYn28KLTgcoKrkQ2HYHn3efea7uZbuiJc6n7IRVoNtE_US8_kcUi42WRzkRRdXOeNa9iKi5mZ-QFaGFVtmecaqXtSzTuZPmC2GDQG_yE-zRal2E6w8FnhuGqE2MKkwBkrvuvPupEpqFzA-rv9biA3JKGC7OzznQGjPx3KaorpNCVKeyvODIXnqdDIWsUoH1lFMqtK-zD6KzEc26bC-x7O94J95iE9WOi5lGW0IMPHIeAZ0cc31qvolVstH0hu5TPdy5PzLrUm-UKPG2w3FrSvOYgJAfG2V1H2VZglT1lPyjKFemJS1AclDmSVzW_nfnrnKfwEsJilyxPievqDTvrolTMNZmFfVh9h35g_2j6kPvQtuV2u_1sr_8CbQxbAmEXtrv9sEtb5VPXoLf-E6LwXyrTDV5569vvaQ4KBgwlR6_gBJFW5TvuMgnC-N439uFvcwjt-hHc8lyzfJNy55GqYjjx- -v6cAuhlzDgbU_AmjQjM_GLU2wxqcx6v-EYPOQhN9ZSC5kmj2oW0558jfVFi7]--></g></svg>