<?xml version="1.0" encoding="us-ascii" standalone="no"?><svg xmlns="http://www.w3.org/2000/svg" xmlns:xlink="http://www.w3.org/1999/xlink" contentStyleType="text/css" height="714.5833px" preserveAspectRatio="none" style="width:1041px;height:714px;" version="1.1" viewBox="0 0 1041 714" width="1041.6667px" zoomAndPan="magnify"><defs><linearGradient id="g1aczvpgcxk9nf0" x1="50%" x2="50%" y1="0%" y2="100%"><stop offset="0%" stop-color="#ED9D5C"/><stop offset="100%" stop-color="#EF7E00"/></linearGradient></defs><g><!--cluster Environnement Utilisateur--><g id="cluster_Environnement Utilisateur"><polygon fill="none" points="118.75,476.1281,129.1667,465.7115,528.125,465.7115,528.125,686.5448,517.7083,696.9615,118.75,696.9615,118.75,476.1281" style="stroke:#ED9D5C;stroke-width:1.0416666666666667;"/><line style="stroke:#ED9D5C;stroke-width:1.0416666666666667;" x1="517.7083" x2="528.125" y1="476.1281" y2="465.7115"/><line style="stroke:#ED9D5C;stroke-width:1.0416666666666667;" x1="118.75" x2="517.7083" y1="476.1281" y2="476.1281"/><line style="stroke:#ED9D5C;stroke-width:1.0416666666666667;" x1="517.7083" x2="517.7083" y1="476.1281" y2="696.9615"/><text fill="#343A40" font-family="Lucida Console" font-size="12.5" font-weight="bold" lengthAdjust="spacing" textLength="197.9167" x="220.3125" y="496.0642">Environnement Utilisateur</text></g><!--cluster Poste client / mobile--><g id="cluster_Poste client / mobile"><path d="M147.9167,528.2115 L308.3333,528.2115 A6.25,6.25 0 0 1 312.5,532.3781 L319.7917,559.4289 L354.1667,559.4289 A4.1667,4.1667 0 0 1 358.3333,563.5956 L358.3333,667.7948 A4.1667,4.1667 0 0 1 354.1667,671.9615 L147.9167,671.9615 A4.1667,4.1667 0 0 1 143.75,667.7948 L143.75,532.3781 A4.1667,4.1667 0 0 1 147.9167,528.2115 " fill="none" style="stroke:#ED9D5C;stroke-width:2.0833333333333335;"/><line style="stroke:#ED9D5C;stroke-width:2.0833333333333335;" x1="143.75" x2="319.7917" y1="559.4289" y2="559.4289"/><text fill="#EF7E00" font-family="Lucida Console" font-size="12.5" font-weight="bold" lengthAdjust="spacing" textLength="152.0833" x="153.125" y="547.1059">Poste client / mobile</text></g><!--cluster Environnement int?grateur HDS--><g id="cluster_Environnement int&#233;grateur HDS"><polygon fill="none" points="16.6667,75.0865,27.0833,64.6698,689.5833,64.6698,689.5833,395.9198,679.1667,406.3365,16.6667,406.3365,16.6667,75.0865" style="stroke:#ED9D5C;stroke-width:1.0416666666666667;"/><line style="stroke:#ED9D5C;stroke-width:1.0416666666666667;" x1="679.1667" x2="689.5833" y1="75.0865" y2="64.6698"/><line style="stroke:#ED9D5C;stroke-width:1.0416666666666667;" x1="16.6667" x2="679.1667" y1="75.0865" y2="75.0865"/><line style="stroke:#ED9D5C;stroke-width:1.0416666666666667;" x1="679.1667" x2="679.1667" y1="75.0865" y2="406.3365"/><text fill="#343A40" font-family="Lucida Console" font-size="12.5" font-weight="bold" lengthAdjust="spacing" textLength="241.6667" x="228.125" y="95.0226">Environnement int&#233;grateur HDS</text></g><!--cluster DevBox-Sant? Proxy REST--><g id="cluster_DevBox-Sant&#233; Proxy REST"><path d="M258.3333,127.1698 L461.4583,127.1698 A6.25,6.25 0 0 1 465.625,131.3365 L472.9167,158.3872 L660.4167,158.3872 A4.1667,4.1667 0 0 1 664.5833,162.5539 L664.5833,377.1698 A4.1667,4.1667 0 0 1 660.4167,381.3365 L258.3333,381.3365 A4.1667,4.1667 0 0 1 254.1667,377.1698 L254.1667,131.3365 A4.1667,4.1667 0 0 1 258.3333,127.1698 " fill="#278EF5" style="stroke:#ED9D5C;stroke-width:2.0833333333333335;"/><line style="stroke:#ED9D5C;stroke-width:2.0833333333333335;" x1="254.1667" x2="472.9167" y1="158.3872" y2="158.3872"/><text fill="#EF7E00" font-family="Lucida Console" font-size="12.5" font-weight="bold" lengthAdjust="spacing" textLength="194.7917" x="263.5417" y="146.0642">DevBox-Sant&#233; Proxy REST</text></g><!--cluster dmpFacade--><g id="cluster_dmpFacade"><rect fill="#35D9C0" height="160.4167" rx="4.1667" ry="4.1667" style="stroke:#ED9D5C;stroke-width:1.0416666666666667;" width="343.75" x="287.5" y="187.5865"/><rect fill="#35D9C0" height="10.4167" style="stroke:#ED9D5C;stroke-width:1.0416666666666667;" width="15.625" x="610.4167" y="192.7948"/><rect fill="#35D9C0" height="2.0833" style="stroke:#ED9D5C;stroke-width:1.0416666666666667;" width="4.1667" x="608.3333" y="194.8781"/><rect fill="#35D9C0" height="2.0833" style="stroke:#ED9D5C;stroke-width:1.0416666666666667;" width="4.1667" x="608.3333" y="199.0448"/><text fill="#FFFFFF" font-family="Lucida Console" font-size="12.5" font-weight="bold" lengthAdjust="spacing" textLength="141.6667" x="388.5417" y="217.9392">DevBox-sante DMP</text></g><!--entity lecteur--><g id="elem_lecteur"><rect fill="url(#g1aczvpgcxk9nf0)" height="56.2174" rx="4.1667" ry="4.1667" style="stroke:#EF7E00;stroke-width:1.0416666666666667;" width="128.125" x="382.8125" y="599.0448"/><rect fill="url(#g1aczvpgcxk9nf0)" height="10.4167" style="stroke:#EF7E00;stroke-width:1.0416666666666667;" width="15.625" x="490.1042" y="604.2531"/><rect fill="url(#g1aczvpgcxk9nf0)" height="2.0833" style="stroke:#EF7E00;stroke-width:1.0416666666666667;" width="4.1667" x="488.0208" y="606.3365"/><rect fill="url(#g1aczvpgcxk9nf0)" height="2.0833" style="stroke:#EF7E00;stroke-width:1.0416666666666667;" width="4.1667" x="488.0208" y="610.5031"/><text fill="#FFFFFF" font-family="Lucida Console" font-size="12.5" lengthAdjust="spacing" textLength="76.0417" x="403.6458" y="636.6892">Lecteur Neo</text></g><!--entity frontend--><g id="elem_frontend"><rect fill="url(#g1aczvpgcxk9nf0)" height="56.2174" rx="4.1667" ry="4.1667" style="stroke:#EF7E00;stroke-width:1.0416666666666667;" width="180.2083" x="160.9375" y="599.0448"/><rect fill="url(#g1aczvpgcxk9nf0)" height="10.4167" style="stroke:#EF7E00;stroke-width:1.0416666666666667;" width="15.625" x="320.3125" y="604.2531"/><rect fill="url(#g1aczvpgcxk9nf0)" height="2.0833" style="stroke:#EF7E00;stroke-width:1.0416666666666667;" width="4.1667" x="318.2292" y="606.3365"/><rect fill="url(#g1aczvpgcxk9nf0)" height="2.0833" style="stroke:#EF7E00;stroke-width:1.0416666666666667;" width="4.1667" x="318.2292" y="610.5031"/><text fill="#FFFFFF" font-family="Lucida Console" font-size="12.5" lengthAdjust="spacing" textLength="128.125" x="181.7708" y="636.6892">FrontEnd int&#233;grateur</text></g><!--entity backend--><g id="elem_backend"><rect fill="url(#g1aczvpgcxk9nf0)" height="56.2174" rx="4.1667" ry="4.1667" style="stroke:#EF7E00;stroke-width:1.0416666666666667;" width="178.125" x="33.8542" y="266.7531"/><rect fill="url(#g1aczvpgcxk9nf0)" height="10.4167" style="stroke:#EF7E00;stroke-width:1.0416666666666667;" width="15.625" x="191.1458" y="271.9615"/><rect fill="url(#g1aczvpgcxk9nf0)" height="2.0833" style="stroke:#EF7E00;stroke-width:1.0416666666666667;" width="4.1667" x="189.0625" y="274.0448"/><rect fill="url(#g1aczvpgcxk9nf0)" height="2.0833" style="stroke:#EF7E00;stroke-width:1.0416666666666667;" width="4.1667" x="189.0625" y="278.2115"/><text fill="#FFFFFF" font-family="Lucida Console" font-size="12.5" lengthAdjust="spacing" textLength="126.0417" x="54.6875" y="304.3976">BackEnd int&#233;grateur</text></g><!--entity cpsStellair--><g id="elem_cpsStellair"><rect fill="#D34A3C" height="56.2174" rx="4.1667" ry="4.1667" style="stroke:#EF7E00;stroke-width:1.0416666666666667;" width="268.75" x="337.5" y="266.7531"/><rect fill="#D34A3C" height="10.4167" style="stroke:#EF7E00;stroke-width:1.0416666666666667;" width="15.625" x="585.4167" y="271.9615"/><rect fill="#D34A3C" height="2.0833" style="stroke:#EF7E00;stroke-width:1.0416666666666667;" width="4.1667" x="583.3333" y="274.0448"/><rect fill="#D34A3C" height="2.0833" style="stroke:#EF7E00;stroke-width:1.0416666666666667;" width="4.1667" x="583.3333" y="278.2115"/><text fill="#FFFFFF" font-family="Lucida Console" font-size="12.5" lengthAdjust="spacing" textLength="216.6667" x="358.3333" y="304.3976">DevBox-sante CPS security Stellair</text></g><!--entity stellair--><g id="elem_stellair"><path d="M715.2301,276.0845 C718.2809,269.3163 724.4445,268.6349 728.0977,275.5167 C730.088,268.1253 736.0575,267.5631 740.5827,273.0614 C743.7746,266.2554 749.9,265.8002 754.7508,271.1236 C756.9904,265.0709 762.0903,264.7667 765.844,269.5775 C770.8533,263.6316 775.5361,263.7453 780.022,270.177 C784.3509,264.2929 790.5807,265.2872 792.4987,272.4777 C796.6932,267.4352 802.7897,267.7456 804.6199,274.8392 C809.231,270.0838 813.2672,270.5713 816.8798,276.0369 C829.9907,279.4514 830.1215,287.0366 823.1698,296.5907 C829.5381,305.463 829.1807,312.5955 817.106,315.5777 C813.5469,322.8379 807.7966,322.1792 803.984,315.8219 C801.731,321.4208 797.3042,322.4373 792.7351,318.5759 C788.8595,324.2385 782.9368,323.3668 779.8195,317.7105 C776.6421,323.6386 771.2537,324.9396 766.9907,318.8716 C763.3019,324.2863 757.9066,325.1554 754.5186,318.5592 C749.4538,325.2258 745.2027,324.8816 740.8777,317.8239 C736.5032,322.4698 731.5255,322.9744 728.9846,315.9546 C724.6323,322.0093 720.0064,323.1023 715.205,316.4413 C702.5458,312.7318 701.7852,305.4575 707.9466,295.2895 C699.7343,285.1026 703.9363,278.8738 715.2301,276.0845 " fill="#FFFFFF" style="stroke:#F2FCFE;stroke-width:3.125;"/><text fill="#EF7E00" font-family="Lucida Console" font-size="12.5" font-weight="bold" lengthAdjust="spacing" textLength="55.2083" x="727.0833" y="299.1892">Stellair</text><text fill="#EF7E00" font-family="Lucida Console" font-size="12.5" lengthAdjust="spacing" textLength="17.7083" x="786.4583" y="299.1892">API</text></g><!--entity DMP--><g id="elem_DMP"><path d="M876.2396,276.5338 C878.1949,267.5681 885.128,265.7062 891.1313,272.774 C894.1631,264.6725 898.6409,262.5983 905.5018,268.973 C910.7765,263.4551 918.3635,264.9543 920.6368,272.4608 C926.1372,267.6147 931.0845,268.321 932.8255,276.0924 C944.1235,280.5075 946.5767,288.109 937.1965,296.8734 C945.0875,304.7755 942.9241,311.0941 933.7913,315.9588 C930.6811,322.8805 926.401,326.0477 919.7383,319.7295 C916.7535,327.9093 910.3794,328.1767 904.9288,322.3336 C898.9247,326.4691 894.2774,326.1676 891.6969,318.4966 C886.3405,323.885 881.0918,323.129 877.4827,316.4401 C865.3171,310.9664 864.5886,304.3382 874.5183,295.7056 C866.8514,289.3588 868.0342,281.4555 876.2396,276.5338 " fill="#FFFFFF" style="stroke:#F2FCFE;stroke-width:3.125;"/><text fill="#EF7E00" font-family="Lucida Console" font-size="12.5" font-weight="bold" lengthAdjust="spacing" textLength="32.2917" x="888.0208" y="299.1892">DMP</text></g><!--reverse link backend to frontend--><g id="link_backend_frontend"><path d="M135.4125,328.124 C160.5719,392.9656 216.9333,538.224 240.4354,598.7927 " fill="none" id="backend-backto-frontend" style="stroke:#EF7E00;stroke-width:3.125;"/><polygon fill="#EF7E00" points="133.5104,323.2229,133.0208,333.4705,135.3961,328.0779,140.7887,330.4533,133.5104,323.2229" style="stroke:#EF7E00;stroke-width:3.125;"/><text fill="#343A40" font-family="Lucida Console" font-size="12.5" lengthAdjust="spacing" textLength="30.2083" x="186.4583" y="440.8559">REST</text></g><!--link backend to dmpFacade--><g id="link_backend_dmpFacade"><path d="M212.4135,294.8781 C232.1917,294.8781 251.7573,294.8781 266.9639,294.8781 C274.5673,294.8781 281.0808,294.8781 285.9863,294.8781 C286.2929,294.8781 286.5933,294.8781 286.8872,294.8781 C287.0341,294.8781 287.1795,294.8781 287.3232,294.8781 " fill="none" id="backend-to-dmpFacade" style="stroke:#EF7E00;stroke-width:3.125;"/><polygon fill="#EF7E00" points="287.3232,294.8781,277.9482,290.7115,282.1149,294.8781,277.9482,299.0448,287.3232,294.8781" style="stroke:#EF7E00;stroke-width:3.125;"/><text fill="#343A40" font-family="Lucida Console" font-size="12.5" lengthAdjust="spacing" textLength="30.2083" x="238.6146" y="283.5642">REST</text></g><!--link cpsStellair to stellair--><g id="link_cpsStellair_stellair"><path d="M606.2844,294.8781 C639.1427,294.8781 672.8385,294.8781 700.7313,294.8781 " fill="none" id="cpsStellair-to-stellair" style="stroke:#EF7E00;stroke-width:3.125;"/><polygon fill="#EF7E00" points="706.2302,294.8781,696.8552,290.7115,701.0219,294.8781,696.8552,299.0448,706.2302,294.8781" style="stroke:#EF7E00;stroke-width:3.125;"/><text fill="#343A40" font-family="Lucida Console" font-size="12.5" lengthAdjust="spacing" textLength="30.2083" x="641.1458" y="283.5642">REST</text></g><!--link stellair to lecteur--><g id="link_stellair_lecteur"><path d="M735.2865,327.3479 C674.4083,390.4156 537.9906,531.7375 477.1573,594.7573 " fill="none" id="stellair-lecteur" style="stroke:#EF7E00;stroke-width:3.125;"/><polygon fill="#EF7E00" points="739.2688,323.2229,729.7596,327.0735,735.6512,326.9699,735.7548,332.8616,739.2688,323.2229" style="stroke:#EF7E00;stroke-width:3.125;"/><polygon fill="#EF7E00" points="473.2615,598.7927,482.7707,594.9421,476.879,595.0457,476.7754,589.1541,473.2615,598.7927" style="stroke:#EF7E00;stroke-width:3.125;"/><text fill="#343A40" font-family="Lucida Console" font-size="12.5" lengthAdjust="spacing" textLength="387.5" x="640.625" y="440.8559">Demande d'autorisation d'acc&#232;s aux cartes via le SSO Stellair</text></g><!--link dmpFacade to DMP--><g id="link_dmpFacade_DMP"><path d="M294.7014,186.8607 C294.7188,186.4894 294.7364,186.1181 294.7544,185.7469 C294.7903,185.0044 294.8274,184.2621 294.8657,183.5199 C294.9424,182.0357 295.0238,180.5524 295.1103,179.0712 C295.4564,173.1465 295.8832,167.2553 296.4038,161.4704 C297.445,149.9004 298.8617,138.755 300.7589,128.614 C304.5534,108.332 310.2701,92.068 318.75,84.4615 C405.9417,6.25 752.601,13.5594 845.8333,84.4615 C900.1656,125.7802 906.926,213.0719 906.1552,261.224 " fill="none" id="dmpFacade-to-DMP" style="stroke:#EF7E00;stroke-width:3.125;"/><polygon fill="#EF7E00" points="906.0354,266.6115,910.41,257.3316,906.1515,261.4044,902.0787,257.1459,906.0354,266.6115" style="stroke:#EF7E00;stroke-width:3.125;"/><text fill="#343A40" font-family="Lucida Console" font-size="12.5" lengthAdjust="spacing" textLength="33.3333" x="564.5833" y="39.8142">SOAP</text></g><!--SRC=[RLBRYjim47tNLqoz3mL3reMq3rrA8OcpjB2jpRejXL2ABAjPiR9aT4cpBFcVzZlsnpfIhCI5rOFbyJbpvioCNmZ5fEyut3atsAkYQ8LhFRldxbARRT7nNQltCqkLuyKWyVAzB0pzNJ1l35UkS7Uyv_PupQRqom6fH6dKpjPg9unM2ZdAmLSdfB3KSMyoU2I0Pw3idcwHMMlhE30f0h60NhT2yiGAPtEDGcwjEX3AFVtTcgZp0wY5Nm7XgelSGtnkRZWBE7pcEdBaCIO7ygorgIPyA9jKURD4WyyMRH58DKzTb7otn3aqDB2XDdh_0BVhvai6KAw_BQllFrVLJNKxQOlfVj0gM4Z9SOXGVggpKARhXslAA3g-cByftwvUJNAZmV-oLdK3bkEAX7k0nd4fgJZQPODDCLoKyzUB-UgaSnW7To1CQjz1bkU9c-Umg3z69tRyT2QXnpoF6BuHajO0Cp_CtgS1mLMS04aX8kUUHcng3l5KQKHJ2EyG6_U8cINlgKADxYNrJflmOmcjGiZOqnyBrE-1KUEuXPsWc0XDKvs6GiucK1Nzes9JBUf_]--></g></svg>