<?xml version="1.0" encoding="us-ascii" standalone="no"?><svg xmlns="http://www.w3.org/2000/svg" xmlns:xlink="http://www.w3.org/1999/xlink" contentStyleType="text/css" height="563.5417px" preserveAspectRatio="none" style="width:557px;height:563px;" version="1.1" viewBox="0 0 557 563" width="557.2917px" zoomAndPan="magnify"><defs><linearGradient id="g1jxu1dr5ulz1n0" x1="50%" x2="50%" y1="0%" y2="100%"><stop offset="0%" stop-color="#ED9D5C"/><stop offset="100%" stop-color="#EF7E00"/></linearGradient></defs><g><!--cluster Environnement int?grateur--><g id="cluster_Environnement int&#233;grateur"><polygon fill="none" points="16.6667,122.9167,27.0833,112.5,539.5833,112.5,539.5833,411.4583,529.1667,421.875,16.6667,421.875,16.6667,122.9167" style="stroke:#ED9D5C;stroke-width:1.0416666666666667;"/><line style="stroke:#ED9D5C;stroke-width:1.0416666666666667;" x1="529.1667" x2="539.5833" y1="122.9167" y2="112.5"/><line style="stroke:#ED9D5C;stroke-width:1.0416666666666667;" x1="16.6667" x2="529.1667" y1="122.9167" y2="122.9167"/><line style="stroke:#ED9D5C;stroke-width:1.0416666666666667;" x1="529.1667" x2="529.1667" y1="122.9167" y2="421.875"/><text fill="#343A40" font-family="Lucida Console" font-size="12.5" font-weight="bold" lengthAdjust="spacing" textLength="207.2917" x="170.3125" y="142.8528">Environnement int&#233;grateur</text></g><!--cluster DevBox-Sant? Proxy REST--><g id="cluster_DevBox-Sant&#233; Proxy REST"><path d="M253.125,169.7917 L456.25,169.7917 A6.25,6.25 0 0 1 460.4167,173.9583 L467.7083,201.0091 L510.4167,201.0091 A4.1667,4.1667 0 0 1 514.5833,205.1758 L514.5833,392.7083 A4.1667,4.1667 0 0 1 510.4167,396.875 L253.125,396.875 A4.1667,4.1667 0 0 1 248.9583,392.7083 L248.9583,173.9583 A4.1667,4.1667 0 0 1 253.125,169.7917 " fill="#278EF5" style="stroke:#ED9D5C;stroke-width:2.0833333333333335;"/><line style="stroke:#ED9D5C;stroke-width:2.0833333333333335;" x1="248.9583" x2="467.7083" y1="201.0091" y2="201.0091"/><text fill="#EF7E00" font-family="Lucida Console" font-size="12.5" font-weight="bold" lengthAdjust="spacing" textLength="194.7917" x="258.3333" y="188.6861">DevBox-Sant&#233; Proxy REST</text></g><!--cluster dmpFacade--><g id="cluster_dmpFacade"><path d="M286.4583,230.2083 L436.4583,230.2083 A6.25,6.25 0 0 1 440.625,234.375 L447.9167,261.4258 L477.0833,261.4258 A4.1667,4.1667 0 0 1 481.25,265.5924 L481.25,359.375 A4.1667,4.1667 0 0 1 477.0833,363.5417 L286.4583,363.5417 A4.1667,4.1667 0 0 1 282.2917,359.375 L282.2917,234.375 A4.1667,4.1667 0 0 1 286.4583,230.2083 " fill="#35D9C0" style="stroke:#ED9D5C;stroke-width:2.0833333333333335;"/><line style="stroke:#ED9D5C;stroke-width:2.0833333333333335;" x1="282.2917" x2="447.9167" y1="261.4258" y2="261.4258"/><text fill="#EF7E00" font-family="Lucida Console" font-size="12.5" font-weight="bold" lengthAdjust="spacing" textLength="141.6667" x="291.6667" y="249.1028">DevBox-sante DMP</text></g><!--entity backend--><g id="elem_backend"><rect fill="url(#g1jxu1dr5ulz1n0)" height="56.2174" rx="4.1667" ry="4.1667" style="stroke:#EF7E00;stroke-width:1.0416666666666667;" width="178.125" x="33.8542" y="282.2917"/><rect fill="url(#g1jxu1dr5ulz1n0)" height="10.4167" style="stroke:#EF7E00;stroke-width:1.0416666666666667;" width="15.625" x="191.1458" y="287.5"/><rect fill="url(#g1jxu1dr5ulz1n0)" height="2.0833" style="stroke:#EF7E00;stroke-width:1.0416666666666667;" width="4.1667" x="189.0625" y="289.5833"/><rect fill="url(#g1jxu1dr5ulz1n0)" height="2.0833" style="stroke:#EF7E00;stroke-width:1.0416666666666667;" width="4.1667" x="189.0625" y="293.75"/><text fill="#FFFFFF" font-family="Lucida Console" font-size="12.5" lengthAdjust="spacing" textLength="126.0417" x="54.6875" y="319.9361">BackEnd int&#233;grateur</text></g><!--entity P12Manager--><g id="elem_P12Manager"><rect fill="#35D9C0" height="56.2174" rx="4.1667" ry="4.1667" style="stroke:#EF7E00;stroke-width:1.0416666666666667;" width="128.125" x="327.6042" y="282.2917"/><rect fill="#35D9C0" height="10.4167" style="stroke:#EF7E00;stroke-width:1.0416666666666667;" width="15.625" x="434.8958" y="287.5"/><rect fill="#35D9C0" height="2.0833" style="stroke:#EF7E00;stroke-width:1.0416666666666667;" width="4.1667" x="432.8125" y="289.5833"/><rect fill="#35D9C0" height="2.0833" style="stroke:#EF7E00;stroke-width:1.0416666666666667;" width="4.1667" x="432.8125" y="293.75"/><text fill="#FFFFFF" font-family="Lucida Console" font-size="12.5" lengthAdjust="spacing" textLength="76.0417" x="348.4375" y="319.9361">P12Manager</text></g><!--entity frontend--><g id="elem_frontend"><rect fill="url(#g1jxu1dr5ulz1n0)" height="56.2174" rx="4.1667" ry="4.1667" style="stroke:#EF7E00;stroke-width:1.0416666666666667;" width="180.2083" x="32.8125" y="7.2917"/><rect fill="url(#g1jxu1dr5ulz1n0)" height="10.4167" style="stroke:#EF7E00;stroke-width:1.0416666666666667;" width="15.625" x="192.1875" y="12.5"/><rect fill="url(#g1jxu1dr5ulz1n0)" height="2.0833" style="stroke:#EF7E00;stroke-width:1.0416666666666667;" width="4.1667" x="190.1042" y="14.5833"/><rect fill="url(#g1jxu1dr5ulz1n0)" height="2.0833" style="stroke:#EF7E00;stroke-width:1.0416666666666667;" width="4.1667" x="190.1042" y="18.75"/><text fill="#FFFFFF" font-family="Lucida Console" font-size="12.5" lengthAdjust="spacing" textLength="128.125" x="53.6458" y="44.9361">FrontEnd int&#233;grateur</text></g><!--entity DMP--><g id="elem_DMP"><path d="M262.6979,505.614 C264.6532,496.6483 271.5863,494.7864 277.5896,501.8542 C280.6214,493.7527 285.0992,491.6785 291.9601,498.0532 C297.2348,492.5353 304.8218,494.0345 307.0951,501.541 C312.5955,496.6949 317.5428,497.4012 319.2838,505.1726 C330.5819,509.5877 333.035,517.1892 323.6548,525.9536 C331.5458,533.8557 329.3824,540.1743 320.2497,545.039 C317.1394,551.9607 312.8594,555.1279 306.1966,548.8097 C303.2119,556.9895 296.8377,557.2569 291.3871,551.4138 C285.383,555.5493 280.7357,555.2478 278.1553,547.5768 C272.7989,552.9652 267.5501,552.2092 263.941,545.5203 C251.7754,540.0466 251.047,533.4184 260.9766,524.7858 C253.3098,518.4391 254.4925,510.5357 262.6979,505.614 " fill="#FFFFFF" style="stroke:#F2FCFE;stroke-width:3.125;"/><text fill="#EF7E00" font-family="Lucida Console" font-size="12.5" font-weight="bold" lengthAdjust="spacing" textLength="32.2917" x="274.4792" y="528.2694">DMP</text></g><!--link frontend to backend--><g id="link_frontend_backend"><path d="M122.9167,63.624 C122.9167,114.0698 122.9167,222.0219 122.9167,276.4948 " fill="none" id="frontend-to-backend" style="stroke:#EF7E00;stroke-width:3.125;"/><polygon fill="#EF7E00" points="122.9167,281.9135,127.0833,272.5385,122.9167,276.7052,118.75,272.5385,122.9167,281.9135" style="stroke:#EF7E00;stroke-width:3.125;"/></g><!--link backend to dmpFacade--><g id="link_backend_dmpFacade"><path d="M212.1719,310.4167 C230.9464,310.4167 249.3581,310.4167 263.6219,310.4167 C270.7538,310.4167 276.8487,310.4167 281.4335,310.4167 C281.72,310.4167 282.0007,310.4167 282.2753,310.4167 " fill="none" id="backend-to-dmpFacade" style="stroke:#EF7E00;stroke-width:3.125;"/><polygon fill="#EF7E00" points="282.2753,310.4167,272.9003,306.25,277.067,310.4167,272.9003,314.5833,282.2753,310.4167" style="stroke:#EF7E00;stroke-width:3.125;"/><text fill="#343A40" font-family="Lucida Console" font-size="12.5" lengthAdjust="spacing" textLength="30.2083" x="236.0104" y="299.1028">REST</text></g><!--link dmpFacade to DMP--><g id="link_dmpFacade_DMP"><path d="M290.625,364.224 C290.625,365.2922 290.625,366.3701 290.625,367.4571 C290.625,371.8051 290.625,376.2984 290.625,380.8959 C290.625,417.676 290.625,461.1244 290.625,490.1904 " fill="none" id="dmpFacade-to-DMP" style="stroke:#EF7E00;stroke-width:3.125;"/><polygon fill="#EF7E00" points="290.625,495.6308,294.7917,486.2558,290.625,490.4225,286.4583,486.2558,290.625,495.6308" style="stroke:#EF7E00;stroke-width:3.125;"/><text fill="#343A40" font-family="Lucida Console" font-size="12.5" lengthAdjust="spacing" textLength="33.3333" x="296.875" y="456.3944">SOAP</text></g><!--SRC=[RL31JeD04BtlLumSIUX6ZnnChD2J3QGOOqACMTWLI66MB0kjCVqWlyCVSm3RQkmUTcPdtdlpPgygpEjUAYYjRJkVywooMPzlbLreKt2fXapllKwWLRojAVHDpOtOyRmtHg7bjbIDwkRW_OOlMe8obgwCHXkYX0hjrsTXX5MzUG7HmTlOKIWPGqqEd127Yaf8IcZ_m1tuO02GBaM-lIYLKMDK8X2qb8k2z08rBCbD8aOqn4Rlts4J9eyEG10-BQFdr_le8ThCsd29EYq2mJfsnY6oQLSY5tAg_EEE9uslRzO2IMAsTNwUAIV2WSttWUMrxYKuhaiWrvrcKSROyOF0atg7tkrfpPy8dgcAqbBZPCsVDcHdgqSg2O8FINGNVmC0]--></g></svg>