<?xml version="1.0" encoding="us-ascii" standalone="no"?><svg xmlns="http://www.w3.org/2000/svg" xmlns:xlink="http://www.w3.org/1999/xlink" contentStyleType="text/css" height="579.1667px" preserveAspectRatio="none" style="width:598px;height:579px;" version="1.1" viewBox="0 0 598 579" width="598.9583px" zoomAndPan="magnify"><defs><linearGradient id="g1924cn0vpf7fj0" x1="50%" x2="50%" y1="0%" y2="100%"><stop offset="0%" stop-color="#ED9D5C"/><stop offset="100%" stop-color="#EF7E00"/></linearGradient></defs><g><!--cluster Poste Client (Windows/Mac/Linux)--><g id="cluster_Poste Client (Windows/Mac/Linux)"><polygon fill="none" points="16.6667,16.6667,27.0833,6.25,581.25,6.25,581.25,427.0833,570.8333,437.5,16.6667,437.5,16.6667,16.6667" style="stroke:#ED9D5C;stroke-width:1.0416666666666667;"/><line style="stroke:#ED9D5C;stroke-width:1.0416666666666667;" x1="570.8333" x2="581.25" y1="16.6667" y2="6.25"/><line style="stroke:#ED9D5C;stroke-width:1.0416666666666667;" x1="16.6667" x2="570.8333" y1="16.6667" y2="16.6667"/><line style="stroke:#ED9D5C;stroke-width:1.0416666666666667;" x1="570.8333" x2="570.8333" y1="16.6667" y2="437.5"/><text fill="#343A40" font-family="Lucida Console" font-size="12.5" font-weight="bold" lengthAdjust="spacing" textLength="251.0417" x="169.2708" y="36.6028">Poste Client (Windows/Mac/Linux)</text></g><!--cluster DevBox-Sant? Proxy REST--><g id="cluster_DevBox-Sant&#233; Proxy REST"><path d="M255.2083,185.4167 L458.3333,185.4167 A6.25,6.25 0 0 1 462.5,189.5833 L469.7917,216.6341 L552.0833,216.6341 A4.1667,4.1667 0 0 1 556.25,220.8008 L556.25,408.3333 A4.1667,4.1667 0 0 1 552.0833,412.5 L255.2083,412.5 A4.1667,4.1667 0 0 1 251.0417,408.3333 L251.0417,189.5833 A4.1667,4.1667 0 0 1 255.2083,185.4167 " fill="#278EF5" style="stroke:#ED9D5C;stroke-width:2.0833333333333335;"/><line style="stroke:#ED9D5C;stroke-width:2.0833333333333335;" x1="251.0417" x2="469.7917" y1="216.6341" y2="216.6341"/><text fill="#EF7E00" font-family="Lucida Console" font-size="12.5" font-weight="bold" lengthAdjust="spacing" textLength="194.7917" x="260.4167" y="204.3111">DevBox-Sant&#233; Proxy REST</text></g><!--cluster dmpFacade--><g id="cluster_dmpFacade"><rect fill="#35D9C0" height="133.3333" rx="4.1667" ry="4.1667" style="stroke:#ED9D5C;stroke-width:1.0416666666666667;" width="238.5417" x="284.375" y="245.8333"/><rect fill="#35D9C0" height="10.4167" style="stroke:#ED9D5C;stroke-width:1.0416666666666667;" width="15.625" x="502.0833" y="251.0417"/><rect fill="#35D9C0" height="2.0833" style="stroke:#ED9D5C;stroke-width:1.0416666666666667;" width="4.1667" x="500" y="253.125"/><rect fill="#35D9C0" height="2.0833" style="stroke:#ED9D5C;stroke-width:1.0416666666666667;" width="4.1667" x="500" y="257.2917"/><text fill="#FFFFFF" font-family="Lucida Console" font-size="12.5" font-weight="bold" lengthAdjust="spacing" textLength="141.6667" x="332.8125" y="276.1861">DevBox-sante DMP</text></g><!--entity frontend--><g id="elem_frontend"><rect fill="url(#g1924cn0vpf7fj0)" height="56.2174" rx="4.1667" ry="4.1667" style="stroke:#EF7E00;stroke-width:1.0416666666666667;" width="180.2083" x="33.8542" y="297.9167"/><rect fill="url(#g1924cn0vpf7fj0)" height="10.4167" style="stroke:#EF7E00;stroke-width:1.0416666666666667;" width="15.625" x="193.2292" y="303.125"/><rect fill="url(#g1924cn0vpf7fj0)" height="2.0833" style="stroke:#EF7E00;stroke-width:1.0416666666666667;" width="4.1667" x="191.1458" y="305.2083"/><rect fill="url(#g1924cn0vpf7fj0)" height="2.0833" style="stroke:#EF7E00;stroke-width:1.0416666666666667;" width="4.1667" x="191.1458" y="309.375"/><text fill="#FFFFFF" font-family="Lucida Console" font-size="12.5" lengthAdjust="spacing" textLength="128.125" x="54.6875" y="335.5611">FrontEnd int&#233;grateur</text></g><!--entity cryptolibCPS--><g id="elem_cryptolibCPS"><rect fill="url(#g1924cn0vpf7fj0)" height="56.2174" rx="4.1667" ry="4.1667" style="stroke:#EF7E00;stroke-width:1.0416666666666667;" width="175" x="326.0417" y="55.2083"/><rect fill="url(#g1924cn0vpf7fj0)" height="10.4167" style="stroke:#EF7E00;stroke-width:1.0416666666666667;" width="15.625" x="480.2083" y="60.4167"/><rect fill="url(#g1924cn0vpf7fj0)" height="2.0833" style="stroke:#EF7E00;stroke-width:1.0416666666666667;" width="4.1667" x="478.125" y="62.5"/><rect fill="url(#g1924cn0vpf7fj0)" height="2.0833" style="stroke:#EF7E00;stroke-width:1.0416666666666667;" width="4.1667" x="478.125" y="66.6667"/><text fill="#FFFFFF" font-family="Lucida Console" font-size="12.5" lengthAdjust="spacing" textLength="122.9167" x="346.875" y="92.8528">Cryptolib CPS (ANS)</text></g><!--entity cps--><g id="elem_cps"><rect fill="#D34A3C" height="56.2174" rx="4.1667" ry="4.1667" style="stroke:#EF7E00;stroke-width:1.0416666666666667;" width="167.7083" x="329.6875" y="297.9167"/><rect fill="#D34A3C" height="10.4167" style="stroke:#EF7E00;stroke-width:1.0416666666666667;" width="15.625" x="476.5625" y="303.125"/><rect fill="#D34A3C" height="2.0833" style="stroke:#EF7E00;stroke-width:1.0416666666666667;" width="4.1667" x="474.4792" y="305.2083"/><rect fill="#D34A3C" height="2.0833" style="stroke:#EF7E00;stroke-width:1.0416666666666667;" width="4.1667" x="474.4792" y="309.375"/><text fill="#FFFFFF" font-family="Lucida Console" font-size="12.5" lengthAdjust="spacing" textLength="115.625" x="350.5208" y="335.5611">DevBox-sante CPS</text></g><!--entity backend--><g id="elem_backend"><rect fill="url(#g1924cn0vpf7fj0)" height="56.2174" rx="4.1667" ry="4.1667" style="stroke:#EF7E00;stroke-width:1.0416666666666667;" width="178.125" x="34.8958" y="511.4583"/><rect fill="url(#g1924cn0vpf7fj0)" height="10.4167" style="stroke:#EF7E00;stroke-width:1.0416666666666667;" width="15.625" x="192.1875" y="516.6667"/><rect fill="url(#g1924cn0vpf7fj0)" height="2.0833" style="stroke:#EF7E00;stroke-width:1.0416666666666667;" width="4.1667" x="190.1042" y="518.75"/><rect fill="url(#g1924cn0vpf7fj0)" height="2.0833" style="stroke:#EF7E00;stroke-width:1.0416666666666667;" width="4.1667" x="190.1042" y="522.9167"/><text fill="#FFFFFF" font-family="Lucida Console" font-size="12.5" lengthAdjust="spacing" textLength="126.0417" x="55.7292" y="549.1028">BackEnd int&#233;grateur</text></g><!--entity DMP--><g id="elem_DMP"><path d="M264.7812,521.239 C266.7366,512.2733 273.6696,510.4114 279.673,517.4792 C282.7047,509.3777 287.1826,507.3035 294.0434,513.6782 C299.3182,508.1603 306.9051,509.6595 309.1785,517.166 C314.6788,512.3199 319.6262,513.0262 321.3672,520.7976 C332.6652,525.2127 335.1184,532.8142 325.7381,541.5786 C333.6292,549.4807 331.4657,555.7993 322.333,560.664 C319.2227,567.5857 314.9427,570.7529 308.2799,564.4347 C305.2952,572.6145 298.921,572.8819 293.4705,567.0388 C287.4663,571.1743 282.819,570.8728 280.2386,563.2018 C274.8822,568.5902 269.6334,567.8342 266.0243,561.1453 C253.8588,555.6716 253.1303,549.0434 263.06,540.4108 C255.3931,534.0641 256.5758,526.1607 264.7812,521.239 " fill="#FFFFFF" style="stroke:#F2FCFE;stroke-width:3.125;"/><text fill="#EF7E00" font-family="Lucida Console" font-size="12.5" font-weight="bold" lengthAdjust="spacing" textLength="32.2917" x="276.5625" y="543.8944">DMP</text></g><!--link frontend to dmpFacade--><g id="link_frontend_dmpFacade"><path d="M214.2615,326.0417 C233.0688,326.0417 251.481,326.0417 265.7361,326.0417 C272.8636,326.0417 278.9519,326.0417 283.5306,326.0417 C283.8167,326.0417 284.097,326.0417 284.3713,326.0417 " fill="none" id="frontend-to-dmpFacade" style="stroke:#EF7E00;stroke-width:3.125;"/><polygon fill="#EF7E00" points="284.3713,326.0417,274.9963,321.875,279.1629,326.0417,274.9963,330.2083,284.3713,326.0417" style="stroke:#EF7E00;stroke-width:3.125;"/><text fill="#343A40" font-family="Lucida Console" font-size="12.5" lengthAdjust="spacing" textLength="30.2083" x="238.0938" y="314.7278">REST</text></g><!--link cryptolibCPS to cps--><g id="link_cryptolibCPS_cps"><path d="M413.5417,116.8458 C413.5417,162.7313 413.5417,246.0813 413.5417,292.1646 " fill="none" id="cryptolibCPS-cps" style="stroke:#EF7E00;stroke-width:3.125;"/><polygon fill="#EF7E00" points="413.5417,111.5104,409.375,120.8854,413.5417,116.7188,417.7083,120.8854,413.5417,111.5104" style="stroke:#EF7E00;stroke-width:3.125;"/><polygon fill="#EF7E00" points="413.5417,297.5948,417.7083,288.2198,413.5417,292.3865,409.375,288.2198,413.5417,297.5948" style="stroke:#EF7E00;stroke-width:3.125;"/><text fill="#343A40" font-family="Lucida Console" font-size="12.5" lengthAdjust="spacing" textLength="65.625" x="419.7917" y="160.5611">appel natif</text></g><!--link dmpFacade to DMP--><g id="link_dmpFacade_DMP"><path d="M292.7083,379.849 C292.7083,380.9172 292.7083,381.9951 292.7083,383.0821 C292.7083,387.4301 292.7083,391.9234 292.7083,396.5209 C292.7083,433.301 292.7083,476.7494 292.7083,505.8154 " fill="none" id="dmpFacade-to-DMP" style="stroke:#EF7E00;stroke-width:3.125;"/><polygon fill="#EF7E00" points="292.7083,511.2558,296.875,501.8808,292.7083,506.0475,288.5417,501.8808,292.7083,511.2558" style="stroke:#EF7E00;stroke-width:3.125;"/><text fill="#343A40" font-family="Lucida Console" font-size="12.5" lengthAdjust="spacing" textLength="33.3333" x="298.9583" y="472.0194">SOAP</text></g><!--link frontend to backend--><g id="link_frontend_backend"><path d="M123.9583,354.2948 C123.9583,393.1531 123.9583,464.4271 123.9583,506.0177 " fill="none" id="frontend-to-backend" style="stroke:#EF7E00;stroke-width:3.125;"/><polygon fill="#EF7E00" points="123.9583,511.4345,128.125,502.0595,123.9583,506.2261,119.7917,502.0595,123.9583,511.4345" style="stroke:#EF7E00;stroke-width:3.125;"/></g><!--SRC=[RP7VQi8m5CRlynHdzKQ5ce7RnMGCjDKhdSMERI1Zf6dKO4r2clg7uGFjEVPYEwr_1yj54_9ztpc_dDv8nRCY5R1mpkGTIXFfae8lXMjfEwUfM2Tww-TCEK5DXbknogXb6yeBQuLor2t4IkI7pR-sjmnQ2L4QYtkHpfs089COWVgRLAdUv7J4E1rALMmR7dmHm3KTMArSNwKWbVlvdblcH64_WEKmAnMXKb8P3UDBDiVAeLZti6NCIZz4LcztCEd7Bnv0s7_jZTy_W_5mF3dMBnVNAwDL2N8ALxmGZYAlR9Ikp81nXjYrzdtu4DnUPIl6FwaWYYiyRdAeXUsxRZiWP_kUNBxJmEwCqvbCoWpKkyznuv0ytUCrsPDf3v_sxmGI5Ce1y4mNANZD9X8tcnKpdWWvJGXyA-SBvpzTFQLJ3OMKb8z-OL2xReioCqPae9YJCtA9-VYV59gnFdhYSJUwT3cBHwvV]--></g></svg>